<svg width="305" height="187" viewBox="0 0 305 187" fill="none" xmlns="http://www.w3.org/2000/svg">
<path d="M69.75 0.74999C91.25 0.74999 108.208 8.79166 120.625 24.875C133.042 40.875 139.25 63.9167 139.25 94C139.25 123.917 133.125 146.875 120.875 162.875C108.625 178.792 91.5833 186.75 69.75 186.75C47.8333 186.75 30.7083 178.792 18.375 162.875C6.125 146.958 8.71718e-07 124.042 8.71718e-07 94.125C8.71718e-07 74.125 2.83333 57.1667 8.5 43.25C14.1667 29.3333 22.2083 18.7917 32.625 11.625C43.0417 4.37499 55.4167 0.74999 69.75 0.74999ZM69.75 156.875C80.5 156.875 88.375 152.083 93.375 142.5C98.375 132.833 100.875 116.708 100.875 94.125C100.875 71.0417 98.3333 54.5 93.25 44.5C88.1667 34.5 80.2917 29.5 69.625 29.5C58.9583 29.5 51 34.5417 45.75 44.625C40.5833 54.7083 38 71.2083 38 94.125C38 116.625 40.5833 132.708 45.75 142.375C50.9167 152.042 58.9167 156.875 69.75 156.875ZM161.525 58.875C161.525 45.875 164.567 35.0833 170.65 26.5C176.817 17.9167 185.109 11.5 195.525 7.25C205.942 2.91666 217.525 0.74999 230.275 0.74999C243.775 0.74999 255.775 2.49999 266.275 6C276.859 9.49999 285.192 14.8333 291.275 22C297.359 29.1667 300.4 38.25 300.4 49.25C300.4 58.1667 297.817 66.0417 292.65 72.875C287.484 79.625 279.067 85 267.4 89C274.067 90.8333 280.234 93.625 285.9 97.375C291.567 101.125 296.109 105.917 299.525 111.75C302.942 117.583 304.65 124.583 304.65 132.75C304.65 141.583 302.692 149.375 298.775 156.125C294.859 162.875 289.442 168.542 282.525 173.125C275.609 177.708 267.609 181.125 258.525 183.375C249.442 185.625 239.734 186.75 229.4 186.75C214.9 186.667 202.525 184.292 192.275 179.625C182.109 174.875 174.275 168.125 168.775 159.375C163.359 150.625 160.567 140.208 160.4 128.125H195.525C197.275 138.375 201.275 145.792 207.525 150.375C213.775 154.958 221.192 157.25 229.775 157.25C237.275 157.25 243.692 156.167 249.025 154C254.442 151.833 258.567 148.833 261.4 145C264.317 141.083 265.775 136.625 265.775 131.625C265.775 126.458 264.275 122 261.275 118.25C258.359 114.5 254.275 111.583 249.025 109.5C243.775 107.333 237.775 106.167 231.025 106L213.775 105.375V76.375L229.275 75.5C235.775 75.25 241.442 74.0417 246.275 71.875C251.109 69.7083 254.859 66.8333 257.525 63.25C260.275 59.5833 261.65 55.4583 261.65 50.875C261.65 46.4583 260.275 42.625 257.525 39.375C254.775 36.125 250.984 33.5833 246.15 31.75C241.317 29.9167 235.775 29 229.525 29C223.775 29 218.484 29.9583 213.65 31.875C208.817 33.7917 204.859 36.9583 201.775 41.375C198.692 45.7083 196.9 51.5417 196.4 58.875H161.525Z" fill="white" fill-opacity="0.05"/>
</svg>
