<svg width="48" height="44" viewBox="0 0 48 44" fill="none" xmlns="http://www.w3.org/2000/svg">
<path d="M47.2289 13.4876L40.5344 9.61182V0.74375C40.5344 0.333021 40.2013 0 39.7906 0H33.8406C33.4298 0 33.0969 0.333021 33.0969 0.74375V5.38847L24.1791 0.103917C23.9474 -0.0334089 23.6595 -0.0346736 23.4265 0.1006L0.370283 13.4881C0.141045 13.6212 0 13.8662 0 14.1312V17.85C0 18.2608 0.332977 18.5937 0.74375 18.5937H4.09062V43.1375C4.09062 43.5483 4.4236 43.8812 4.83437 43.8812H42.7656C43.1763 43.8812 43.5093 43.5483 43.5093 43.1375V18.5937H46.8562C47.267 18.5937 47.6 18.2608 47.6 17.85V14.1312C47.6 13.8659 47.4586 13.6206 47.2289 13.4876ZM46.1125 17.1062H42.7656C42.3548 17.1062 42.0219 17.4393 42.0219 17.85V42.3937H5.57812V17.85C5.57812 17.4393 5.2451 17.1062 4.83437 17.1062H1.4875V14.5594L23.7961 1.60602L33.4614 7.33358C33.6913 7.4698 33.9766 7.47226 34.2088 7.33998C34.441 7.20765 34.5843 6.96098 34.5843 6.69373V1.4875H39.0469V10.0406C39.0469 10.306 39.1883 10.5513 39.418 10.6843L46.1125 14.56V17.1062Z" fill="#22A901"/>
<path d="M32.725 24.9158H14.875C13.2346 24.9158 11.9 26.2504 11.9 27.8908V36.072C11.9 37.7124 13.2346 39.047 14.875 39.047H32.725C34.3654 39.047 35.7 37.7124 35.7 36.072V27.8908C35.7 26.2504 34.3654 24.9158 32.725 24.9158ZM34.2125 36.072C34.2125 36.8923 33.5452 37.5595 32.725 37.5595H14.875C14.0548 37.5595 13.3875 36.8923 13.3875 36.072V27.8908C13.3875 27.0706 14.0548 26.4033 14.875 26.4033H32.725C33.5452 26.4033 34.2125 27.0706 34.2125 27.8908V36.072Z" fill="#22A901"/>
<path d="M18.2219 27.8906C17.8111 27.8906 17.4781 28.2236 17.4781 28.6344V35.3281C17.4781 35.7389 17.8111 36.0719 18.2219 36.0719C18.6326 36.0719 18.9656 35.7389 18.9656 35.3281V28.6344C18.9656 28.2236 18.6326 27.8906 18.2219 27.8906Z" fill="#22A901"/>
<path d="M23.8 27.8906C23.3893 27.8906 23.0563 28.2236 23.0563 28.6344V35.3281C23.0563 35.7389 23.3893 36.0719 23.8 36.0719C24.2108 36.0719 24.5438 35.7389 24.5438 35.3281V28.6344C24.5438 28.2236 24.2108 27.8906 23.8 27.8906Z" fill="#22A901"/>
<path d="M29.3781 27.8906C28.9674 27.8906 28.6344 28.2236 28.6344 28.6344V35.3281C28.6344 35.7389 28.9674 36.0719 29.3781 36.0719C29.7889 36.0719 30.1219 35.7389 30.1219 35.3281V28.6344C30.1219 28.2236 29.7889 27.8906 29.3781 27.8906Z" fill="#22A901"/>
<path d="M17.0623 21.9408C17.0623 22.3515 17.3952 22.6845 17.806 22.6845C18.2168 22.6845 18.5498 22.3515 18.5498 21.9408C18.5498 21.3528 18.6871 21.0968 18.8771 20.7426C19.1018 20.3239 19.3813 19.8029 19.3813 18.8411C19.3813 17.8793 19.1018 17.3582 18.8771 16.9396C18.6871 16.5854 18.5498 16.3294 18.5498 15.7415C18.5498 15.1541 18.687 14.8984 18.8771 14.5445C19.1017 14.1261 19.3813 13.6054 19.3813 12.6439C19.3813 12.2332 19.0483 11.9001 18.6375 11.9001C18.2268 11.9001 17.8938 12.2332 17.8938 12.6439C17.8938 13.2313 17.7565 13.487 17.5665 13.8409C17.3418 14.2593 17.0623 14.78 17.0623 15.7415C17.0623 16.7033 17.3418 17.2242 17.5664 17.6429C17.7564 17.9971 17.8938 18.2531 17.8938 18.8411C17.8938 19.4291 17.7564 19.6851 17.5664 20.0393C17.3418 20.4579 17.0623 20.9789 17.0623 21.9408Z" fill="#22A901"/>
<path d="M22.6404 21.9408C22.6404 22.3515 22.9734 22.6845 23.3841 22.6845C23.7949 22.6845 24.1279 22.3515 24.1279 21.9408C24.1279 21.3528 24.2652 21.0968 24.4553 20.7426C24.6799 20.3239 24.9594 19.8029 24.9594 18.8411C24.9594 17.8793 24.6799 17.3582 24.4553 16.9396C24.2652 16.5854 24.1279 16.3294 24.1279 15.7415C24.1279 15.1541 24.2652 14.8984 24.4552 14.5445C24.6798 14.1261 24.9594 13.6054 24.9594 12.6439C24.9594 12.2332 24.6264 11.9001 24.2156 11.9001C23.8049 11.9001 23.4719 12.2332 23.4719 12.6439C23.4719 13.2313 23.3346 13.487 23.1446 13.8409C22.92 14.2593 22.6404 14.78 22.6404 15.7415C22.6404 16.7033 22.9199 17.2242 23.1445 17.6429C23.3346 17.9971 23.4719 18.2531 23.4719 18.8411C23.4719 19.4291 23.3346 19.6851 23.1445 20.0393C22.9199 20.4579 22.6404 20.9789 22.6404 21.9408Z" fill="#22A901"/>
<path d="M28.2186 21.9408C28.2186 22.3515 28.5516 22.6845 28.9624 22.6845C29.3732 22.6845 29.7061 22.3515 29.7061 21.9408C29.7061 21.3528 29.8435 21.0968 30.0335 20.7426C30.2581 20.3239 30.5376 19.8029 30.5376 18.8411C30.5376 17.8793 30.2581 17.3582 30.0335 16.9396C29.8434 16.5854 29.7061 16.3294 29.7061 15.7415C29.7061 15.1541 29.8434 14.8984 30.0334 14.5445C30.258 14.1261 30.5376 13.6054 30.5376 12.6439C30.5376 12.2332 30.2046 11.9001 29.7939 11.9001C29.3831 11.9001 29.0501 12.2332 29.0501 12.6439C29.0501 13.2313 28.9128 13.487 28.7229 13.8409C28.4982 14.2593 28.2186 14.78 28.2186 15.7415C28.2186 16.7033 28.4982 17.2242 28.7227 17.6429C28.9128 17.9971 29.0501 18.2531 29.0501 18.8411C29.0501 19.4291 28.9128 19.6851 28.7227 20.0393C28.4982 20.4579 28.2186 20.9789 28.2186 21.9408Z" fill="#22A901"/>
</svg>
