<svg width="48" height="48" viewBox="0 0 48 48" fill="none" xmlns="http://www.w3.org/2000/svg">
<path d="M41.0323 10.0645C41.0323 9.85915 40.9507 9.66223 40.8055 9.51704C40.6603 9.37185 40.4634 9.29028 40.2581 9.29028H35.6129C35.4076 9.29028 35.2107 9.37185 35.0655 9.51704C34.9203 9.66223 34.8387 9.85915 34.8387 10.0645V27.8709H31.7419V19.3548C31.7419 19.1495 31.6604 18.9525 31.5152 18.8074C31.37 18.6622 31.1731 18.5806 30.9677 18.5806H26.3226C26.1173 18.5806 25.9203 18.6622 25.7751 18.8074C25.63 18.9525 25.5484 19.1495 25.5484 19.3548V27.8709H22.4516V13.1613C22.4516 12.9559 22.37 12.759 22.2249 12.6138C22.0797 12.4686 21.8827 12.3871 21.6774 12.3871H17.0323C16.8269 12.3871 16.63 12.4686 16.4848 12.6138C16.3396 12.759 16.2581 12.9559 16.2581 13.1613V27.8709H13.1613V17.0322C13.1613 16.8269 13.0797 16.63 12.9345 16.4848C12.7893 16.3396 12.5924 16.258 12.3871 16.258H7.74194C7.53661 16.258 7.33969 16.3396 7.1945 16.4848C7.04931 16.63 6.96774 16.8269 6.96774 17.0322V27.8709H0V29.4193H4.64516V32.5161C4.64516 32.7214 4.72673 32.9183 4.87192 33.0635C5.01711 33.2087 5.21403 33.2903 5.41935 33.2903H7.6289C7.98854 34.5604 8.49574 35.7839 9.14013 36.936L7.57703 38.4991C7.43189 38.6442 7.35036 38.8411 7.35036 39.0464C7.35036 39.2517 7.43189 39.4486 7.57703 39.5938L13.0514 45.0681C13.1965 45.2132 13.3934 45.2948 13.5987 45.2948C13.804 45.2948 14.0009 45.2132 14.1461 45.0681L15.7092 43.505C16.8611 44.1496 18.0847 44.6568 19.3548 45.0162V47.2258C19.3548 47.4311 19.4364 47.628 19.5816 47.7732C19.7268 47.9184 19.9237 48 20.129 48H27.871C28.0763 48 28.2732 47.9184 28.4184 47.7732C28.5636 47.628 28.6452 47.4311 28.6452 47.2258V45.0162C29.9153 44.6568 31.1389 44.1496 32.2908 43.505L33.8539 45.0681C33.9991 45.2132 34.196 45.2948 34.4013 45.2948C34.6066 45.2948 34.8035 45.2132 34.9486 45.0681L40.423 39.5938C40.5681 39.4486 40.6496 39.2517 40.6496 39.0464C40.6496 38.8411 40.5681 38.6442 40.423 38.4991L38.8599 36.936C39.5043 35.7839 40.0115 34.5604 40.3711 33.2903H42.5806C42.786 33.2903 42.9829 33.2087 43.1281 33.0635C43.2733 32.9183 43.3548 32.7214 43.3548 32.5161V29.4193H48V27.8709H41.0323V10.0645ZM36.3871 10.8387H39.4839V27.8709H36.3871V10.8387ZM34.025 29.4193C33.8338 31.9474 32.6945 34.3099 30.8354 36.0337C28.9763 37.7575 26.5345 38.7153 23.9992 38.7153C21.4639 38.7153 19.0222 37.7575 17.1631 36.0337C15.3039 34.3099 14.1647 31.9474 13.9734 29.4193H34.025ZM27.0968 20.129H30.1935V27.8709H27.0968V20.129ZM17.8065 13.9354H20.9032V27.8709H17.8065V13.9354ZM8.51613 17.8064H11.6129V27.8709H8.51613V17.8064ZM41.8064 31.7419H39.775C39.6016 31.742 39.4333 31.8002 39.297 31.9073C39.1607 32.0145 39.0643 32.1642 39.0232 32.3326C38.6497 33.8584 38.0445 35.318 37.2286 36.6603C37.1389 36.8085 37.1014 36.9824 37.1222 37.1543C37.143 37.3262 37.2208 37.4862 37.3432 37.6087L38.7809 39.0464L34.4013 43.426L32.9636 41.9883C32.841 41.8659 32.6808 41.7881 32.5087 41.7674C32.3366 41.7468 32.1626 41.7845 32.0145 41.8745C30.6723 42.6905 29.2127 43.2952 27.6867 43.6676C27.5183 43.7088 27.3686 43.8054 27.2617 43.9419C27.1547 44.0783 27.0966 44.2467 27.0968 44.4201V46.4516H20.9032V44.4201C20.9034 44.2467 20.8453 44.0783 20.7383 43.9419C20.6314 43.8054 20.4817 43.7088 20.3133 43.6676C18.7873 43.2952 17.3277 42.6905 15.9855 41.8745C15.8374 41.7845 15.6634 41.7468 15.4913 41.7674C15.3192 41.7881 15.159 41.8659 15.0364 41.9883L13.5987 43.426L9.2191 39.0464L10.6568 37.6087C10.7792 37.4862 10.857 37.3262 10.8778 37.1543C10.8985 36.9824 10.8611 36.8085 10.7714 36.6603C9.9555 35.318 9.35028 33.8584 8.97677 32.3326C8.93569 32.1642 8.83928 32.0145 8.70298 31.9073C8.56668 31.8002 8.39838 31.742 8.22503 31.7419H6.19355V29.4193H12.4266C12.6161 32.3602 13.9179 35.1186 16.0677 37.1343C18.2174 39.15 21.0538 40.2718 24.0008 40.2718C26.9477 40.2718 29.7841 39.15 31.9339 37.1343C34.0836 35.1186 35.3855 32.3602 35.575 29.4193H41.8064V31.7419Z" fill="#22A901"/>
<path d="M39.4838 6.19355V0.774194C39.4838 0.568865 39.4023 0.371945 39.2571 0.226756C39.1119 0.0815665 38.915 0 38.7096 0H33.2903V1.54839H36.9344L28.5522 10.5755L19.8193 4.02581C19.6791 3.92055 19.5074 3.86599 19.3321 3.87105C19.1569 3.87611 18.9886 3.9405 18.8547 4.05368L8.79016 12.5698L9.79042 13.7528L19.3842 5.63458L28.1806 12.2323C28.3336 12.3471 28.5237 12.4013 28.7143 12.3843C28.9049 12.3673 29.0824 12.2803 29.2126 12.1401L37.9355 2.74606V6.19355H39.4838Z" fill="#22A901"/>
</svg>
