<svg width="249" height="195" viewBox="0 0 249 195" fill="none" xmlns="http://www.w3.org/2000/svg">
<g opacity="0.2">
<path d="M55.794 47.5633C52.6883 46.1026 47.5519 48.4776 45.9137 51.9529C42.7872 58.5866 52.899 68.194 56.5758 67.1629C60.6851 66.0105 61.4961 50.245 55.7935 47.5633H55.794Z" stroke="#0F31AC" stroke-width="2" stroke-miterlimit="10" stroke-linecap="round" stroke-dasharray="4 4"/>
<path d="M40.2591 62.5899C39.1505 61.9486 27.4095 55.157 20.7646 60.5322C16.0987 64.3062 16.0543 72.3743 19.5605 76.9082C26.5048 85.8883 48.038 81.8621 50.2721 75.4362C51.7766 71.109 44.7127 65.166 40.2591 62.5899Z" stroke="#0F31AC" stroke-width="2" stroke-miterlimit="10" stroke-linecap="round" stroke-dasharray="4 4"/>
<path d="M55.3666 173.48C83.9464 166.386 116.42 159.165 166.846 160.395C195.047 161.083 201.438 152.331 222.811 141.45C241.861 131.752 251.218 112.467 245.471 101.538C239.67 90.504 221.999 94.8969 207.528 78.4721C200.937 70.9915 202.097 65.7483 198.292 57.4527C186.243 31.1857 141.082 10.655 118.813 21.5204C89.3917 35.8746 114.544 97.897 81.6567 114.84C60.8541 125.557 45.1308 104.983 24.5905 120.689C14.413 128.471 1.96547 139.388 1.00287 151.24C1.00287 151.24 -0.344993 180.219 55.3666 173.48Z" stroke="#0F31AC" stroke-width="2" stroke-miterlimit="10" stroke-linecap="round" stroke-dasharray="4 4"/>
<path d="M213.267 141.205C213.267 141.205 208.09 148.069 202.912 157.487C198.244 165.98 194.694 177.423 193.91 186.977C191.711 186.873 189.296 186.775 186.685 186.683C171.222 186.134 148.898 185.79 124.075 185.79C95.8557 185.79 70.8658 186.235 55.5142 186.919C54.9857 186.943 54.4685 186.966 53.963 186.991C34.797 163.235 -3.79734 121.848 31.7199 104.823C31.7199 104.823 34.3219 104.03 38.2228 102.328C50.5692 96.9394 75.9405 82.4392 73.1184 55.0995C73.1184 55.0995 72.1569 49.9978 72.1569 42.8991C72.1569 26.3001 77.4119 -1.21423 112.495 0.0415306C133.74 0.803073 153.306 11.6141 165.135 28.9184C176.738 45.8907 195.29 66.7731 210.398 54.8512C213.886 52.0982 218.497 51.0783 222.802 52.2886C233.677 55.3432 246.032 71.1564 213.267 141.205Z" fill="#F4F4F4"/>
</g>
<path opacity="0.15" d="M241.478 187.901C241.478 189.024 188.915 189.935 124.075 189.935C87.4903 189.935 54.8136 189.645 33.282 189.19C28.3225 189.085 23.9554 188.972 20.2673 188.852C17.8384 188.772 15.7042 188.689 13.8897 188.604C9.22158 188.385 6.67188 188.148 6.67188 187.901C6.67188 187.586 10.8098 187.287 18.1955 187.021C21.2204 186.912 24.7888 186.808 28.8414 186.712C50.1651 186.2 84.8765 185.867 124.075 185.867C158.554 185.867 189.562 186.124 211.041 186.535C229.953 186.896 241.478 187.376 241.478 187.901L241.478 187.901Z" fill="#040C2B"/>
<path d="M166.165 35.5062H154.945C153.699 35.5062 152.689 34.4959 152.689 33.2502V23.4591C152.689 22.2129 153.7 21.2031 154.945 21.2031H166.165C167.411 21.2031 168.421 22.2135 168.421 23.4591V33.2502C168.421 34.4964 167.41 35.5062 166.165 35.5062Z" fill="#DEE4FC"/>
<path d="M160.174 32.8395V31.7359C159.525 31.7252 158.854 31.5281 158.463 31.2552L158.731 30.5228C159.134 30.7851 159.716 30.9929 160.342 30.9929C161.136 30.9929 161.673 30.5447 161.673 29.9219C161.673 29.2991 161.237 28.9492 160.409 28.6212C159.268 28.1843 158.563 27.6811 158.563 26.7303C158.563 25.7795 159.223 25.1347 160.253 24.9707V23.8672H160.946V24.9275C161.617 24.9494 162.076 25.1241 162.4 25.31L162.121 26.0311C161.886 25.8997 161.427 25.6593 160.711 25.6593C159.85 25.6593 159.525 26.1619 159.525 26.5994C159.525 27.1678 159.939 27.4519 160.913 27.8451C162.064 28.3039 162.646 28.8722 162.646 29.845C162.646 30.7082 162.031 31.5169 160.879 31.7028V32.8395H160.174Z" fill="white"/>
<path d="M236.566 86.082H225.346C224.1 86.082 223.09 87.0921 223.09 88.338V98.1297C223.09 99.3756 224.1 100.386 225.346 100.386H236.566C237.812 100.386 238.822 99.3756 238.822 98.1297V88.338C238.822 87.0921 237.812 86.082 236.566 86.082Z" fill="#DEE4FC"/>
<path d="M228.73 93.7617H225.617V97.178H228.73V93.7617Z" fill="white"/>
<path d="M232.5 91.8672H229.388V97.1766H232.5V91.8672Z" fill="white"/>
<path d="M236.294 89.293H233.182V97.1763H236.294V89.293Z" fill="white"/>
<path d="M24.053 119.16H12.8331C11.5872 119.16 10.5771 120.17 10.5771 121.416V131.208C10.5771 132.454 11.5872 133.464 12.8331 133.464H24.053C25.2989 133.464 26.3089 132.454 26.3089 131.208V121.416C26.3089 120.17 25.2989 119.16 24.053 119.16Z" fill="#DEE4FC"/>
<path d="M17.874 126.618L21.8946 122.598C22.4068 123.123 22.8111 123.731 23.0964 124.406C23.3935 125.108 23.5485 125.852 23.5575 126.618H17.874Z" fill="#EEF2FA"/>
<path d="M17.7686 121.574C18.4324 121.584 19.0765 121.719 19.6848 121.976C20.2716 122.224 20.8012 122.576 21.259 123.021L17.7686 126.511V121.574Z" fill="#D6DAE1"/>
<path d="M17.693 131.053C16.5271 131.053 15.4308 130.6 14.6063 129.775C13.7819 128.951 13.3281 127.854 13.3281 126.688C13.3281 125.523 13.7819 124.426 14.6063 123.602C15.4128 122.795 16.4799 122.343 17.6177 122.324V126.767H22.0567C22.0364 127.904 21.5843 128.97 20.7779 129.776C19.9534 130.6 18.8577 131.053 17.6924 131.053H17.693Z" fill="white"/>
<path d="M72.5764 71.8711H61.3566C60.1106 71.8711 59.1006 72.8811 59.1006 74.1271V83.9187C59.1006 85.1647 60.1106 86.1747 61.3566 86.1747H72.5764C73.8223 86.1747 74.8324 85.1647 74.8324 83.9187V74.1271C74.8324 72.8811 73.8223 71.8711 72.5764 71.8711Z" fill="#DEE4FC"/>
<path d="M71.7318 75.1859C72.6371 76.2844 72.4799 77.9091 71.3814 78.8145C70.5856 79.4704 69.5134 79.5687 68.639 79.1554L65.9427 81.3765C65.8619 81.4434 65.7462 81.4366 65.6844 81.3619L65.5519 81.2007C65.4979 81.1356 65.3974 81.13 65.3267 81.1878L64.9841 81.4697C64.9133 81.5282 64.8998 81.6281 64.9537 81.6933L65.1486 81.9297C65.1756 81.9628 65.1688 82.0134 65.1335 82.0426L65.0009 82.1515C64.965 82.1807 64.9144 82.1779 64.8869 82.1448L64.806 82.0465C64.7521 81.9814 64.6516 81.9752 64.5808 82.0336L64.2383 82.3155C64.1675 82.3739 64.154 82.4739 64.2079 82.5391L64.291 82.6401C64.3169 82.6716 64.3107 82.7205 64.2764 82.7485L64.1388 82.862C64.1046 82.8901 64.0557 82.8873 64.0293 82.8558L63.8322 82.6166C63.7783 82.5514 63.6778 82.5458 63.607 82.6036L63.2644 82.8856C63.1937 82.944 63.1802 83.0439 63.2341 83.1091L63.3672 83.2703C63.4284 83.345 63.4132 83.4595 63.3324 83.5258C62.8752 83.9026 62.2142 83.8953 61.8509 83.4859C61.4712 83.0574 61.5549 82.3796 62.0294 81.9892L67.3001 77.6474C66.9688 76.6635 67.2552 75.5341 68.1044 74.8343C69.2029 73.929 70.8276 74.0863 71.7329 75.1848L71.7318 75.1859ZM69.9942 76.6174C70.2559 76.9348 70.7254 76.9802 71.0427 76.7185C71.36 76.4568 71.4055 75.9873 71.1438 75.67C70.8821 75.3527 70.4131 75.3072 70.0953 75.5689C69.7774 75.8306 69.7325 76.3001 69.9942 76.6174Z" fill="white"/>
<path d="M89.1329 126.527H46.331C45.7221 126.527 45.2285 127.021 45.2285 127.63V185.853C45.2285 186.462 45.7221 186.955 46.331 186.955H89.1329C89.7417 186.955 90.2353 186.462 90.2353 185.853V127.63C90.2353 127.021 89.7417 126.527 89.1329 126.527Z" fill="#231F20"/>
<path d="M88.1417 128.359L47.0996 128.523L47.325 184.66L88.367 184.496L88.1417 128.359Z" fill="white"/>
<g filter="url(#filter0_d_941_959)">
<path d="M54.6631 144.552L83.1204 144.438" stroke="#19381F" stroke-miterlimit="10" stroke-linecap="round"/>
</g>
<g filter="url(#filter1_d_941_959)">
<path d="M52.3018 146.85L83.1296 146.727" stroke="#19381F" stroke-miterlimit="10" stroke-linecap="round"/>
</g>
<g filter="url(#filter2_d_941_959)">
<path d="M52.3105 149.139L77.5167 149.016" stroke="#19381F" stroke-miterlimit="10" stroke-linecap="round"/>
</g>
<g filter="url(#filter3_d_941_959)">
<path d="M54.6699 152.769L83.148 152.656" stroke="#19381F" stroke-miterlimit="10" stroke-linecap="round"/>
</g>
<g filter="url(#filter4_d_941_959)">
<path d="M52.3291 155.064L83.157 154.941" stroke="#19381F" stroke-miterlimit="10" stroke-linecap="round"/>
</g>
<g filter="url(#filter5_d_941_959)">
<path d="M52.3242 157.199L70.8972 157.07" stroke="#19381F" stroke-miterlimit="10" stroke-linecap="round"/>
</g>
<g filter="url(#filter6_d_941_959)">
<path d="M54.6377 160.833L83.1439 160.711" stroke="#19381F" stroke-miterlimit="10" stroke-linecap="round"/>
</g>
<g filter="url(#filter7_d_941_959)">
<path d="M52.3252 163.124L83.1531 163" stroke="#19381F" stroke-miterlimit="10" stroke-linecap="round"/>
</g>
<g filter="url(#filter8_d_941_959)">
<path d="M52.334 165.413L83.1618 165.289" stroke="#19381F" stroke-miterlimit="10" stroke-linecap="round"/>
</g>
<g filter="url(#filter9_d_941_959)">
<path d="M52.3428 167.7L80.7624 167.586" stroke="#19381F" stroke-miterlimit="10" stroke-linecap="round"/>
</g>
<path d="M52.3096 179.534L64.8054 179.484" stroke="#E3E9F7" stroke-width="15.73" stroke-miterlimit="10" stroke-linecap="round"/>
<path d="M55.033 178.02C54.896 177.9 54.8623 177.703 54.8465 177.522C54.7488 176.402 55.0049 175.253 55.5704 174.281C55.8439 173.81 56.1972 173.372 56.6622 173.088C56.7431 173.038 56.8324 172.992 56.9267 172.996C57.0447 173.001 57.1452 173.08 57.2322 173.159C58.0129 173.866 58.4914 174.897 58.5279 175.949C58.5644 177.002 58.1589 178.063 57.4294 178.823C57.3457 178.91 57.2474 178.999 57.1267 179.008C56.9616 179.02 56.8217 178.875 56.7639 178.72C56.5931 178.264 56.9183 177.778 57.2581 177.429C57.7062 176.966 58.2139 176.563 58.7643 176.23C58.8761 176.349 58.9721 176.484 59.0479 176.629C59.0232 176.385 59.099 176.132 59.254 175.943C59.2788 176.101 59.5231 176.111 59.6421 176.004C59.7612 175.896 59.8123 175.731 59.9212 175.614C60.1419 175.376 60.5216 175.401 60.8383 175.469C61.1556 175.538 61.5038 175.629 61.7897 175.475C61.8565 175.687 62.0464 175.856 62.2648 175.899" stroke="#E3E9F7" stroke-width="6.47" stroke-miterlimit="10" stroke-linecap="round"/>
<path d="M79.1522 171.555C81.3712 171.564 83.1627 173.37 83.1537 175.589C83.1447 177.808 81.3386 179.599 79.1197 179.59C76.9007 179.581 75.1092 177.775 75.1182 175.556C75.1272 173.337 76.9333 171.546 79.1522 171.555ZM79.1219 179.143C81.0937 179.15 82.6982 177.558 82.7061 175.587C82.714 173.616 81.1218 172.011 79.1506 172.003C77.1787 171.995 75.5742 173.587 75.5664 175.558C75.5585 177.53 77.1507 179.135 79.1219 179.143Z" fill="#D6DAE1"/>
<path d="M79.1358 178.533C80.7716 178.533 82.0977 177.207 82.0977 175.571C82.0977 173.935 80.7716 172.609 79.1358 172.609C77.4999 172.609 76.1738 173.935 76.1738 175.571C76.1738 177.207 77.4999 178.533 79.1358 178.533Z" fill="#D6DAE1"/>
<path d="M75.5222 129.963L73.9491 126.988L73.2196 125.609L73.2101 125.591H70.981V124.166C70.981 122.516 69.527 121.18 67.7327 121.18C65.9383 121.18 64.4843 122.516 64.4843 124.166V125.591H62.2553L62.2458 125.609L61.5162 126.988L59.9432 129.963C59.6377 130.541 60.0336 131.251 60.6609 131.251H74.805C75.4324 131.251 75.8277 130.541 75.5228 129.963H75.5222ZM67.7327 122.585C68.5414 122.585 69.1974 123.188 69.1974 123.932C69.1974 124.675 68.5414 125.278 67.7327 125.278C66.924 125.278 66.268 124.675 66.268 123.932C66.268 123.188 66.924 122.585 67.7327 122.585Z" fill="#D6DAE1"/>
<path opacity="0.1" d="M73.9485 126.989H61.5156L62.2452 125.609H73.219L73.9485 126.989Z" fill="black"/>
<path d="M55.8679 139.75L55.0396 137.05H55.0182C55.048 137.599 55.0632 137.965 55.0632 138.149V139.75H54.4111V136.309H55.4041L56.2184 138.94H56.2324L57.0962 136.309H58.0891V139.75H57.409V138.121C57.409 138.044 57.4101 137.955 57.4124 137.855C57.4146 137.754 57.4253 137.487 57.4444 137.054H57.423L56.5357 139.749H55.8674L55.8679 139.75Z" fill="#231F20"/>
<path d="M62.079 138.024C62.079 138.594 61.9381 139.032 61.6556 139.337C61.3731 139.643 60.9682 139.796 60.4414 139.796C59.9146 139.796 59.5091 139.643 59.2272 139.337C58.9452 139.031 58.8037 138.592 58.8037 138.019C58.8037 137.446 58.9452 137.009 59.2283 136.707C59.5113 136.405 59.9174 136.254 60.4464 136.254C60.9755 136.254 61.3798 136.406 61.6595 136.711C61.9397 137.015 62.0796 137.452 62.0796 138.024L62.079 138.024ZM59.5681 138.024C59.5681 138.408 59.6411 138.698 59.7871 138.892C59.9331 139.087 60.151 139.184 60.4414 139.184C61.0238 139.184 61.3147 138.797 61.3147 138.024C61.3147 137.251 61.0254 136.862 60.4464 136.862C60.1561 136.862 59.937 136.959 59.7899 137.155C59.6422 137.35 59.5686 137.64 59.5686 138.025L59.5681 138.024Z" fill="#231F20"/>
<path d="M63.5215 138.429V139.75H62.792V136.309H63.7945C64.2623 136.309 64.6082 136.394 64.8323 136.564C65.057 136.734 65.1687 136.993 65.1687 137.34C65.1687 137.542 65.1131 137.722 65.0014 137.88C64.8902 138.038 64.7324 138.161 64.5285 138.251C65.0463 139.024 65.3838 139.524 65.5405 139.75H64.7307L63.909 138.429H63.521H63.5215ZM63.5215 137.836H63.7568C63.9877 137.836 64.1578 137.798 64.2673 137.721C64.3774 137.644 64.4319 137.523 64.4319 137.359C64.4319 137.194 64.3757 137.08 64.2634 137.011C64.1511 136.942 63.9776 136.907 63.7422 136.907H63.521V137.837L63.5215 137.836Z" fill="#231F20"/>
<path d="M67.3017 139.75H66.5722V136.916H65.6377V136.309H68.2363V136.916H67.3017V139.75Z" fill="#231F20"/>
<path d="M70.0714 137.816H71.4366V139.601C71.2154 139.673 71.007 139.724 70.8116 139.752C70.6161 139.781 70.4168 139.795 70.2123 139.795C69.6928 139.795 69.2963 139.643 69.0228 139.338C68.7488 139.033 68.6123 138.594 68.6123 138.023C68.6123 137.452 68.7712 137.035 69.0891 136.724C69.407 136.413 69.8473 136.258 70.4106 136.258C70.7638 136.258 71.1042 136.329 71.4321 136.47L71.1895 137.053C70.9385 136.927 70.6773 136.865 70.4055 136.865C70.0899 136.865 69.8377 136.971 69.6479 137.183C69.4581 137.395 69.3632 137.679 69.3632 138.037C69.3632 138.395 69.4396 138.696 69.5929 138.892C69.7456 139.089 69.968 139.188 70.2601 139.188C70.4123 139.188 70.5667 139.172 70.724 139.141V138.423H70.0719V137.816L70.0714 137.816Z" fill="#231F20"/>
<path d="M74.3619 139.748L74.1125 138.929H72.8579L72.6085 139.748H71.8223L73.0365 136.293H73.9283L75.1476 139.748H74.3613H74.3619ZM73.9384 138.317C73.7076 137.575 73.5779 137.155 73.5487 137.058C73.5194 136.961 73.4987 136.884 73.4863 136.827C73.4346 137.028 73.2864 137.525 73.0415 138.317H73.9384Z" fill="#231F20"/>
<path d="M76.8878 137.816H78.253V139.601C78.0318 139.673 77.8234 139.724 77.628 139.752C77.4325 139.781 77.2332 139.795 77.0287 139.795C76.5092 139.795 76.1127 139.643 75.8392 139.338C75.5652 139.033 75.4287 138.594 75.4287 138.023C75.4287 137.452 75.5876 137.035 75.9055 136.724C76.2234 136.413 76.6637 136.258 77.227 136.258C77.5802 136.258 77.9206 136.329 78.2485 136.47L78.0059 137.053C77.7549 136.927 77.4937 136.865 77.2219 136.865C76.9063 136.865 76.6541 136.971 76.4643 137.183C76.2745 137.395 76.1796 137.679 76.1796 138.037C76.1796 138.395 76.256 138.696 76.4093 138.892C76.562 139.089 76.7844 139.188 77.0765 139.188C77.2287 139.188 77.3831 139.172 77.5404 139.141V138.423H76.8883V137.816L76.8878 137.816Z" fill="#231F20"/>
<path d="M81.0532 139.75H79.0713V136.309H81.0532V136.906H79.8014V137.662H80.9662V138.259H79.8014V139.146H81.0532V139.749V139.75Z" fill="#231F20"/>
<path d="M172.954 78.3867H161.796V107.422H172.954V78.3867Z" fill="#EEF2FA"/>
<path opacity="0.1" d="M172.954 78.3867H161.796V86.4273H172.954V78.3867Z" fill="black"/>
<path d="M173.727 76.1523H161.022V83.1506H173.727V76.1523Z" fill="#231F20"/>
<path d="M181.121 110.844H101.099V186.956H181.121V110.844Z" fill="white"/>
<path opacity="0.1" d="M127.113 121.565H123.549V180.007H101.099V106.973H98.124L111.237 97.0938L117.646 106.973L127.113 121.565Z" fill="black"/>
<path d="M177.061 127.09H146.131V164.325H177.061V127.09Z" fill="#231F20"/>
<path d="M144.502 132.137H124.826V175.764H144.502V132.137Z" fill="#231F20"/>
<path d="M143.384 174.278V133.629H125.944V174.278H143.384Z" fill="white"/>
<path opacity="0.1" d="M141.595 133.629H125.944V136.16H141.595V174.278H143.384V136.16V133.629H141.595Z" fill="black"/>
<path d="M142.505 153.879H141.226C141.041 153.879 140.891 154.029 140.891 154.214V155.331C140.891 155.516 141.041 155.666 141.226 155.666H142.505C142.69 155.666 142.84 155.516 142.84 155.331V154.214C142.84 154.029 142.69 153.879 142.505 153.879Z" fill="#040C2B"/>
<path d="M176.483 163.174V128.238H162.088V163.174H176.483Z" fill="#829CF8"/>
<path d="M176.482 163.174V128.238H146.708V163.174H176.482Z" fill="#EEF2FA"/>
<path d="M184.096 110.847H98.124L111.237 100.967L141.11 78.4609L184.096 110.847Z" fill="#231F20"/>
<path opacity="0.1" d="M181.121 111.259V113.449H98.0566L101.098 111.158L101.515 110.844H180.569L181.121 111.259Z" fill="black"/>
<path opacity="0.1" d="M176.484 128.238H147.75H146.709V131.111V163.175H147.75V131.111H176.484V128.238Z" fill="black"/>
<path opacity="0.1" d="M161.885 164.219H162.405V127.092H161.885V164.219Z" fill="black"/>
<path d="M161.885 127.141H161.307V164.267H161.885V127.141Z" fill="#231F20"/>
<path d="M165.09 175.766H101.099V186.933H165.09V175.766Z" fill="#231F20"/>
<path d="M167.509 181.348H101.099V186.931H167.509V181.348Z" fill="#231F20"/>
<path d="M165.09 161.125H101.099V163.87H165.09V161.125Z" fill="#231F20"/>
<path d="M105.736 161.121H103.585V175.76H105.736V161.121Z" fill="#0F31AC"/>
<path d="M110.778 161.121H108.627V175.76H110.778V161.121Z" fill="#0F31AC"/>
<path d="M115.819 161.121H113.668V175.76H115.819V161.121Z" fill="#0F31AC"/>
<path d="M120.86 161.121H118.709V175.76H120.86V161.121Z" fill="#0F31AC"/>
<path d="M125.901 161.121H123.75V175.76H125.901V161.121Z" fill="#231F20"/>
<path d="M130.943 161.121H128.792V175.76H130.943V161.121Z" fill="#231F20"/>
<path d="M135.984 161.121H133.833V175.76H135.984V161.121Z" fill="#231F20"/>
<path d="M141.025 161.121H138.874V175.76H141.025V161.121Z" fill="#231F20"/>
<path d="M146.067 161.121H143.916V175.76H146.067V161.121Z" fill="#231F20"/>
<path d="M151.108 161.121H148.957V175.76H151.108V161.121Z" fill="#231F20"/>
<path d="M156.149 161.121H153.998V175.76H156.149V161.121Z" fill="#231F20"/>
<path d="M161.19 161.121H159.039V175.76H161.19V161.121Z" fill="#231F20"/>
<path d="M104.66 161.236C104.066 161.236 103.585 160.755 103.585 160.161V159.052C103.585 158.458 104.066 157.977 104.66 157.977C105.255 157.977 105.736 158.458 105.736 159.052V160.161C105.736 160.755 105.255 161.236 104.66 161.236Z" fill="#0F31AC"/>
<path d="M109.702 161.236C109.108 161.236 108.627 160.755 108.627 160.161V159.052C108.627 158.458 109.108 157.977 109.702 157.977C110.297 157.977 110.778 158.458 110.778 159.052V160.161C110.778 160.755 110.297 161.236 109.702 161.236Z" fill="#0F31AC"/>
<path d="M115.819 159.052C115.819 158.458 115.337 157.977 114.743 157.977C114.149 157.977 113.668 158.458 113.668 159.052V160.161C113.668 160.755 114.149 161.236 114.743 161.236C115.337 161.236 115.819 160.755 115.819 160.161V159.052Z" fill="#0F31AC"/>
<path d="M119.784 161.236C119.19 161.236 118.709 160.755 118.709 160.161V159.052C118.709 158.458 119.19 157.977 119.784 157.977C120.379 157.977 120.86 158.458 120.86 159.052V160.161C120.86 160.755 120.379 161.236 119.784 161.236Z" fill="#0F31AC"/>
<path d="M124.825 161.236C124.231 161.236 123.75 160.755 123.75 160.161V159.052C123.75 158.458 124.231 157.977 124.825 157.977C125.42 157.977 125.901 158.458 125.901 159.052V160.161C125.901 160.755 125.42 161.236 124.825 161.236Z" fill="#231F20"/>
<path d="M130.943 159.052C130.943 158.458 130.461 157.977 129.867 157.977C129.274 157.977 128.792 158.458 128.792 159.052V160.161C128.792 160.755 129.274 161.236 129.867 161.236C130.461 161.236 130.943 160.755 130.943 160.161V159.052Z" fill="#231F20"/>
<path d="M134.908 161.236C134.314 161.236 133.833 160.755 133.833 160.161V159.052C133.833 158.458 134.314 157.977 134.908 157.977C135.503 157.977 135.984 158.458 135.984 159.052V160.161C135.984 160.755 135.503 161.236 134.908 161.236Z" fill="#231F20"/>
<path d="M139.949 161.236C139.355 161.236 138.874 160.755 138.874 160.161V159.052C138.874 158.458 139.355 157.977 139.949 157.977C140.544 157.977 141.025 158.458 141.025 159.052V160.161C141.025 160.755 140.544 161.236 139.949 161.236Z" fill="#231F20"/>
<path d="M146.067 159.052C146.067 158.458 145.585 157.977 144.991 157.977C144.398 157.977 143.916 158.458 143.916 159.052V160.161C143.916 160.755 144.398 161.236 144.991 161.236C145.585 161.236 146.067 160.755 146.067 160.161V159.052Z" fill="#231F20"/>
<path d="M150.033 161.236C149.438 161.236 148.957 160.755 148.957 160.161V159.052C148.957 158.458 149.438 157.977 150.033 157.977C150.627 157.977 151.108 158.458 151.108 159.052V160.161C151.108 160.755 150.627 161.236 150.033 161.236Z" fill="#231F20"/>
<path d="M155.074 161.236C154.479 161.236 153.998 160.755 153.998 160.161V159.052C153.998 158.458 154.479 157.977 155.074 157.977C155.668 157.977 156.149 158.458 156.149 159.052V160.161C156.149 160.755 155.668 161.236 155.074 161.236Z" fill="#231F20"/>
<path d="M161.19 159.052C161.19 158.458 160.709 157.977 160.115 157.977C159.521 157.977 159.039 158.458 159.039 159.052V160.161C159.039 160.755 159.521 161.236 160.115 161.236C160.709 161.236 161.19 160.755 161.19 160.161V159.052Z" fill="#231F20"/>
<path d="M126.508 121.569H79.4531L102.981 85.3047L126.508 121.569Z" fill="#231F20"/>
<path d="M102.98 90.7461L82.9829 121.568H82.9492V180.978H122.944V121.568H122.977L102.98 90.7461Z" fill="white"/>
<path opacity="0.1" d="M102.981 90.7461L82.9834 121.568H84.5295L102.981 93.1284L121.432 121.568H122.978L102.981 90.7461Z" fill="black"/>
<path d="M122.944 180.977H82.9492V186.932H122.944V180.977Z" fill="#231F20"/>
<path d="M115.685 127.078H90.2764V164.303H115.685V127.078Z" fill="#231F20"/>
<path d="M115.013 162.813V128.566H103.317V162.813H115.013Z" fill="#EEF2FA"/>
<path opacity="0.1" d="M103.653 164.305H104.258V127.08H103.653V164.305Z" fill="black"/>
<path d="M103.015 162.813V128.566H90.949V162.813H103.015Z" fill="#EEF2FA"/>
<path opacity="0.1" d="M115.012 128.566H92.0237H90.9482V130.651V162.813H92.0237V130.651H115.012V128.566Z" fill="black"/>
<path d="M103.653 127.078H102.98V164.303H103.653V127.078Z" fill="#231F20"/>
<path d="M175.648 181.73H206.892C207.282 181.73 207.599 182.048 207.599 182.438V186.547C207.599 186.938 207.282 187.254 206.892 187.254H175.648C175.257 187.254 174.94 186.937 174.94 186.547V182.438C174.94 182.047 175.258 181.73 175.648 181.73Z" fill="#D6DAE1"/>
<path d="M192.059 181.73H190.48V187.254H192.059V181.73Z" fill="#D6DAE1"/>
<path d="M189.935 181.73H188.356V187.254H189.935V181.73Z" fill="#D6DAE1"/>
<path d="M194.184 181.73H192.605V187.254H194.184V181.73Z" fill="#D6DAE1"/>
<path d="M205.678 176.207H174.434C174.043 176.207 173.727 176.524 173.727 176.915V181.023C173.727 181.414 174.043 181.731 174.434 181.731H205.678C206.069 181.731 206.386 181.414 206.386 181.023V176.915C206.386 176.524 206.069 176.207 205.678 176.207Z" fill="#EEF2FA"/>
<path d="M184.047 176.207H182.469V181.731H184.047V176.207Z" fill="#19381F"/>
<path d="M181.922 176.207H180.344V181.731H181.922V176.207Z" fill="#19381F"/>
<path d="M186.171 176.207H184.593V181.731H186.171V176.207Z" fill="#19381F"/>
<path d="M176.984 170.684H208.227C208.618 170.684 208.935 171.001 208.935 171.391V175.5C208.935 175.891 208.618 176.208 208.227 176.208H176.984C176.593 176.208 176.276 175.89 176.276 175.5V171.391C176.276 171 176.594 170.684 176.984 170.684Z" fill="#D6DAE1"/>
<path d="M193.395 170.684H191.816V176.208H193.395V170.684Z" fill="#19381F"/>
<path d="M191.27 170.684H189.692V176.208H191.27V170.684Z" fill="#19381F"/>
<path d="M195.52 170.684H193.941V176.208H195.52V170.684Z" fill="#19381F"/>
<path d="M206.225 165.16H174.981C174.59 165.16 174.273 165.477 174.273 165.868V169.977C174.273 170.367 174.59 170.684 174.981 170.684H206.225C206.616 170.684 206.933 170.367 206.933 169.977V165.868C206.933 165.477 206.616 165.16 206.225 165.16Z" fill="#EEF2FA"/>
<path d="M184.593 165.16H183.015V170.684H184.593V165.16Z" fill="#19381F"/>
<path d="M182.468 165.16H180.89V170.684H182.468V165.16Z" fill="#FEE29B"/>
<path d="M186.718 165.16H185.14V170.684H186.718V165.16Z" fill="#19381F"/>
<path d="M67.8976 186.958H40.8679C39.9559 186.958 39.2168 186.219 39.2168 185.307V152.362C39.2168 151.45 39.9559 150.711 40.8679 150.711H67.8976C68.8097 150.711 69.5487 151.45 69.5487 152.362V185.307C69.5487 186.219 68.8097 186.958 67.8976 186.958Z" fill="#231F20"/>
<path d="M66.4969 153.93H42.2686V161.274H66.4969V153.93Z" fill="white"/>
<path d="M60.2604 171.797H55.749V176.404H60.2604V171.797Z" fill="#D6DAE1"/>
<path d="M53.5202 171.797H49.0088V176.404H53.5202V171.797Z" fill="#D6DAE1"/>
<path d="M46.78 171.797H42.2686V176.404H46.78V171.797Z" fill="#D6DAE1"/>
<path d="M60.2604 164.473H55.749V169.08H60.2604V164.473Z" fill="#D6DAE1"/>
<path d="M53.5202 164.473H49.0088V169.08H53.5202V164.473Z" fill="#D6DAE1"/>
<path d="M46.78 164.473H42.2686V169.08H46.78V164.473Z" fill="#D6DAE1"/>
<path d="M60.2604 179.125H55.749V183.732H60.2604V179.125Z" fill="#D6DAE1"/>
<path d="M53.5202 179.125H49.0088V183.732H53.5202V179.125Z" fill="#D6DAE1"/>
<path d="M46.78 179.125H42.2686V183.732H46.78V179.125Z" fill="#D6DAE1"/>
<path d="M66.4966 164.473H62.5957V174.108H66.4966V164.473Z" fill="#D6DAE1"/>
<path d="M66.4966 176.414H62.5957V183.731H66.4966V176.414Z" fill="#D6DAE1"/>
<path d="M64.2476 159.697V159.149C63.9399 159.144 63.6214 159.047 63.4355 158.911L63.563 158.547C63.754 158.678 64.0303 158.78 64.3274 158.78C64.7042 158.78 64.9592 158.558 64.9592 158.249C64.9592 157.94 64.752 157.767 64.3594 157.604C63.818 157.388 63.4838 157.138 63.4838 156.666C63.4838 156.195 63.7972 155.875 64.2853 155.794V155.246H64.6144V155.772C64.9328 155.782 65.1507 155.869 65.3046 155.962L65.172 156.319C65.0608 156.254 64.8429 156.135 64.5032 156.135C64.0943 156.135 63.9404 156.384 63.9404 156.601C63.9404 156.883 64.137 157.024 64.5986 157.219C65.1451 157.446 65.4214 157.728 65.4214 158.211C65.4214 158.639 65.1294 159.04 64.5829 159.132V159.696H64.2488L64.2476 159.697Z" fill="#231F20"/>
<path d="M65.0523 172.993C65.0523 173.678 64.9372 174.296 64.7075 174.848C64.4772 175.399 64.1706 175.869 63.7859 176.258C63.4017 176.647 62.9541 176.945 62.4448 177.154C61.9348 177.363 61.4041 177.468 60.8526 177.468C60.2511 177.468 59.6951 177.363 59.1857 177.154C58.6758 176.945 58.2349 176.647 57.8631 176.258C57.4914 175.869 57.201 175.399 56.9921 174.848C56.7832 174.296 56.6787 173.678 56.6787 172.993C56.6787 172.308 56.7832 171.656 56.9921 171.088C57.201 170.52 57.4914 170.039 57.8631 169.646C58.2349 169.254 58.6758 168.95 59.1857 168.738C59.6951 168.525 60.2511 168.418 60.8526 168.418C61.4541 168.418 62.0118 168.525 62.5256 168.738C63.0395 168.95 63.4843 169.254 63.8606 169.646C64.2369 170.039 64.5289 170.52 64.7378 171.088C64.9467 171.656 65.0512 172.291 65.0512 172.993H65.0523ZM71.0812 169.095C71.1817 168.969 71.307 168.857 71.4575 168.756C71.608 168.656 71.8169 168.606 72.0842 168.606H74.3278L60.8661 186.266C60.7661 186.4 60.6381 186.511 60.4836 186.599C60.3286 186.687 60.1433 186.73 59.9259 186.73H57.6194L71.0812 169.095ZM62.6582 172.993C62.6582 172.508 62.6121 172.103 62.5206 171.777C62.4285 171.451 62.301 171.188 62.1381 170.987C61.9752 170.787 61.7826 170.643 61.5613 170.555C61.3401 170.467 61.1042 170.423 60.8532 170.423C60.6021 170.423 60.3685 170.467 60.1511 170.555C59.9338 170.643 59.7457 170.787 59.5873 170.987C59.4283 171.188 59.3054 171.451 59.2177 171.777C59.1301 172.103 59.0858 172.508 59.0858 172.993C59.0858 173.478 59.1296 173.852 59.2177 174.165C59.3054 174.478 59.4289 174.731 59.5873 174.923C59.7457 175.115 59.9338 175.253 60.1511 175.336C60.3685 175.42 60.6027 175.462 60.8532 175.462C61.1036 175.462 61.3401 175.42 61.5613 175.336C61.7826 175.253 61.9752 175.115 62.1381 174.923C62.301 174.731 62.4285 174.478 62.5206 174.165C62.6121 173.852 62.6582 173.461 62.6582 172.993ZM75.2803 182.469C75.2803 183.154 75.1652 183.772 74.9355 184.324C74.7058 184.875 74.3986 185.345 74.0145 185.734C73.6298 186.123 73.1827 186.424 72.6733 186.637C72.1634 186.849 71.6332 186.956 71.0812 186.956C70.4797 186.956 69.9237 186.849 69.4143 186.637C68.9044 186.424 68.4635 186.123 68.0917 185.734C67.72 185.345 67.4296 184.875 67.2207 184.324C67.0118 183.772 66.9073 183.154 66.9073 182.469C66.9073 181.784 67.0118 181.132 67.2207 180.564C67.4296 179.996 67.72 179.515 68.0917 179.122C68.4635 178.73 68.9044 178.426 69.4143 178.214C69.9237 178.001 70.4797 177.894 71.0812 177.894C71.6827 177.894 72.2403 178.001 72.7548 178.214C73.2687 178.426 73.7134 178.73 74.0897 179.122C74.466 179.515 74.758 179.996 74.967 180.564C75.1759 181.132 75.2803 181.767 75.2803 182.469ZM72.8991 182.469C72.8991 181.984 72.8508 181.579 72.7548 181.253C72.6587 180.927 72.529 180.664 72.3661 180.463C72.2033 180.263 72.0106 180.119 71.7894 180.031C71.5681 179.943 71.3317 179.9 71.0812 179.9C70.8307 179.9 70.5965 179.943 70.3792 180.031C70.1618 180.119 69.9759 180.263 69.8215 180.463C69.6665 180.664 69.5435 180.927 69.452 181.253C69.3598 181.579 69.3144 181.984 69.3144 182.469C69.3144 182.954 69.3604 183.33 69.452 183.647C69.5441 183.965 69.6671 184.219 69.8215 184.411C69.9759 184.604 70.1618 184.742 70.3792 184.825C70.5965 184.909 70.8301 184.95 71.0812 184.95C71.3322 184.95 71.5681 184.909 71.7894 184.825C72.0106 184.742 72.2027 184.604 72.3661 184.411C72.529 184.219 72.6587 183.964 72.7548 183.647C72.8508 183.33 72.8991 182.937 72.8991 182.469Z" fill="#4CBA31"/>
<g filter="url(#filter10_d_941_959)">
<path d="M65.6168 172.993C65.6168 173.678 65.5016 174.296 65.2719 174.848C65.0417 175.399 64.735 175.869 64.3503 176.258C63.9662 176.647 63.5186 176.945 63.0092 177.154C62.4993 177.363 61.9685 177.468 61.417 177.468C60.8156 177.468 60.2596 177.363 59.7502 177.154C59.2402 176.945 58.7994 176.647 58.4276 176.258C58.0558 175.869 57.7655 175.399 57.5565 174.848C57.3476 174.296 57.2432 173.678 57.2432 172.993C57.2432 172.308 57.3476 171.656 57.5565 171.088C57.7655 170.52 58.0558 170.039 58.4276 169.646C58.7994 169.254 59.2402 168.95 59.7502 168.738C60.2596 168.525 60.8156 168.418 61.417 168.418C62.0185 168.418 62.5762 168.525 63.0901 168.738C63.6039 168.95 64.0487 169.254 64.425 169.646C64.8013 170.039 65.0933 170.52 65.3023 171.088C65.5112 171.656 65.6156 172.291 65.6156 172.993H65.6168ZM71.6456 169.095C71.7456 168.969 71.8714 168.857 72.0219 168.756C72.1724 168.656 72.3813 168.606 72.6487 168.606H74.8923L61.4305 186.266C61.33 186.4 61.2025 186.511 61.0481 186.599C60.8936 186.687 60.7077 186.73 60.4904 186.73H58.1839L71.6456 169.095ZM63.2226 172.993C63.2226 172.508 63.1766 172.103 63.085 171.777C62.9929 171.451 62.8654 171.188 62.7026 170.987C62.5397 170.787 62.3471 170.643 62.1258 170.555C61.9045 170.467 61.6686 170.423 61.4176 170.423C61.1666 170.423 60.9329 170.467 60.7156 170.555C60.4983 170.643 60.3101 170.787 60.1517 170.987C59.9928 171.188 59.8698 171.451 59.7822 171.777C59.6946 172.103 59.6502 172.508 59.6502 172.993C59.6502 173.478 59.694 173.852 59.7822 174.165C59.8698 174.478 59.9934 174.731 60.1517 174.923C60.3101 175.115 60.4983 175.253 60.7156 175.336C60.9329 175.42 61.1671 175.462 61.4176 175.462C61.6681 175.462 61.9045 175.42 62.1258 175.336C62.3471 175.253 62.5397 175.115 62.7026 174.923C62.8654 174.731 62.9929 174.478 63.085 174.165C63.1766 173.852 63.2226 173.461 63.2226 172.993ZM75.8448 182.469C75.8448 183.154 75.7297 183.772 75.5 184.324C75.2703 184.875 74.9631 185.345 74.5789 185.734C74.1942 186.123 73.7472 186.424 73.2378 186.637C72.7279 186.849 72.1977 186.956 71.6456 186.956C71.0442 186.956 70.4882 186.849 69.9788 186.637C69.4688 186.424 69.028 186.123 68.6562 185.734C68.2844 185.345 67.9941 184.875 67.7851 184.324C67.5762 183.772 67.4718 183.154 67.4718 182.469C67.4718 181.784 67.5762 181.132 67.7851 180.564C67.9941 179.996 68.2844 179.515 68.6562 179.122C69.028 178.73 69.4688 178.426 69.9788 178.214C70.4882 178.001 71.0442 177.894 71.6456 177.894C72.2471 177.894 72.8048 178.001 73.3192 178.214C73.8331 178.426 74.2779 178.73 74.6542 179.122C75.0305 179.515 75.3225 179.996 75.5314 180.564C75.7403 181.132 75.8448 181.767 75.8448 182.469ZM73.463 182.469C73.463 181.984 73.4147 181.579 73.3187 181.253C73.2226 180.927 73.0929 180.664 72.93 180.463C72.7672 180.263 72.5745 180.119 72.3533 180.031C72.132 179.943 71.8956 179.9 71.6451 179.9C71.3946 179.9 71.1604 179.943 70.9431 180.031C70.7257 180.119 70.5398 180.263 70.3854 180.463C70.2309 180.664 70.1074 180.927 70.0158 181.253C69.9237 181.579 69.8782 181.984 69.8782 182.469C69.8782 182.954 69.9243 183.33 70.0158 183.647C70.1079 183.965 70.2309 184.219 70.3854 184.411C70.5398 184.604 70.7257 184.742 70.9431 184.825C71.1604 184.909 71.394 184.95 71.6451 184.95C71.8961 184.95 72.132 184.909 72.3533 184.825C72.5745 184.742 72.7666 184.604 72.93 184.411C73.0929 184.219 73.2226 183.964 73.3187 183.647C73.4147 183.33 73.463 182.937 73.463 182.469Z" fill="#19381F"/>
<path d="M63.9947 175.907L63.995 175.906C64.3301 175.568 64.6025 175.153 64.8105 174.655L63.9947 175.907ZM63.9947 175.907C63.6585 176.247 63.2675 176.508 62.8197 176.692L63.9947 175.907ZM59.9397 176.692L59.9399 176.692C60.3837 176.874 60.8745 176.968 61.417 176.968C61.9035 176.968 62.3698 176.876 62.8195 176.692L59.9397 176.692ZM59.9397 176.692C59.493 176.509 59.1111 176.249 58.7889 175.912C58.4678 175.577 58.2116 175.166 58.0241 174.671C57.8398 174.184 57.7432 173.627 57.7432 172.993C57.7432 172.357 57.8404 171.764 58.0258 171.261L58.0258 171.26M59.9397 176.692L58.0258 171.26M58.0258 171.26C58.214 170.748 58.4707 170.328 58.7906 169.99L58.0258 171.26ZM59.943 169.199L59.9428 169.199C59.4961 169.385 59.1136 169.649 58.7907 169.99L59.943 169.199ZM59.943 169.199C60.3861 169.014 60.8759 168.918 61.417 168.918C61.9581 168.918 62.4502 169.014 62.8987 169.199C63.3498 169.386 63.7365 169.65 64.0641 169.992C64.3873 170.329 64.645 170.749 64.833 171.26C65.0186 171.765 65.1156 172.341 65.1156 172.993V173.105M59.943 169.199L65.1156 173.105M65.1156 173.105C65.1038 173.687 64.9994 174.202 64.8105 174.655L65.1156 173.105ZM70.1714 186.175L70.1716 186.175C70.6147 186.36 71.1045 186.456 71.6456 186.456C72.1312 186.456 72.5958 186.363 73.045 186.175C73.494 185.988 73.8856 185.724 74.2236 185.382C74.5584 185.044 74.8312 184.629 75.0384 184.132C75.2393 183.649 75.3448 183.098 75.3448 182.469C75.3448 181.817 75.2478 181.241 75.0621 180.736C74.8742 180.225 74.6165 179.806 74.293 179.468C73.9655 179.126 73.5789 178.862 73.1281 178.676L70.1714 186.175ZM70.1714 186.175C69.7234 185.988 69.3404 185.726 69.0175 185.388C68.6964 185.053 68.4402 184.642 68.2527 184.147C68.0684 183.66 67.9718 183.103 67.9718 182.469C67.9718 181.833 68.069 181.24 68.2544 180.737L68.2544 180.736M70.1714 186.175L68.2544 180.736M68.2544 180.736C68.4426 180.224 68.6993 179.804 69.0192 179.466C69.3421 179.125 69.7246 178.861 70.1714 178.675L70.1716 178.675M68.2544 180.736L70.1716 178.675M70.1716 178.675C70.6147 178.49 71.1045 178.394 71.6456 178.394M70.1716 178.675L71.6456 178.394M71.6456 178.394C72.1866 178.394 72.6787 178.49 73.1279 178.676L71.6456 178.394ZM59.1945 186.23L72.0394 169.403C72.1027 169.325 72.1876 169.247 72.2996 169.172C72.3371 169.147 72.4351 169.106 72.6487 169.106H73.8825L61.0329 185.963L61.0309 185.966C60.9743 186.041 60.9 186.108 60.8008 186.164C60.7367 186.201 60.64 186.23 60.4904 186.23H59.1945ZM63.5664 171.642L63.5662 171.641C63.4611 171.269 63.3076 170.939 63.0907 170.672C62.8784 170.411 62.6174 170.212 62.3099 170.09C62.0269 169.978 61.7282 169.923 61.4176 169.923C61.107 169.923 60.8094 169.978 60.5287 170.091C60.2234 170.214 59.9666 170.415 59.7594 170.677L60.1517 170.987L59.7599 170.677C59.5472 170.945 59.3992 171.276 59.2994 171.647C59.1967 172.029 59.1502 172.481 59.1502 172.993C59.1502 173.506 59.1963 173.928 59.3008 174.3C59.4018 174.661 59.5523 174.982 59.766 175.241C59.975 175.495 60.2326 175.687 60.5365 175.803C60.8156 175.911 61.111 175.962 61.4176 175.962C61.7242 175.962 62.0208 175.911 62.3022 175.804C62.6083 175.689 62.87 175.499 63.0839 175.246C63.3032 174.988 63.4585 174.667 63.5647 174.306L63.565 174.305C63.6741 173.931 63.7226 173.49 63.7226 172.993C63.7226 172.48 63.6743 172.026 63.5664 171.642ZM69.5354 183.786L69.5356 183.786C69.6401 184.147 69.7883 184.467 69.9957 184.725C70.2018 184.981 70.4588 185.175 70.7645 185.292C71.0434 185.399 71.3381 185.45 71.6451 185.45C71.9521 185.45 72.2479 185.399 72.5291 185.293C72.8359 185.178 73.0968 184.987 73.3108 184.735L73.3114 184.735C73.5301 184.477 73.6873 184.155 73.7972 183.792C73.9119 183.413 73.963 182.968 73.963 182.469C73.963 181.955 73.9122 181.498 73.7983 181.112C73.6891 180.741 73.5335 180.413 73.3181 180.148C73.1058 179.887 72.8449 179.688 72.5373 179.566C72.2543 179.454 71.9551 179.4 71.6451 179.4C71.3351 179.4 71.037 179.454 70.7561 179.567C70.4493 179.691 70.1934 179.893 69.9893 180.158C69.7853 180.423 69.638 180.749 69.5345 181.118L70.0158 181.253L69.5347 181.117C69.4259 181.502 69.3782 181.957 69.3782 182.469C69.3782 182.984 69.427 183.41 69.5354 183.786Z" stroke="#19381F"/>
</g>
<path d="M175.042 172.485C175.042 172.485 173.2 179.742 170.806 182.418L167.981 185.661L171.88 186.163L176.469 181.631C176.469 181.631 175.579 180.427 177.083 176.514L175.041 172.484L175.042 172.485Z" fill="#DE995F"/>
<path d="M169.255 187.082C171.65 187.484 172.387 186.615 172.387 186.615L174.193 185.205L175.732 184.006L175.579 186.313H176.254L176.468 183.737C176.847 182.935 176.905 182.312 176.823 181.841C176.669 180.977 176.145 180.625 176.145 180.625C175.745 182.665 171.865 184.942 171.865 184.942C169.471 185.645 169.195 184.267 169.195 184.267L166.493 185.543C165.633 187.049 169.255 187.082 169.255 187.082L169.255 187.082Z" fill="#040C2B"/>
<path opacity="0.15" d="M174.193 185.204L175.732 184.005L175.579 186.312H176.255L176.468 183.736C176.847 182.934 176.905 182.31 176.823 181.84L176.402 182.781C176.402 182.781 174.055 183.789 174.193 185.204Z" fill="black"/>
<path d="M173.027 170.759L173.895 171.516C173.92 171.538 173.942 171.561 173.962 171.587C174.048 171.693 174.094 171.833 174.087 171.976C174.063 172.592 174.134 173.099 174.214 173.465C174.306 173.877 174.412 174.108 174.412 174.108C174.449 174.177 174.486 174.246 174.523 174.312C175.532 176.156 176.399 176.948 176.817 177.251C176.987 177.376 177.083 177.418 177.083 177.418L178.355 175.279L180.837 171.101L181.5 169.986L181.933 169.258L182.271 168.689C182.455 168.526 182.637 168.369 182.817 168.219C183.469 167.673 184.085 167.208 184.661 166.815C184.82 166.706 184.975 166.603 185.128 166.504C185.369 166.349 185.602 166.207 185.827 166.076C186.705 165.565 187.457 165.232 188.061 165.015C189.153 164.623 189.761 164.609 189.761 164.609C190.623 164.748 191.428 164.853 192.178 164.931C193.563 165.074 194.76 165.122 195.784 165.111C197.241 165.095 198.348 164.957 199.152 164.797C200.553 164.519 201.685 163.386 202.05 161.888C202.518 159.963 202.223 157.834 201.956 156.57C201.876 156.193 201.8 155.895 201.746 155.699C201.7 155.536 201.671 155.445 201.671 155.445L198.417 155.947L195.875 156.234L195.864 156.235L195.007 156.332L193.193 156.537L192.805 156.581L186.516 157.292L178.005 158.254L175.448 163.332L174.759 164.702L174.73 164.757L174.494 165.227L174.41 165.394L172.676 168.838C172.35 169.486 172.498 170.297 173.028 170.758L173.027 170.759Z" fill="#040C2B"/>
<path d="M176.039 183.907H178.833L181.994 178.657L181.196 176.416L181.685 171.669L181.933 169.26L181.994 168.657L177.083 166.316L177.392 168.404L178.28 174.409C178.317 174.701 178.342 174.991 178.355 175.28C178.563 179.827 176.04 183.907 176.04 183.907H176.039Z" fill="#DE995F"/>
<path d="M181.166 176.95C181.166 176.95 183.284 177.384 182.885 180.127L182.578 180.628L182.517 182.635H181.995L181.749 181.197C181.749 181.197 181.044 181.498 179.632 183.337C179.632 183.337 179.018 185.946 174.566 185.511C174.566 185.511 173.575 184.469 176.572 182.916C176.572 182.916 177.728 183.605 179.017 182.534C179.017 182.534 181.688 178.889 181.166 176.949V176.95Z" fill="#040C2B"/>
<path opacity="0.15" d="M174.758 164.703L174.766 165.596C174.766 165.596 175.909 167.152 177.392 168.403C178.466 169.308 179.716 170.316 180.837 171.102C181.13 171.308 181.415 171.498 181.685 171.667L181.933 169.259L182.271 168.689C182.455 168.526 182.638 168.37 182.817 168.219L175.447 163.332L174.758 164.702V164.703Z" fill="black"/>
<path opacity="0.15" d="M184.661 166.815C185.07 166.534 185.459 166.289 185.826 166.076C187.14 163.187 187.519 158.857 187.519 158.857L195.874 156.234L186.516 157.292L185.739 158.254L184.66 166.814L184.661 166.815Z" fill="black"/>
<path opacity="0.15" d="M193.709 156.914C193.709 156.914 197.066 157.352 198.386 159.493C198.386 159.493 199.921 160.63 201.548 160.964L198.785 159.192C198.785 159.192 196.89 156.544 193.709 156.914Z" fill="black"/>
<path opacity="0.15" d="M187.214 162.066C187.224 162.074 187.395 162.209 187.717 162.434C188.458 162.95 189.992 163.938 192.179 164.93C193.563 165.073 194.76 165.122 195.784 165.11C195.784 165.11 192.056 164.293 188.239 162.556C187.897 162.4 187.555 162.237 187.214 162.066Z" fill="black"/>
<path d="M174.413 165.145C176.685 167.553 182.947 170.764 182.947 170.764C186.722 165.413 186.599 158.29 186.599 158.29L197.543 155.865L194.243 154.009C194.243 154.009 192.588 154.214 190.403 154.364C187.364 154.573 183.298 154.676 181.228 153.976C181.172 153.957 181.116 153.94 181.062 153.925C180.102 153.648 179.368 153.861 178.808 154.311C177.376 155.461 177.084 158.156 177.084 158.156C176.347 161.333 174.413 165.146 174.413 165.146V165.145Z" fill="#040C2B"/>
<path d="M174.396 175.626L174.331 175.43C174.363 175.546 174.389 175.611 174.396 175.626Z" fill="#758CFA"/>
<path opacity="0.15" d="M174.088 171.976C174.063 172.592 174.134 173.099 174.215 173.464C174.302 172.519 174.579 171.258 175.257 169.676L173.963 171.586C174.048 171.693 174.094 171.832 174.089 171.976H174.088Z" fill="black"/>
<path opacity="0.15" d="M178.807 154.311C180.209 154.998 182.792 156.123 184.65 156.1L193.285 156.612L190.402 154.364C187.363 154.573 183.298 154.676 181.227 153.976C181.172 153.957 181.116 153.94 181.061 153.925C180.102 153.648 179.367 153.861 178.807 154.311H178.807Z" fill="black"/>
<path d="M185.954 154.009L179.354 153.34L184.45 155.079L192.124 156.249L185.954 154.009Z" fill="black"/>
<path d="M179.937 147.419L173.921 145.914L178.848 154.057L184.235 154.676L179.937 147.419Z" fill="#231F20"/>
<path d="M192.124 156.249L184.235 155.446L179.354 153.34L184.235 154.678L192.124 156.249Z" fill="#231F20"/>
<path d="M183.237 152.72C183.237 152.72 183.276 153.272 183.758 153.479C183.88 153.532 184.032 153.562 184.22 153.555L185.386 153.054L188.609 153.422L190.98 150.432L191.341 149.977L189.161 149.676L189.016 149.875L187.799 151.546L187.626 151.783C187.626 151.783 186.859 152.351 186.153 151.682C186.153 151.682 185.802 151.137 185.272 151.132C185.084 151.131 184.874 151.198 184.648 151.381C184.648 151.381 183.482 152.05 183.236 152.719L183.237 152.72Z" fill="#DE995F"/>
<path opacity="0.15" d="M183.758 153.479C183.881 153.532 184.032 153.563 184.22 153.556L185.386 153.054L188.61 153.422L190.981 150.432L189.519 150.184L189.017 149.875L187.8 151.546L187.627 151.783C187.627 151.783 186.86 152.352 186.154 151.683C186.154 151.683 185.803 151.137 185.273 151.132C184.747 151.606 183.963 152.458 183.758 153.479V153.479Z" fill="black"/>
<path d="M192.432 139.227L194.335 141.066L198.032 136.913L199.307 135.481L196.484 129.027L194.304 128.258L193.257 134.395L192.432 139.227Z" fill="#D18B4F"/>
<path opacity="0.15" d="M193.257 134.395L194.473 134.997C194.473 134.997 196.008 134.127 197.543 136.468C197.659 136.645 197.825 136.793 198.033 136.914L199.308 135.482L196.484 129.027L194.304 128.258L193.257 134.395Z" fill="black"/>
<path d="M188.906 150.029C188.906 150.029 190.098 150.397 190.467 150.229C190.593 150.172 190.774 148.972 190.956 147.421C191.306 144.452 191.663 140.197 191.663 140.197L191.019 139.695C191.019 139.695 190.777 140.96 190.5 142.582C190.192 144.379 189.843 146.614 189.73 148.056C189.73 148.056 189.064 149.362 188.905 150.03L188.906 150.029Z" fill="white"/>
<path d="M190.145 155.097C190.145 155.097 190.197 155.102 191.624 155.505C191.746 155.539 191.871 155.575 192 155.61C192.032 155.618 192.065 155.628 192.097 155.636C192.965 155.874 193.965 156.123 195.006 156.334C195.08 156.35 195.153 156.364 195.227 156.379C195.266 156.387 195.306 156.394 195.346 156.402C197.63 156.845 200.069 157.089 201.745 156.634C201.816 156.615 201.886 156.594 201.955 156.571C202.069 156.535 202.179 156.494 202.284 156.451L202.271 156.092L202.218 154.647L202.121 152.016L202.12 151.994L202.029 149.491L201.605 137.943L201.547 136.384C201.547 136.384 201.538 136.355 201.517 136.305C201.364 135.929 200.62 134.368 198.895 134.541C198.879 134.542 198.862 134.543 198.846 134.546C198.846 134.546 198.447 134.846 197.857 135.466C197.681 135.65 197.489 135.863 197.285 136.105C196.575 136.946 195.729 138.136 194.979 139.696C194.979 139.696 193.966 140.632 193.72 139.094V135.616H191.172C191.172 135.616 190.94 136.363 190.767 139.147C190.723 139.861 190.683 140.706 190.652 141.708C190.633 142.314 190.617 142.977 190.605 143.7C190.587 144.889 190.58 146.245 190.589 147.788L190.464 149.857L190.441 150.24L190.434 150.341L190.383 151.188L190.252 153.334L190.188 154.378L190.145 155.096V155.097Z" fill="white"/>
<path opacity="0.15" d="M188.906 150.03C188.906 150.03 190.098 150.397 190.467 150.229C190.593 150.172 190.774 148.972 190.956 147.421L190.5 142.582C190.192 144.379 189.843 146.614 189.73 148.056C189.73 148.056 189.064 149.362 188.905 150.03L188.906 150.03Z" fill="black"/>
<path opacity="0.15" d="M191.624 155.503C191.746 155.538 191.871 155.573 191.999 155.608C192.032 155.617 192.064 155.626 192.097 155.635C192.965 155.872 193.964 156.121 195.006 156.333C195.08 156.348 195.153 156.363 195.226 156.377C195.266 156.385 195.306 156.392 195.346 156.4C197.63 156.844 200.068 157.088 201.744 156.632C201.816 156.613 201.886 156.592 201.954 156.57C201.965 156.566 201.975 156.563 201.986 156.559C202.088 156.526 202.188 156.489 202.284 156.449L202.271 156.09L202.226 154.87L202.218 154.645L202.121 152.014L202.12 151.992L202.028 149.489L201.604 137.941L199.015 137.363C198.978 137.386 197.505 138.331 198.202 144.341L199 150.595C199 150.595 198.909 151.23 197.619 152.133L196.72 152.638L194.264 154.018L191.764 155.422L191.625 155.501L191.624 155.503Z" fill="black"/>
<path d="M199.533 155.333L190.989 155.681C190.989 155.681 189.076 155.517 188.682 154.462C188.682 154.462 187.657 153.51 186.345 154.462C186.345 154.462 184.174 154.477 184.665 153.105C184.665 153.105 186.63 150.43 188.901 152.37L190.59 153.574L198.724 152.336L199.532 155.333H199.533Z" fill="#DE995F"/>
<path d="M197.619 152.137L197.77 152.482L199.021 155.354L199.062 155.447L199.532 155.333L201.548 154.845C201.614 154.83 201.68 154.814 201.745 154.797C201.913 154.752 202.071 154.702 202.218 154.647C203.463 154.18 203.971 153.352 204.159 152.596C204.288 152.074 204.264 151.585 204.222 151.275C204.193 151.063 204.157 150.933 204.157 150.933L203.563 146.066L202.715 139.127C202.178 136.201 201.548 136.385 201.548 136.385C200.259 135.849 199.483 136.479 199.016 137.366C198.893 137.599 198.792 137.85 198.709 138.103C198.389 139.07 198.323 140.114 198.494 141.123L200.048 150.318L200.125 150.775L200.168 151.032L197.62 152.136L197.619 152.137Z" fill="white"/>
<path d="M188.594 131.57C188.594 131.57 188.958 132.536 189.373 133.509C189.497 133.801 189.536 134.127 189.486 134.445C189.322 135.478 189.135 137.962 190.816 139.186C191.11 139.4 191.461 139.575 191.878 139.697C191.878 139.697 193.665 140.19 194.616 137.585C194.854 136.931 195.04 136.082 195.132 134.982C195.132 134.98 195.132 134.978 195.132 134.976C195.147 134.785 195.096 134.595 194.991 134.441L194.751 134.091L192.673 130.392L189.821 125.316C189.821 125.316 188.836 125.941 188.431 127.614C188.201 128.567 188.158 129.859 188.593 131.57L188.594 131.57Z" fill="#040C2B"/>
<path d="M192.83 134.881C192.83 134.881 194.672 135.984 196.084 131.135H198.448L196.821 126.186L191.326 125.316C191.326 125.316 187.06 131.303 192.83 134.881V134.881Z" fill="#DE995F"/>
<path d="M191.664 123.174C191.664 123.174 196.25 120.855 198.758 127.062C198.821 127.217 198.894 127.367 198.98 127.509L200.206 129.546C200.543 130.105 200.745 130.747 200.794 131.413L200.85 132.157C200.884 132.61 201.103 133.022 201.446 133.28L203.267 134.645L201.947 134.11C201.947 134.11 202.837 136.785 204.188 137.621C204.188 137.621 201.519 135.851 199.481 135.937C199.312 135.945 199.143 135.926 198.977 135.887C198.085 135.68 195.744 134.847 196.545 131.903C196.545 131.903 196.391 130.765 195.286 129.896C195.286 129.896 191.115 128.872 189.931 131.106C189.931 131.106 187.182 124.879 191.664 123.174Z" fill="#040C2B"/>
<path opacity="0.15" d="M200.033 150.285C200.033 150.285 200.489 151.551 202.208 152.019C202.208 152.019 200.13 152.03 200.033 150.285Z" fill="black"/>
<defs>
<filter id="filter0_d_941_959" x="50.1631" y="143.938" width="37.457" height="9.11328" filterUnits="userSpaceOnUse" color-interpolation-filters="sRGB">
<feFlood flood-opacity="0" result="BackgroundImageFix"/>
<feColorMatrix in="SourceAlpha" type="matrix" values="0 0 0 0 0 0 0 0 0 0 0 0 0 0 0 0 0 0 127 0" result="hardAlpha"/>
<feOffset dy="4"/>
<feGaussianBlur stdDeviation="2"/>
<feComposite in2="hardAlpha" operator="out"/>
<feColorMatrix type="matrix" values="0 0 0 0 0 0 0 0 0 0 0 0 0 0 0 0 0 0 0.25 0"/>
<feBlend mode="normal" in2="BackgroundImageFix" result="effect1_dropShadow_941_959"/>
<feBlend mode="normal" in="SourceGraphic" in2="effect1_dropShadow_941_959" result="shape"/>
</filter>
<filter id="filter1_d_941_959" x="47.8018" y="146.227" width="39.8281" height="9.125" filterUnits="userSpaceOnUse" color-interpolation-filters="sRGB">
<feFlood flood-opacity="0" result="BackgroundImageFix"/>
<feColorMatrix in="SourceAlpha" type="matrix" values="0 0 0 0 0 0 0 0 0 0 0 0 0 0 0 0 0 0 127 0" result="hardAlpha"/>
<feOffset dy="4"/>
<feGaussianBlur stdDeviation="2"/>
<feComposite in2="hardAlpha" operator="out"/>
<feColorMatrix type="matrix" values="0 0 0 0 0 0 0 0 0 0 0 0 0 0 0 0 0 0 0.25 0"/>
<feBlend mode="normal" in2="BackgroundImageFix" result="effect1_dropShadow_941_959"/>
<feBlend mode="normal" in="SourceGraphic" in2="effect1_dropShadow_941_959" result="shape"/>
</filter>
<filter id="filter2_d_941_959" x="47.8105" y="148.516" width="34.2061" height="9.125" filterUnits="userSpaceOnUse" color-interpolation-filters="sRGB">
<feFlood flood-opacity="0" result="BackgroundImageFix"/>
<feColorMatrix in="SourceAlpha" type="matrix" values="0 0 0 0 0 0 0 0 0 0 0 0 0 0 0 0 0 0 127 0" result="hardAlpha"/>
<feOffset dy="4"/>
<feGaussianBlur stdDeviation="2"/>
<feComposite in2="hardAlpha" operator="out"/>
<feColorMatrix type="matrix" values="0 0 0 0 0 0 0 0 0 0 0 0 0 0 0 0 0 0 0.25 0"/>
<feBlend mode="normal" in2="BackgroundImageFix" result="effect1_dropShadow_941_959"/>
<feBlend mode="normal" in="SourceGraphic" in2="effect1_dropShadow_941_959" result="shape"/>
</filter>
<filter id="filter3_d_941_959" x="50.1699" y="152.156" width="37.4785" height="9.11328" filterUnits="userSpaceOnUse" color-interpolation-filters="sRGB">
<feFlood flood-opacity="0" result="BackgroundImageFix"/>
<feColorMatrix in="SourceAlpha" type="matrix" values="0 0 0 0 0 0 0 0 0 0 0 0 0 0 0 0 0 0 127 0" result="hardAlpha"/>
<feOffset dy="4"/>
<feGaussianBlur stdDeviation="2"/>
<feComposite in2="hardAlpha" operator="out"/>
<feColorMatrix type="matrix" values="0 0 0 0 0 0 0 0 0 0 0 0 0 0 0 0 0 0 0.25 0"/>
<feBlend mode="normal" in2="BackgroundImageFix" result="effect1_dropShadow_941_959"/>
<feBlend mode="normal" in="SourceGraphic" in2="effect1_dropShadow_941_959" result="shape"/>
</filter>
<filter id="filter4_d_941_959" x="47.8291" y="154.441" width="39.8281" height="9.12109" filterUnits="userSpaceOnUse" color-interpolation-filters="sRGB">
<feFlood flood-opacity="0" result="BackgroundImageFix"/>
<feColorMatrix in="SourceAlpha" type="matrix" values="0 0 0 0 0 0 0 0 0 0 0 0 0 0 0 0 0 0 127 0" result="hardAlpha"/>
<feOffset dy="4"/>
<feGaussianBlur stdDeviation="2"/>
<feComposite in2="hardAlpha" operator="out"/>
<feColorMatrix type="matrix" values="0 0 0 0 0 0 0 0 0 0 0 0 0 0 0 0 0 0 0.25 0"/>
<feBlend mode="normal" in2="BackgroundImageFix" result="effect1_dropShadow_941_959"/>
<feBlend mode="normal" in="SourceGraphic" in2="effect1_dropShadow_941_959" result="shape"/>
</filter>
<filter id="filter5_d_941_959" x="47.8242" y="156.57" width="27.5732" height="9.12891" filterUnits="userSpaceOnUse" color-interpolation-filters="sRGB">
<feFlood flood-opacity="0" result="BackgroundImageFix"/>
<feColorMatrix in="SourceAlpha" type="matrix" values="0 0 0 0 0 0 0 0 0 0 0 0 0 0 0 0 0 0 127 0" result="hardAlpha"/>
<feOffset dy="4"/>
<feGaussianBlur stdDeviation="2"/>
<feComposite in2="hardAlpha" operator="out"/>
<feColorMatrix type="matrix" values="0 0 0 0 0 0 0 0 0 0 0 0 0 0 0 0 0 0 0.25 0"/>
<feBlend mode="normal" in2="BackgroundImageFix" result="effect1_dropShadow_941_959"/>
<feBlend mode="normal" in="SourceGraphic" in2="effect1_dropShadow_941_959" result="shape"/>
</filter>
<filter id="filter6_d_941_959" x="50.1377" y="160.211" width="37.5059" height="9.12109" filterUnits="userSpaceOnUse" color-interpolation-filters="sRGB">
<feFlood flood-opacity="0" result="BackgroundImageFix"/>
<feColorMatrix in="SourceAlpha" type="matrix" values="0 0 0 0 0 0 0 0 0 0 0 0 0 0 0 0 0 0 127 0" result="hardAlpha"/>
<feOffset dy="4"/>
<feGaussianBlur stdDeviation="2"/>
<feComposite in2="hardAlpha" operator="out"/>
<feColorMatrix type="matrix" values="0 0 0 0 0 0 0 0 0 0 0 0 0 0 0 0 0 0 0.25 0"/>
<feBlend mode="normal" in2="BackgroundImageFix" result="effect1_dropShadow_941_959"/>
<feBlend mode="normal" in="SourceGraphic" in2="effect1_dropShadow_941_959" result="shape"/>
</filter>
<filter id="filter7_d_941_959" x="47.8252" y="162.5" width="39.8281" height="9.125" filterUnits="userSpaceOnUse" color-interpolation-filters="sRGB">
<feFlood flood-opacity="0" result="BackgroundImageFix"/>
<feColorMatrix in="SourceAlpha" type="matrix" values="0 0 0 0 0 0 0 0 0 0 0 0 0 0 0 0 0 0 127 0" result="hardAlpha"/>
<feOffset dy="4"/>
<feGaussianBlur stdDeviation="2"/>
<feComposite in2="hardAlpha" operator="out"/>
<feColorMatrix type="matrix" values="0 0 0 0 0 0 0 0 0 0 0 0 0 0 0 0 0 0 0.25 0"/>
<feBlend mode="normal" in2="BackgroundImageFix" result="effect1_dropShadow_941_959"/>
<feBlend mode="normal" in="SourceGraphic" in2="effect1_dropShadow_941_959" result="shape"/>
</filter>
<filter id="filter8_d_941_959" x="47.834" y="164.789" width="39.8281" height="9.125" filterUnits="userSpaceOnUse" color-interpolation-filters="sRGB">
<feFlood flood-opacity="0" result="BackgroundImageFix"/>
<feColorMatrix in="SourceAlpha" type="matrix" values="0 0 0 0 0 0 0 0 0 0 0 0 0 0 0 0 0 0 127 0" result="hardAlpha"/>
<feOffset dy="4"/>
<feGaussianBlur stdDeviation="2"/>
<feComposite in2="hardAlpha" operator="out"/>
<feColorMatrix type="matrix" values="0 0 0 0 0 0 0 0 0 0 0 0 0 0 0 0 0 0 0.25 0"/>
<feBlend mode="normal" in2="BackgroundImageFix" result="effect1_dropShadow_941_959"/>
<feBlend mode="normal" in="SourceGraphic" in2="effect1_dropShadow_941_959" result="shape"/>
</filter>
<filter id="filter9_d_941_959" x="47.8428" y="167.086" width="37.4199" height="9.11328" filterUnits="userSpaceOnUse" color-interpolation-filters="sRGB">
<feFlood flood-opacity="0" result="BackgroundImageFix"/>
<feColorMatrix in="SourceAlpha" type="matrix" values="0 0 0 0 0 0 0 0 0 0 0 0 0 0 0 0 0 0 127 0" result="hardAlpha"/>
<feOffset dy="4"/>
<feGaussianBlur stdDeviation="2"/>
<feComposite in2="hardAlpha" operator="out"/>
<feColorMatrix type="matrix" values="0 0 0 0 0 0 0 0 0 0 0 0 0 0 0 0 0 0 0.25 0"/>
<feBlend mode="normal" in2="BackgroundImageFix" result="effect1_dropShadow_941_959"/>
<feBlend mode="normal" in="SourceGraphic" in2="effect1_dropShadow_941_959" result="shape"/>
</filter>
<filter id="filter10_d_941_959" x="53.2432" y="168.418" width="26.6016" height="26.5391" filterUnits="userSpaceOnUse" color-interpolation-filters="sRGB">
<feFlood flood-opacity="0" result="BackgroundImageFix"/>
<feColorMatrix in="SourceAlpha" type="matrix" values="0 0 0 0 0 0 0 0 0 0 0 0 0 0 0 0 0 0 127 0" result="hardAlpha"/>
<feOffset dy="4"/>
<feGaussianBlur stdDeviation="2"/>
<feComposite in2="hardAlpha" operator="out"/>
<feColorMatrix type="matrix" values="0 0 0 0 0 0 0 0 0 0 0 0 0 0 0 0 0 0 0.25 0"/>
<feBlend mode="normal" in2="BackgroundImageFix" result="effect1_dropShadow_941_959"/>
<feBlend mode="normal" in="SourceGraphic" in2="effect1_dropShadow_941_959" result="shape"/>
</filter>
</defs>
</svg>
