<svg width="44" height="33" viewBox="0 0 44 33" fill="none" xmlns="http://www.w3.org/2000/svg">
<path d="M41.6429 0H2.35714C1.7322 0.000682154 1.13305 0.249242 0.691145 0.691145C0.249242 1.13305 0.000682154 1.7322 0 2.35714V27.5C0.000682154 28.1249 0.249242 28.7241 0.691145 29.166C1.13305 29.6079 1.7322 29.8565 2.35714 29.8571V31.4286C2.35756 31.8452 2.52325 32.2447 2.81786 32.5393C3.11247 32.8339 3.51193 32.9996 3.92857 33H8.64286C9.0595 32.9996 9.45896 32.8339 9.75357 32.5393C10.0482 32.2447 10.2139 31.8452 10.2143 31.4286V29.8571H33.7857V31.4286C33.7861 31.8452 33.9518 32.2447 34.2464 32.5393C34.541 32.8339 34.9405 32.9996 35.3571 33H40.0714C40.4881 32.9996 40.8875 32.8339 41.1821 32.5393C41.4767 32.2447 41.6424 31.8452 41.6429 31.4286V29.8571C42.2678 29.8565 42.867 29.6079 43.3089 29.166C43.7508 28.7241 43.9993 28.1249 44 27.5V2.35714C43.9993 1.7322 43.7508 1.13305 43.3089 0.691145C42.867 0.249242 42.2678 0.000682154 41.6429 0ZM8.64286 31.4286H3.92857V29.8571H8.64286V31.4286ZM40.0714 31.4286H35.3571V29.8571H40.0714V31.4286ZM42.4286 27.5C42.4283 27.7083 42.3454 27.908 42.1981 28.0553C42.0508 28.2026 41.8512 28.2854 41.6429 28.2857H2.35714C2.14884 28.2854 1.94915 28.2026 1.80186 28.0553C1.65457 27.908 1.5717 27.7083 1.57143 27.5V2.35714C1.5717 2.14884 1.65457 1.94915 1.80186 1.80186C1.94915 1.65457 2.14884 1.5717 2.35714 1.57143H41.6429C41.8512 1.5717 42.0508 1.65457 42.1981 1.80186C42.3454 1.94915 42.4283 2.14884 42.4286 2.35714V27.5Z" fill="#54A548"/>
<path d="M38.4997 4.71484H31.4283C31.2199 4.71484 31.0201 4.79762 30.8727 4.94497C30.7254 5.09232 30.6426 5.29217 30.6426 5.50056C30.6426 5.70894 30.7254 5.90879 30.8727 6.05614C31.0201 6.20349 31.2199 6.28627 31.4283 6.28627H38.4997C38.7081 6.28627 38.908 6.20349 39.0553 6.05614C39.2027 5.90879 39.2854 5.70894 39.2854 5.50056C39.2854 5.29217 39.2027 5.09232 39.0553 4.94497C38.908 4.79762 38.7081 4.71484 38.4997 4.71484Z" fill="#54A548"/>
<path d="M38.4997 11H31.4283C31.2199 11 31.0201 11.0828 30.8727 11.2301C30.7254 11.3775 30.6426 11.5773 30.6426 11.7857C30.6426 11.9941 30.7254 12.1939 30.8727 12.3413C31.0201 12.4886 31.2199 12.5714 31.4283 12.5714H38.4997C38.7081 12.5714 38.908 12.4886 39.0553 12.3413C39.2027 12.1939 39.2854 11.9941 39.2854 11.7857C39.2854 11.5773 39.2027 11.3775 39.0553 11.2301C38.908 11.0828 38.7081 11 38.4997 11Z" fill="#54A548"/>
<path d="M38.4997 17.2852H31.4283C31.2199 17.2852 31.0201 17.3679 30.8727 17.5153C30.7254 17.6626 30.6426 17.8625 30.6426 18.0709C30.6426 18.2793 30.7254 18.4791 30.8727 18.6265C31.0201 18.7738 31.2199 18.8566 31.4283 18.8566H38.4997C38.7081 18.8566 38.908 18.7738 39.0553 18.6265C39.2027 18.4791 39.2854 18.2793 39.2854 18.0709C39.2854 17.8625 39.2027 17.6626 39.0553 17.5153C38.908 17.3679 38.7081 17.2852 38.4997 17.2852Z" fill="#54A548"/>
<path d="M38.4997 23.5703H31.4283C31.2199 23.5703 31.0201 23.6531 30.8727 23.8004C30.7254 23.9478 30.6426 24.1476 30.6426 24.356C30.6426 24.5644 30.7254 24.7643 30.8727 24.9116C31.0201 25.059 31.2199 25.1417 31.4283 25.1417H38.4997C38.7081 25.1417 38.908 25.059 39.0553 24.9116C39.2027 24.7643 39.2854 24.5644 39.2854 24.356C39.2854 24.1476 39.2027 23.9478 39.0553 23.8004C38.908 23.6531 38.7081 23.5703 38.4997 23.5703Z" fill="#54A548"/>
<path d="M14.9287 3.92969C12.7531 3.92969 10.6264 4.57483 8.81744 5.78352C7.0085 6.99222 5.5986 8.71018 4.76604 10.7202C3.93348 12.7302 3.71564 14.9419 4.14008 17.0757C4.56452 19.2095 5.61216 21.1695 7.15054 22.7079C8.68892 24.2462 10.6489 25.2939 12.7827 25.7183C14.9165 26.1428 17.1282 25.9249 19.1382 25.0924C21.1482 24.2598 22.8662 22.8499 24.0749 21.041C25.2836 19.232 25.9287 17.1053 25.9287 14.9297C25.9254 12.0133 24.7655 9.21732 22.7033 7.15512C20.6411 5.09293 17.8451 3.93296 14.9287 3.92969ZM22.3296 9.10684C19.848 9.64945 17.5839 10.9183 15.8258 12.7519C15.7501 12.7241 15.6731 12.7001 15.5949 12.6801C15.6238 10.8019 15.999 7.93408 17.7679 5.93987C19.5712 6.51506 21.1604 7.61832 22.3296 9.10684ZM15.7144 14.9297C15.7144 15.0851 15.6684 15.237 15.582 15.3662C15.4957 15.4954 15.373 15.5961 15.2294 15.6556C15.0858 15.7151 14.9278 15.7306 14.7754 15.7003C14.623 15.67 14.483 15.5952 14.3731 15.4853C14.2632 15.3754 14.1884 15.2354 14.1581 15.083C14.1278 14.9306 14.1433 14.7726 14.2028 14.629C14.2623 14.4854 14.363 14.3627 14.4922 14.2764C14.6214 14.1901 14.7733 14.144 14.9287 14.144C15.137 14.1442 15.3367 14.2271 15.484 14.3744C15.6313 14.5217 15.7142 14.7214 15.7144 14.9297ZM14.9287 5.50112C15.3027 5.50316 15.6762 5.52742 16.0473 5.57377C14.6751 7.71367 13.9702 10.2133 14.0222 12.7549C13.9496 12.7888 13.8788 12.8265 13.8101 12.8678C12.5054 11.5229 10.7403 9.23082 10.5828 6.57105C11.9237 5.86829 13.4149 5.50115 14.9287 5.50112ZM9.10592 7.52875C9.64842 10.0105 10.9173 12.2746 12.751 14.0327C12.7229 14.109 12.6987 14.1867 12.6786 14.2655C10.8196 14.242 7.93685 13.8621 5.93899 12.0902C6.51418 10.287 7.61743 8.69793 9.10592 7.52875ZM6.57004 19.2755C5.68315 17.5998 5.33495 15.6912 5.57297 13.8102C7.71307 15.1819 10.2124 15.8869 12.7539 15.8359C12.7878 15.9085 12.8254 15.9793 12.8667 16.048C11.5242 17.3501 9.23094 19.1179 6.57004 19.2755ZM7.52783 20.7525C10.0095 20.2098 12.2735 18.9409 14.0317 17.1074C14.1073 17.1352 14.1843 17.1592 14.2624 17.1792C14.2332 19.0443 13.8612 21.9214 12.0893 23.9194C10.2861 23.3442 8.69701 22.241 7.52783 20.7525ZM14.9287 24.3583C14.5547 24.3562 14.1812 24.332 13.8101 24.2856C15.1815 22.1453 15.8864 19.6459 15.8354 17.1044C15.908 17.0705 15.9787 17.0328 16.0474 16.9916C17.3541 18.3391 19.1172 20.6304 19.2746 23.2884C17.9338 23.9911 16.4425 24.3582 14.9287 24.3583ZM20.7514 22.3307C20.2089 19.8491 18.94 17.5851 17.1063 15.8271C17.1342 15.7513 17.1582 15.6742 17.1782 15.5959C19.0483 15.6248 21.9222 15.9987 23.9185 17.7689C23.3433 19.5723 22.24 21.1615 20.7514 22.3307ZM24.3573 14.9297C24.3552 15.3038 24.3309 15.6774 24.2846 16.0485C22.1436 14.6792 19.6449 13.975 17.1039 14.0246C17.0699 13.9516 17.0322 13.8804 16.9907 13.8113C18.3339 12.5083 20.6265 10.7415 23.2874 10.5839C23.9901 11.9247 24.3572 13.4159 24.3573 14.9297Z" fill="#54A548"/>
</svg>
