<svg width="62" height="66" viewBox="0 0 62 66" fill="none" xmlns="http://www.w3.org/2000/svg">
<path d="M61.5334 0.971717C61.2447 0.804313 60.8884 0.80271 60.5982 0.967709L48.451 7.87189C48.1582 8.03823 47.9775 8.34845 47.9775 8.68446V35.1406C45.9185 32.5702 43.2067 30.542 40.0943 29.3095V12.7145C40.0943 12.3813 39.9165 12.0733 39.6278 11.9059C39.339 11.7385 38.9827 11.7369 38.6926 11.9019L26.5452 18.8062C26.2526 18.9725 26.0719 19.2828 26.0719 19.6188V29.3095C22.9595 30.542 20.2476 32.5703 18.1886 35.1407V23.649C18.1886 23.3158 18.0108 23.0079 17.7221 22.8405C17.4334 22.6731 17.0772 22.6716 16.7869 22.8365L4.63967 29.7406C4.34688 29.907 4.1662 30.2172 4.1662 30.5532V61.0566C4.1662 61.5731 4.58596 61.9918 5.10376 61.9918H17.251C17.7688 61.9918 18.1886 61.5731 18.1886 61.0566V58.836C21.684 63.1993 27.0614 66 33.0832 66C39.1049 66 44.4822 63.1993 47.9776 58.836V61.0566C47.9776 61.5731 48.3974 61.9918 48.9152 61.9918H61.0624C61.5802 61.9918 62 61.5731 62 61.0566V1.78028C61.9999 1.44708 61.8223 1.13912 61.5334 0.971717ZM27.9469 20.1623L38.219 14.3237V28.6785C36.5843 28.2217 34.8619 27.9766 33.0829 27.9766C31.3041 27.9766 29.5815 28.2217 27.9468 28.6785V20.1623H27.9469ZM16.3133 60.1213H6.0412V31.0966L16.3133 25.2581V37.9599C14.8534 40.6473 14.0235 43.7228 14.0235 46.9882C14.0235 50.2536 14.8534 53.3291 16.3133 56.0165V60.1213ZM33.083 64.1296C23.6076 64.1296 15.8986 56.4399 15.8986 46.9882C15.8986 37.5365 23.6076 29.847 33.083 29.847C42.5585 29.847 50.2673 37.5365 50.2673 46.9882C50.2673 56.4399 42.5585 64.1296 33.083 64.1296ZM60.1247 60.1213H49.8526V56.0167C51.3125 53.3293 52.1424 50.2537 52.1424 46.9882C52.1424 43.7227 51.3125 40.6473 49.8526 37.9599V9.22796L60.1247 3.38952V60.1213ZM33.083 32.4275C25.034 32.4275 18.4857 38.9595 18.4857 46.9882C18.4857 55.0172 25.034 61.549 33.083 61.549C41.132 61.549 47.6804 55.0172 47.6804 46.9882C47.6804 38.9594 41.132 32.4275 33.083 32.4275ZM33.083 59.6786C26.068 59.6786 20.3608 53.9858 20.3608 46.9882C20.3608 39.9908 26.068 34.298 33.083 34.298C40.098 34.298 45.8053 39.9908 45.8053 46.9882C45.8053 53.9858 40.098 59.6786 33.083 59.6786ZM37.6929 50.3196C37.6929 52.3401 36.1237 54.0323 34.0389 54.4351L34.0639 55.4645C34.0763 55.9809 33.6669 56.4095 33.1492 56.422C33.1414 56.4222 33.1338 56.4223 33.1262 56.4223C32.6188 56.4223 32.2016 56.0184 32.1893 55.5097L32.1637 54.4501C30.9197 54.2327 30.1253 53.5787 29.3671 52.8651C28.9904 52.5107 28.9731 51.9188 29.3285 51.543C29.6837 51.1673 30.2772 51.1502 30.6539 51.5045C31.5165 52.3162 32.0446 52.6555 33.0832 52.6555C34.5912 52.6555 35.8179 51.6075 35.8179 50.3196C35.8179 49.0314 34.591 47.9836 33.0832 47.9836C30.5412 47.9836 28.4732 46.0965 28.4732 43.7772C28.4732 41.7559 30.0437 40.063 32.1298 39.6612L32.1022 38.5117C32.0899 37.9954 32.4995 37.5668 33.0171 37.5544C33.5335 37.5424 33.9645 37.9507 33.9769 38.467L34.0061 39.685C35.1371 39.9348 36.5177 40.5826 37.1247 41.504C37.4091 41.9355 37.2888 42.5153 36.8561 42.799C36.4233 43.0825 35.8419 42.9626 35.5577 42.531C35.2424 42.0523 33.8548 41.4412 33.0832 41.4412C31.5752 41.4412 30.3483 42.4891 30.3483 43.7771C30.3483 45.065 31.5752 46.113 33.0832 46.113C35.6249 46.1131 37.6929 48.0001 37.6929 50.3196ZM43.9305 4.18459L1.38337 27.1099C1.24166 27.1862 1.0891 27.2224 0.938558 27.2224C0.605186 27.2224 0.282395 27.0447 0.11283 26.7315C-0.133214 26.2771 0.0364852 25.7097 0.492143 25.4642L42.6772 2.7342L38.8108 1.84695C38.3061 1.73111 37.9912 1.22917 38.1073 0.725755C38.2234 0.22234 38.7265 -0.0916262 39.2312 0.0239401L45.5194 1.46698C45.7617 1.52269 45.972 1.67193 46.104 1.88222C46.2359 2.09238 46.2787 2.34635 46.2229 2.58804L44.7761 8.86069C44.66 9.3641 44.1568 9.67767 43.6522 9.5625C43.1475 9.44667 42.8327 8.94472 42.9488 8.44131L43.9305 4.18459Z" fill="white"/>
</svg>
