<svg width="62" height="62" viewBox="0 0 62 62" fill="none" xmlns="http://www.w3.org/2000/svg">
<path d="M52.7186 25.5544V21.63C53.4176 21.8516 54.1388 21.9637 54.8597 21.9637C56.0888 21.9637 57.3166 21.6419 58.4294 20.9993C60.6099 19.7403 61.9447 17.4842 61.9997 14.9641C62.0069 14.6365 61.8312 14.3323 61.544 14.1746C59.334 12.9624 56.7127 12.9901 54.5321 14.2492C53.8367 14.6507 53.2279 15.154 52.7186 15.7344V12.0694C54.6177 10.7302 55.7372 8.58558 55.7372 6.23711C55.7372 3.7192 54.4508 1.43523 52.2959 0.127452C52.0157 -0.0424839 51.6642 -0.0424839 51.3843 0.127452C49.2294 1.43523 47.9428 3.7192 47.9428 6.23711C47.9428 8.58571 49.0623 10.7302 50.9615 12.0694V15.7344C50.4522 15.154 49.8434 14.6507 49.1479 14.2492C46.9674 12.9901 44.3459 12.9622 42.136 14.1746C41.8487 14.3323 41.6732 14.6365 41.6803 14.9641C41.7354 17.4842 43.0702 19.7403 45.2507 20.9993C46.3636 21.6419 47.5912 21.9637 48.8204 21.9637C49.5411 21.9637 50.2624 21.8516 50.9615 21.63V25.075C50.0782 24.8965 49.1646 24.8024 48.2295 24.8024H42.41C42.1473 20.8392 40.4637 17.1508 37.6149 14.3384C34.5565 11.319 30.505 9.65615 26.2069 9.65615C21.8654 9.65615 17.7868 11.3485 14.7224 14.4214C11.8143 17.3375 10.1453 21.1724 9.98062 25.2822C7.26981 26.0908 4.82533 27.7328 3.04177 29.9562C1.08023 32.4013 0 35.4614 0 38.5731C0 46.1662 6.17741 52.3437 13.7705 52.3437H48.2295C55.8226 52.3437 62 46.1662 62 38.5731C62 32.551 58.1142 27.4202 52.7186 25.5544ZM55.4107 15.7708C56.8949 14.9139 58.6501 14.8135 60.2039 15.4748C59.9996 17.1509 59.035 18.6208 57.5508 19.4778C56.4115 20.1357 55.1124 20.3458 53.8672 20.1096L56.887 18.3661C57.3072 18.1234 57.4512 17.5862 57.2086 17.166C56.9661 16.7458 56.4287 16.6019 56.0085 16.8444L53.0543 18.55C53.4825 17.3945 54.3012 16.4114 55.4107 15.7708ZM49.6999 6.23711C49.6999 4.52332 50.4906 2.95298 51.84 1.93801C53.1895 2.95298 53.9802 4.52332 53.9802 6.23711C53.9802 7.53572 53.5255 8.75125 52.7186 9.70585V6.23711C52.7186 5.7519 52.3252 5.35856 51.84 5.35856C51.3548 5.35856 50.9615 5.7519 50.9615 6.23711V9.70573C50.1545 8.75113 49.6999 7.5356 49.6999 6.23711ZM46.1293 19.4777C44.645 18.6207 43.6805 17.1508 43.4762 15.4746C45.0299 14.8135 46.785 14.9139 48.2694 15.7707C49.3787 16.4112 50.1975 17.3943 50.6258 18.5499L47.6715 16.8443C47.2514 16.6017 46.714 16.7456 46.4714 17.1658C46.2288 17.586 46.3727 18.1233 46.7929 18.3659L49.8127 20.1095C48.5676 20.3458 47.2686 20.1356 46.1293 19.4777ZM48.2295 50.5866H13.7705C7.14632 50.5866 1.75709 45.1973 1.75709 38.5731C1.75709 32.9881 5.58038 28.1513 11.0546 26.8109C11.4477 26.7146 11.7241 26.3622 11.7241 25.9574C11.7238 22.0621 13.2303 18.4058 15.9664 15.6623C18.6988 12.9223 22.3356 11.4134 26.2068 11.4134C34.0831 11.4134 40.5791 17.8192 40.6876 25.6931C40.6942 26.1736 41.0855 26.5595 41.5661 26.5595H48.2295C54.8537 26.5595 60.2429 31.9487 60.2429 38.573C60.2429 45.1972 54.8537 50.5866 48.2295 50.5866ZM26.2068 15.9319C20.2466 15.9319 15.3976 20.7808 15.3976 26.7411C15.3976 32.7014 20.2465 37.5503 26.2068 37.5503C32.1671 37.5503 37.016 32.7013 37.016 26.7411C37.016 20.7809 32.167 15.9319 26.2068 15.9319ZM26.2068 35.7931C21.2154 35.7931 17.1547 31.7324 17.1547 26.741C17.1547 21.7496 21.2154 17.6888 26.2068 17.6888C31.1982 17.6888 35.2589 21.7496 35.2589 26.741C35.2588 31.7324 31.198 35.7931 26.2068 35.7931ZM30.4287 21.1857L23.5067 33.1751C23.344 33.4569 23.0487 33.6145 22.7451 33.6145C22.596 33.6145 22.445 33.5766 22.3066 33.4966C21.8864 33.254 21.7424 32.7167 21.985 32.2965L28.9071 20.3071C29.1497 19.8869 29.687 19.7429 30.1072 19.9856C30.5273 20.2282 30.6713 20.7655 30.4287 21.1857ZM30.1359 26.496C28.6817 26.496 27.4984 27.9071 27.4984 29.6414C27.4984 31.3758 28.6815 32.7869 30.1358 32.7869C31.5901 32.7869 32.7733 31.3758 32.7733 29.6414C32.7733 27.9071 31.5901 26.496 30.1359 26.496ZM30.1358 31.0297C29.7193 31.0297 29.2555 30.4596 29.2555 29.6413C29.2555 28.823 29.7195 28.2529 30.1359 28.2529C30.5523 28.2529 31.0163 28.8231 31.0163 29.6413C31.0163 30.4595 30.5522 31.0297 30.1358 31.0297ZM24.9152 23.8406C24.9152 22.1063 23.7321 20.6952 22.2777 20.6952C20.8233 20.6952 19.6402 22.1063 19.6402 23.8406C19.6402 25.575 20.8233 26.9861 22.2777 26.9861C23.7321 26.9861 24.9152 25.575 24.9152 23.8406ZM21.3974 23.8406C21.3974 23.0225 21.8614 22.4523 22.2778 22.4523C22.6943 22.4523 23.1583 23.0223 23.1583 23.8406C23.1583 24.6589 22.6943 25.229 22.2778 25.229C21.8614 25.229 21.3974 24.6588 21.3974 23.8406ZM47.185 57.4786C47.528 57.8216 47.528 58.378 47.185 58.721L44.1633 61.7427C43.9987 61.9074 43.7751 62 43.5421 62C43.309 62 43.0856 61.9074 42.9208 61.7427L39.8991 58.721C39.5561 58.3779 39.5561 57.8216 39.8991 57.4786C40.2423 57.1356 40.7985 57.1357 41.1415 57.4786L42.6634 59.0005V54.5538C42.6634 54.0686 43.0567 53.6753 43.5419 53.6753C44.0272 53.6753 44.4205 54.0686 44.4205 54.5538V59.0007L45.9424 57.4788C46.2856 57.1356 46.8419 57.1356 47.185 57.4786ZM22.1007 57.4786C22.4437 57.8216 22.4437 58.378 22.1007 58.721L19.0791 61.7427C18.9144 61.9074 18.6909 62 18.4578 62C18.2247 62 18.0013 61.9074 17.8365 61.7427L14.8149 58.721C14.4719 58.3779 14.4719 57.8216 14.8149 57.4786C15.1579 57.1356 15.7142 57.1356 16.0572 57.4786L17.5791 59.0007V54.5538C17.5791 54.0686 17.9725 53.6753 18.4577 53.6753C18.9429 53.6753 19.3362 54.0686 19.3362 54.5538V59.0007L20.8581 57.4788C21.2014 57.1356 21.7575 57.1356 22.1007 57.4786ZM13.6674 36.0178C10.9981 36.0178 8.82647 38.1894 8.82647 40.8587C8.82647 43.5281 10.9981 45.6997 13.6674 45.6997C16.3366 45.6997 18.5083 43.5281 18.5083 40.8587C18.5083 38.1894 16.3366 36.0178 13.6674 36.0178ZM13.6674 43.9426C11.9669 43.9426 10.5836 42.5592 10.5836 40.8587C10.5836 39.1582 11.9669 37.7749 13.6674 37.7749C15.3678 37.7749 16.7512 39.1582 16.7512 40.8587C16.7512 42.5592 15.3678 43.9426 13.6674 43.9426ZM45.8224 36.0178C43.1531 36.0178 40.9815 38.1894 40.9815 40.8587C40.9815 43.5281 43.1531 45.6997 45.8224 45.6997C48.4918 45.6997 50.6634 43.5281 50.6634 40.8587C50.6634 38.1894 48.4917 36.0178 45.8224 36.0178ZM45.8224 43.9426C44.1219 43.9426 42.7386 42.5592 42.7386 40.8587C42.7386 39.1582 44.1219 37.7749 45.8224 37.7749C47.5229 37.7749 48.9063 39.1582 48.9063 40.8587C48.9063 42.5592 47.5229 43.9426 45.8224 43.9426Z" fill="white"/>
</svg>
