<svg width="31" height="34" viewBox="0 0 31 34" fill="none" xmlns="http://www.w3.org/2000/svg">
<path d="M11.2013 5.92436C10.741 6.67401 10.4751 7.55598 10.4751 8.50022C10.4751 9.02439 10.5589 9.5286 10.7106 10.0024H20.0994C20.2511 9.52854 20.335 9.02439 20.335 8.50022C20.335 5.77749 18.1278 3.57031 15.4051 3.57031C14.443 3.57031 13.546 3.84685 12.7874 4.32338" stroke="#54A548" stroke-miterlimit="10" stroke-linecap="round" stroke-linejoin="round"/>
<path d="M15.4053 1V1.69435" stroke="#54A548" stroke-miterlimit="10" stroke-linecap="round" stroke-linejoin="round"/>
<path d="M7.90576 8.5H8.60011" stroke="#54A548" stroke-miterlimit="10" stroke-linecap="round" stroke-linejoin="round"/>
<path d="M22.2095 8.5H22.9038" stroke="#54A548" stroke-miterlimit="10" stroke-linecap="round" stroke-linejoin="round"/>
<path d="M11.6558 2.00391L12.0029 2.60521" stroke="#54A548" stroke-miterlimit="10" stroke-linecap="round" stroke-linejoin="round"/>
<path d="M21.2979 5.09717L21.8992 4.75" stroke="#54A548" stroke-miterlimit="10" stroke-linecap="round" stroke-linejoin="round"/>
<path d="M8.91064 4.75L9.51202 5.09717" stroke="#54A548" stroke-miterlimit="10" stroke-linecap="round" stroke-linejoin="round"/>
<path d="M18.8071 2.60521L19.1543 2.00391" stroke="#54A548" stroke-miterlimit="10" stroke-linecap="round" stroke-linejoin="round"/>
<path d="M16.6402 26.668H14.1704V30.1546H16.6402V26.668Z" stroke="#54A548" stroke-miterlimit="10" stroke-linecap="round" stroke-linejoin="round"/>
<path d="M8.3869 26.6654H29.1663C29.5219 26.6654 29.8101 26.3771 29.8101 26.0215V24.4062H1V26.0215C1 26.3771 1.28826 26.6654 1.64387 26.6654H6.13337" stroke="#54A548" stroke-miterlimit="10" stroke-linecap="round" stroke-linejoin="round"/>
<path d="M29.8101 24.4063H1L4.62388 10.4817C4.69773 10.198 4.95386 10 5.24702 10H25.5631C25.8563 10 26.1124 10.198 26.1862 10.4817L29.8101 24.4063Z" stroke="#54A548" stroke-miterlimit="10" stroke-linecap="round" stroke-linejoin="round"/>
<path d="M19.4293 18.3749C18.807 18.3749 18.3025 17.8704 18.3025 17.2482C18.3025 16.6571 18.7577 16.1733 19.3366 16.1261L18.6927 10H12.1175L11.4737 16.1261C12.0525 16.1733 12.5078 16.6572 12.5078 17.2482C12.5078 17.8704 12.0033 18.3749 11.381 18.3749C11.3326 18.3749 11.2852 18.3709 11.2384 18.3649L10.6035 24.4064H20.2069L19.572 18.3649C19.525 18.3709 19.4777 18.3749 19.4293 18.3749Z" stroke="#54A548" stroke-miterlimit="10" stroke-linecap="round" stroke-linejoin="round"/>
<path d="M22.391 17.2031H20.5538C20.5543 17.2182 20.556 17.2329 20.556 17.2481C20.556 17.8704 20.0515 18.3749 19.4292 18.3749C18.8069 18.3749 18.3025 17.8704 18.3025 17.2481C18.3025 17.2329 18.3041 17.2182 18.3047 17.2031H12.5053C12.5059 17.2182 12.5076 17.2329 12.5076 17.2481C12.5076 17.8704 12.0031 18.3749 11.3808 18.3749C10.7585 18.3749 10.2541 17.8704 10.2541 17.2481C10.2541 17.2329 10.2557 17.2182 10.2563 17.2031H2.87462L1 24.4063H29.8101L27.9354 17.2031H24.6446" stroke="#54A548" stroke-miterlimit="10" stroke-linecap="round" stroke-linejoin="round"/>
<path d="M8.87793 32.9992V32.5547C8.87793 31.2279 9.95351 30.1523 11.2803 30.1523H19.5294C20.8563 30.1523 21.9318 31.2279 21.9318 32.5547V32.9992H8.87793Z" stroke="#54A548" stroke-miterlimit="10" stroke-linecap="round" stroke-linejoin="round"/>
<path d="M1 33H29.8101" stroke="#54A548" stroke-miterlimit="10" stroke-linecap="round" stroke-linejoin="round"/>
<path d="M11.3812 18.3746C12.0035 18.3746 12.5079 17.8702 12.5079 17.2479C12.5079 16.6256 12.0035 16.1211 11.3812 16.1211C10.7589 16.1211 10.2544 16.6256 10.2544 17.2479C10.2544 17.8702 10.7589 18.3746 11.3812 18.3746Z" stroke="#54A548" stroke-miterlimit="10"/>
<path d="M19.4295 18.3746C20.0518 18.3746 20.5563 17.8702 20.5563 17.2479C20.5563 16.6256 20.0518 16.1211 19.4295 16.1211C18.8072 16.1211 18.3027 16.6256 18.3027 17.2479C18.3027 17.8702 18.8072 18.3746 19.4295 18.3746Z" stroke="#54A548" stroke-miterlimit="10"/>
<path d="M11.3812 18.3746C12.0035 18.3746 12.5079 17.8702 12.5079 17.2479C12.5079 16.6256 12.0035 16.1211 11.3812 16.1211C10.7589 16.1211 10.2544 16.6256 10.2544 17.2479C10.2544 17.8702 10.7589 18.3746 11.3812 18.3746Z" stroke="#54A548" stroke-miterlimit="10" stroke-linecap="round" stroke-linejoin="round"/>
<path d="M19.4295 18.3746C20.0518 18.3746 20.5563 17.8702 20.5563 17.2479C20.5563 16.6256 20.0518 16.1211 19.4295 16.1211C18.8072 16.1211 18.3027 16.6256 18.3027 17.2479C18.3027 17.8702 18.8072 18.3746 19.4295 18.3746Z" stroke="#54A548" stroke-miterlimit="10" stroke-linecap="round" stroke-linejoin="round"/>
</svg>
