<svg width="256" height="179" viewBox="0 0 256 179" fill="none" xmlns="http://www.w3.org/2000/svg">
<path d="M19.7931 172.541C19.7931 171.54 17.0728 157.532 33.3946 138.519C49.7178 119.506 47.9033 119.506 43.3699 109C38.8366 98.4931 34.7554 84.4837 44.2772 78.9795C53.7989 73.4752 59.2395 68.9723 61.0526 55.9641C62.8656 42.9559 71.9338 19.9405 100.953 22.4423C129.97 24.9441 131.785 27.9465 137.225 39.4528C142.666 50.9605 149.014 49.9592 162.615 47.4574C176.217 44.9556 188.459 38.9522 194.353 56.4633C200.247 73.9745 188.459 81.9805 210.222 93.4882C231.986 104.996 233.346 99.4917 229.718 117.503C226.091 135.515 218.837 136.517 222.917 148.023C226.998 159.53 242.412 161.532 234.251 172.539H19.7931V172.541Z" fill="white" fill-opacity="0.3"/>
<path d="M125.034 178.834C187.689 178.834 238.481 176.275 238.481 173.118C238.481 169.961 187.689 167.402 125.034 167.402C62.3795 167.402 11.5879 169.961 11.5879 173.118C11.5879 176.275 62.3795 178.834 125.034 178.834Z" fill="#231F20"/>
<path d="M66.6521 8.05661C63.4533 7.10789 60.7261 7.2213 59.1619 7.43151C58.3004 7.54768 57.3793 7.39417 56.851 7.0346C52.8307 4.29078 48.8049 4.63238 45.9905 5.49812C37.8462 -1.47067 28.6744 6.67779 28.6744 6.67779C24.0926 5.30035 20.7887 6.66258 18.8401 8.02618C17.6853 8.83384 18.8152 9.95543 20.7998 9.96096L33.5106 9.99968C33.7499 10.0453 34.0154 10.0716 34.3003 10.0716L56.0019 10.0674L57.5771 10.073C57.5771 10.073 57.5729 10.0702 57.5701 10.0674H65.5416C67.7336 10.0661 68.5399 8.61671 66.6549 8.05799L66.6521 8.05661Z" fill="#E5E5E5"/>
<path d="M185.755 8.74921C183.653 8.12549 181.859 8.20017 180.832 8.33847C180.265 8.41453 179.659 8.31496 179.313 8.07708C176.67 6.27369 174.025 6.49773 172.174 7.06752C166.822 2.48712 160.793 7.84198 160.793 7.84198C157.781 6.93613 155.609 7.8323 154.329 8.72846C153.569 9.25952 154.312 9.99664 155.616 10.0008L163.971 10.0257C164.128 10.0561 164.303 10.0727 164.489 10.0727L178.753 10.0699L179.788 10.0727C179.788 10.0727 179.785 10.0699 179.784 10.0699H185.022C186.463 10.0699 186.993 9.11708 185.754 8.74921H185.755Z" fill="#E5E5E5"/>
<path d="M186.501 115.437L190.039 33.6837C190.066 33.0475 190.589 32.5469 191.227 32.5469H194.088C194.731 32.5469 195.258 33.0586 195.276 33.7017L197.601 115.454C197.62 116.124 197.082 116.677 196.413 116.677H187.689C187.013 116.677 186.472 116.113 186.501 115.437Z" fill="#888888"/>
<path d="M195.275 33.6986C195.258 33.0818 194.771 32.5895 194.162 32.5508C194.245 32.7071 194.298 32.8813 194.303 33.0694L196.628 114.822C196.647 115.492 196.109 116.045 195.44 116.045H186.716C186.69 116.045 186.666 116.039 186.642 116.036C186.841 116.413 187.231 116.674 187.689 116.674H196.412C197.082 116.674 197.62 116.121 197.6 115.451L195.275 33.6986Z" fill="#BBBCBD"/>
<path d="M195.276 33.6977C195.258 33.0547 194.731 32.543 194.088 32.543H191.227C190.591 32.543 190.067 33.045 190.039 33.6798L189.345 49.7264C191.169 52.3969 193.938 56.2498 195.989 58.7447L195.276 33.6964V33.6977Z" fill="#888888"/>
<path d="M188.685 100.258H190.625C191.015 100.258 191.33 100.575 191.33 100.963V109.058C191.33 109.448 191.014 109.763 190.625 109.763H188.685C188.295 109.763 187.979 109.446 187.979 109.058V100.963C187.979 100.573 188.296 100.258 188.685 100.258Z" fill="#509EB6"/>
<path d="M184.495 31.3518C188.073 31.1402 192.182 31.0669 196.718 31.2813C200.226 31.4472 203.453 31.7612 206.357 32.1456C206.843 32.2093 206.95 32.7113 206.518 32.8828C204.043 33.8688 200.93 34.9033 197.224 35.7054C193.032 36.6112 189.284 36.9611 186.326 37.0745C185.716 35.166 185.105 33.2589 184.495 31.3504V31.3518Z" fill="#BBBCBD"/>
<path d="M185.575 34.7261C190.453 35.3622 199.639 34.0678 201.017 33.1315C202.015 32.4539 201.492 31.9021 200.857 31.5508C202.797 31.7126 204.635 31.9159 206.357 32.1441C206.842 32.2077 206.95 32.7097 206.518 32.8812C204.043 33.8673 200.93 34.9017 197.224 35.7038C193.032 36.6097 189.284 36.9596 186.326 37.073C186.076 36.2902 185.826 35.5075 185.575 34.7261Z" fill="#888888"/>
<path d="M183.662 34.5093C184.143 36.0942 185.296 37.2489 186.237 37.0899C187.177 36.9295 187.549 35.5161 187.068 33.9312C186.587 32.3463 185.433 31.1915 184.493 31.3506C183.552 31.5096 183.18 32.9244 183.662 34.5093Z" fill="#D3CBD3"/>
<path d="M183.662 34.5093C184.143 36.0942 185.296 37.2489 186.237 37.0899C187.177 36.9295 187.549 35.5161 187.068 33.9312C186.587 32.3463 185.433 31.1915 184.493 31.3506C183.552 31.5096 183.18 32.9244 183.662 34.5093Z" fill="#D3CBD3"/>
<path d="M184.492 31.3505C184.62 31.3283 184.751 31.3325 184.885 31.356C184.21 31.7709 183.988 33.0128 184.404 34.3819C184.82 35.7511 185.738 36.7994 186.588 36.9557C186.481 37.0207 186.365 37.0663 186.238 37.0884C185.297 37.2475 184.144 36.0927 183.663 34.5078C183.181 32.9229 183.553 31.5095 184.494 31.3491L184.492 31.3505Z" fill="#CEC0CD"/>
<path d="M182.479 35.8885C182.479 35.8885 159.745 41.7495 147.713 39.2532C147.313 39.1703 147.262 38.6143 147.639 38.458C151.203 36.9699 163.087 32.7477 182.203 33.2387L182.479 35.8885Z" fill="#BBBCBD"/>
<path d="M184.176 32.0299C184.176 32.0299 190.313 9.36856 198.429 0.141391C198.698 -0.165628 199.206 0.0653276 199.157 0.470537C198.69 4.30413 196.49 16.7218 186.618 33.0989L184.177 32.0299H184.176Z" fill="#BBBCBD"/>
<path d="M187.059 35.457C187.059 35.457 202.925 52.7635 206.382 64.5547C206.497 64.9475 206.031 65.2531 205.714 64.9945C202.725 62.5494 193.408 54.0497 184.851 36.9479L187.059 35.457Z" fill="#888888"/>
<path d="M184.2 30.72C185.839 30.1101 187.572 31.24 188.069 33.2453C188.569 35.2506 187.645 37.3707 186.006 37.9806C184.367 38.5905 182.634 37.4606 182.136 35.4553C181.637 33.45 182.561 31.3299 184.2 30.72Z" fill="#888888"/>
<path d="M183.936 30.72C185.378 30.1101 186.902 31.24 187.342 33.2453C187.78 35.2506 186.969 37.3707 185.526 37.9806C184.084 38.5905 182.56 37.4606 182.12 35.4553C181.681 33.45 182.493 31.3299 183.936 30.72Z" fill="#BBBCBD"/>
<path d="M183.912 32.6214C184.54 32.3323 185.204 32.8675 185.396 33.8176C185.587 34.7677 185.233 35.7718 184.605 36.0608C183.977 36.3498 183.313 35.8146 183.121 34.8645C182.93 33.9144 183.284 32.9104 183.912 32.6214Z" fill="#22AB00"/>
<path d="M95.9578 98.4078L98.5066 39.514C98.526 39.0563 98.9035 38.6953 99.3627 38.6953H101.423C101.887 38.6953 102.266 39.0646 102.279 39.5279L103.954 98.4216C103.968 98.9043 103.581 99.3026 103.098 99.3026H96.8139C96.3271 99.3026 95.9371 98.896 95.9578 98.4092V98.4078Z" fill="#888888"/>
<path d="M102.28 39.5262C102.267 39.0809 101.916 38.7269 101.477 38.6992C101.537 38.8112 101.574 38.9371 101.578 39.0726L103.253 97.9664C103.267 98.449 102.88 98.8473 102.397 98.8473H96.1116C96.0936 98.8473 96.0756 98.8432 96.0576 98.8418C96.2014 99.1128 96.4822 99.3009 96.8113 99.3009H103.097C103.58 99.3009 103.967 98.9026 103.953 98.42L102.278 39.5262H102.28Z" fill="#BBBCBD"/>
<path d="M102.279 39.5279C102.265 39.0646 101.886 38.6953 101.423 38.6953H99.3626C98.9034 38.6953 98.5272 39.0563 98.5065 39.514L98.0059 51.0743C99.3197 52.998 101.315 55.7736 102.792 57.5715L102.279 39.5265V39.5279Z" fill="#888888"/>
<path d="M97.5314 87.4727H98.9282C99.2089 87.4727 99.4371 87.7008 99.4371 87.9816V93.8122C99.4371 94.0929 99.2089 94.3211 98.9282 94.3211H97.5314C97.2506 94.3211 97.0225 94.0929 97.0225 93.8122V87.9816C97.0225 87.7008 97.2506 87.4727 97.5314 87.4727Z" fill="#509EB6"/>
<path d="M94.5137 37.8348C97.0901 37.6827 100.051 37.6302 103.318 37.7837C105.844 37.9026 108.169 38.1294 110.262 38.406C110.611 38.4516 110.689 38.8126 110.378 38.9371C108.595 39.6479 106.353 40.3933 103.683 40.97C100.664 41.6228 97.9628 41.8745 95.833 41.9561C95.3932 40.5814 94.9535 39.2067 94.5137 37.8321V37.8348Z" fill="#BBBCBD"/>
<path d="M95.293 40.2693C98.8071 40.727 105.425 39.7949 106.418 39.12C107.135 38.6318 106.759 38.2336 106.301 37.9805C107.7 38.0966 109.023 38.2432 110.264 38.4078C110.614 38.4534 110.691 38.8144 110.38 38.9389C108.597 39.6497 106.355 40.3951 103.685 40.9718C100.666 41.6246 97.9649 41.8763 95.8351 41.9579C95.6553 41.3936 95.4741 40.8308 95.2944 40.2665L95.293 40.2693Z" fill="#888888"/>
<path d="M93.9126 40.1098C94.2597 41.2521 95.0909 42.0833 95.7685 41.9685C96.4462 41.8537 96.7145 40.8345 96.3673 39.6935C96.0202 38.5526 95.1891 37.72 94.5114 37.8348C93.8337 37.9496 93.5654 38.9688 93.9126 40.1098Z" fill="#D3CBD3"/>
<path d="M93.9126 40.1098C94.2597 41.2521 95.0909 42.0833 95.7685 41.9685C96.4462 41.8537 96.7145 40.8345 96.3673 39.6935C96.0202 38.5526 95.1891 37.72 94.5114 37.8348C93.8337 37.9496 93.5654 38.9688 93.9126 40.1098Z" fill="#D3CBD3"/>
<path d="M94.5112 37.8347C94.6025 37.8195 94.6979 37.8208 94.7934 37.8388C94.3066 38.1375 94.1475 39.0323 94.4462 40.0184C94.7463 41.0058 95.4074 41.7595 96.0187 41.8729C95.9426 41.92 95.8583 41.9532 95.7656 41.9684C95.0879 42.0832 94.2568 41.252 93.9096 40.1097C93.5625 38.9687 93.8308 37.9495 94.5085 37.8347H94.5112Z" fill="#CEC0CD"/>
<path d="M93.0606 41.1024C93.0606 41.1024 76.6821 45.3246 68.015 43.5254C67.7273 43.4659 67.69 43.0662 67.9625 42.9528C70.5292 41.881 79.0912 38.8385 92.8614 39.1926L93.0606 41.1024Z" fill="#BBBCBD"/>
<path d="M94.2832 38.3245C94.2832 38.3245 98.7046 21.9985 104.55 15.352C104.745 15.1307 105.11 15.2967 105.075 15.5899C104.738 18.3516 103.154 27.2981 96.041 39.0948L94.2832 38.3245Z" fill="#BBBCBD"/>
<path d="M96.3604 40.793C96.3604 40.793 107.791 53.2604 110.28 61.7546C110.363 62.0368 110.027 62.258 109.799 62.0713C107.645 60.3108 100.934 54.1856 94.7686 41.8675L96.3604 40.7944V40.793Z" fill="#BBBCBD"/>
<path d="M94.3001 37.381C95.4798 36.9412 96.7286 37.7558 97.0882 39.1996C97.4477 40.6434 96.7825 42.1716 95.6015 42.6114C94.4218 43.0511 93.173 42.2366 92.8134 40.7928C92.4538 39.3489 93.119 37.8208 94.3001 37.381Z" fill="#888888"/>
<path d="M94.11 37.381C95.1486 36.9412 96.2481 37.7558 96.5634 39.1996C96.8801 40.6434 96.2937 42.1716 95.2551 42.6114C94.2165 43.0511 93.117 42.2366 92.8017 40.7928C92.485 39.3489 93.0714 37.8208 94.11 37.381Z" fill="#BBBCBD"/>
<path d="M94.0927 38.752C94.5449 38.5432 95.0234 38.9291 95.1617 39.6136C95.3 40.2982 95.0442 41.0215 94.5919 41.2289C94.1397 41.4364 93.6612 41.0519 93.5229 40.3673C93.3846 39.6828 93.6404 38.9595 94.0927 38.752Z" fill="#64C44D"/>
<path d="M220.134 172.493C220.134 172.493 222.734 149.973 223.533 148.61C223.533 148.61 221.016 142.935 221.076 140.469C221.076 140.469 214.414 139.606 210.329 135.157C210.329 135.157 210.152 129.539 205.74 125.031C205.74 125.031 205.711 124.739 206.036 124.804C206.361 124.869 211.099 128.631 211.216 134.08C211.216 134.08 215.717 137.939 220.897 137.874C220.897 137.874 224.193 133.885 223.839 128.133C223.839 128.133 222.378 125.754 222.102 123.375C222.102 123.375 219.122 122.727 217.048 120.229C217.048 120.229 216.693 116.986 215.39 115.526C215.39 115.526 215.39 115.185 215.657 115.412C215.924 115.639 217.385 117.321 217.602 119.592C217.602 119.592 220.74 121.905 222.142 121.883C222.142 121.883 224.537 120.175 224.642 117.018C224.642 117.018 223.979 115.764 223.979 114.769C223.979 114.769 220.445 112.52 219.893 111.115C219.893 111.115 220.051 111.028 220.229 111.266C220.406 111.504 223.171 113.818 223.801 113.926C223.801 113.926 224.472 110.985 225.025 110.92C225.579 110.855 224.985 112.11 225.025 112.953C225.066 113.797 225.42 116.326 225.815 116.845C225.815 116.845 229.506 116.391 231.223 114.531C231.223 114.531 231.578 114.444 231.38 114.877C231.182 115.31 227.435 117.675 226.011 117.667C226.011 117.667 225.558 120.867 223.998 122.272C223.998 122.272 224.117 126.293 226.071 127.656C226.071 127.656 228.834 126.228 230.137 126.186C231.44 126.143 232.032 126.163 232.032 126.163C232.032 126.163 235.012 124.931 236.512 122.12C236.512 122.12 236.77 121.947 236.848 122.335C236.927 122.724 235.605 125.903 232.467 127.049C232.467 127.049 229.224 126.827 226.466 128.974C226.466 128.974 226.851 135.309 224.512 137.58C224.512 137.58 224.305 145.073 227.237 147.569C227.237 147.569 232.536 142.055 237.865 142.282C237.865 142.282 240.144 139.393 240.707 134.821C240.707 134.821 240.943 134.268 241.239 134.821C241.535 135.374 240.499 141.503 238.545 143.547C238.545 143.547 230.463 145.396 226.999 150.52C226.999 150.52 226.413 169.603 226.827 171.322C227.242 173.041 226.136 174.565 223.315 174.338C220.492 174.111 220.015 172.93 220.137 172.489L220.134 172.493Z" fill="#644250"/>
<path d="M223.537 135.927C223.537 135.927 219.727 139.105 213.115 136.639C213.115 136.639 210.333 141.098 204.674 137.864C199.016 134.632 204.141 130.08 204.141 130.08C204.141 130.08 197.719 127.448 202.569 123.776C202.569 123.776 200.406 117.674 204.974 115.746C209.54 113.819 211.871 114.521 211.871 114.521C211.871 114.521 212.555 112.751 214.96 112.586L215.488 110.504C215.488 110.504 210.376 108.375 212.086 103.948C213.797 99.5214 221.62 100.064 221.62 100.064C221.62 100.064 224.92 95.3131 228.911 98.7027C228.911 98.7027 241.461 93.7503 241.438 103.233C241.438 103.233 246.062 104.102 245.882 107.348C245.701 110.592 244.142 111.346 244.142 111.346C244.142 111.346 247.97 114.316 245.258 117.842C245.258 117.842 252.549 116.481 253.725 121.896C254.9 127.311 251.567 127.647 251.567 127.647C251.567 127.647 254.502 133.264 247.669 137.395C247.669 137.395 244.13 144.533 235.99 141.319C235.99 141.319 230.13 143.983 226.198 141.45C222.266 138.918 223.539 135.929 223.539 135.929L223.537 135.927Z" fill="#297A38"/>
<path d="M241.169 129.788C241.169 129.788 235.309 132.452 231.377 129.92C227.446 127.387 228.718 124.399 228.718 124.399C228.718 124.399 224.908 127.577 218.296 125.111C218.296 125.111 215.513 129.57 209.854 126.336C204.196 123.104 209.322 118.552 209.322 118.552C209.322 118.552 206.305 117.315 205.968 115.355C205.649 115.473 205.318 115.602 204.974 115.747C200.407 117.675 202.569 123.776 202.569 123.776C197.719 127.448 204.141 130.08 204.141 130.08C204.141 130.08 199.016 134.633 204.674 137.865C210.331 141.097 213.115 136.639 213.115 136.639C219.727 139.105 223.537 135.927 223.537 135.927C223.537 135.927 222.265 138.916 226.197 141.448C230.129 143.98 235.988 141.317 235.988 141.317C244.128 144.532 247.667 137.393 247.667 137.393C254.322 133.37 251.713 127.939 251.571 127.658C249.901 129.527 246.533 131.907 241.166 129.788H241.169Z" fill="#297A38"/>
<path d="M252.848 125.864C252.848 125.864 252.441 126.682 251.588 127.641C251.783 127.613 253.409 127.321 253.859 125.188C253.546 125.416 253.214 125.642 252.848 125.864Z" fill="#1E695E"/>
<path d="M252.88 127.262C252.88 127.262 256.213 126.913 254.99 120.822C253.768 114.732 246.485 116.198 246.485 116.198C246.485 116.198 236.161 116.035 237.214 123.985C238.266 131.936 223.853 124.514 224.905 136.325C224.905 136.325 223.658 139.671 227.613 142.547C231.569 145.424 237.409 142.482 237.409 142.482C245.581 146.161 249.062 138.175 249.062 138.175C255.863 133.594 252.88 127.26 252.88 127.26V127.262Z" fill="#297A38"/>
<path d="M211.448 111.325C211.448 111.325 208.942 110.576 204.031 112.638C199.118 114.698 201.44 121.212 201.44 121.212C196.222 125.134 203.128 127.94 203.128 127.94C203.128 127.94 212.439 122.294 209.369 119.345C206.297 116.398 222.426 116.112 214.771 109.258C212.185 109.435 211.448 111.325 211.448 111.325Z" fill="#297A38"/>
<path d="M225.395 165.611C225.395 165.611 224.392 172.796 223.39 164.943C222.89 161.036 222.682 156.716 222.597 153.359C221.537 160.352 220.134 172.494 220.134 172.494C220.013 172.934 220.49 174.116 223.312 174.343C224.668 174.452 225.622 174.155 226.208 173.628C225.51 170.51 225.395 165.611 225.395 165.611Z" fill="#9B4754"/>
<path d="M224.643 145.898C224.643 145.898 224.978 149.324 224.643 153.835C224.308 158.347 225.478 156.091 225.646 152.665C225.813 149.24 224.643 145.898 224.643 145.898Z" fill="#9B4754"/>
<path d="M132.208 173.401H56.0311L55.9951 114.261L114.471 108.176H132.172L132.208 173.401Z" fill="white"/>
<g style="mix-blend-mode:multiply">
<path d="M132.172 117.61V108.176L55.9951 112.391V117.61H132.172Z" fill="#D0D1D3"/>
</g>
<path d="M165.396 114.691L165.24 66.9961H96.4996L52.2598 114.691H165.396Z" fill="#231F20"/>
<path d="M132.037 99.6122L132.114 99.6302L148.382 82.3292L128.163 82.2656C127.673 82.982 127.102 83.5794 126.484 83.9805C126.372 84.1202 126.266 84.2626 126.147 84.4023C124.968 85.788 123.659 86.8834 122.404 87.9303C122.021 88.2497 121.652 88.4461 121.301 88.5595C119.022 91.5619 116.373 94.2435 114.037 97.1602C113.363 98.0038 112.659 98.7907 111.939 99.55L132.037 99.6136V99.6122Z" fill="#D0D1D3"/>
<path d="M128.161 82.2656C127.672 82.982 127.101 83.5794 126.482 83.9805C126.37 84.1202 126.264 84.2626 126.145 84.4023C124.967 85.788 123.657 86.8834 122.403 87.9303C122.02 88.2497 121.65 88.4461 121.299 88.5581C119.02 91.5606 116.371 94.2435 114.036 97.1588C113.361 98.001 112.658 98.7907 111.94 99.5486H111.978L128.323 82.2656H128.161Z" fill="#90BEDA"/>
<path d="M132.037 99.6106L148.381 82.3276L129.867 82.2695L113.521 99.5525L132.037 99.6106Z" fill="#BBBCBD"/>
<path d="M131.943 98.8631L146.881 83.0682L129.961 83.0156L115.022 98.8105L131.943 98.8631Z" fill="#424242"/>
<path d="M119.249 99.1531L134.967 82.5326L134.326 82.5312L118.605 99.1518L119.249 99.1531Z" fill="#BBBCBD"/>
<path d="M123.399 99.1702L139.118 82.5483L138.475 82.5469L122.756 99.1674L123.399 99.1702Z" fill="#BBBCBD"/>
<path d="M143.619 87.1785L144.389 86.3639L126.608 86.3086C126.355 86.6198 126.083 86.8853 125.801 87.1232L143.619 87.1799V87.1785Z" fill="#BBBCBD"/>
<path d="M139.474 91.3738L140.245 90.5592L122.464 90.5039C122.211 90.8151 121.938 91.0806 121.656 91.3185L139.474 91.3752V91.3738Z" fill="#BBBCBD"/>
<path d="M135.331 95.573L136.101 94.7584L118.32 94.7031C118.067 95.0143 117.795 95.2798 117.513 95.5177L135.331 95.5744V95.573Z" fill="#BBBCBD"/>
<path d="M127.549 99.1819L143.268 82.5614L142.625 82.5586L126.906 99.1805L127.549 99.1819Z" fill="#BBBCBD"/>
<path d="M112.188 99.5492L128.439 82.2662L89.8671 82.1445L73.6172 99.4275L112.188 99.5492Z" fill="#D0D1D3"/>
<path d="M92.0367 99.4856L108.382 82.2026L89.8668 82.1445L73.5215 99.4275L92.0367 99.4856Z" fill="#BBBCBD"/>
<path d="M91.9427 98.7381L106.88 82.9432L89.9609 82.8906L75.0234 98.6855L91.9427 98.7381Z" fill="#424242"/>
<path d="M79.2481 99.0295L94.9684 82.409L94.3253 82.4062L78.6064 99.0282L79.2481 99.0295Z" fill="#BBBCBD"/>
<path d="M83.3989 99.0452L99.1178 82.4246L98.4761 82.4219L82.7559 99.0424L83.3989 99.0452Z" fill="#BBBCBD"/>
<path d="M103.619 87.0535L104.389 86.2389L86.6084 86.1836C86.3554 86.4948 86.0829 86.7603 85.8008 86.9982L103.619 87.0535Z" fill="#BBBCBD"/>
<path d="M99.4754 91.2488L100.246 90.4342L82.4649 90.3789C82.2118 90.6901 81.9394 90.9556 81.6572 91.1935L99.4754 91.2488Z" fill="#BBBCBD"/>
<path d="M95.3319 95.448L96.1022 94.6334L78.3213 94.5781C78.0682 94.8893 77.7958 95.1548 77.5137 95.3927L95.3319 95.448Z" fill="#BBBCBD"/>
<path d="M87.5493 99.0555L103.268 82.435L102.625 82.4336L86.9062 99.0541L87.5493 99.0555Z" fill="#BBBCBD"/>
<path d="M112.094 99.5481L128.44 82.2651L109.924 82.207L93.5791 99.49L112.094 99.5481Z" fill="#BBBCBD"/>
<path d="M112.001 98.8006L126.938 83.0057L110.019 82.9531L95.0801 98.7466L112.001 98.8006Z" fill="#424242"/>
<path d="M99.3062 99.092L115.026 82.4715L114.383 82.4688L98.6631 99.0893L99.3062 99.092Z" fill="#BBBCBD"/>
<path d="M103.457 99.1063L119.175 82.4858L118.534 82.4844L102.813 99.1049L103.457 99.1063Z" fill="#BBBCBD"/>
<path d="M123.677 87.116L124.447 86.3014L106.666 86.2461C106.413 86.5573 106.141 86.8228 105.858 87.0607L123.677 87.116Z" fill="#BBBCBD"/>
<path d="M119.533 91.3113L120.303 90.4967L102.523 90.4414C102.269 90.7526 101.997 91.0181 101.715 91.256L119.533 91.3113Z" fill="#BBBCBD"/>
<path d="M115.388 95.5105L116.159 94.6959L98.378 94.6406C98.1249 94.9518 97.8524 95.2173 97.5703 95.4552L115.388 95.5105Z" fill="#BBBCBD"/>
<path d="M107.607 99.1194L123.326 82.4975L122.683 82.4961L106.964 99.1166L107.607 99.1194Z" fill="#BBBCBD"/>
<path d="M114.354 172.688H96.2551L96.2178 137.82H114.318L114.354 172.688Z" fill="#231F20"/>
<path d="M112.657 172.688H97.9524L97.915 139.648H112.622L112.657 172.688Z" fill="white"/>
<path d="M111.067 152.503C111.067 152.973 110.631 153.353 110.094 153.353C109.558 153.353 109.122 152.973 109.122 152.503C109.122 152.033 109.558 151.652 110.094 151.652C110.631 151.652 111.067 152.033 111.067 152.503Z" fill="#231F20"/>
<path d="M204.05 173.397H126.815L126.779 108.172L165.396 67.3164L204.014 108.172L204.05 173.397Z" fill="#E5E5E5"/>
<g style="mix-blend-mode:multiply">
<path d="M165.396 67.3164L126.779 108.172V118.078L165.396 78.9223L204.014 118.078V108.172L165.396 67.3164Z" fill="#D0D1D3"/>
</g>
<path d="M86.5655 123.77H62.748V152.692H86.5655V123.77Z" fill="#231F20"/>
<path d="M84.6642 126.078H64.6484V150.385H84.6642V126.078Z" fill="white"/>
<path d="M75.4647 124.543H73.7803V152.515H75.4647V124.543Z" fill="#231F20"/>
<path d="M85.6767 137.465H63.5713V139.597H85.6767V137.465Z" fill="#231F20"/>
<path d="M159.79 123.77H135.973V152.692H159.79V123.77Z" fill="#231F20"/>
<path d="M157.889 126.078H137.873V150.385H157.889V126.078Z" fill="url(#paint0_linear_941_1153)"/>
<path d="M157.889 126.078H137.873V150.385H157.889V126.078Z" fill="#E5E5E5"/>
<path d="M148.689 124.543H147.005V152.515H148.689V124.543Z" fill="#231F20"/>
<path d="M158.901 137.465H136.796V139.597H158.901V137.465Z" fill="#231F20"/>
<path d="M196.545 123.77H172.728V152.692H196.545V123.77Z" fill="#231F20"/>
<path d="M194.644 126.078H174.628V150.385H194.644V126.078Z" fill="url(#paint1_linear_941_1153)"/>
<path d="M194.644 126.078H174.628V150.385H194.644V126.078Z" fill="#E5E5E5"/>
<path d="M185.444 124.543H183.76V152.515H185.444V124.543Z" fill="#231F20"/>
<path d="M195.654 137.465H173.549V139.597H195.654V137.465Z" fill="#231F20"/>
<path d="M208.13 111.207L168.726 70.5904L168.737 70.5794L168.368 70.2212L165.335 67.0943L165.24 66.9961L165.146 67.0943L162.113 70.2212L161.742 70.5794L161.753 70.5904L122.35 111.207L125.941 114.691L165.24 74.1848L204.538 114.691L208.13 111.207Z" fill="#231F20"/>
<path d="M56.0307 173.401H126.815H132.207H204.05L204.048 170.91H56.0293L56.0307 173.401Z" fill="#101938"/>
<path d="M130.511 40.278L121.449 55.1283C120.707 56.3439 121.501 57.9758 122.832 57.973L140.965 57.9246C142.293 57.9205 143.08 56.2886 142.337 55.0771L133.265 40.2738C132.606 39.1992 131.167 39.2006 130.51 40.2766L130.511 40.278Z" fill="#231F20"/>
<path d="M131.151 39.6602C130.904 39.7943 130.681 40.0004 130.511 40.2783L121.449 55.1287C120.707 56.3443 121.501 57.9762 122.832 57.9734L126.498 57.9638C129.767 57.4949 134.554 56.4881 136.436 54.4676C139.323 51.3656 134.845 41.9351 131.151 39.6615V39.6602Z" fill="#231F20"/>
<path d="M129.707 47.9603C130.504 46.0476 130.021 43.9317 129.306 42.25L123.289 52.1106C125.339 51.6874 128.604 50.6087 129.707 47.9603Z" fill="#231F20"/>
<path d="M130.524 50.7882L133.501 46.5508H130.872L128.974 52.2182L132.63 51.2003L131.506 53.8252L131.04 53.1669L130.94 55.6078L132.721 53.9358L131.919 54.0133L134.814 49.5532L130.524 50.7882Z" fill="#64C44D"/>
<path d="M20.6436 172.493C20.6436 172.493 23.2436 149.973 24.043 148.61C24.043 148.61 21.526 142.935 21.5854 140.469C21.5854 140.469 14.9237 139.606 10.8384 135.157C10.8384 135.157 10.6614 129.539 6.24969 125.031C6.24969 125.031 6.22065 124.739 6.54565 124.804C6.87064 124.869 11.6087 128.631 11.7262 134.08C11.7262 134.08 16.2264 137.939 21.407 137.874C21.407 137.874 24.7026 133.885 24.3486 128.133C24.3486 128.133 22.8882 125.754 22.6116 123.375C22.6116 123.375 19.6313 122.727 17.5582 120.229C17.5582 120.229 17.2028 116.986 15.9001 115.526C15.9001 115.526 15.9001 115.185 16.167 115.412C16.4339 115.639 17.8943 117.321 18.1114 119.592C18.1114 119.592 21.2494 121.905 22.6517 121.883C22.6517 121.883 25.047 120.175 25.1521 117.018C25.1521 117.018 24.4883 115.764 24.4883 114.769C24.4883 114.769 20.9548 112.52 20.403 111.115C20.403 111.115 20.5607 111.028 20.7391 111.266C20.9175 111.504 23.6806 113.818 24.3113 113.926C24.3113 113.926 24.982 110.985 25.5352 110.92C26.0884 110.855 25.4951 112.11 25.5352 112.953C25.5753 113.797 25.9293 116.326 26.3249 116.845C26.3249 116.845 30.016 116.391 31.7323 114.531C31.7323 114.531 32.0877 114.444 31.8899 114.877C31.6922 115.31 27.9443 117.675 26.5213 117.667C26.5213 117.667 26.0676 120.867 24.5077 122.272C24.5077 122.272 24.6266 126.293 26.5807 127.656C26.5807 127.656 29.3439 126.228 30.6467 126.186C31.9494 126.143 32.5413 126.163 32.5413 126.163C32.5413 126.163 35.5216 124.931 37.0221 122.12C37.0221 122.12 37.2794 121.947 37.3582 122.335C37.437 122.724 36.1149 125.903 32.977 127.049C32.977 127.049 29.7339 126.827 26.9763 128.974C26.9763 128.974 27.3607 135.309 25.0221 137.58C25.0221 137.58 24.8147 145.073 27.7466 147.569C27.7466 147.569 33.0461 142.055 38.3747 142.282C38.3747 142.282 40.6538 139.393 41.2167 134.821C41.2167 134.821 41.4532 134.268 41.7491 134.821C42.0451 135.374 41.0092 141.503 39.0551 143.547C39.0551 143.547 30.973 145.396 27.5087 150.52C27.5087 150.52 26.9223 169.603 27.3372 171.322C27.7521 173.041 26.6457 174.565 23.8245 174.338C21.0018 174.111 20.5247 172.93 20.6464 172.489L20.6436 172.493Z" fill="#644250"/>
<path d="M24.047 135.927C24.047 135.927 20.237 139.105 13.625 136.639C13.625 136.639 10.8425 141.098 5.18334 137.864C-0.474385 134.632 4.6509 130.08 4.6509 130.08C4.6509 130.08 -1.77161 127.448 3.07846 123.776C3.07846 123.776 0.9155 117.674 5.48345 115.746C10.05 113.819 12.3803 114.521 12.3803 114.521C12.3803 114.521 13.0649 112.751 15.4699 112.586L15.9982 110.504C15.9982 110.504 10.8853 108.375 12.5961 103.948C14.3068 99.5214 22.1302 100.064 22.1302 100.064C22.1302 100.064 25.43 95.3131 29.4213 98.7027C29.4213 98.7027 41.9703 93.7503 41.9482 103.233C41.9482 103.233 46.5715 104.102 46.3917 107.348C46.2105 110.592 44.6519 111.346 44.6519 111.346C44.6519 111.346 48.48 114.316 45.768 117.842C45.768 117.842 53.059 116.481 54.2345 121.896C55.41 127.311 52.0771 127.647 52.0771 127.647C52.0771 127.647 55.0117 133.264 48.1785 137.395C48.1785 137.395 44.6395 144.533 36.4993 141.319C36.4993 141.319 30.6397 143.983 26.7079 141.45C22.7761 138.918 24.0484 135.929 24.0484 135.929L24.047 135.927Z" fill="#297A38"/>
<path d="M41.6775 129.788C41.6775 129.788 35.8179 132.452 31.8861 129.92C27.9543 127.387 29.2267 124.399 29.2267 124.399C29.2267 124.399 25.4166 127.577 18.8046 125.111C18.8046 125.111 16.0221 129.57 10.363 126.336C4.70524 123.104 9.83053 118.552 9.83053 118.552C9.83053 118.552 6.81427 117.315 6.47682 115.355C6.15736 115.473 5.82683 115.602 5.48247 115.747C0.915906 117.675 3.07749 123.776 3.07749 123.776C-1.77259 127.448 4.64992 130.08 4.64992 130.08C4.64992 130.08 -0.475361 134.633 5.18237 137.865C10.8401 141.097 13.624 136.639 13.624 136.639C20.236 139.105 24.0461 135.927 24.0461 135.927C24.0461 135.927 22.7737 138.916 26.7055 141.448C30.6373 143.98 36.4969 141.317 36.4969 141.317C44.6371 144.532 48.1761 137.393 48.1761 137.393C54.831 133.37 52.2213 127.939 52.0802 127.658C50.4096 129.527 47.0421 131.907 41.6748 129.788H41.6775Z" fill="#297A38"/>
<path d="M53.3585 125.864C53.3585 125.864 52.9519 126.682 52.0986 127.641C52.2936 127.613 53.92 127.321 54.3695 125.188C54.0569 125.416 53.725 125.642 53.3585 125.864Z" fill="#1E695E"/>
<path d="M53.3898 127.262C53.3898 127.262 56.7228 126.913 55.5003 120.822C54.2777 114.732 46.995 116.198 46.995 116.198C46.995 116.198 36.6711 116.035 37.7236 123.985C38.776 131.936 24.3627 124.514 25.4151 136.325C25.4151 136.325 24.1677 139.671 28.123 142.547C32.0783 145.424 37.9186 142.482 37.9186 142.482C46.0905 146.161 49.5715 138.175 49.5715 138.175C56.3729 133.594 53.3898 127.26 53.3898 127.26V127.262Z" fill="#297A38"/>
<path d="M11.9573 111.325C11.9573 111.325 9.45134 110.576 4.54042 112.638C-0.371891 114.698 1.95011 121.212 1.95011 121.212C-3.26783 125.134 3.63734 127.94 3.63734 127.94C3.63734 127.94 12.9489 122.294 9.87868 119.345C6.8071 116.398 22.9353 116.112 15.2806 109.258C12.6944 109.435 11.9573 111.325 11.9573 111.325Z" fill="#297A38"/>
<path d="M25.9048 165.611C25.9048 165.611 24.9021 172.796 23.8995 164.943C23.4002 161.036 23.1914 156.716 23.1071 153.359C22.0463 160.352 20.644 172.494 20.644 172.494C20.5223 172.934 20.9994 174.116 23.8221 174.343C25.1774 174.452 26.1316 174.155 26.718 173.628C26.0196 170.51 25.9048 165.611 25.9048 165.611Z" fill="#9B4754"/>
<path d="M25.1526 145.898C25.1526 145.898 25.4873 149.324 25.1526 153.835C24.818 158.347 25.988 156.091 26.1553 152.665C26.3226 149.24 25.1526 145.898 25.1526 145.898Z" fill="#9B4754"/>
<path d="M47.8285 173.925C47.0457 173.697 44.6504 173.056 43.9465 172.253L41.2082 172.184C41.0962 172.903 40.8611 174.73 41.3272 174.927C41.9094 175.175 48.0996 174.864 48.0996 174.864C48.0996 174.864 48.7053 174.179 47.8285 173.925Z" fill="#E5E5E5"/>
<path d="M53.0602 174.056C52.3273 173.843 50.1795 173.267 49.3304 172.534L46.4165 172.461C46.3003 173.255 46.1205 174.873 46.5575 175.058C47.1398 175.306 53.3299 174.995 53.3299 174.995C53.3299 174.995 53.9357 174.31 53.0589 174.056H53.0602Z" fill="#E5E5E5"/>
<path d="M44.0006 144.594C44.0006 144.594 41.9621 141.322 41.2139 140.66C41.2139 140.66 43.074 137.504 43.1943 136.011C43.316 134.518 41.3605 131.453 40.6607 133.901C39.9609 136.349 38.3511 140.126 39.0177 141.784C39.6843 143.441 41.5513 143.894 42.5927 145.882L44.0006 144.593V144.594Z" fill="#D0D1D3"/>
<path d="M43.0408 145.475L42.5927 145.884C41.5513 143.896 39.6843 143.443 39.0177 141.787C38.3511 140.128 39.9609 136.352 40.6607 133.904C40.9096 133.032 41.3176 132.861 41.7353 133.067C41.0714 133.893 39.6345 139.131 39.6373 140.333C39.6401 141.536 40.4712 142.405 41.3024 143.275C41.8929 143.893 42.6508 144.927 43.0408 145.475Z" fill="#E5E5E5"/>
<path d="M44.0119 172.25L41.0703 172.177C41.0703 172.177 41.5557 164.534 42.8281 160.74C42.8281 160.74 41.9125 156.154 41.6913 153.204C41.6913 153.204 40.8449 151.71 41.2349 147.893L49.4801 147.805C49.4801 147.805 51.2974 157.566 51.5463 159.337C51.7966 161.11 49.5092 170.178 49.4497 172.532L46.2136 172.451C46.2136 172.451 46.728 163.631 47.9713 161.013C47.9713 161.013 46.5593 158.622 45.7129 157.13C45.7129 157.13 46.1831 161.852 45.8678 162.727C45.5511 163.602 44.2345 169.163 44.0105 172.249L44.0119 172.25Z" fill="#231F20"/>
<path d="M48.7595 141.312C49.0983 139.555 49.4648 137.321 49.4648 137.321C49.4648 137.321 49.5312 136.668 49.5409 136.668C49.5409 136.661 49.4994 135.959 49.4994 135.953C49.5201 132.738 47.5024 132.449 47.5024 132.449C47.5024 132.449 47.5052 132.449 47.5065 132.446L46.9354 131.846L42.8169 131.742C42.8169 131.742 40.7424 132.279 40.3829 134.92C40.0219 137.56 41.6773 142.018 41.3385 143.775C40.9997 145.533 40.2487 148.314 41.1684 148.704C42.0881 149.094 48.2741 148.955 49.48 147.807C50.686 146.659 48.4207 143.07 48.7595 141.312Z" fill="#E5E5E5"/>
<path d="M48.7593 141.311C49.0414 139.848 49.3415 138.061 49.4356 137.501C49.4384 137.461 49.4397 137.421 49.4425 137.382C49.4439 137.35 49.4466 137.319 49.448 137.287C49.4798 136.692 49.4964 136.219 49.5034 136.003C49.502 135.974 49.5006 135.952 49.5006 135.951C49.5034 135.59 49.4771 135.27 49.4328 134.98C47.7484 134.923 47.9724 135.577 47.9724 135.577C47.9724 135.577 47.5243 135.961 47.4496 136.649C47.1731 139.234 47.2948 140.291 47.2588 141.779C47.2215 143.267 48.2711 143.293 48.2034 145.973C48.1674 147.42 46.5134 148.304 44.999 148.813C45.7942 148.764 46.5881 148.687 47.3086 148.582C48.296 148.406 49.1161 148.153 49.4798 147.807C50.6858 146.659 48.4205 143.07 48.7593 141.313V141.311Z" fill="#D0D1D3"/>
<path d="M45.869 162.732C46.1857 161.857 45.7141 157.136 45.7141 157.136C45.7985 157.284 45.8898 157.443 45.9824 157.606C46.1733 155.278 44.4971 152.836 44.4971 152.836C45.5482 157.867 44.8788 161.088 44.2316 163.428C43.5844 165.767 43.0215 172.229 43.0215 172.229L44.0117 172.254C44.2357 169.169 45.5523 163.608 45.869 162.732Z" fill="#323031"/>
<path d="M48.0842 125.681C47.9182 125.871 47.7356 126.059 47.531 126.236C47.5337 126.24 48.0855 127.018 47.7702 127.891C47.7702 127.891 47.5061 126.707 46.9169 126.692C46.9169 126.692 47.1299 129.935 46.5269 130.509C45.9972 131.012 44.0058 131.14 43.3309 130.958C43.3779 131.195 43.3115 131.752 43.3115 131.752L46.7883 131.839L46.8146 130.809C46.8146 130.809 48.6014 129.971 48.6318 128.794C48.6608 127.617 48.0869 125.68 48.0869 125.68C48.0869 125.68 48.0855 125.68 48.0842 125.68V125.681Z" fill="#FBC0A4"/>
<path d="M49.3509 123.516C48.8987 123.946 47.7218 123.917 47.7218 123.917C48.3178 123.637 48.3317 123.048 48.3317 123.048C47.4341 123.615 45.834 122.838 44.0694 122.794C42.3047 122.75 41.6713 124.5 41.6713 124.5C41.385 124.199 41.3919 123.904 41.3919 123.904C41.0835 124.485 41.3629 125.081 41.3629 125.081C41.0766 124.78 40.4736 125.354 40.4736 125.354C40.7682 125.361 41.0545 125.662 41.0545 125.662C40.7156 127.42 41.999 129.071 42.5813 129.38C43.1621 129.688 42.8454 130.563 43.1331 130.865C43.4194 131.166 45.9239 131.082 46.5269 130.508C47.1299 129.934 46.9169 126.691 46.9169 126.691C47.5046 126.706 47.7702 127.89 47.7702 127.89C48.0855 127.017 47.5337 126.239 47.5309 126.235C48.86 125.084 49.3523 123.514 49.3523 123.514L49.3509 123.516Z" fill="#231F20"/>
<path d="M54.9077 132.683C54.9118 132.499 54.9367 132.353 54.9948 132.276C55.2617 131.918 55.7222 131.47 55.4249 131.022C55.3696 130.939 55.317 130.847 55.3198 130.748C55.324 130.629 55.4083 130.532 55.4761 130.434C55.5425 130.336 55.5964 130.204 55.5355 130.102C55.4733 129.995 55.3226 129.978 55.2396 129.886C55.1677 129.806 55.1621 129.687 55.1691 129.579C55.1774 129.471 55.194 129.359 55.1538 129.258C54.9505 128.747 54.0724 129.495 53.8801 129.661C53.6948 129.82 53.5192 129.989 53.3491 130.163C53.3034 130.21 53.1375 130.333 53.125 130.401L52.9854 131.181L53.4805 132.627C53.8677 132.564 54.4029 132.53 54.9063 132.683H54.9077Z" fill="#FBC0A4"/>
<path d="M53.2848 131.099L52 127.034L54.3455 126.496L54.972 130.967L53.2848 131.099Z" fill="#231F20"/>
<path d="M53.766 130.698C53.795 130.806 53.9071 130.869 54.0149 130.839C54.1228 130.81 54.1864 130.698 54.1574 130.59C54.1283 130.482 54.0163 130.419 53.9084 130.449C53.8006 130.478 53.7369 130.59 53.7674 130.698H53.766Z" fill="#31467A"/>
<path d="M52.6349 127.189L52.7345 127.377L53.6486 127.178L53.6749 126.985L54.1299 126.891L54.4853 130.291L53.2061 130.377L52.3486 127.26L52.6349 127.189Z" fill="#D0D1D3"/>
<path d="M53.48 127.004L52.7871 127.141L52.8175 127.253L53.498 127.066L53.48 127.004Z" fill="#31467A"/>
<path d="M53.3706 132.139C53.3706 132.139 53.4149 132.342 53.4799 132.627C53.7247 132.587 54.0262 132.558 54.3429 132.582C54.2765 131.471 53.2849 131.099 53.2849 131.099C53.2849 131.099 54.0621 130.868 53.9874 130.448C53.9114 130.027 52.415 130.56 52.3486 130.899C52.2822 131.237 53.3706 132.139 53.3706 132.139Z" fill="#FBC0A4"/>
<path d="M55.3243 132.861C54.3189 132.281 52.9262 132.758 52.9262 132.758L52.7851 137.766C52.7851 137.766 49.0055 133.053 48.5201 132.794C48.1951 132.622 47.8134 132.406 46.8467 132.58L47.2892 136.48C47.2892 136.48 52.6966 142.456 53.9593 142.182C54.8195 141.995 55.4294 141.427 55.5608 140.152C55.7572 138.235 55.3229 132.859 55.3229 132.859L55.3243 132.861Z" fill="#E5E5E5"/>
<path d="M188.972 165.782L191.114 162.966C191.243 162.798 191.212 162.545 191.048 162.401L190.922 162.292C190.757 162.148 190.52 162.167 190.391 162.336L188.249 165.152C188.12 165.32 188.151 165.573 188.315 165.717L188.441 165.826C188.605 165.97 188.843 165.951 188.972 165.782Z" fill="#888888"/>
<path d="M189.804 162.879L191.991 162.985C192.146 162.992 192.286 162.876 192.304 162.723L192.325 162.543C192.343 162.391 192.231 162.261 192.076 162.254L189.888 162.149C189.733 162.142 189.593 162.258 189.575 162.411L189.555 162.591C189.537 162.743 189.649 162.873 189.804 162.88V162.879Z" fill="#2B2B2B"/>
<path d="M189.384 168.43C190.318 167.496 190.318 165.981 189.384 165.047C188.45 164.112 186.935 164.112 186 165.046C185.066 165.981 185.066 167.496 186 168.43C186.935 169.364 188.45 169.364 189.384 168.43Z" fill="#2F2B33"/>
<path d="M187.554 169.183C187.418 169.183 187.279 169.172 187.142 169.15L174.127 167.035C173.322 166.911 172.737 166.245 172.737 165.454C172.737 164.663 173.407 164.008 174.228 164.008L187.857 164.237C189.124 164.258 190.141 165.306 190.124 166.573V166.648C190.113 167.396 189.78 168.101 189.206 168.583C188.74 168.974 188.155 169.184 187.554 169.184V169.183ZM174.227 164.153C173.485 164.153 172.881 164.737 172.881 165.456C172.881 166.175 173.414 166.781 174.148 166.894L187.163 169.009C187.86 169.122 188.57 168.926 189.11 168.472C189.651 168.018 189.966 167.353 189.976 166.647V166.572C189.993 165.385 189.04 164.403 187.853 164.384L174.225 164.154L174.227 164.153Z" fill="#2F2B33"/>
<path d="M201.84 151.282L200.713 151.625L200.801 151.916L201.929 151.573L201.84 151.282Z" fill="#2C3C4B"/>
<path d="M202.085 152.325L200.958 152.668L201.047 152.959L202.174 152.616L202.085 152.325Z" fill="#2C3C4B"/>
<path d="M186.312 161.971L186.075 161.089C186.118 161.078 190.39 159.909 192.547 157.443C193.204 156.692 193.771 155.85 194.32 155.036C195.724 152.951 197.175 150.797 200.103 150.398L200.226 151.303C197.705 151.646 196.488 153.453 195.078 155.544C194.514 156.383 193.93 157.248 193.235 158.043C190.893 160.721 186.497 161.92 186.312 161.97V161.971Z" fill="#BBBCBD"/>
<path d="M200.102 150.398C200.069 150.403 200.036 150.409 200.004 150.414L200.112 151.205C197.591 151.548 196.374 153.355 194.964 155.446C194.4 156.284 193.816 157.15 193.121 157.945C190.925 160.457 186.921 161.667 186.279 161.849L186.311 161.97C186.496 161.92 190.893 160.721 193.234 158.043C193.93 157.248 194.513 156.383 195.078 155.544C196.487 153.452 197.704 151.646 200.225 151.303L200.102 150.398Z" fill="#888888"/>
<path d="M182.885 148.142L182.151 148.344L183.371 152.767L184.104 152.565L182.885 148.142Z" fill="#282F3A"/>
<path d="M174.301 155.633C168.852 155.633 164.437 160.05 164.437 165.498C164.437 170.945 168.854 175.362 174.301 175.362C179.749 175.362 184.166 170.945 184.166 165.498C184.166 160.05 179.749 155.633 174.301 155.633ZM174.301 174.19C169.501 174.19 165.609 170.298 165.609 165.498C165.609 160.697 169.501 156.806 174.301 156.806C179.102 156.806 182.993 160.697 182.993 165.498C182.993 170.298 179.102 174.19 174.301 174.19Z" fill="#2F2B33"/>
<path d="M174.301 156.809C169.501 156.809 165.609 160.7 165.609 165.501C165.609 170.301 169.501 174.193 174.301 174.193C179.102 174.193 182.993 170.301 182.993 165.501C182.993 160.7 179.102 156.809 174.301 156.809ZM174.301 173.31C169.988 173.31 166.49 169.813 166.49 165.499C166.49 161.186 169.988 157.688 174.301 157.688C178.615 157.688 182.112 161.186 182.112 165.499C182.112 169.813 178.615 173.31 174.301 173.31Z" fill="#888888"/>
<path d="M195.271 165.727C195.145 165.727 195.043 165.624 195.043 165.499C195.043 159.546 199.886 154.703 205.838 154.703C205.964 154.703 206.067 154.805 206.067 154.931C206.067 155.057 205.964 155.159 205.838 155.159C200.138 155.159 195.501 159.797 195.501 165.497C195.501 165.623 195.398 165.725 195.273 165.725L195.271 165.727Z" fill="#888888"/>
<path d="M184.959 165.727C185.084 165.727 185.187 165.624 185.187 165.499C185.187 159.546 180.344 154.703 174.391 154.703C174.265 154.703 174.163 154.805 174.163 154.931C174.163 155.057 174.265 155.159 174.391 155.159C180.092 155.159 184.729 159.797 184.729 165.497C184.729 165.623 184.831 165.725 184.957 165.725L184.959 165.727Z" fill="#888888"/>
<path d="M205.837 155.633C200.388 155.633 195.973 160.05 195.973 165.498C195.973 170.945 200.39 175.362 205.837 175.362C211.285 175.362 215.702 170.945 215.702 165.498C215.702 160.05 211.285 155.633 205.837 155.633ZM205.837 174.19C201.037 174.19 197.145 170.298 197.145 165.498C197.145 160.697 201.037 156.806 205.837 156.806C210.638 156.806 214.529 160.697 214.529 165.498C214.529 170.298 210.638 174.19 205.837 174.19Z" fill="#2F2B33"/>
<path d="M205.837 156.809C201.037 156.809 197.146 160.7 197.146 165.501C197.146 170.301 201.037 174.193 205.837 174.193C210.638 174.193 214.529 170.301 214.529 165.501C214.529 160.7 210.638 156.809 205.837 156.809ZM205.837 173.31C201.524 173.31 198.026 169.813 198.026 165.499C198.026 161.186 201.524 157.688 205.837 157.688C210.151 157.688 213.648 161.186 213.648 165.499C213.648 169.813 210.151 173.31 205.837 173.31Z" fill="#888888"/>
<path d="M171.57 153.464L170.836 153.664L174.065 165.485L174.799 165.285L171.57 153.464Z" fill="#BBBCBD"/>
<path d="M171.562 153.48L171.425 153.518L174.644 165.302L174.047 165.465L174.057 165.503L174.791 165.302L171.562 153.48Z" fill="#888888"/>
<path d="M180.803 155.448C180.741 155.448 180.679 155.433 180.621 155.401L178.53 154.26C178.17 154.064 177.764 153.96 177.353 153.96H168.162C167.951 153.96 167.781 153.79 167.781 153.58C167.781 153.369 167.951 153.199 168.162 153.199H177.353C177.889 153.199 178.422 153.335 178.893 153.592L180.984 154.733C181.168 154.834 181.236 155.065 181.137 155.249C181.067 155.376 180.937 155.447 180.802 155.447L180.803 155.448Z" fill="#BBBCBD"/>
<path d="M181.136 155.15C181.067 155.277 180.937 155.347 180.802 155.347C180.739 155.347 180.677 155.332 180.619 155.3L178.528 154.159C178.169 153.963 177.762 153.859 177.351 153.859H168.16C167.966 153.859 167.809 153.714 167.784 153.527C167.781 153.544 167.778 153.559 167.778 153.576C167.778 153.786 167.948 153.956 168.159 153.956H177.35C177.759 153.956 178.166 154.06 178.527 154.256L180.618 155.397C180.676 155.429 180.738 155.444 180.8 155.444C180.934 155.444 181.066 155.372 181.135 155.246C181.175 155.173 181.188 155.093 181.178 155.015C181.172 155.061 181.159 155.105 181.135 155.148L181.136 155.15Z" fill="#34599B"/>
<path d="M187.826 167.198L174.108 165.828C173.898 165.807 173.782 165.573 173.892 165.392L182.738 151.061C182.779 150.993 182.792 150.911 182.77 150.834L182.588 150.175C182.547 150.023 182.635 149.866 182.788 149.823L183.115 149.733C183.267 149.691 183.425 149.78 183.467 149.932L188.127 166.835C188.181 167.028 188.023 167.215 187.823 167.196L187.826 167.198ZM175.651 165.064L186.591 166.157C186.791 166.176 186.949 165.99 186.895 165.796L183.309 152.789C183.243 152.549 182.92 152.503 182.789 152.715L175.436 164.629C175.325 164.809 175.44 165.042 175.651 165.064Z" fill="#BBBCBD"/>
<path d="M186.894 165.666L183.308 152.659C183.242 152.418 182.92 152.373 182.788 152.584L175.435 164.499C175.392 164.568 175.384 164.645 175.401 164.716C175.407 164.687 175.417 164.656 175.435 164.629L182.788 152.714C182.92 152.501 183.242 152.547 183.308 152.789L186.894 165.796C186.894 165.796 186.894 165.806 186.896 165.81C186.907 165.764 186.907 165.716 186.894 165.666Z" fill="#888888"/>
<path d="M187.825 167.068L174.108 165.698C173.979 165.685 173.887 165.591 173.859 165.48C173.822 165.641 173.931 165.811 174.108 165.829L187.825 167.2C188.02 167.219 188.174 167.04 188.131 166.852C188.099 166.984 187.973 167.083 187.825 167.07V167.068Z" fill="#888888"/>
<path d="M174.844 166.809C175.568 166.509 175.912 165.679 175.612 164.955C175.312 164.231 174.482 163.888 173.758 164.187C173.034 164.487 172.69 165.317 172.99 166.041C173.29 166.765 174.12 167.109 174.844 166.809Z" fill="#2F2B33"/>
<path d="M188.319 167.13L187.918 166.31C187.964 166.288 192.566 164.012 194.403 161.278C194.917 160.512 195.361 159.7 195.79 158.917C197.052 156.607 198.246 154.427 200.991 153.746L201.211 154.633C198.854 155.218 197.806 157.136 196.591 159.355C196.152 160.158 195.699 160.987 195.161 161.788C193.186 164.727 188.517 167.035 188.319 167.132V167.13Z" fill="#BBBCBD"/>
<path d="M196.591 159.095C196.152 159.898 195.699 160.727 195.161 161.528C193.186 164.467 188.517 166.775 188.319 166.872L188.019 166.258C187.958 166.288 187.922 166.306 187.918 166.309L188.319 167.129C188.517 167.032 193.186 164.724 195.161 161.785C195.699 160.985 196.152 160.155 196.591 159.353C197.805 157.132 198.854 155.213 201.211 154.63L201.152 154.391C198.838 154.994 197.795 156.895 196.591 159.097V159.095Z" fill="#888888"/>
<path d="M188.481 167.615C188.966 167.131 188.966 166.346 188.481 165.861C187.997 165.377 187.211 165.377 186.727 165.861C186.242 166.346 186.242 167.131 186.727 167.615C187.211 168.1 187.997 168.1 188.481 167.615Z" fill="#BBBCBD"/>
<path d="M188.672 166.741C188.672 167.331 188.194 167.81 187.603 167.81C187.013 167.81 186.534 167.331 186.534 166.741C186.534 166.15 187.013 165.672 187.603 165.672C188.194 165.672 188.672 166.15 188.672 166.741Z" fill="#888888"/>
<path d="M205.837 165.943C205.738 165.943 205.637 165.904 205.562 165.825C205.432 165.69 205.303 165.549 205.176 165.406C203.841 163.896 203.14 162.672 202.59 160.888L199.109 148.51C199.052 148.309 199.17 148.098 199.372 148.042C199.575 147.985 199.784 148.102 199.841 148.304L203.319 160.672C203.837 162.354 204.474 163.463 205.746 164.901C205.865 165.037 205.988 165.17 206.111 165.298C206.256 165.45 206.251 165.691 206.1 165.836C206.027 165.907 205.931 165.941 205.837 165.941V165.943Z" fill="#2F2B33"/>
<path d="M200.162 149.698L199.563 149.867C199.485 149.889 199.44 149.969 199.462 150.046L200.998 155.506C201.02 155.583 201.1 155.628 201.177 155.606L201.776 155.438C201.853 155.416 201.898 155.336 201.877 155.259L200.341 149.799C200.319 149.722 200.239 149.677 200.162 149.698Z" fill="#BBBCBD"/>
<path d="M201.322 155.558C201.245 155.58 201.164 155.534 201.142 155.457L199.607 149.998C199.588 149.932 199.621 149.864 199.681 149.832L199.562 149.865C199.484 149.887 199.439 149.968 199.461 150.045L200.996 155.504C201.018 155.581 201.098 155.627 201.176 155.605L201.774 155.436C201.784 155.433 201.792 155.426 201.802 155.422L201.322 155.558Z" fill="#888888"/>
<path d="M181.865 148.595C181.865 148.595 178.89 148.422 178.742 147.675C178.594 146.928 178.307 146.105 180.81 146.277C183.313 146.448 187.261 146.204 186.216 147.237C185.17 148.27 183.042 148.512 183.042 148.512L181.866 148.593L181.865 148.595Z" fill="#BBBCBD"/>
<path d="M199.39 149.729C199.39 149.729 198.579 147.359 198.761 147.11C198.942 146.861 199.077 145.821 198.58 145.789L198.81 145.45C198.81 145.45 199.556 145.659 199.518 146.008C199.479 146.355 199.54 146.511 199.702 146.435C199.863 146.359 200.944 145.644 200.867 145.46C200.791 145.275 199.829 144.759 199.829 144.759L200.258 144.539C200.258 144.539 201.777 145.244 201.718 145.604C201.66 145.962 199.991 146.782 199.725 147.089C199.46 147.396 200.211 149.48 200.211 149.48L199.389 149.731L199.39 149.729Z" fill="#2F2B33"/>
<path d="M197.701 145.403C197.643 145.774 197.922 146.126 198.326 146.19C198.73 146.254 199.105 146.003 199.163 145.633C199.221 145.262 198.942 144.909 198.538 144.846C198.134 144.782 197.759 145.033 197.701 145.403Z" fill="#2F2B33"/>
<path d="M198.033 145.454C198.001 145.656 198.153 145.848 198.374 145.883C198.594 145.917 198.799 145.782 198.83 145.579C198.862 145.377 198.71 145.184 198.489 145.15C198.269 145.115 198.064 145.252 198.033 145.454Z" fill="#C7C7C7"/>
<path d="M198.865 144.091C198.807 144.461 199.086 144.814 199.49 144.878C199.894 144.941 200.269 144.691 200.327 144.32C200.385 143.95 200.106 143.597 199.702 143.533C199.298 143.47 198.923 143.72 198.865 144.091Z" fill="#2F2B33"/>
<path d="M199.198 144.142C199.166 144.344 199.318 144.536 199.539 144.57C199.759 144.605 199.964 144.468 199.996 144.266C200.027 144.064 199.875 143.872 199.654 143.837C199.434 143.803 199.229 143.94 199.198 144.142Z" fill="#C7C7C7"/>
<path d="M207.135 165.661C207.135 166.445 206.5 167.08 205.716 167.08C204.932 167.08 204.297 166.445 204.297 165.661C204.297 164.877 204.932 164.242 205.716 164.242C206.5 164.242 207.135 164.877 207.135 165.661Z" fill="#2F2B33"/>
<path d="M204.161 153.313L202.742 153.714C202.316 153.835 201.874 153.587 201.754 153.161L201.144 151.002C201.023 150.576 201.271 150.134 201.697 150.013L204.793 149.138C204.974 149.087 205.161 149.192 205.212 149.373L205.6 150.742C205.912 151.849 205.269 153.001 204.161 153.313Z" fill="#888888"/>
<path d="M204.877 149.129L205.251 150.457C205.564 151.563 204.921 152.715 203.813 153.028L202.394 153.429C202.21 153.481 202.024 153.463 201.86 153.394C202.048 153.673 202.401 153.813 202.743 153.718L204.162 153.317C205.268 153.004 205.912 151.852 205.6 150.746L205.213 149.376C205.17 149.224 205.029 149.126 204.877 149.13V149.129Z" fill="#2F2B33"/>
<path d="M187.613 167.734L185.377 170.684C185.242 170.861 184.985 170.907 184.803 170.786L184.663 170.695C184.48 170.575 184.44 170.335 184.574 170.158L186.811 167.209C186.945 167.032 187.202 166.986 187.385 167.106L187.524 167.198C187.707 167.318 187.747 167.557 187.613 167.734Z" fill="#888888"/>
<path d="M185.77 171.166L183.577 171.029C183.422 171.02 183.295 170.888 183.292 170.735L183.289 170.554C183.288 170.4 183.412 170.284 183.567 170.294L185.76 170.43C185.915 170.44 186.043 170.572 186.045 170.725L186.048 170.906C186.049 171.06 185.925 171.174 185.77 171.166Z" fill="#2B2B2B"/>
<defs>
<linearGradient id="paint0_linear_941_1153" x1="137.397" y1="152.161" x2="159.539" y2="122.742" gradientUnits="userSpaceOnUse">
<stop stop-color="#93E3FC"/>
<stop offset="1" stop-color="#D0E3A7"/>
</linearGradient>
<linearGradient id="paint1_linear_941_1153" x1="174.152" y1="152.161" x2="196.294" y2="122.742" gradientUnits="userSpaceOnUse">
<stop stop-color="#93E3FC"/>
<stop offset="1" stop-color="#D0E3A7"/>
</linearGradient>
</defs>
</svg>
