<svg width="60" height="72" viewBox="0 0 60 72" fill="none" xmlns="http://www.w3.org/2000/svg">
<path d="M57.341 40.0684C55.7478 39.6183 54.1425 40.2214 53.2518 41.6054C53.0729 41.8837 52.9422 42.1375 52.8525 42.3811C52.192 44.1721 51.0823 47.1298 50.3243 49.1454C49.524 48.4004 48.4069 48.0817 47.2748 48.3374C46.2985 48.558 45.6483 49.002 45.5278 49.0889C45.5227 49.0925 45.5177 49.0964 45.5126 49.1002C45.5072 49.1042 45.4923 49.1155 45.4869 49.1197C45.4812 49.1242 45.4755 49.1287 45.4699 49.1334L42.108 51.8855C41.6962 52.2225 41.2532 52.4693 40.791 52.6192C38.2908 53.4295 36.0627 55.6452 35.566 56.877C35.1604 57.8831 34.8626 61.9308 34.7811 63.1475C34.7761 63.2227 34.7801 63.2961 34.7912 63.3676C33.6512 63.743 32.7845 64.7486 32.6348 65.9981L32.5457 66.7411C32.3378 68.4759 33.58 70.0564 35.3148 70.2642L43.6009 71.2572C43.7268 71.2722 43.8545 71.2799 43.9807 71.2799C45.582 71.2799 46.9334 70.0797 47.1241 68.488L47.213 67.7452C47.3178 66.8707 47.0539 66.0356 46.5443 65.3956C49.5973 62.349 54.1623 57.7625 54.976 56.7681C56.2993 55.152 59.9183 44.1012 59.9466 44.0008C59.9874 43.8582 60.0037 43.7002 59.9993 43.4876C59.9646 41.8567 58.9213 40.5148 57.341 40.0684ZM45.2306 67.5073L45.1416 68.2502C45.0711 68.8391 44.5719 69.2831 43.9805 69.2831C43.9335 69.2831 43.8856 69.2802 43.8384 69.2745L35.5523 68.2815C34.9105 68.2047 34.4509 67.62 34.5278 66.9784L34.6169 66.2354C34.6875 65.6466 35.1866 65.2026 35.778 65.2026C35.8251 65.2026 35.873 65.2055 35.9202 65.2112L44.2063 66.204C44.848 66.2809 45.3075 66.8656 45.2306 67.5073ZM53.4309 55.5032C52.856 56.2058 49.6473 59.4813 44.8232 64.2917C44.6996 64.2614 44.5732 64.2373 44.4437 64.2218L36.7704 63.3024C36.771 63.2953 36.7724 63.2883 36.7728 63.281C36.9297 60.9432 37.2206 58.1155 37.4174 57.6233C37.6335 57.0875 39.3404 55.1877 41.4065 54.5183C42.1061 54.2914 42.7677 53.9253 43.3723 53.4304L46.7088 50.6991C46.7851 50.6484 47.163 50.4096 47.7144 50.285C48.503 50.1074 49.0413 50.5544 49.2824 51.032C49.3732 51.2121 49.4357 51.4229 49.4477 51.6443C49.4474 51.6689 49.4475 51.6934 49.449 51.7178C49.4498 52.0766 49.3139 52.4572 48.9439 52.7771C46.8244 54.6096 44.3379 56.6959 44.313 56.7168C43.8905 57.071 43.8354 57.7007 44.1897 58.1232C44.544 58.5454 45.1736 58.6006 45.5961 58.2464C45.6211 58.2254 48.1186 56.1296 50.2496 54.2871C50.9967 53.6413 51.4063 52.7595 51.4423 51.8418C51.8171 50.8474 53.7544 45.7047 54.7255 43.0717C54.7519 43.0002 54.8089 42.8751 54.9305 42.6858C55.4215 41.9223 56.217 41.8262 56.798 41.9898C57.3681 42.1509 57.9839 42.6401 58.0029 43.5294C58.0032 43.5304 58.0032 43.5316 58.0032 43.5328C57.5759 44.9537 54.2976 54.445 53.4309 55.5032Z" fill="white"/>
<path d="M5.38754 25.4219H12.0604V39.3207C12.0604 43.0361 15.0832 46.0587 18.7985 46.0587H41.5917C45.3071 46.0587 48.3298 43.0361 48.3298 39.3207V25.4219H54.6125C55.2013 25.4219 55.7197 25.0674 55.9332 24.5187C56.1467 23.9701 56.0044 23.3585 55.5704 22.9605L30.8201 0.262425C30.4402 -0.0859738 29.8571 -0.0876798 29.4749 0.258569L4.43592 22.9548C3.99825 23.3514 3.85294 23.9637 4.06542 24.5148C4.27791 25.0658 4.79686 25.4219 5.38754 25.4219ZM30.1414 2.34906L53.1233 23.4254H47.3314C46.7801 23.4254 46.3331 23.8723 46.3331 24.4236V39.3207C46.3331 41.9352 44.2061 44.0622 41.5916 44.0622H18.7984C16.184 44.0622 14.0568 41.9352 14.0568 39.3207V24.4236C14.0568 23.8723 13.6099 23.4254 13.0586 23.4254H6.88949L30.1414 2.34906Z" fill="white"/>
<path d="M28.5175 36.9085C28.9607 37.2274 29.4788 37.3959 30.0156 37.3959C30.5358 37.3959 31.0406 37.2368 31.4755 36.9355C33.0099 35.8716 35.893 33.6824 37.963 30.9739C41.3898 26.4899 40.5928 23.1667 39.3207 21.1686C38.2982 19.5625 36.7906 18.7137 34.9608 18.7137C32.9504 18.7137 31.0108 19.7445 30.0508 20.3456C29.0794 19.6922 27.0773 18.5452 24.9944 18.5452C23.2532 18.5452 21.7884 19.3446 20.758 20.857C19.4205 22.8204 18.549 26.1288 21.9929 30.7399C24.066 33.5154 26.9706 35.7962 28.5175 36.9085ZM22.4082 21.981C23.0679 21.0124 23.9139 20.5417 24.9943 20.5417C27.1335 20.5417 29.3834 22.3223 29.4046 22.3393C29.7599 22.6255 30.2651 22.6335 30.6305 22.3601C30.6525 22.3435 32.8592 20.7102 34.9608 20.7102C36.1056 20.7102 36.981 21.2109 37.6367 22.2409C40.9128 27.3866 32.8784 33.5334 30.3381 35.2948C30.1364 35.4344 29.8834 35.4317 29.6833 35.2879C27.1105 33.4376 18.9824 27.0099 22.4082 21.981Z" fill="white"/>
<path d="M27.3653 65.998C27.2156 64.7483 26.349 63.7429 25.2089 63.3673C25.2199 63.2958 25.2241 63.2224 25.2191 63.1472C25.1375 61.9306 24.8397 57.8829 24.4343 56.8768C23.9377 55.6448 21.7096 53.4291 19.2093 52.6189C18.7471 52.469 18.3039 52.2223 17.8922 51.8852L14.5302 49.1332C14.5245 49.1286 14.5095 49.1169 14.5038 49.1123C14.4932 49.1041 14.4825 49.0961 14.4717 49.0882C14.3512 49.0015 13.7003 48.5575 12.7252 48.3371C11.5932 48.0814 10.4761 48.4002 9.67566 49.1453C8.9177 47.1297 7.80807 44.1721 7.14764 42.3815C7.05781 42.1375 6.92718 41.8837 6.74806 41.6052C5.85747 40.2214 4.25228 39.6185 2.65892 40.0683C1.07868 40.5146 0.0353606 41.8567 0.00070957 43.4877C-0.00371212 43.6991 0.0123992 43.8568 0.0527601 43.9986C0.0818492 44.1011 3.70238 55.1536 5.02393 56.7677C5.8368 57.7609 10.4017 62.3476 13.4552 65.3945C13.4509 65.3997 13.4461 65.4044 13.4419 65.4097C12.919 66.0751 12.6864 66.9044 12.7871 67.7448L12.8761 68.4876C13.0667 70.0791 14.4181 71.2793 16.0194 71.2795H16.0197C16.1456 71.2795 16.2734 71.2718 16.3992 71.2568L24.6853 70.2638C26.4201 70.056 27.6622 68.4755 27.4543 66.7407L27.3653 65.998ZM6.5688 55.503C5.70375 54.4464 2.42547 44.9575 1.99679 43.5328C1.99679 43.5317 1.99679 43.5307 1.99679 43.5297C2.01562 42.6399 2.63154 42.1508 3.20155 41.9898C3.78239 41.8256 4.57785 41.9222 5.06899 42.6856C5.19078 42.8749 5.24769 42.9999 5.27421 43.0719C6.24508 45.7044 8.18227 50.8464 8.55718 51.8416C8.59312 52.7594 9.00283 53.6413 9.74996 54.2871C11.8809 56.1296 14.3786 58.2253 14.4035 58.2464C14.8258 58.6003 15.4554 58.5454 15.8099 58.1232C16.1642 57.7007 16.109 57.071 15.6866 56.7168C15.6618 56.6959 13.1753 54.6096 11.0557 52.7771C10.686 52.4573 10.55 52.0772 10.5507 51.7185C10.5523 51.6937 10.5524 51.6689 10.5521 51.6439C10.5641 51.4227 10.6267 51.2119 10.7174 51.0321C10.9586 50.5542 11.497 50.1074 12.2852 50.2851C12.8358 50.4095 13.2132 50.6475 13.2906 50.6991L16.6274 53.4305C17.2323 53.9256 17.8937 54.2916 18.5935 54.5185C20.6593 55.1879 22.3663 57.0878 22.5824 57.6235C22.779 58.1153 23.07 60.9431 23.2268 63.2811C23.2273 63.2884 23.2287 63.2953 23.2293 63.3025L15.556 64.2219C15.4272 64.2373 15.3015 64.2629 15.1775 64.2931C10.3522 59.4809 7.14323 56.2048 6.5688 55.503ZM25.2298 67.8422C25.0362 68.0885 24.7586 68.2443 24.4477 68.2817L16.1616 69.2747C16.1143 69.2804 16.0665 69.2832 16.0197 69.2832C16.0197 69.2832 16.0197 69.2832 16.0196 69.2832C15.4282 69.2832 14.9289 68.8391 14.8583 68.2503L14.7693 67.5075C14.7321 67.1966 14.8181 66.8898 15.0116 66.6437C15.205 66.3974 15.4828 66.2415 15.7937 66.2042L24.0796 65.2113C24.127 65.2056 24.1748 65.2028 24.2218 65.2028C24.8132 65.2028 25.3123 65.6467 25.3829 66.2355L25.4719 66.9784C25.5093 67.2893 25.4231 67.596 25.2298 67.8422Z" fill="white"/>
</svg>
