<svg width="63" height="63" viewBox="0 0 63 63" fill="none" xmlns="http://www.w3.org/2000/svg">
<path d="M62.9394 61.749L53.711 37.4388C53.6343 37.2369 53.4893 37.0683 53.3013 36.9624L43.4716 31.4246L46.3414 26.8743C48.1027 24.0795 49.0338 20.8496 49.0338 17.534C49.0338 7.86571 41.1681 0 31.4997 0C21.8314 0 13.9657 7.86571 13.9657 17.534C13.9657 20.8505 14.8971 24.0805 16.6594 26.8746C16.7065 26.9495 19.5285 31.4248 19.5285 31.4248L9.69845 36.9624C9.51031 37.0683 9.36524 37.2369 9.28858 37.4388L0.0601339 61.749C-0.0778006 62.1122 0.0266654 62.523 0.321114 62.7763C0.615932 63.0298 1.03736 63.0715 1.37586 62.8807L16.2113 54.5226L31.0467 62.8807C31.3278 63.039 31.6715 63.039 31.9527 62.8807L46.7881 54.5226L61.6235 62.8807C61.765 62.9604 61.9211 62.9995 62.0764 62.9995C62.2925 62.9995 62.5068 62.9239 62.6783 62.7764C62.973 62.523 63.0774 62.1122 62.9394 61.749ZM32.4227 47.8293C33 47.6255 33.5006 47.233 33.8403 46.6952C33.8872 46.6214 41.7434 34.1649 41.7434 34.1649L45.7448 52.992L32.4227 60.4973V47.8293ZM18.2206 25.8899C16.6445 23.3908 15.8115 20.5014 15.8115 17.5339C15.8115 8.8833 22.8492 1.84557 31.4999 1.84557C40.1505 1.84557 47.1882 8.8833 47.1882 17.5339C47.1882 20.5008 46.3554 23.3904 44.7803 25.8899C44.6572 26.0851 32.4975 45.3679 32.2854 45.701C32.2834 45.7038 32.2817 45.7068 32.2798 45.7096C32.1087 45.9803 31.8172 46.1421 31.4999 46.1421C31.1823 46.1421 30.8894 45.9796 30.718 45.7101C30.5947 45.5146 18.4108 26.1937 18.2248 25.8966C18.2234 25.8944 18.222 25.8922 18.2206 25.8899ZM10.8954 38.4063L19.4983 33.5599L17.9996 40.6109C17.8937 41.1095 18.2119 41.5995 18.7103 41.7056C18.7751 41.7193 18.8397 41.726 18.9031 41.726C19.3295 41.726 19.7127 41.4286 19.8048 40.9949L21.2564 34.1656L29.1585 46.6977C29.4995 47.234 30.0004 47.6257 30.5768 47.8292V60.4975L17.2549 52.9921L19.0375 44.6054C19.1435 44.1068 18.8253 43.6168 18.3268 43.5108C17.8277 43.4042 17.3381 43.7231 17.2322 44.2215L15.3952 52.8637L2.68999 60.0218L10.8954 38.4063ZM47.6044 52.8639L43.5016 33.5598L52.1041 38.4063L60.3097 60.0218L47.6044 52.8639Z" fill="#22AB00"/>
<path d="M41.6511 17.534C41.6511 11.9366 37.0972 7.38269 31.4998 7.38269C25.9025 7.38269 21.3485 11.9366 21.3485 17.534C21.3485 23.1314 25.9025 27.6853 31.4998 27.6853C37.0972 27.6853 41.6511 23.1314 41.6511 17.534ZM23.1942 17.534C23.1942 12.9542 26.92 9.22838 31.4998 9.22838C36.0796 9.22838 39.8054 12.9542 39.8054 17.534C39.8054 22.1138 36.0796 25.8396 31.4998 25.8396C26.92 25.8396 23.1942 22.1138 23.1942 17.534Z" fill="#22AB00"/>
<path d="M37.9598 17.5339C37.9598 13.972 35.0618 11.074 31.4998 11.074C27.9379 11.074 25.0399 13.972 25.0399 17.5339C25.0399 21.0958 27.9379 23.9938 31.4998 23.9938C35.0618 23.9938 37.9598 21.0958 37.9598 17.5339ZM26.8856 17.5339C26.8856 14.9896 28.9555 12.9197 31.4998 12.9197C34.0442 12.9197 36.1141 14.9896 36.1141 17.5339C36.1141 20.0782 34.0442 22.1481 31.4998 22.1481C28.9555 22.1481 26.8856 20.0782 26.8856 17.5339Z" fill="#22AB00"/>
</svg>
