<svg width="41" height="45" viewBox="0 0 41 45" fill="none" xmlns="http://www.w3.org/2000/svg">
<path d="M13.9642 6.21795C13.1982 4.66927 12.5944 3.44669 13.9269 1.44707C14.212 1.0184 14.0946 0.440702 13.6679 0.155565C13.2448 -0.127737 12.6633 -0.0139969 12.3764 0.414582C10.4457 3.30692 11.4706 5.37931 12.2943 7.04357C13.0641 8.6016 13.6212 9.72721 12.3764 11.5964C12.0894 12.0251 12.2068 12.6028 12.6336 12.8879C12.7919 12.9941 12.9728 13.0445 13.1517 13.0445C13.4517 13.0445 13.7461 12.8991 13.9251 12.6289C15.7682 9.86698 14.7693 7.84307 13.9642 6.21795Z" fill="#54A548"/>
<path d="M21.389 6.21795C20.6212 4.66927 20.0174 3.44669 21.3499 1.44707C21.635 1.0184 21.5176 0.440702 21.0908 0.155565C20.6678 -0.127737 20.0845 -0.0139969 19.7993 0.414582C17.8705 3.30884 18.8954 5.38115 19.7173 7.04541C20.487 8.60344 21.0442 9.72904 19.7993 11.5964C19.5142 12.0251 19.6316 12.6028 20.0584 12.8879C20.2167 12.9941 20.3956 13.0445 20.5746 13.0445C20.8746 13.0445 21.169 12.8991 21.3499 12.6289C23.193 9.86698 22.1941 7.84307 21.389 6.21795Z" fill="#54A548"/>
<path d="M28.8118 6.21795C28.0441 4.66927 27.4402 3.44669 28.7727 1.44707C29.0578 1.0184 28.9404 0.440702 28.5137 0.155565C28.0906 -0.127737 27.5073 -0.0139969 27.2222 0.414582C25.2933 3.30884 26.3183 5.38115 27.1402 7.04541C27.9099 8.60344 28.467 9.72904 27.2222 11.5964C26.9371 12.0251 27.0545 12.6028 27.4812 12.8879C27.6396 12.9941 27.8185 13.0445 27.9974 13.0445C28.2993 13.0445 28.5938 12.8991 28.7727 12.6289C30.6159 9.86698 29.6169 7.84307 28.8118 6.21795Z" fill="#54A548"/>
<path d="M36.3409 14.9062H4.65907C2.08908 14.9062 0 16.9973 0 19.5653V36.3381C0 38.9061 2.08917 40.9971 4.65907 40.9971H36.3409C38.9109 40.9971 41 38.9061 41 36.3381V19.5653C41 16.9973 38.9108 14.9062 36.3409 14.9062ZM39.1364 36.3381C39.1364 37.8794 37.8822 39.1336 36.3409 39.1336H4.65907C3.11781 39.1336 1.86361 37.8794 1.86361 36.3381V19.5654C1.86361 18.0241 3.11781 16.7699 4.65907 16.7699H36.3409C37.8822 16.7699 39.1364 18.0241 39.1364 19.5654V36.3381Z" fill="#54A548"/>
<path d="M6.52267 18.6367C6.0083 18.6367 5.59082 19.0542 5.59082 19.5686V36.3413C5.59082 36.8557 6.0083 37.2732 6.52267 37.2732C7.03703 37.2732 7.45452 36.8557 7.45452 36.3413V19.5686C7.45452 19.0542 7.03703 18.6367 6.52267 18.6367Z" fill="#54A548"/>
<path d="M12.114 18.6367C11.5996 18.6367 11.1821 19.0542 11.1821 19.5686V36.3413C11.1821 36.8557 11.5996 37.2732 12.114 37.2732C12.6283 37.2732 13.0458 36.8557 13.0458 36.3413V19.5686C13.0458 19.0542 12.6283 18.6367 12.114 18.6367Z" fill="#54A548"/>
<path d="M17.7048 18.6367C17.1904 18.6367 16.7729 19.0542 16.7729 19.5686V36.3413C16.7729 36.8557 17.1904 37.2732 17.7048 37.2732C18.2192 37.2732 18.6366 36.8557 18.6366 36.3413V19.5686C18.6366 19.0542 18.2192 18.6367 17.7048 18.6367Z" fill="#54A548"/>
<path d="M23.2951 18.6367C22.7808 18.6367 22.3633 19.0542 22.3633 19.5686V36.3413C22.3633 36.8557 22.7808 37.2732 23.2951 37.2732C23.8095 37.2732 24.227 36.8557 24.227 36.3413V19.5686C24.227 19.0542 23.8095 18.6367 23.2951 18.6367Z" fill="#54A548"/>
<path d="M28.8864 18.6367C28.3721 18.6367 27.9546 19.0542 27.9546 19.5686V36.3413C27.9546 36.8557 28.3721 37.2732 28.8864 37.2732C29.4008 37.2732 29.8183 36.8557 29.8183 36.3413V19.5686C29.8183 19.0542 29.4008 18.6367 28.8864 18.6367Z" fill="#54A548"/>
<path d="M34.4773 18.6367C33.9629 18.6367 33.5454 19.0542 33.5454 19.5686V36.3413C33.5454 36.8557 33.9629 37.2732 34.4773 37.2732C34.9916 37.2732 35.4091 36.8557 35.4091 36.3413V19.5686C35.4091 19.0542 34.9916 18.6367 34.4773 18.6367Z" fill="#54A548"/>
<path d="M8.38644 39.1367C7.87207 39.1367 7.45459 39.5542 7.45459 40.0686V43.7959C7.45459 44.3102 7.87207 44.7277 8.38644 44.7277C8.9008 44.7277 9.31829 44.3102 9.31829 43.7959V40.0686C9.3182 39.5541 8.9008 39.1367 8.38644 39.1367Z" fill="#54A548"/>
<path d="M32.614 39.1367C32.0996 39.1367 31.6821 39.5542 31.6821 40.0686V43.7959C31.6821 44.3102 32.0996 44.7277 32.614 44.7277C33.1283 44.7277 33.5458 44.3102 33.5458 43.7959V40.0686C33.5458 39.5541 33.1283 39.1367 32.614 39.1367Z" fill="#54A548"/>
</svg>
