<svg width="37" height="34" viewBox="0 0 37 34" fill="none" xmlns="http://www.w3.org/2000/svg">
<path fill-rule="evenodd" clip-rule="evenodd" d="M0.807783 32.8347H36.1923V13.255H0.807783V32.8347ZM36.5961 33.6424H0.403977C0.180949 33.6424 0 33.4616 0 33.2386L8.53532e-05 12.8512C8.53532e-05 12.6281 0.180863 12.4473 0.403891 12.4473H36.5961C36.8192 12.4473 36.9999 12.6281 36.9999 12.8512V33.2386C36.9999 33.4616 36.8191 33.6425 36.5961 33.6424Z" fill="#22AB00"/>
<path fill-rule="evenodd" clip-rule="evenodd" d="M0.403977 33.6424C0.180949 33.6424 0 33.4616 0 33.2386L8.53532e-05 12.8512C8.53532e-05 12.6281 0.180863 12.4473 0.403891 12.4473C0.627773 12.4473 0.807783 12.6281 0.807783 12.8512V33.2386C0.807783 33.4616 0.627688 33.6425 0.403977 33.6424ZM11.3186 33.6424C11.0956 33.6424 10.9146 33.4616 10.9146 33.2386L10.9147 12.8512C10.9147 12.6281 11.0955 12.4473 11.3185 12.4473C11.5416 12.4473 11.7224 12.6281 11.7224 12.8512V33.2386C11.7224 33.4616 11.5415 33.6425 11.3186 33.6424Z" fill="#22AB00"/>
<path fill-rule="evenodd" clip-rule="evenodd" d="M25.6818 33.6424C25.4588 33.6424 25.2778 33.4616 25.2778 33.2386L25.278 12.8512C25.278 12.6281 25.4588 12.4473 25.6817 12.4473C25.9048 12.4473 26.0856 12.6281 26.0856 12.8512V33.2386C26.0856 33.4616 25.9048 33.6425 25.6818 33.6424ZM36.5964 33.6424C36.3726 33.6424 36.1925 33.4616 36.1925 33.2386L36.1926 12.8512C36.1926 12.6281 36.3726 12.4473 36.5964 12.4473C36.8195 12.4473 37.0002 12.6281 37.0002 12.8512V33.2386C37.0002 33.4616 36.8194 33.6425 36.5964 33.6424Z" fill="#22AB00"/>
<path fill-rule="evenodd" clip-rule="evenodd" d="M11.3186 26.7257H0.403977C0.180949 26.7257 0 26.545 0 26.3219C8.53532e-05 26.0988 0.180863 25.9181 0.403891 25.9181L11.3186 25.918C11.5416 25.918 11.7224 26.0989 11.7224 26.3219C11.7224 26.5449 11.5415 26.7258 11.3186 26.7257Z" fill="#22AB00"/>
<path fill-rule="evenodd" clip-rule="evenodd" d="M36.5964 26.7257H25.6818C25.4588 26.7257 25.2778 26.545 25.2778 26.3219C25.278 26.0988 25.4588 25.9181 25.6817 25.9181L36.5964 25.918C36.8195 25.918 36.9994 26.0989 36.9994 26.3219C36.9995 26.5449 36.8194 26.7258 36.5964 26.7257Z" fill="#22AB00"/>
<path fill-rule="evenodd" clip-rule="evenodd" d="M5.8615 33.6422C5.86056 33.6422 5.86056 33.6423 5.85971 33.6423C5.63676 33.6414 5.45667 33.4605 5.45752 33.2376L5.48364 26.3203C5.48458 26.0978 5.66536 25.918 5.88745 25.918C5.88745 25.9179 5.8883 25.918 5.88915 25.918C6.11218 25.9187 6.29219 26.1003 6.29134 26.3234L6.26539 33.24C6.26462 33.4631 6.0835 33.6423 5.8615 33.6422Z" fill="#22AB00"/>
<path fill-rule="evenodd" clip-rule="evenodd" d="M31.1383 33.6422C30.9155 33.6422 30.7344 33.4613 30.7344 33.2384L30.7345 26.3218C30.7345 26.0987 30.9153 25.918 31.1383 25.918C31.3613 25.9179 31.5422 26.0988 31.5422 26.3218L31.5423 33.2384C31.5423 33.4613 31.3613 33.6423 31.1383 33.6422Z" fill="#22AB00"/>
<path fill-rule="evenodd" clip-rule="evenodd" d="M3.45541 22.3268H8.26763V16.8468H3.45541V22.3268ZM8.67161 23.1346H3.05135C2.8285 23.1346 2.64746 22.9538 2.64746 22.7308L2.64755 16.443C2.64755 16.2198 2.82832 16.0391 3.05135 16.0391H8.67161C8.8954 16.0391 9.07541 16.2198 9.07541 16.443L9.0755 22.7307C9.0755 22.9537 8.89532 23.1346 8.67161 23.1346Z" fill="#22AB00"/>
<path fill-rule="evenodd" clip-rule="evenodd" d="M28.7318 22.3268H33.545V16.8468H28.7318V22.3268ZM33.9489 23.1346H28.3287C28.1049 23.1346 27.9248 22.9538 27.9248 22.7308L27.9249 16.443C27.9249 16.2198 28.1049 16.0391 28.3287 16.0391H33.9489C34.172 16.0391 34.3528 16.2198 34.3528 16.443L34.3528 22.7307C34.3528 22.9537 34.1719 23.1346 33.9489 23.1346Z" fill="#22AB00"/>
<path fill-rule="evenodd" clip-rule="evenodd" d="M0.405006 13.2546C0.386484 13.2546 0.368645 13.2533 0.350123 13.2508C0.128973 13.2206 -0.0260283 13.017 0.00427213 12.7961L1.64946 0.732078C1.67634 0.53201 1.84705 0.382898 2.04899 0.382898L34.9511 0.382812C35.1532 0.382812 35.3239 0.53201 35.3508 0.732163L36.9958 12.796C37.0261 13.017 36.8713 13.2206 36.65 13.2508C36.4296 13.2816 36.2259 13.1261 36.1956 12.9052L34.5986 1.19068H2.40167L0.804715 12.9051C0.776804 13.1076 0.603366 13.2545 0.405006 13.2546Z" fill="#22AB00"/>
<path fill-rule="evenodd" clip-rule="evenodd" d="M6.84813 13.2547C6.73452 13.2547 6.62075 13.2071 6.54077 13.114C6.39618 12.9447 6.41547 12.6898 6.58456 12.5444L18.2372 2.53691C18.3886 2.407 18.6116 2.40691 18.7631 2.53699L30.4159 12.5444C30.5849 12.6898 30.6041 12.9448 30.4594 13.114C30.3139 13.2833 30.0589 13.3026 29.8897 13.1573L18.5005 3.37584L7.1105 13.1573C7.03479 13.2226 6.94133 13.2548 6.84813 13.2547Z" fill="#22AB00"/>
<path fill-rule="evenodd" clip-rule="evenodd" d="M24.6935 13.2553C24.5985 13.2553 24.5033 13.2222 24.4268 13.1546L18.5004 7.93434L12.5733 13.1545C12.4057 13.3019 12.1507 13.2859 12.0026 13.1185C11.8553 12.9511 11.8713 12.6959 12.0388 12.5484L18.2329 7.09301C18.3861 6.95858 18.614 6.95858 18.7671 7.09301L24.9612 12.5484C25.1279 12.6958 25.1446 12.9511 24.9973 13.1185C24.9175 13.2091 24.8054 13.2554 24.6935 13.2553Z" fill="#22AB00"/>
<path fill-rule="evenodd" clip-rule="evenodd" d="M10.2547 10.3293H0.803391C0.580363 10.3293 0.399414 10.1485 0.399414 9.92538C0.399585 9.70235 0.580363 9.52148 0.803391 9.52148H10.2547C10.4778 9.52148 10.6586 9.70235 10.6586 9.92538C10.6586 10.1484 10.4777 10.3294 10.2547 10.3293ZM36.1962 10.3293H26.745C26.5219 10.3293 26.3409 10.1485 26.3409 9.92538C26.3411 9.70235 26.5219 9.52148 26.7448 9.52148H36.1962C36.4193 9.52148 36.6001 9.70235 36.6001 9.92538C36.6001 10.1484 36.4192 10.3294 36.1962 10.3293Z" fill="#22AB00"/>
<path fill-rule="evenodd" clip-rule="evenodd" d="M20.8936 33.6419C20.6706 33.6419 20.4898 33.461 20.4898 33.2381L20.4898 25.4382C20.4898 24.341 19.597 23.4485 18.5005 23.4485C17.4034 23.4484 16.5104 24.341 16.5104 25.4382L16.5105 33.2381C16.5105 33.461 16.3296 33.642 16.1065 33.642C15.8837 33.6419 15.7026 33.461 15.7026 33.2381L15.7028 25.4382C15.7028 23.8956 16.9572 22.6406 18.4997 22.6406C20.043 22.6405 21.2975 23.8957 21.2975 25.4382L21.2977 33.2381C21.2977 33.461 21.1166 33.642 20.8936 33.6419Z" fill="#22AB00"/>
<path fill-rule="evenodd" clip-rule="evenodd" d="M19.3285 29.7169C19.1044 29.7169 18.9243 29.536 18.9243 29.3131L18.9244 28.1012C18.9244 27.8781 19.1044 27.6973 19.3283 27.6973C19.5512 27.6972 19.7322 27.8782 19.7322 28.1012L19.7323 29.313C19.7323 29.5359 19.5512 29.7169 19.3285 29.7169Z" fill="#22AB00"/>
<path fill-rule="evenodd" clip-rule="evenodd" d="M5.8615 23.1346C5.63847 23.1346 5.45752 22.9538 5.45752 22.7308V16.443C5.45752 16.2198 5.63838 16.0391 5.86141 16.0391C6.08452 16.0391 6.2653 16.2198 6.2653 16.443L6.26539 22.7307C6.26539 22.9537 6.08435 23.1346 5.8615 23.1346Z" fill="#22AB00"/>
<path fill-rule="evenodd" clip-rule="evenodd" d="M8.67161 19.9912H3.05135C2.8285 19.9912 2.64746 19.8104 2.64746 19.5874C2.64755 19.3644 2.82832 19.1836 3.05135 19.1836H8.67161C8.8954 19.1836 9.07541 19.3644 9.07541 19.5874C9.0755 19.8104 8.89532 19.9913 8.67161 19.9912Z" fill="#22AB00"/>
<path fill-rule="evenodd" clip-rule="evenodd" d="M31.1383 23.1346C30.9155 23.1346 30.7344 22.9538 30.7344 22.7308L30.7345 16.443C30.7345 16.2198 30.9153 16.0391 31.1383 16.0391C31.3613 16.0391 31.5422 16.2198 31.5422 16.443L31.5423 22.7307C31.5423 22.9537 31.3613 23.1346 31.1383 23.1346Z" fill="#22AB00"/>
<path fill-rule="evenodd" clip-rule="evenodd" d="M33.9489 19.9912H28.3287C28.1049 19.9912 27.9248 19.8104 27.9248 19.5874C27.9249 19.3644 28.1049 19.1836 28.3287 19.1836H33.9489C34.172 19.1836 34.3528 19.3644 34.3528 19.5874C34.3528 19.8104 34.1719 19.9913 33.9489 19.9912Z" fill="#22AB00"/>
</svg>
