<svg width="231" height="187" viewBox="0 0 231 187" fill="none" xmlns="http://www.w3.org/2000/svg">
<path d="M69.75 0.74999C91.25 0.74999 108.208 8.79166 120.625 24.875C133.042 40.875 139.25 63.9167 139.25 94C139.25 123.917 133.125 146.875 120.875 162.875C108.625 178.792 91.5833 186.75 69.75 186.75C47.8333 186.75 30.7083 178.792 18.375 162.875C6.125 146.958 8.71718e-07 124.042 8.71718e-07 94.125C8.71718e-07 74.125 2.83333 57.1667 8.5 43.25C14.1667 29.3333 22.2083 18.7917 32.625 11.625C43.0417 4.37499 55.4167 0.74999 69.75 0.74999ZM69.75 156.875C80.5 156.875 88.375 152.083 93.375 142.5C98.375 132.833 100.875 116.708 100.875 94.125C100.875 71.0417 98.3333 54.5 93.25 44.5C88.1667 34.5 80.2917 29.5 69.625 29.5C58.9583 29.5 51 34.5417 45.75 44.625C40.5833 54.7083 38 71.2083 38 94.125C38 116.625 40.5833 132.708 45.75 142.375C50.9167 152.042 58.9167 156.875 69.75 156.875ZM193.133 184V48.625H160.883V28C171.216 28 179.549 27.0417 185.883 25.125C192.299 23.125 197.091 20.2917 200.258 16.625C203.424 12.875 205.299 8.41666 205.883 3.24999H230.133V184H193.133Z" fill="white" fill-opacity="0.05"/>
</svg>
