<svg width="298" height="187" viewBox="0 0 298 187" fill="none" xmlns="http://www.w3.org/2000/svg">
<path d="M69.75 0.74999C91.25 0.74999 108.208 8.79166 120.625 24.875C133.042 40.875 139.25 63.9167 139.25 94C139.25 123.917 133.125 146.875 120.875 162.875C108.625 178.792 91.5833 186.75 69.75 186.75C47.8333 186.75 30.7083 178.792 18.375 162.875C6.125 146.958 8.71718e-07 124.042 8.71718e-07 94.125C8.71718e-07 74.125 2.83333 57.1667 8.5 43.25C14.1667 29.3333 22.2083 18.7917 32.625 11.625C43.0417 4.37499 55.4167 0.74999 69.75 0.74999ZM69.75 156.875C80.5 156.875 88.375 152.083 93.375 142.5C98.375 132.833 100.875 116.708 100.875 94.125C100.875 71.0417 98.3333 54.5 93.25 44.5C88.1667 34.5 80.2917 29.5 69.625 29.5C58.9583 29.5 51 34.5417 45.75 44.625C40.5833 54.7083 38 71.2083 38 94.125C38 116.625 40.5833 132.708 45.75 142.375C50.9167 152.042 58.9167 156.875 69.75 156.875ZM164.258 184V166V156.75C164.258 147.583 165.966 139.667 169.383 133C172.799 126.25 177.299 120.417 182.883 115.5C188.549 110.5 194.716 106.125 201.383 102.375C208.133 98.625 214.883 95.0833 221.633 91.75C228.383 88.4167 234.549 85.0833 240.133 81.75C245.799 78.3333 250.341 74.5417 253.758 70.375C257.174 66.2083 258.883 61.2917 258.883 55.625C258.883 48.375 256.341 42.4583 251.258 37.875C246.258 33.2917 239.383 31 230.633 31C221.549 31 213.841 33.625 207.508 38.875C201.174 44.125 197.258 52.0417 195.758 62.625H160.883C161.049 51.125 163.716 40.7083 168.883 31.375C174.133 21.9583 181.966 14.5 192.383 8.99999C202.799 3.49999 215.883 0.74999 231.633 0.74999C245.133 0.74999 256.758 3.04166 266.508 7.625C276.341 12.2083 283.924 18.5833 289.258 26.75C294.591 34.9167 297.258 44.4583 297.258 55.375C297.258 64.4583 295.591 72.2917 292.258 78.875C288.924 85.4583 284.508 91.0833 279.008 95.75C273.508 100.417 267.466 104.5 260.883 108C254.299 111.5 247.716 114.75 241.133 117.75C234.633 120.75 228.633 123.833 223.133 127C217.633 130.083 213.216 133.583 209.883 137.5C206.549 141.417 204.883 146.125 204.883 151.625V153.25H297.008V184H164.258Z" fill="white" fill-opacity="0.05"/>
</svg>
