<svg width="29" height="34" viewBox="0 0 29 34" fill="none" xmlns="http://www.w3.org/2000/svg">
<path d="M4.3954 4.985L12.5047 9.57151C12.7547 9.71342 13.0756 9.62695 13.2185 9.37352L15.4837 5.36823C15.6264 5.11652 15.5374 4.79674 15.2857 4.65444L7.1768 0.0679923C6.92561 -0.0742409 6.60531 0.0137425 6.46301 0.265988L4.1974 4.27127C4.12882 4.392 4.11146 4.53529 4.14828 4.66937C4.18563 4.80285 4.27414 4.91701 4.3954 4.985ZM7.11696 1.23762L14.314 5.3084L12.5646 8.40189L5.36703 4.33111L7.11696 1.23762Z" fill="#54A548"/>
<path d="M28.476 9.47656C24.1843 9.47656 18.5811 9.47656 14.4985 9.47656C14.2089 9.47656 13.9745 9.71092 13.9745 10.0005V14.0785C11.0827 14.0785 8.59791 14.0785 5.7061 14.0785V10.0005C5.7061 9.71092 5.47174 9.47656 5.18214 9.47656H0.527111C0.237516 9.47656 0.00315635 9.71092 0.00315635 10.0005C-0.00394544 31.3503 0.00315635 24.9804 0.00315635 33.0088C0.00315635 33.2984 0.237516 33.5328 0.527111 33.5328H28.476C28.7656 33.5328 29 33.2984 29 33.0088C28.9998 32.5009 29.0008 35.0019 28.9974 27.2086C28.9974 26.919 28.7631 26.6847 28.4735 26.6847C28.1839 26.6847 27.9495 26.919 27.9495 27.2086V27.883C25.0845 27.883 22.6182 27.883 19.6816 27.883V24.3295H27.9495V25.0085C27.9495 25.2981 28.1839 25.5324 28.4735 25.5324C28.7631 25.5324 28.9974 25.2981 28.9974 25.0085C28.9976 25.087 28.9999 11.9054 29 10.0005C28.9999 9.71092 28.7656 9.47656 28.476 9.47656ZM10.3643 27.883V24.3296H18.6327V27.883C15.7409 27.883 13.2561 27.883 10.3643 27.883ZM1.04798 27.883V24.3296H9.31638V27.883C6.42456 27.883 3.93979 27.883 1.04798 27.883ZM13.9746 19.7277V23.2817C11.0827 23.2817 8.59798 23.2817 5.70616 23.2817V19.7277H13.9746ZM10.3643 15.1264H18.6327V18.6798C15.7409 18.6798 13.2561 18.6798 10.3643 18.6798V15.1264ZM27.949 15.1264V18.6798C25.0572 18.6798 22.5724 18.6798 19.6806 18.6798V15.1264H27.949ZM4.65825 23.2817H1.051V19.7277H4.65819L4.65825 23.2817ZM15.0224 23.2817V19.7277H23.2908V23.2791C22.4454 23.2794 26.3535 23.2782 15.0224 23.2817ZM24.3387 23.2791V19.7277H27.9521V23.2791H24.3387ZM27.9521 14.0785H24.3387V10.5245H27.9521V14.0785ZM15.0224 10.5245H23.2908V14.0785C20.399 14.0785 17.9142 14.0785 15.0224 14.0785V10.5245ZM9.31638 18.6798C6.42456 18.6798 3.93979 18.6798 1.04798 18.6798V15.1264H9.31638V18.6798ZM1.051 10.5245H4.65819V14.0785H1.051V10.5245ZM1.051 28.931H4.65819V32.4849H1.051V28.931ZM5.7061 28.931H13.9745V32.4849H5.7061V28.931ZM15.0224 28.931C15.084 28.931 23.229 28.9325 23.2908 28.9325V32.4849H15.0224V28.931ZM24.3387 32.4849V28.9325H27.9521V32.4849H24.3387Z" fill="#54A548"/>
</svg>
