<svg width="45" height="37" viewBox="0 0 45 37" fill="none" xmlns="http://www.w3.org/2000/svg">
<path d="M26.9821 10.8265H32.6821C32.8205 10.8265 32.9535 10.7739 33.0545 10.6794L35.0163 8.84839C35.2363 8.64294 35.248 8.29809 35.0427 8.0782C35.0342 8.06912 35.0254 8.0604 35.0163 8.05186L33.0545 6.21996C32.9534 6.12577 32.8203 6.07346 32.6821 6.07373H26.9821C26.6811 6.07373 26.4371 6.31768 26.4371 6.61867V10.2816C26.4371 10.5825 26.6811 10.8265 26.9821 10.8265ZM27.527 7.16361H32.4678L33.8456 8.44967L32.4678 9.73664H27.527V7.16361Z" fill="#22A901"/>
<path d="M26.9821 16.0453H34.6448C34.7828 16.045 34.9156 15.9924 35.0163 15.8981L36.979 14.0671C37.1993 13.862 37.2114 13.5172 37.0063 13.297C36.9975 13.2875 36.9884 13.2784 36.979 13.2697L35.0172 11.4387C34.9163 11.3447 34.7836 11.2925 34.6458 11.2925H26.9821C26.6811 11.2925 26.4371 11.5364 26.4371 11.8374V15.5003C26.4371 15.8012 26.6811 16.0453 26.9821 16.0453ZM27.527 12.3824H34.4296L35.8083 13.6684L34.4296 14.9554H27.527V12.3824Z" fill="#22A901"/>
<path d="M26.9821 21.2632H36.6094C36.7477 21.2632 36.8808 21.2106 36.9818 21.1161L38.939 19.2851C39.1592 19.0763 39.1684 18.7285 38.9596 18.5083C38.9529 18.5012 38.9461 18.4944 38.939 18.4877L36.9772 16.6567C36.8762 16.5621 36.7432 16.5095 36.6048 16.5095H26.9776C26.6766 16.5095 26.4326 16.7535 26.4326 17.0545V20.7183C26.4326 21.0193 26.6766 21.2632 26.9776 21.2632H26.9821ZM27.527 17.5994H36.3959L37.7737 18.8864L36.3959 20.1733H27.527V17.5994Z" fill="#22A901"/>
<path d="M26.9821 26.4801H38.5693C38.7072 26.4801 38.8399 26.4279 38.9408 26.3339L40.9026 24.502C41.1225 24.2965 41.1343 23.9517 40.9289 23.7318C40.9205 23.7227 40.9117 23.714 40.9026 23.7054L38.939 21.8744C38.8382 21.7802 38.7055 21.7276 38.5675 21.7273H26.9821C26.6811 21.7273 26.4371 21.9712 26.4371 22.2722V25.9351C26.4371 26.236 26.6811 26.4801 26.9821 26.4801ZM27.527 22.8172H38.3541L39.7328 24.1041L38.3541 25.3902H27.527V22.8172Z" fill="#22A901"/>
<path d="M26.9821 31.698H40.5311C40.669 31.698 40.8017 31.6457 40.9026 31.5517L42.8653 29.718C43.0852 29.5126 43.097 29.1677 42.8916 28.9478C42.8832 28.9388 42.8743 28.93 42.8653 28.9215L40.9026 27.0905C40.8019 26.9962 40.6691 26.9436 40.5311 26.9434H26.9821C26.6811 26.9434 26.4371 27.1873 26.4371 27.4883V31.153C26.4371 31.4539 26.6811 31.698 26.9821 31.698ZM27.527 28.0351H40.3168L41.6946 29.322L40.3168 30.6081H27.527V28.0351Z" fill="#22A901"/>
<path d="M42.8653 32.3088C42.7642 32.2146 42.631 32.1623 42.4929 32.1626H26.9821C26.6811 32.1626 26.4371 32.4066 26.4371 32.7075V36.3704C26.4371 36.6714 26.6811 36.9154 26.9821 36.9154H42.4929C42.631 36.9157 42.7642 36.8633 42.8653 36.7692L44.8271 34.9373C45.047 34.7318 45.0587 34.387 44.8534 34.1671C44.8449 34.158 44.8361 34.1493 44.8271 34.1407L42.8653 32.3088ZM42.2785 35.8255H27.527V33.2525H42.2785L43.6618 34.5394L42.2785 35.8255Z" fill="#22A901"/>
<path d="M1.89853 26.2667C2.04257 26.2666 2.18072 26.2094 2.28271 26.1078L3.903 24.492V36.2428C3.903 36.5438 4.14695 36.7877 4.44794 36.7877H24.7206C25.4363 36.765 25.4472 35.7242 24.7206 35.6978H23.3855V25.7536C23.384 24.7671 22.5845 23.9681 21.5981 23.9671H16.4512C15.4647 23.9681 14.6653 24.7672 14.6638 25.7536V35.6978H4.99288V23.4012L16.2205 12.2009L24.3355 20.296C24.5487 20.5087 24.8939 20.5083 25.1066 20.2951C25.3193 20.0819 25.3189 19.7367 25.1057 19.524L16.6056 11.0456C16.3929 10.8337 16.0489 10.8337 15.8363 11.0456L1.70144 25.1496C1.11472 25.0215 0.88403 24.2132 1.33815 23.7954L16.2332 8.72419L24.3455 16.9346C24.8632 17.4296 25.6171 16.7003 25.1212 16.169L16.6083 7.56619C16.3966 7.3523 16.0515 7.3504 15.8376 7.5621C15.8363 7.56347 15.8349 7.56483 15.8336 7.56619L8.19531 15.2962L8.07906 13.1055C8.06362 12.816 7.82412 12.5892 7.53412 12.5896H4.60779C4.31207 12.5895 4.0702 12.8253 4.06285 13.121L3.90027 19.3233C3.89773 19.4131 3.91771 19.5021 3.9584 19.5821L0.557066 23.0271C-0.639986 24.1978 0.223744 26.2831 1.89853 26.2667ZM15.7536 25.7572C15.7546 25.3726 16.0665 25.061 16.4512 25.0606H21.5981C21.9828 25.061 22.2946 25.3726 22.2956 25.7572V35.6978H15.7564L15.7536 25.7572ZM5.14092 13.6795H7.01824L7.15084 16.2089C7.15357 16.2501 7.16056 16.2909 7.17173 16.3306L5.01468 18.5159L5.14092 13.6795Z" fill="#22A901"/>
<path d="M7.6957 22.6472C7.39471 22.6472 7.15076 22.8912 7.15076 23.1922V29.944C7.15076 30.245 7.39471 30.4889 7.6957 30.4889H12.631C12.932 30.4889 13.176 30.245 13.176 29.944V23.1922C13.176 22.8912 12.932 22.6472 12.631 22.6472H7.6957ZM12.0861 29.399H8.24064V23.7371H12.0861V29.399Z" fill="#22A901"/>
<path d="M17.2903 29.9431C16.9211 29.9431 16.6215 30.2423 16.621 30.6116C16.6519 31.4971 17.9279 31.4971 17.9588 30.6116C17.9583 30.2426 17.6593 29.9436 17.2903 29.9431Z" fill="#22A901"/>
<path d="M5.31157 8.23903C5.53381 8.0365 5.55007 7.69228 5.34789 7.46976C4.72485 6.78495 4.28799 5.53431 5.7457 3.46081C6.9037 1.81328 8.81281 1.29014 10.2306 1.13846C9.43404 1.86505 8.70109 3.03485 9.07801 4.7714C9.54394 6.7904 8.4922 7.7504 6.80743 7.9602C7.08544 6.73 7.52711 5.54267 8.12073 4.4299C8.44225 3.78778 7.52221 3.28825 7.16073 3.91402C6.00636 6.05927 5.37605 8.54148 5.33427 11.0991C5.32928 11.4001 5.56914 11.6481 5.87013 11.6531C6.17112 11.6581 6.41916 11.4182 6.42415 11.1172C6.43587 10.433 6.49327 9.75033 6.59581 9.0737C7.3006 9.03374 8.60482 8.82575 9.47491 7.88664C10.2242 7.0774 10.4494 5.95301 10.1443 4.54525C9.93629 3.58524 10.0662 2.24832 11.8699 1.32737C12.5057 1.00313 12.2904 0.0267824 11.5729 0.00498477C10.1833 -0.0386105 6.74657 0.148486 4.852 2.83777C2.88204 5.63785 3.81207 7.40164 4.54229 8.20361C4.74501 8.42558 5.08923 8.44139 5.31157 8.23903Z" fill="#22A901"/>
</svg>
