<svg width="68" height="68" viewBox="0 0 68 68" fill="none" xmlns="http://www.w3.org/2000/svg">
<path d="M68.0039 52.6966L67.9879 32.0183C67.9823 29.3581 65.8261 27.2035 63.1658 27.2C60.8246 27.197 58.8206 28.8783 58.4167 31.1843L55.7427 46.3382C54.661 46.1947 53.565 46.4652 52.6742 47.0953L43.5522 53.5118C43.2502 53.7237 43.0705 54.0697 43.0708 54.4387V66.8667C43.0708 67.4926 43.5782 68 44.2041 68H55.5374C56.1633 68 56.6708 67.4926 56.6708 66.8667V65.4329L64.1321 60.6821C66.6509 58.8137 68.097 55.8314 68.0039 52.6966ZM62.8912 58.7849L54.9286 63.8544C54.6019 64.0627 54.4041 64.4232 54.404 64.8107V65.7332H45.3373V55.0269L53.9778 48.9491C54.9188 48.288 56.2176 48.5148 56.8786 49.4557C57.525 50.3759 57.3243 51.6431 56.4248 52.3181L50.3238 56.8935L51.6841 58.7064L57.7851 54.131C59.7064 52.6897 60.0954 49.9639 58.6541 48.0426C58.5307 47.8781 58.3958 47.7226 58.2504 47.5772C58.134 47.4611 58.0116 47.3514 57.8834 47.2486L60.6488 31.5784C60.8938 30.1885 62.2194 29.2603 63.6093 29.5056C64.83 29.7209 65.7203 30.7811 65.721 32.0206L65.7371 52.6978C65.8335 55.0686 64.7722 57.3385 62.8912 58.7849Z" fill="white"/>
<path d="M24.4558 53.5117L15.3338 47.0952C14.443 46.4651 13.3469 46.1948 12.2653 46.3382L9.59133 31.1843C9.12865 28.5614 6.62739 26.8103 4.00458 27.273C1.70137 27.6793 0.0217687 29.6795 0.0199271 32.0182L0.00406045 52.6977C-0.0873144 55.8416 1.36817 58.8306 3.89932 60.6975L11.3374 65.4328V66.8666C11.3374 67.4925 11.8448 67.9999 12.4707 67.9999H23.804C24.4299 67.9999 24.9373 67.4925 24.9373 66.8666V54.4386C24.9375 54.0696 24.7579 53.7237 24.4558 53.5117ZM22.6707 65.7331H13.604V64.8106C13.6039 64.4231 13.4061 64.0626 13.0794 63.8544L5.14003 58.8003C3.24666 57.3554 2.17595 55.0786 2.27072 52.6987L2.28673 32.0204C2.28772 30.6089 3.43267 29.4656 4.84395 29.4665C6.08353 29.4674 7.14376 30.3576 7.35895 31.5782L10.1241 47.2484C9.99593 47.3512 9.87353 47.4609 9.75722 47.577C8.05893 49.2753 8.05893 52.0288 9.75722 53.7271C9.90257 53.8724 10.0581 54.0074 10.2226 54.1308L16.3236 58.7062L17.6839 56.8933L11.5829 52.3179C10.6632 51.6276 10.4773 50.3224 11.1677 49.4027C11.8427 48.5034 13.1099 48.3025 14.03 48.9489L22.6705 55.0267V65.7331H22.6707Z" fill="white"/>
<path d="M34.004 4.09837e-07H33.9326L34.004 2.26666C35.3911 2.26652 36.7749 2.39898 38.1367 2.66234L38.5695 0.437749C37.065 0.146342 35.5363 -0.000282923 34.004 4.09837e-07Z" fill="white"/>
<path d="M29.2908 0.467041C27.7626 0.774032 26.2686 1.23147 24.8306 1.83285L25.7049 3.92356C27.005 3.38055 28.3555 2.96717 29.7369 2.6895L29.2908 0.467041Z" fill="white"/>
<path d="M49.2381 39.0181C48.2411 40.0157 47.1493 40.9137 45.978 41.6992L47.2408 43.5818C48.5344 42.714 49.7404 41.7222 50.8417 40.6207L49.2381 39.0181Z" fill="white"/>
<path d="M43.0378 1.77539L42.1768 3.87163C43.4804 4.40769 44.7283 5.07041 45.9027 5.85L47.1568 3.96187C45.8587 3.09969 44.4791 2.36741 43.0378 1.77539Z" fill="white"/>
<path d="M55.5374 23.7999C55.5375 25.2098 55.4006 26.6163 55.1284 27.9996L57.3519 28.4391C57.6526 26.9111 57.8041 25.3574 57.8039 23.8001V23.7037L55.5374 23.7999Z" fill="white"/>
<path d="M50.7711 6.90894L49.1741 8.51713C50.1749 9.51106 51.0765 10.6001 51.8663 11.7688L53.7445 10.5005C52.8724 9.2096 51.8766 8.00671 50.7711 6.90894Z" fill="white"/>
<path d="M42.2616 43.6936C40.9603 44.2339 39.6088 44.6445 38.2268 44.9193L38.6684 47.1428C40.1971 46.8386 41.692 46.3843 43.1314 45.7864L42.2616 43.6936Z" fill="white"/>
<path d="M55.9623 14.6033L53.8716 15.4799C54.4163 16.7797 54.8315 18.1301 55.1112 19.5113L57.3325 19.0619C57.0232 17.5343 56.5644 16.0409 55.9623 14.6033Z" fill="white"/>
<path d="M53.9058 32.0366C53.3655 33.3388 52.6988 34.5849 51.9153 35.7571L53.8002 37.0166C54.6659 35.7209 55.4027 34.3437 55.9998 32.9045L53.9058 32.0366Z" fill="white"/>
<path d="M34.004 45.3332C32.6017 45.3335 31.2027 45.198 29.8266 44.9282L29.3894 47.1528C30.9096 47.4503 32.4551 47.6 34.004 47.5999H34.0278L34.004 45.3332Z" fill="white"/>
<path d="M16.1171 35.7928L14.2356 37.0579C15.1051 38.3505 16.0987 39.5554 17.2018 40.6555L18.8022 39.0507C17.8033 38.0546 16.904 36.9636 16.1171 35.7928Z" fill="white"/>
<path d="M20.7249 4.04529C19.4328 4.91597 18.2289 5.91061 17.1301 7.01532L18.7372 8.61346C19.7317 7.61372 20.8215 6.71357 21.9911 5.92563L20.7249 4.04529Z" fill="white"/>
<path d="M10.6462 19.2102C10.352 20.7224 10.204 22.2594 10.2041 23.7999V23.8475L12.4708 23.7999C12.4705 22.4049 12.6045 21.0132 12.8708 19.644L10.6462 19.2102Z" fill="white"/>
<path d="M14.1795 10.6261C13.316 11.9232 12.582 13.302 11.988 14.7428L14.0843 15.6061C14.621 14.3028 15.285 13.0555 16.0665 11.8824L14.1795 10.6261Z" fill="white"/>
<path d="M12.8885 28.0438L10.666 28.4882C10.9716 30.0167 11.4275 31.5113 12.0269 32.9502L14.1187 32.0781C13.577 30.777 13.165 29.4258 12.8885 28.0438Z" fill="white"/>
<path d="M22.0675 41.7257L20.8091 43.6106C22.1055 44.4753 23.4835 45.2108 24.9235 45.8064L25.7889 43.7113C24.4865 43.173 23.2399 42.508 22.0675 41.7257Z" fill="white"/>
<path d="M51.0039 19.2666C51.0039 15.7874 48.8423 12.0565 45.2757 11.4262C44.9312 7.55946 41.7157 4.58107 37.8339 4.53333C36.4851 4.53219 35.1613 4.89727 34.0039 5.58973C32.8465 4.89727 31.5228 4.53219 30.174 4.53333C26.1679 4.59113 22.8569 7.67407 22.5141 11.6659C19.2022 12.7072 16.9636 15.7952 17.004 19.2666C17.0027 20.8826 17.4863 22.4618 18.3924 23.8C17.4863 25.1381 17.0027 26.7173 17.004 28.3333C17.004 31.8125 19.1655 35.5434 22.7321 36.1737C23.0766 40.0404 26.2922 43.0188 30.174 43.0666C31.5228 43.0677 32.8465 42.7026 34.0039 42.0102C35.1613 42.7026 36.4851 43.0677 37.8339 43.0666C41.8399 43.0088 45.1509 39.9258 45.4938 35.934C48.8056 34.8927 51.0443 31.8047 51.0039 28.3333C51.0052 26.7173 50.5215 25.1381 49.6154 23.8C50.5214 22.4619 51.0052 20.8826 51.0039 19.2666ZM32.8706 14.7333C32.8706 15.9852 31.8558 17 30.6039 17C29.352 17 28.3373 15.9852 28.3373 14.7333H26.0706C26.0734 17.2358 28.1014 19.2638 30.6039 19.2666C31.4022 19.2621 32.1846 19.0444 32.8706 18.6359V40.0284C32.0594 40.5279 31.1265 40.7947 30.174 40.7999C27.5159 40.7408 25.313 38.7218 25.0228 36.079C27.4295 35.4123 28.8399 32.921 28.1731 30.5144C27.6294 28.5517 25.8405 27.1947 23.8039 27.1999V29.4666C25.0558 29.4666 26.0706 30.4814 26.0706 31.7333C26.0706 32.9852 25.0558 33.9999 23.8039 33.9999C21.0923 33.9999 19.2706 31.0697 19.2706 28.3333C19.2682 26.9415 19.767 25.5956 20.6757 24.5414C21.0447 24.116 21.0447 23.4838 20.6757 23.0583C19.767 22.0042 19.2682 20.6582 19.2706 19.2665C19.2203 16.5489 21.1368 14.1909 23.8072 13.6845C24.3627 13.5432 24.749 13.0397 24.7419 12.4665C24.682 9.40353 27.1113 6.86941 30.174 6.79985C31.1265 6.80495 32.0594 7.07185 32.8706 7.57136V14.7333ZM47.3322 24.5416C48.2408 25.5957 48.7396 26.9417 48.7372 28.3334C48.7875 31.051 46.8711 33.409 44.2006 33.9154C43.6452 34.0567 43.2588 34.5602 43.2659 35.1334C43.3258 38.1964 40.8966 40.7305 37.8339 40.8001C36.8813 40.795 35.9484 40.5281 35.1373 40.0285V27.2001C35.1373 25.9482 36.152 24.9334 37.4039 24.9334C38.6558 24.9334 39.6706 25.9482 39.6706 27.2001H41.9372C41.9344 24.6976 39.9064 22.6696 37.4039 22.6668C36.6056 22.6713 35.8232 22.889 35.1373 23.2975V7.5715C35.9484 7.07199 36.8813 6.80523 37.8339 6.79999C40.4918 6.85906 42.6949 8.87809 42.985 11.5209C40.5784 12.1876 39.1679 14.6789 39.8348 17.0855C40.3785 19.0482 42.1673 20.4052 44.2039 20.4V18.1333C42.952 18.1333 41.9372 17.1185 41.9372 15.8666C41.9372 14.6147 42.952 13.6 44.2039 13.6C46.9155 13.6 48.7372 16.5302 48.7372 19.2666C48.7396 20.6584 48.2408 22.0043 47.3322 23.0585C46.963 23.4839 46.963 24.116 47.3322 24.5416Z" fill="white"/>
</svg>
