<svg width="34" height="35" viewBox="0 0 34 35" fill="none" xmlns="http://www.w3.org/2000/svg">
<path d="M5.70724 16.2477H7.79867C8.12612 16.2474 8.44005 16.1171 8.67159 15.8856C8.90313 15.654 9.03337 15.3401 9.03375 15.0126V12.9206C9.03337 12.5932 8.90313 12.2792 8.67159 12.0477C8.44005 11.8162 8.12612 11.6859 7.79867 11.6855H5.70724C5.3798 11.6859 5.06587 11.8162 4.83433 12.0477C4.60279 12.2792 4.47254 12.5932 4.47217 12.9206V15.0126C4.47254 15.3401 4.60279 15.654 4.83433 15.8856C5.06587 16.1171 5.3798 16.2474 5.70724 16.2477ZM5.70724 12.9206H7.79867L7.79929 15.0126H5.70724V12.9206Z" fill="#54A548"/>
<path d="M11.7898 16.2477H13.8818C14.2092 16.2473 14.5232 16.1171 14.7547 15.8856C14.9863 15.654 15.1165 15.3401 15.1169 15.0126V12.9206C15.1165 12.5932 14.9863 12.2792 14.7547 12.0477C14.5232 11.8162 14.2092 11.6859 13.8818 11.6855H11.7898C11.4623 11.6859 11.1484 11.8162 10.9168 12.0477C10.6853 12.2792 10.5551 12.5932 10.5547 12.9206V15.0126C10.5551 15.3401 10.6853 15.654 10.9168 15.8856C11.1484 16.1171 11.4623 16.2474 11.7898 16.2477ZM11.7898 12.9206H13.8818L13.8824 15.0126H11.7898V12.9206Z" fill="#54A548"/>
<path d="M7.79865 22.1498C8.12609 22.1494 8.44002 22.0191 8.67156 21.7876C8.9031 21.5561 9.03335 21.2421 9.03372 20.9147V18.823C9.03335 18.4955 8.9031 18.1816 8.67156 17.95C8.44002 17.7185 8.12609 17.5883 7.79865 17.5879H5.70724C5.3798 17.5883 5.06587 17.7185 4.83433 17.95C4.60279 18.1816 4.47254 18.4955 4.47217 18.823V20.9147C4.47254 21.2421 4.60279 21.5561 4.83433 21.7876C5.06587 22.0192 5.3798 22.1494 5.70724 22.1498L7.79865 22.1498ZM5.70724 18.823H7.79867L7.79929 20.9147H5.70724V18.823Z" fill="#54A548"/>
<path d="M11.7898 22.1498H13.8818C14.2092 22.1494 14.5232 22.0191 14.7547 21.7876C14.9863 21.5561 15.1165 21.2421 15.1169 20.9147V18.823C15.1165 18.4955 14.9863 18.1816 14.7547 17.9501C14.5232 17.7185 14.2092 17.5883 13.8818 17.5879H11.7898C11.4623 17.5883 11.1484 17.7185 10.9168 17.95C10.6853 18.1816 10.5551 18.4955 10.5547 18.823V20.9147C10.5551 21.2421 10.6853 21.5561 10.9169 21.7876C11.1484 22.0191 11.4623 22.1494 11.7898 22.1498ZM11.7898 18.823H13.8818L13.8824 20.9147H11.7898V18.823Z" fill="#54A548"/>
<path d="M22.2143 11.6855H20.1223C19.7948 11.6859 19.4809 11.8162 19.2494 12.0477C19.0178 12.2792 18.8876 12.5932 18.8872 12.9206V15.0126C18.8876 15.3401 19.0178 15.654 19.2494 15.8856C19.4809 16.1171 19.7948 16.2473 20.1223 16.2477H22.2143C22.5418 16.2474 22.8557 16.1171 23.0872 15.8856C23.3188 15.654 23.449 15.3401 23.4494 15.0126V12.9206C23.449 12.5932 23.3188 12.2792 23.0872 12.0477C22.8557 11.8162 22.5418 11.6859 22.2143 11.6855ZM20.1223 15.0126V12.9206H22.2143L22.2149 15.0126H20.1223Z" fill="#54A548"/>
<path d="M28.2972 11.6855H26.2058C25.8783 11.6859 25.5644 11.8162 25.3329 12.0477C25.1013 12.2792 24.9711 12.5932 24.9707 12.9206V15.0126C24.9711 15.3401 25.1013 15.654 25.3329 15.8856C25.5644 16.1171 25.8783 16.2474 26.2058 16.2477H28.2972C28.6246 16.2474 28.9386 16.1171 29.1701 15.8856C29.4016 15.654 29.5319 15.3401 29.5323 15.0126V12.9206C29.5319 12.5932 29.4016 12.2792 29.1701 12.0477C28.9386 11.8162 28.6246 11.6859 28.2972 11.6855ZM26.2058 15.0126V12.9206H28.2972L28.2978 15.0126H26.2058Z" fill="#54A548"/>
<path d="M22.2143 17.5879H20.1223C19.7948 17.5883 19.4809 17.7185 19.2494 17.9501C19.0178 18.1816 18.8876 18.4955 18.8872 18.823V20.9147C18.8876 21.2421 19.0178 21.5561 19.2494 21.7876C19.4809 22.0192 19.7948 22.1494 20.1223 22.1498H22.2143C22.5418 22.1494 22.8557 22.0192 23.0872 21.7876C23.3188 21.5561 23.449 21.2421 23.4494 20.9147V18.823C23.449 18.4955 23.3188 18.1816 23.0872 17.95C22.8557 17.7185 22.5418 17.5883 22.2143 17.5879ZM20.1223 20.9147V18.823H22.2143L22.2149 20.9147H20.1223Z" fill="#54A548"/>
<path d="M28.2972 17.5879H26.2058C25.8783 17.5883 25.5644 17.7185 25.3329 17.95C25.1013 18.1816 24.9711 18.4955 24.9707 18.823V20.9147C24.9711 21.2421 25.1013 21.5561 25.3329 21.7876C25.5644 22.0192 25.8783 22.1494 26.2058 22.1498H28.2972C28.6246 22.1494 28.9386 22.0192 29.1701 21.7876C29.4016 21.5561 29.5319 21.2421 29.5323 20.9147V18.823C29.5319 18.4955 29.4016 18.1816 29.1701 17.95C28.9386 17.7185 28.6246 17.5883 28.2972 17.5879ZM26.2058 20.9147V18.823H28.2972L28.2978 20.9147H26.2058Z" fill="#54A548"/>
<path d="M32.1472 30.3266C31.8736 30.5731 32.1078 10.7205 32.0343 10.7355C32.6188 10.7521 33.402 10.8034 33.7597 10.2044C33.8848 10.0225 33.9639 9.81296 33.9902 9.59377C34.0166 9.37459 33.9894 9.15228 33.9111 8.94588L31.2956 2.07093C31.0869 1.47572 30.7014 0.958462 30.1906 0.588365C29.6799 0.218267 29.0683 0.0129891 28.4377 0H5.56709C4.93622 0.0130795 4.3244 0.218564 3.81354 0.588945C3.30268 0.959326 2.91715 1.47693 2.70857 2.07246L0.0918651 8.94978C0.0153805 9.14279 -0.0139926 9.35125 0.00618133 9.55787C0.0263553 9.7645 0.095495 9.96334 0.207868 10.1379C0.32024 10.3125 0.472608 10.4577 0.652337 10.5617C0.832066 10.6656 1.03398 10.7251 1.24133 10.7354H1.97041V30.3266C1.71814 30.3127 1.46567 30.3502 1.22836 30.4369C0.991057 30.5236 0.773871 30.6577 0.590022 30.831C0.406172 31.0043 0.259502 31.2132 0.158934 31.445C0.0583667 31.6768 0.00600415 31.9266 0.00503292 32.1792V33.347C0.0054072 33.6745 0.135651 33.9884 0.367192 34.22C0.598733 34.4515 0.912661 34.5817 1.24011 34.5821H32.7647C33.0921 34.5817 33.4061 34.4515 33.6376 34.22C33.8691 33.9884 33.9994 33.6745 33.9998 33.347V32.1792C33.9992 31.688 33.8039 31.2171 33.4566 30.8698C33.1092 30.5225 32.6383 30.3271 32.1472 30.3266ZM27.0597 30.3266V24.7142C27.0593 24.3896 26.9302 24.0785 26.7007 23.849C26.4712 23.6195 26.16 23.4904 25.8355 23.49H22.5898C22.2652 23.4904 21.9541 23.6195 21.7246 23.849C21.4951 24.0785 21.366 24.3896 21.3656 24.7142V30.3266H17.6199V9.79015C17.6199 9.66716 17.6477 9.54575 17.701 9.43493C17.7543 9.32411 17.832 9.22672 17.9281 9.14999L23.2411 4.89869C23.5153 4.67809 23.8566 4.55772 24.2085 4.5575C24.5604 4.55727 24.9018 4.67721 25.1763 4.89746L30.4899 9.14937C30.5864 9.22603 30.6643 9.32346 30.7178 9.4344C30.7714 9.54534 30.7992 9.66693 30.7993 9.79013V30.3266H27.0597ZM22.5996 30.3266L22.5898 24.725L25.8246 24.7142V30.3266H22.5996ZM1.24794 9.38489L3.86222 2.51297C3.98293 2.15199 4.21073 1.83635 4.5153 1.60806C4.81986 1.37977 5.18674 1.24967 5.56709 1.23508H28.4377C28.8178 1.24957 29.1845 1.37946 29.4889 1.60747C29.7933 1.83548 30.0211 2.1508 30.142 2.51146L32.755 9.38095C32.7804 9.44759 32.7496 9.49915 32.7635 9.50036H32.0019C31.9323 8.9838 31.6677 8.51342 31.2625 8.18568L25.9483 3.93317C25.4554 3.53697 24.842 3.32098 24.2096 3.32098C23.5773 3.32098 22.9638 3.53697 22.471 3.93317L17.155 8.18658C16.9888 8.35627 17.0171 8.36116 16.8486 8.18563L11.532 3.93196C11.0393 3.53608 10.4261 3.32038 9.79406 3.3206C9.162 3.32082 8.54898 3.53694 8.05654 3.93317L2.74173 8.1863C2.33583 8.51467 2.07128 8.98618 2.00254 9.50373L1.26601 9.50791C1.25223 9.49092 1.24328 9.47053 1.2401 9.44888C1.23692 9.42723 1.23963 9.40513 1.24794 9.38489ZM3.20549 9.79015C3.20551 9.6671 3.23329 9.54564 3.28675 9.4348C3.34021 9.32397 3.41797 9.22662 3.51425 9.14999L8.82846 4.89748C9.10257 4.67734 9.44361 4.55735 9.79517 4.55735C10.1467 4.55735 10.4878 4.67734 10.7619 4.89748L16.0755 9.14909C16.1719 9.22582 16.2498 9.3233 16.3034 9.43429C16.3569 9.54528 16.3848 9.66691 16.3849 9.79015V30.3266H12.6392V24.7142C12.6388 24.3896 12.5097 24.0785 12.2802 23.849C12.0507 23.6195 11.7396 23.4904 11.415 23.49H8.16931C7.84475 23.4904 7.53359 23.6195 7.30409 23.849C7.07458 24.0785 6.94548 24.3896 6.94509 24.7142V30.3266H3.20549V9.79015ZM8.17907 30.3266L8.16931 24.725L11.4041 24.7142V30.3266H8.17907ZM1.2401 33.3471V32.1792C1.24027 32.0155 1.30538 31.8585 1.42116 31.7427C1.53693 31.627 1.69391 31.5618 1.85764 31.5617H2.58942C8.66466 31.5617 29.4471 31.5616 32.1471 31.5617C32.3108 31.5618 32.4678 31.627 32.5836 31.7427C32.6994 31.8585 32.7645 32.0155 32.7647 32.1792L32.7653 33.3471H1.2401Z" fill="#54A548"/>
</svg>
