<svg width="63" height="62" viewBox="0 0 63 62" fill="none" xmlns="http://www.w3.org/2000/svg">
<path d="M15.1385 22.5856H15.9571C17.067 22.5856 17.97 23.4886 17.97 24.5985C17.97 25.0126 18.3058 25.3484 18.7199 25.3484C19.1341 25.3484 19.4699 25.0126 19.4699 24.5985C19.4699 22.7764 18.0755 21.2744 16.2978 21.1025V20.0961C16.2978 19.6819 15.9619 19.3461 15.5478 19.3461C15.1336 19.3461 14.7978 19.6819 14.7978 20.0961V21.1025C10.0754 21.7943 10.9213 28.4381 15.5478 28.4183C16.8906 28.4177 17.9817 29.5184 17.97 30.8611C17.97 31.9032 17.1221 32.7511 16.08 32.7511H15.0156C13.9735 32.7511 13.1256 31.9032 13.1256 30.8611C13.1256 30.4469 12.7898 30.1111 12.3756 30.1111C11.9614 30.1111 11.6256 30.4469 11.6256 30.8611C11.6256 32.6571 13.0297 34.1305 14.7978 34.2433V35.2406C14.7978 35.6548 15.1336 35.9906 15.5478 35.9906C15.9619 35.9906 16.2978 35.6548 16.2978 35.2406V34.2433C18.0729 34.1308 19.4813 32.6434 19.4699 30.8405C19.4732 28.6404 17.643 26.8622 15.4455 26.9184C14.1663 26.9184 13.1256 25.8777 13.1256 24.5985C13.1256 23.4886 14.0286 22.5856 15.1385 22.5856Z" fill="#22AB00"/>
<path d="M38.9709 32.8813H40.2103C41.2471 32.8813 42.0906 33.7248 42.0906 34.7616C42.0906 36.0311 43.1234 37.0639 44.3929 37.0639C45.6623 37.0639 46.6951 36.0311 46.6951 34.7616C46.6951 31.788 44.7108 29.2482 41.8929 28.4984V27.9454C41.8929 26.676 40.8601 25.6432 39.5905 25.6432C38.3212 25.6432 37.2884 26.676 37.2884 27.9454V28.4984C29.6894 30.7493 31.7146 41.6384 39.4359 41.7113C39.4358 41.7113 39.5905 41.7113 39.5905 41.7113C40.9691 41.7113 42.0906 42.8329 42.0906 44.2114C42.1079 45.1562 41.3418 45.9379 40.3963 45.9368C40.3963 45.9368 38.7849 45.9368 38.7849 45.9368C37.8507 45.9368 37.0906 45.1767 37.0906 44.2425C37.0906 42.973 36.0578 41.9402 34.7883 41.9402C33.5189 41.9402 32.4861 42.973 32.4861 44.2425C32.4861 47.1574 34.5091 49.6799 37.2884 50.3601V50.8726C37.2884 52.1421 38.3212 53.175 39.5905 53.175C40.8601 53.175 41.8929 52.1421 41.8929 50.8726V50.3601C44.6823 49.6782 46.7102 47.1364 46.6951 44.2114C46.7002 40.2377 43.4061 37.0209 39.4358 37.1068C38.1426 37.1068 37.0906 36.0547 37.0906 34.7616C37.0906 33.7248 37.9341 32.8813 38.9709 32.8813ZM39.4358 38.6067C45.7814 38.4826 47.6554 47.7061 41.0424 48.9967C40.6705 49.0468 40.3929 49.3644 40.3929 49.7398V50.8726C40.3559 51.9286 38.8307 51.9418 38.7883 50.8726C38.7883 50.8726 38.7883 49.7398 38.7883 49.7398C38.7883 49.3644 38.5107 49.0468 38.1388 48.9966C35.7713 48.6766 33.9861 46.6328 33.9861 44.2425C34.0261 43.1772 35.5534 43.1836 35.5906 44.2425C35.5906 46.0038 37.0236 47.4368 38.7849 47.4368H40.3963C42.1686 47.4378 43.6083 45.9834 43.5906 44.2114C43.5955 41.9478 41.6939 40.1287 39.4358 40.2114C36.4308 40.2114 33.9861 37.7667 33.9861 34.7616C33.9861 32.3094 35.7414 30.2411 38.1599 29.8437C38.5223 29.7842 38.7883 29.471 38.7883 29.1037V27.9454C38.7883 27.5031 39.1482 27.1432 39.5905 27.1432C40.0329 27.1432 40.3929 27.5031 40.3929 27.9454V29.1037C40.3929 29.471 40.6589 29.7842 41.0213 29.8437C43.4398 30.2411 45.1952 32.3094 45.1952 34.7616C45.1952 35.204 44.8353 35.5639 44.3929 35.5639C43.9506 35.5639 43.5906 35.204 43.5906 34.7616C43.5906 32.8977 42.0741 31.3813 40.2103 31.3813H38.9709C34.0781 31.6923 34.769 38.5147 39.4358 38.6067Z" fill="#22AB00"/>
<path d="M60.3558 53.2603C60.4077 52.1235 60.4924 48.605 60.3295 38.718C60.2512 33.9616 58.8241 29.7708 56.0878 26.2623C53.821 23.3557 51.2039 21.5709 49.4721 20.3899C48.8297 19.9518 48.275 19.5736 48.0669 19.3478C47.7568 19.0116 47.5087 18.4525 47.3364 17.7094C48.7767 17.3856 49.8563 16.0971 49.8563 14.5605V13.6501C49.8563 12.2901 49.0104 11.1246 47.8176 10.65L50.2904 8.17004C50.8755 7.58338 51.1358 6.74661 50.9865 5.93163C50.8371 5.11658 50.297 4.42629 49.5419 4.08517L45.6629 2.33311C45.6642 1.0803 44.5438 -0.0293885 43.2817 0.000621674C43.2817 0.000597975 34.6672 0.000597952 34.6672 0.000597952C33.4058 -0.0294925 32.2839 1.08049 32.286 2.33317L28.4071 4.08517C27.6519 4.42629 27.1119 5.11652 26.9626 5.93156C26.8132 6.74655 27.0733 7.58338 27.6584 8.17004L30.1314 10.6499C28.9385 11.1246 28.0927 12.29 28.0927 13.6501V14.5605C28.0927 16.0972 29.1723 17.3856 30.6126 17.7095C30.4403 18.4524 30.1922 19.0116 29.8821 19.3479C29.5931 19.6645 28.4376 20.406 27.8182 20.842C20.7615 8.3602 1.66963 13.1354 1.50292 27.6685C1.5029 33.1445 4.65373 37.8981 9.23734 40.2132H3.75285C2.51222 40.2132 1.5029 41.2225 1.5029 42.4631V44.3183C1.5029 44.6116 1.56099 44.8913 1.66357 45.1485C0.706849 45.4074 0 46.2807 0 47.3182V49.1734C0 50.2109 0.706849 51.0842 1.66357 51.3431C1.56099 51.6003 1.5029 51.88 1.5029 52.1733V54.0285C1.5029 54.3218 1.56099 54.6014 1.66357 54.8586C0.706849 55.1176 0 55.9909 0 57.0284V58.8835C0 60.1241 1.00932 61.1335 2.24995 61.1335C2.24995 61.1335 60.3503 61.1784 60.5024 61.1126C61.6547 60.8101 63.0504 59.5489 62.9986 57.4887C62.9987 55.2615 61.2037 53.8179 60.3558 53.2603ZM49.511 6.20194C49.5726 6.53781 49.4695 6.86911 49.2283 7.11086L45.9266 10.4219H43.7237L45.37 3.84671L48.9245 5.45214C49.2357 5.59277 49.4495 5.86601 49.511 6.20194ZM33.9724 1.83967C34.1406 1.62416 34.3938 1.50057 34.6672 1.50057H43.2817C43.8381 1.48568 44.2866 2.05975 44.1368 2.59613C43.6475 4.53854 42.6628 8.4916 42.1774 10.4219H35.7715C35.7714 10.4216 33.816 2.61094 33.8158 2.61058C33.7439 2.34172 33.8009 2.05894 33.9724 1.83967ZM28.4379 6.20194C28.4995 5.86601 28.7133 5.59277 29.0245 5.4522L32.579 3.84671C32.8567 4.95599 33.9283 9.23575 34.2252 10.4219H32.0224L28.7205 7.11086C28.4794 6.86911 28.3764 6.53781 28.4379 6.20194ZM29.5926 14.5605V13.6501C29.5926 12.6971 30.3679 11.9219 31.3209 11.9219H31.7111C35.6938 11.9218 42.2551 11.9219 46.2379 11.9219H46.628C47.581 11.9219 48.3563 12.6971 48.3563 13.6501V14.5605C48.3563 15.5135 47.581 16.2887 46.628 16.2887C46.486 16.2659 46.3109 16.2848 46.1729 16.2887C46.1729 16.2886 31.7761 16.2886 31.7761 16.2886C31.6445 16.2858 31.4792 16.2656 31.3209 16.2887C30.3679 16.2887 29.5926 15.5135 29.5926 14.5605ZM3.00287 27.6683C3.00287 20.751 8.6305 15.1234 15.5478 15.1234C32.1903 15.8125 32.1854 39.5266 15.5477 40.2132C8.63049 40.2132 3.00287 34.5856 3.00287 27.6683ZM3.00287 42.4631C3.00287 42.0496 3.33929 41.7132 3.75285 41.7132H27.3427C27.7563 41.7132 28.0927 42.0496 28.0927 42.4631V44.3183C28.0927 44.7318 27.7563 45.0683 27.3427 45.0683H3.75285C3.33929 45.0683 3.00287 44.7318 3.00287 44.3183V42.4631ZM27.3427 54.7784H3.75285C3.33929 54.7784 3.00287 54.442 3.00287 54.0285V52.1733C3.00287 51.7598 3.33929 51.4233 3.75285 51.4233H27.3427C27.7563 51.4233 28.0927 51.7598 28.0927 52.1733V54.0285C28.0927 54.442 27.7563 54.7784 27.3427 54.7784ZM1.49997 47.3182C1.49997 46.9046 1.83639 46.5682 2.24995 46.5682H25.8398C26.2534 46.5682 26.5898 46.9046 26.5898 47.3182V49.1734C26.5898 49.587 26.2534 49.9234 25.8398 49.9234H2.24995C1.83639 49.9234 1.49997 49.587 1.49997 49.1734V47.3182ZM25.6033 59.6335H2.24995C1.83639 59.6335 1.49997 59.2971 1.49997 58.8835V57.0284C1.49997 56.6148 1.83639 56.2784 2.24995 56.2784H25.8398C26.2534 56.2784 26.5898 56.6148 26.5898 57.0284V58.8835C26.5898 59.2971 26.2534 59.6335 25.8398 59.6335H25.6033ZM60.2177 59.6335H27.9585C28.0419 59.3985 28.0897 59.1468 28.0897 58.8835V57.0284C28.0897 56.735 28.0317 56.4554 27.9291 56.1982C28.8858 55.9393 29.5926 55.066 29.5926 54.0285V52.1733C29.5926 51.1358 28.8858 50.2625 27.9291 50.0036C28.0317 49.7464 28.0897 49.4668 28.0897 49.1734V47.3182C28.0897 47.0248 28.0317 46.7452 27.9291 46.488C28.8858 46.2291 29.5926 45.3558 29.5926 44.3183V42.4631C29.5926 41.2225 28.5833 40.2132 27.3427 40.2132H21.8582C28.2418 37.1412 31.4514 28.9015 28.4864 22.2048C30.5757 20.7256 31.5788 20.4744 32.13 17.7887H45.819C46.0501 18.9251 46.4341 19.7898 46.9641 20.3647C47.2883 20.7163 47.8498 21.0992 48.6269 21.6292C51.8838 23.8501 58.6606 28.4716 58.8298 38.7427C59.0378 51.3757 58.8421 53.5056 58.8341 53.5867C58.8009 53.8923 58.9596 54.1883 59.2315 54.3319C59.2542 54.3438 61.4987 55.5508 61.4987 57.4887C61.4987 59.071 60.5062 59.5329 60.2177 59.6335Z" fill="#22AB00"/>
</svg>
