<svg width="47" height="37" viewBox="0 0 47 37" fill="none" xmlns="http://www.w3.org/2000/svg">
<path d="M46.3892 23.1868H26.1285C25.7915 23.1868 25.5181 22.9133 25.5181 22.5764V16.4268C25.5181 16.0898 25.7915 15.8164 26.1285 15.8164H26.3828C26.5121 15.8164 26.6392 15.8577 26.7442 15.934L28.2108 17.0096L28.9017 16.0665C29.0162 15.9097 29.1995 15.8175 29.3945 15.8175H38.2834C38.417 15.8175 38.5463 15.8609 38.6522 15.9415L46.758 22.091C46.9668 22.25 47.0516 22.5234 46.9678 22.7724C46.8841 23.0193 46.651 23.1868 46.3892 23.1868ZM26.7389 21.966H44.575L38.0779 17.0372H29.704L28.835 18.2241C28.7396 18.3544 28.5955 18.4424 28.4355 18.4668C28.2755 18.4911 28.1123 18.4519 27.9819 18.3555L26.7399 17.4452V21.966H26.7389Z" fill="#54A548"/>
<path d="M26.1289 36.9764H4.51274C4.17575 36.9764 3.90234 36.703 3.90234 36.366V16.0353C3.90234 15.8403 3.99454 15.658 4.15138 15.5425L14.8196 7.72389C15.0347 7.56599 15.3261 7.56599 15.5412 7.72389L26.4892 15.747C26.646 15.8615 26.7382 16.0448 26.7382 16.2398V36.3649C26.7393 36.703 26.4659 36.9764 26.1289 36.9764ZM5.12314 35.7556H25.5185V16.5503L15.1809 8.97436L5.12314 16.3458V35.7556Z" fill="#54A548"/>
<path d="M28.3425 18.4711C28.2132 18.4711 28.0871 18.4298 27.9811 18.3535L15.1808 8.97289L2.38044 18.3535C2.2501 18.4489 2.0869 18.4892 1.92688 18.4648C1.76687 18.4404 1.62274 18.3525 1.52737 18.2221L0.117943 16.2987C-0.0812846 16.0264 -0.0219404 15.6449 0.249348 15.4456L14.8205 4.76686C15.0356 4.60896 15.327 4.60896 15.5422 4.76686L30.1133 15.4456C30.3856 15.6449 30.4439 16.0264 30.2447 16.2987L28.8353 18.2221C28.7399 18.3525 28.5958 18.4404 28.4358 18.4648C28.404 18.469 28.3732 18.4711 28.3425 18.4711ZM1.46273 16.0688L2.15048 17.0077L14.8194 7.72348C15.0345 7.56558 15.326 7.56558 15.5411 7.72348L28.21 17.0077L28.8978 16.0688L15.1797 6.01521L1.46273 16.0688Z" fill="#54A548"/>
<path d="M42.8487 36.9758H26.1285C25.7915 36.9758 25.5181 36.7024 25.5181 36.3654V22.5752C25.5181 22.2383 25.7915 21.9648 26.1285 21.9648H42.8487C43.1857 21.9648 43.4591 22.2383 43.4591 22.5752V36.3654C43.4591 36.7024 43.1857 36.9758 42.8487 36.9758ZM26.7389 35.755H42.2383V23.1856H26.7389V35.755Z" fill="#54A548"/>
<path d="M20.1882 36.9776H10.4546C10.1176 36.9776 9.84424 36.7042 9.84424 36.3672V23.5987C9.84424 23.2617 10.1176 22.9883 10.4546 22.9883H20.1882C20.5251 22.9883 20.7986 23.2617 20.7986 23.5987V36.3672C20.7986 36.7042 20.5251 36.9776 20.1882 36.9776ZM11.064 35.7568H19.5767V24.2091H11.064V35.7568Z" fill="#54A548"/>
<path d="M13.2331 31.3716C12.3016 31.3716 11.5439 30.6139 11.5439 29.6814C11.5439 28.7488 12.3016 27.9922 13.2331 27.9922C14.1646 27.9922 14.9223 28.7499 14.9223 29.6814C14.9223 30.6129 14.1657 31.3716 13.2331 31.3716ZM13.2331 29.213C12.9746 29.213 12.7637 29.4239 12.7637 29.6814C12.7637 29.94 12.9746 30.1508 13.2331 30.1508C13.4917 30.1508 13.7026 29.94 13.7026 29.6814C13.7026 29.4228 13.4917 29.213 13.2331 29.213Z" fill="#54A548"/>
<path d="M22.955 19.7709H7.68657C7.34958 19.7709 7.07617 19.4975 7.07617 19.1605V16.0206C7.07617 15.6836 7.34958 15.4102 7.68657 15.4102H22.9539C23.2909 15.4102 23.5643 15.6836 23.5643 16.0206V19.1605C23.5654 19.4975 23.292 19.7709 22.955 19.7709ZM8.29697 18.5501H22.3435V16.631H8.29697V18.5501Z" fill="#54A548"/>
<path d="M37.3513 11.2996H33.0383C31.7475 11.2996 30.6963 10.2495 30.6963 8.95766C30.6963 7.71991 31.6617 6.70364 32.8793 6.62098C33.1146 5.5761 34.0492 4.79297 35.1641 4.79297C36.2778 4.79297 37.2125 5.57398 37.4478 6.6178C38.694 6.66867 39.6922 7.69872 39.6922 8.95766C39.6933 10.2495 38.6431 11.2996 37.3513 11.2996ZM33.0383 7.83754C32.4204 7.83754 31.9171 8.34091 31.9171 8.95872C31.9171 9.57654 32.4204 10.0799 33.0383 10.0799H37.3513C37.9691 10.0799 38.4725 9.57654 38.4725 8.95872C38.4725 8.34091 37.9691 7.83754 37.3513 7.83754C37.2496 7.83754 37.1489 7.85132 37.0514 7.87781C36.8596 7.9308 36.6519 7.88629 36.4983 7.75806C36.3446 7.62984 36.263 7.43485 36.281 7.23562C36.2842 7.20277 36.2852 7.16886 36.2852 7.13495C36.2852 6.51713 35.7819 6.01376 35.1641 6.01376C34.5462 6.01376 34.0429 6.51713 34.0429 7.13495C34.0429 7.16462 34.0439 7.19429 34.0461 7.22396C34.062 7.41895 33.9835 7.60864 33.8352 7.73581C33.6868 7.86297 33.4876 7.91172 33.2968 7.86615C33.2131 7.84708 33.1262 7.83754 33.0383 7.83754Z" fill="#54A548"/>
<path d="M39.6793 36.9759H29.2994C28.9624 36.9759 28.689 36.7025 28.689 36.3656V27.5635C28.689 27.2265 28.9624 26.9531 29.2994 26.9531H39.6793C40.0163 26.9531 40.2897 27.2265 40.2897 27.5635V36.3656C40.2897 36.7025 40.0163 36.9759 39.6793 36.9759ZM29.9087 35.7552H39.0679V28.1739H29.9087V35.7552Z" fill="#54A548"/>
<path d="M40.5725 28.176H28.4048C28.0678 28.176 27.7944 27.9026 27.7944 27.5656V25.087C27.7944 24.75 28.0678 24.4766 28.4048 24.4766H40.5715C40.9085 24.4766 41.1819 24.75 41.1819 25.087V27.5656C41.1829 27.9037 40.9095 28.176 40.5725 28.176ZM29.0152 26.9552H39.9611V25.6974H29.0152V26.9552Z" fill="#54A548"/>
<path d="M37.6286 30.2403H31.3487C31.0117 30.2403 30.7383 29.9669 30.7383 29.6299C30.7383 29.2929 31.0117 29.0195 31.3487 29.0195H37.6286C37.9656 29.0195 38.239 29.2929 38.239 29.6299C38.239 29.9669 37.9656 30.2403 37.6286 30.2403Z" fill="#54A548"/>
<path d="M37.6286 32.5763H31.3487C31.0117 32.5763 30.7383 32.3029 30.7383 31.9659C30.7383 31.6289 31.0117 31.3555 31.3487 31.3555H37.6286C37.9656 31.3555 38.239 31.6289 38.239 31.9659C38.239 32.3029 37.9656 32.5763 37.6286 32.5763Z" fill="#54A548"/>
<path d="M37.6286 34.9122H31.3487C31.0117 34.9122 30.7383 34.6388 30.7383 34.3018C30.7383 33.9648 31.0117 33.6914 31.3487 33.6914H37.6286C37.9656 33.6914 38.239 33.9648 38.239 34.3018C38.239 34.6388 37.9656 34.9122 37.6286 34.9122Z" fill="#54A548"/>
<path d="M27.0188 7.32699H22.7057C21.415 7.32699 20.3638 6.2768 20.3638 4.98501C20.3638 3.74726 21.3292 2.73099 22.5468 2.64833C22.782 1.60344 23.7167 0.820312 24.8315 0.820312C25.9453 0.820312 26.88 1.60133 27.1152 2.64515C28.3615 2.69602 29.3597 3.72606 29.3597 4.98501C29.3608 6.2768 28.3106 7.32699 27.0188 7.32699ZM22.7057 3.86488C22.0879 3.86488 21.5846 4.36825 21.5846 4.98607C21.5846 5.60388 22.0879 6.10725 22.7057 6.10725H27.0188C27.6366 6.10725 28.14 5.60388 28.14 4.98607C28.14 4.36825 27.6366 3.86488 27.0188 3.86488C26.9171 3.86488 26.8164 3.87866 26.7189 3.90515C26.5271 3.95814 26.3194 3.91363 26.1657 3.78541C26.0121 3.65718 25.9305 3.46219 25.9485 3.26296C25.9517 3.23011 25.9527 3.1962 25.9527 3.16229C25.9527 2.54447 25.4494 2.04111 24.8315 2.04111C24.2137 2.04111 23.7104 2.54447 23.7104 3.16229C23.7104 3.19302 23.7114 3.22269 23.7135 3.25237C23.7284 3.4463 23.65 3.63704 23.5027 3.76315C23.3543 3.89032 23.1551 3.93907 22.9654 3.8935C22.8806 3.87442 22.7937 3.86488 22.7057 3.86488Z" fill="#54A548"/>
<path d="M32.2506 4.00362C31.974 4.00362 31.7324 3.81817 31.6614 3.55112C31.4441 2.73937 30.0114 1.63939 29.1594 1.13708C28.869 0.965405 28.7726 0.591325 28.9432 0.300962C29.1138 0.0105988 29.4879 -0.0868954 29.7783 0.084779C29.9828 0.204527 31.3964 1.05866 32.2506 2.14169C33.1047 1.0576 34.5184 0.204527 34.7229 0.084779C35.0133 -0.0858357 35.3873 0.0105988 35.558 0.300962C35.7286 0.591325 35.6321 0.965405 35.3418 1.13708C34.4898 1.63939 33.0581 2.73832 32.8398 3.55112C32.7688 3.81817 32.5272 4.00362 32.2506 4.00362Z" fill="#54A548"/>
</svg>
