<svg width="60" height="60" viewBox="0 0 60 60" fill="none" xmlns="http://www.w3.org/2000/svg">
<path d="M57 0H3C1.346 0 0 1.346 0 3V37C0 38.654 1.346 40 3 40H57C58.654 40 60 38.654 60 37V3C60 1.346 58.654 0 57 0ZM58 37C58 37.552 57.552 38 57 38H3C2.448 38 2 37.552 2 37V3C2 2.448 2.448 2 3 2H57C57.552 2 58 2.448 58 3V37Z" fill="white"/>
<path d="M54.276 8.93598C53.667 8.82698 53.103 8.57998 52.602 8.20298C51.789 7.58898 51.242 6.71098 51.065 5.74098C50.891 4.73198 50.035 4.00098 49.03 4.00098H10.97C9.96498 4.00098 9.10898 4.73198 8.93698 5.73098C8.75798 6.70998 8.21098 7.58798 7.39898 8.20198C6.89698 8.57998 6.33398 8.82698 5.73098 8.93498C4.72798 9.10798 4.00098 9.96398 4.00098 10.97V29.031C4.00098 30.037 4.72898 30.893 5.72498 31.065C6.33398 31.174 6.89798 31.421 7.39898 31.798C8.21198 32.412 8.75898 33.29 8.93598 34.26C9.10998 35.269 9.96598 36 10.971 36H49.032C50.037 36 50.893 35.269 51.065 34.27C51.244 33.291 51.791 32.413 52.603 31.799C53.105 31.421 53.668 31.174 54.271 31.066C55.274 30.893 56.001 30.037 56.001 29.031V10.97C56.001 9.96398 55.272 9.10798 54.276 8.93598ZM54 29.031L53.923 29.096C53.002 29.261 52.152 29.633 51.398 30.202C50.182 31.119 49.366 32.436 49.095 33.92C49.086 33.97 49.052 34 49.031 34H10.97C10.949 34 10.914 33.97 10.904 33.91C10.635 32.436 9.81898 31.119 8.60198 30.201C7.84798 29.633 6.99798 29.261 6.07098 29.095C6.02998 29.088 6.00098 29.061 6.00098 29.031V10.97L6.07798 10.905C6.99898 10.74 7.84898 10.368 8.60298 9.79898C9.81898 8.88198 10.635 7.56498 10.906 6.08098C10.915 6.03098 10.949 6.00098 10.97 6.00098H49.031C49.052 6.00098 49.087 6.03098 49.097 6.09098C49.366 7.56498 50.182 8.88198 51.399 9.79998C52.153 10.368 53.003 10.74 53.923 10.905C53.926 10.905 53.998 10.97 54 10.97V29.031Z" fill="white"/>
<path d="M12 16C9.794 16 8 17.794 8 20C8 22.206 9.794 24 12 24C14.206 24 16 22.206 16 20C16 17.794 14.206 16 12 16ZM12 22C10.897 22 10 21.103 10 20C10 18.897 10.897 18 12 18C13.103 18 14 18.897 14 20C14 21.103 13.103 22 12 22Z" fill="white"/>
<path d="M48 16C45.794 16 44 17.794 44 20C44 22.206 45.794 24 48 24C50.206 24 52 22.206 52 20C52 17.794 50.206 16 48 16ZM48 22C46.897 22 46 21.103 46 20C46 18.897 46.897 18 48 18C49.103 18 50 18.897 50 20C50 21.103 49.103 22 48 22Z" fill="white"/>
<path d="M30 8C23.383 8 18 13.383 18 20C18 26.617 23.383 32 30 32C36.617 32 42 26.617 42 20C42 13.383 36.617 8 30 8ZM30 30C24.486 30 20 25.514 20 20C20 14.486 24.486 10 30 10C35.514 10 40 14.486 40 20C40 25.514 35.514 30 30 30Z" fill="white"/>
<path d="M32.9999 19H28.7669L30.8579 15.515C31.1419 15.041 30.9889 14.427 30.5149 14.143C30.0399 13.859 29.4269 14.013 29.1429 14.486L26.1429 19.486C25.9569 19.795 25.9529 20.179 26.1299 20.494C26.3079 20.807 26.6399 21.001 26.9999 21.001H31.2329L29.1419 24.486C28.8579 24.96 29.0109 25.574 29.4849 25.858C29.6459 25.955 29.8239 26.001 29.9989 26.001C30.3389 26.001 30.6699 25.828 30.8569 25.516L33.8569 20.516C34.0429 20.207 34.0469 19.823 33.8699 19.508C33.6919 19.195 33.3599 19 32.9999 19Z" fill="white"/>
<path d="M30.0001 44C29.4471 44 29.0001 44.447 29.0001 45V56L27.8001 54.4C27.4691 53.957 26.8421 53.868 26.4011 54.2C25.9591 54.531 25.8691 55.158 26.2011 55.599L29.2011 59.599C29.3891 59.851 29.6861 59.999 30.0011 59.999C30.3161 59.999 30.6121 59.851 30.8011 59.599L33.8011 55.599C34.1331 55.158 34.0431 54.531 33.6011 54.2C33.1601 53.87 32.5331 53.958 32.2021 54.4L31.0021 56V45C31.0021 44.447 30.5551 44 30.0021 44H30.0001Z" fill="white"/>
<path d="M13.0001 42C12.4471 42 12.0001 42.447 12.0001 43V54L10.8001 52.4C10.4691 51.958 9.84211 51.868 9.40111 52.2C8.95911 52.531 8.86911 53.158 9.20111 53.599L12.2011 57.599C12.3891 57.851 12.6861 57.999 13.0011 57.999C13.3161 57.999 13.6121 57.851 13.8011 57.599L16.8011 53.599C17.1331 53.158 17.0431 52.531 16.6011 52.2C16.1601 51.869 15.5331 51.959 15.2021 52.4L14.0021 54V43C14.0021 42.447 13.5551 42 13.0021 42H13.0001Z" fill="white"/>
<path d="M47.0001 42C46.4471 42 46.0001 42.447 46.0001 43V54L44.8001 52.4C44.4681 51.958 43.8411 51.868 43.4011 52.2C42.9591 52.531 42.8691 53.158 43.2011 53.599L46.2011 57.599C46.3891 57.851 46.6861 57.999 47.0011 57.999C47.3161 57.999 47.6121 57.851 47.8011 57.599L50.8011 53.599C51.1331 53.158 51.0431 52.531 50.6011 52.2C50.1611 51.869 49.5331 51.959 49.2021 52.4L48.0021 54V43C48.0021 42.447 47.5551 42 47.0021 42H47.0001Z" fill="white"/>
</svg>
