<svg width="35" height="34" viewBox="0 0 35 34" fill="none" xmlns="http://www.w3.org/2000/svg">
<path d="M35 25.9612V6.17519L28.8249 6.83872e-05L23.1624 5.66249L21.0562 3.55634L20.3311 4.28129L22.6497 6.59984V8.05002L17.5 2.90029L12.3502 8.05002V6.59984L17.5 1.45011L19.6062 3.55634L20.3311 2.83125L17.5 6.83872e-05L11.8375 5.66249L6.17512 0L0 6.17512V12.7538H1.02539V9.50013L6.17512 4.35033L8.28128 6.45649L9.0063 5.73147L6.17512 2.90029L1.02539 8.05008V6.59984L6.17512 1.45011L11.3248 6.59977V8.05002L9.73132 6.45649L9.0063 7.18151L11.3248 9.50006V17.758H1.02539V13.7792H0V33.1388H35V26.9864H33.9746V32.1134H32.9492V30.0626H30.8757V24.9356H26.7741V30.0626H24.7005V32.1134H23.6751V20.8342H28.3121V19.8088H23.6751V18.7834H33.9746V19.8088H29.3375V20.8342H33.9746V25.9612H35ZM8.2259 31.0881H9.27413V32.1135H8.2259V31.0881ZM7.20051 32.1135H5.14973V25.9611H7.20051V32.1135ZM4.12433 32.1135H3.07611V31.0881H4.12433V32.1135ZM19.5508 31.0881H20.599V32.1135H19.5508V31.0881ZM18.5254 32.1135H16.4746V25.9611H18.5254V32.1135ZM15.4492 32.1135H14.401V31.0881H15.4492V32.1135ZM31.9238 31.0881V32.1135H30.8757V31.0881H31.9238ZM29.8503 25.9611V32.1135H27.7995V25.9611H29.8503ZM25.7259 31.0881H26.7741V32.1135H25.7259V31.0881ZM22.6497 32.1135H21.6244V30.0627H19.5508V24.9357H15.4492V30.0627H13.3756V32.1135H12.3502V26.9865H11.3248V32.1135H10.2995V30.0627H8.2259V24.9357H4.12433V30.0627H2.05072V32.1135H1.02539V20.8342H5.66242V19.8088H1.02539V18.7834H11.3248V19.8088H6.68782V20.8342H11.3248V25.9612H12.3502V20.8342H22.6497V32.1135ZM23.6751 17.758V13.7793H22.6497V17.758H18.0127V18.7834H22.6497V19.8088H12.3502V18.7834H16.9873V17.758H12.3502V9.50019L17.5 4.3504L22.6497 9.50019V12.7539H23.6751V9.50013L28.8249 4.3504L30.931 6.45656L31.6561 5.73153L28.8249 2.90029L23.6751 8.05002V6.59977L28.8249 1.45011L33.9746 6.59984V8.05002L32.3811 6.45649L31.6561 7.18151L33.9746 9.50006V17.758H23.6751V17.758Z" fill="#54A548"/>
<path d="M19.5508 9.25H15.4492V15.4024H14.4238V16.4277H20.5762V15.4024H19.5508V9.25ZM18.5254 15.4024H16.4746V13.3516H18.5254V15.4024ZM18.5254 12.3262H16.4746V10.2754H18.5254V12.3262Z" fill="#54A548"/>
<path d="M4.12403 9.25V15.4024H3.09863V16.4277H9.25099V15.4024H8.2256V9.25H4.12403ZM7.2002 15.4024H5.14942V13.3516H7.2002V15.4024ZM7.2002 12.3262H5.14942V10.2754H7.2002V12.3262Z" fill="#54A548"/>
<path d="M30.876 9.25H26.7744V15.4024H25.749V16.4277H31.9014V15.4024H30.876V9.25ZM29.8506 15.4024H27.7998V13.3516H29.8506V15.4024ZM29.8506 12.3262H27.7998V10.2754H29.8506V12.3262Z" fill="#54A548"/>
<path d="M31.9014 9.76367H32.9268V10.7891H31.9014V9.76367Z" fill="#54A548"/>
<path d="M9.25098 11.8145H10.2764V12.8398H9.25098V11.8145Z" fill="#54A548"/>
<path d="M9.25098 9.76367H10.2764V10.7891H9.25098V9.76367Z" fill="#54A548"/>
<path d="M20.5991 21.8594H21.6245V22.8848H20.5991V21.8594Z" fill="#54A548"/>
<path d="M9.27441 21.8594H10.2998V22.8848H9.27441V21.8594Z" fill="#54A548"/>
<path d="M20.5762 11.8145H21.6016V12.8398H20.5762V11.8145Z" fill="#54A548"/>
<path d="M31.9238 21.8594H32.9492V22.8848H31.9238V21.8594Z" fill="#54A548"/>
<path d="M20.5762 9.76367H21.6016V10.7891H20.5762V9.76367Z" fill="#54A548"/>
<path d="M31.9014 11.8145H32.9268V12.8398H31.9014V11.8145Z" fill="#54A548"/>
<path d="M15.4492 22.8848H16.9873V23.9102H15.4492V22.8848Z" fill="#54A548"/>
<path d="M26.7744 22.8848H28.3125V23.9102H26.7744V22.8848Z" fill="#54A548"/>
<path d="M29.3379 22.8848H30.876V23.9102H29.3379V22.8848Z" fill="#54A548"/>
<path d="M4.125 22.8848H5.66309V23.9102H4.125V22.8848Z" fill="#54A548"/>
<path d="M18.0127 22.8848H19.5508V23.9102H18.0127V22.8848Z" fill="#54A548"/>
<path d="M6.68848 22.8848H8.22657V23.9102H6.68848V22.8848Z" fill="#54A548"/>
</svg>
