<svg width="260" height="190" viewBox="0 0 260 190" fill="none" xmlns="http://www.w3.org/2000/svg">
<g opacity="0.5">
<path d="M257.331 0H250.104V189.367H257.331V0Z" fill="#F5F5F5"/>
<path d="M241.27 0H234.044V189.367H241.27V0Z" fill="#F5F5F5"/>
<path d="M225.21 0H217.983V189.367H225.21V0Z" fill="#F5F5F5"/>
<path d="M209.148 0H201.922V189.367H209.148V0Z" fill="#F5F5F5"/>
<path d="M193.086 0H185.86V189.367H193.086V0Z" fill="#F5F5F5"/>
<path d="M177.026 0H169.8V189.367H177.026V0Z" fill="#F5F5F5"/>
<path d="M160.965 0H153.739V189.367H160.965V0Z" fill="#F5F5F5"/>
<path d="M144.904 0H137.678V189.367H144.904V0Z" fill="#F5F5F5"/>
<path d="M128.843 0H121.617V189.367H128.843V0Z" fill="#F5F5F5"/>
<path d="M112.783 0H105.557V189.367H112.783V0Z" fill="#F5F5F5"/>
</g>
<path d="M177.208 185.87C181.422 185.87 184.838 185.334 184.838 184.673C184.838 184.012 181.422 183.477 177.208 183.477C172.993 183.477 169.577 184.012 169.577 184.673C169.577 185.334 172.993 185.87 177.208 185.87Z" fill="#F5F5F5"/>
<path d="M175.882 171.512L171.468 168.374C171.468 168.374 172.8 167.174 172.111 166.787C171.421 166.4 170.365 167.479 170.365 167.479C170.365 167.479 166.645 165.917 165.435 163.576C165.435 163.576 167.722 163.49 167.61 162.84C167.499 162.191 164.815 162.13 164.815 162.13L164.033 160.083C164.033 160.083 166.867 158.922 169.806 160.77C172.744 162.618 172.935 163.276 172.935 163.276C172.935 163.276 173.077 165.447 173.707 165.743C174.337 166.039 174.098 164.299 174.522 164.533C174.947 164.767 176.945 168.533 175.882 171.513V171.512Z" fill="#67DB8A"/>
<path d="M180.392 156.819C180.594 155.24 180.415 151.75 180.415 151.75C180.245 152.204 178.765 153.258 178.11 152.207C177.455 151.157 179.287 150.944 179.555 150.114C179.823 149.281 177.446 147.717 176.901 147.271C176.356 146.826 175.265 148.396 174.83 150.455C174.396 152.513 176.109 153.68 175.841 154.775C175.573 155.873 174.729 154.894 174.348 154.049C173.967 153.205 173.045 152.394 173.298 156.305C173.551 160.221 177.059 163.232 177.059 163.232C179.213 161.609 180.142 158.488 180.142 158.488C180.142 158.488 178.949 158.209 178.905 157.422C178.86 156.636 180.392 156.819 180.392 156.819H180.392ZM176.077 159.011C175.767 159.212 175.24 158.947 174.903 158.423C174.567 157.899 174.546 157.312 174.856 157.11C175.166 156.913 175.689 157.177 176.026 157.701C176.367 158.226 176.388 158.813 176.077 159.011ZM178.093 154.682C178.035 154.368 178.419 154.032 178.952 153.932C179.487 153.832 179.966 154.005 180.027 154.319C180.084 154.636 179.701 154.973 179.166 155.073C178.633 155.173 178.153 155 178.092 154.683L178.093 154.682Z" fill="#67DB8A"/>
<path d="M185.18 161.878C185.172 161.222 187.948 160.662 187.97 160.657L188.209 158.476C187.609 158.397 184.836 158.182 182.623 160.275C180.1 162.661 180.042 163.343 180.042 163.343C180.042 163.343 180.326 165.499 179.766 165.913C179.206 166.327 179.101 164.573 178.731 164.886C178.36 165.198 177.135 169.281 178.759 171.997L182.476 168.059C182.476 168.059 180.935 167.141 181.537 166.627C182.138 166.112 183.384 166.965 183.384 166.965C183.384 166.965 187.079 164.661 187.809 162.13C187.809 162.13 185.194 163.047 185.18 161.878H185.18Z" fill="#67DB8A"/>
<path d="M171.916 183.791L171.344 175.008H183.085L182.513 183.791C182.487 184.193 182.153 184.506 181.75 184.506H172.68C172.277 184.506 171.943 184.193 171.917 183.791H171.916Z" fill="white"/>
<path d="M170.387 173.1V174.521C170.387 174.789 170.603 175.008 170.874 175.008H183.556C183.824 175.008 184.043 174.789 184.043 174.521V173.1C184.043 172.832 183.824 172.613 183.556 172.613H170.874C170.604 172.613 170.387 172.832 170.387 173.1Z" fill="white"/>
<path d="M152.472 187.626C152.472 188.592 142.967 189.368 131.234 189.368C119.502 189.368 110.002 188.592 110.002 187.626C110.002 186.661 119.507 185.891 131.234 185.891C142.962 185.891 152.472 186.667 152.472 187.626Z" fill="#F5F5F5"/>
<path d="M168.864 172.944C168.864 175.121 140.411 176.88 105.322 176.88C70.2332 176.88 47.083 176.697 47.083 174.521C47.083 172.345 70.223 169.008 105.322 169.008C140.421 169.008 168.864 170.768 168.864 172.944Z" fill="#F5F5F5"/>
<path d="M137.856 169.859H134.911V174.259H137.856V169.859Z" fill="#E1E5E2"/>
<path d="M140.816 169.859H137.856V174.259H140.816V169.859Z" fill="white"/>
<path d="M154.904 169.859H151.959V174.259H154.904V169.859Z" fill="#E1E5E2"/>
<path d="M157.864 169.859H154.904V174.259H157.864V169.859Z" fill="white"/>
<path d="M58.8317 102.319L64.933 153.041L56.3622 154.072L50.2609 103.35C49.9759 100.982 51.6646 98.8315 54.0282 98.5471C55.2144 98.4043 56.3429 98.7555 57.2098 99.4399C58.0804 100.12 58.6895 101.137 58.8317 102.319Z" fill="#E1E5E2"/>
<path d="M127.105 153.041L124.383 153.369H62.2128L64.9348 153.041L58.8317 102.321C58.6901 101.137 58.0804 100.12 57.2098 99.4396C56.5911 98.9534 55.8398 98.6353 55.0312 98.5467H116.203C117.388 98.4051 118.519 98.7546 119.385 99.4396C120.256 100.12 120.861 101.137 121.007 102.321L127.106 153.041H127.105Z" fill="white"/>
<path d="M151.79 126.711V168.186C151.79 169.136 152.559 169.861 153.465 169.861H125.526C124.62 169.861 123.852 169.136 123.852 168.186V126.711C123.944 121.819 127.926 117.93 132.818 117.93H160.753C155.865 117.93 151.879 121.819 151.79 126.711Z" fill="#F5F5F5"/>
<path d="M151.791 126.709V168.185C151.791 169.136 152.56 169.859 153.467 169.859H159.081C159.987 169.859 160.756 169.136 160.756 168.185V135.765C165.647 135.765 169.677 131.781 169.677 126.844C169.677 121.908 165.647 117.926 160.756 117.926C155.866 117.926 151.882 121.819 151.792 126.709H151.791Z" fill="white"/>
<path d="M151.789 147.527V166.625C151.789 168.41 150.342 169.856 148.558 169.856H89.4202C87.635 169.856 86.1885 168.41 86.1885 166.625V147.527H151.79H151.789Z" fill="white"/>
<path d="M120.403 141.562H150.377C151.157 141.562 151.791 142.196 151.791 142.977V149.495C151.791 150.276 151.157 150.909 150.377 150.909H120.403C119.623 150.909 118.989 150.276 118.989 149.495V142.977C118.989 142.196 119.622 141.563 120.403 141.563L120.403 141.562Z" fill="#F5F5F5"/>
<path d="M118.99 146.926V149.494C118.99 150.276 119.622 150.908 120.403 150.908H150.377C151.158 150.908 151.79 150.276 151.79 149.494V146.926H118.989H118.99Z" fill="#E1E5E2"/>
<path d="M87.7503 141.562H117.724C118.504 141.562 119.138 142.196 119.138 142.977V149.496C119.138 150.276 118.504 150.909 117.724 150.909H87.7509C86.9707 150.909 86.3369 150.276 86.3369 149.495V142.977C86.3369 142.196 86.9701 141.563 87.7503 141.563V141.562Z" fill="#F5F5F5"/>
<path d="M86.3365 146.926V149.494C86.3365 150.276 86.9685 150.908 87.75 150.908H117.723C118.505 150.908 119.137 150.276 119.137 149.494V146.926H86.3359H86.3365Z" fill="#E1E5E2"/>
<path d="M56.6207 169.859H53.6758V174.259H56.6207V169.859Z" fill="#E1E5E2"/>
<path d="M59.5811 169.859H56.6211V174.259H59.5811V169.859Z" fill="white"/>
<path d="M73.6685 169.859H70.7236V174.259H73.6685V169.859Z" fill="#E1E5E2"/>
<path d="M76.6289 169.859H73.6689V174.259H76.6289V169.859Z" fill="white"/>
<path d="M131.353 179.938C131.021 179.938 130.738 180.17 130.677 180.495C130.487 181.515 130.219 183.204 130.199 184.353C130.181 185.216 130.307 186.091 130.707 186.791H146.43C146.43 186.791 146.622 184.353 144.014 184.314C143.676 184.307 143.327 184.227 142.976 184.092C141.152 183.382 139.272 181.163 138.517 180.2C138.387 180.033 138.19 179.938 137.977 179.938H131.353Z" fill="white"/>
<path d="M142.794 185.09C142.794 185.731 143.006 186.319 143.358 186.793H146.429C146.429 186.793 146.621 184.355 144.013 184.317C143.675 184.309 143.327 184.229 142.975 184.094C142.857 184.403 142.794 184.738 142.794 185.09V185.09Z" fill="white"/>
<path d="M137.638 179.937H131.656L131.236 177.184C131.663 177.344 132.131 177.428 132.606 177.428H136.854C136.959 177.428 137.057 177.414 137.148 177.386L137.637 179.937H137.638Z" fill="white"/>
<path d="M136.853 177.427H132.603C130.824 177.427 129.252 176.264 128.733 174.561L118.446 141.822C118.446 141.822 106.089 141.642 94.3139 141.538C82.8705 141.427 86.9342 124.654 87.1697 123.733C87.1697 123.705 87.177 123.691 87.177 123.691L105.342 125.29L123.3 126.806C126.636 127.09 129.343 129.631 129.835 132.94L137.588 173.8L137.941 176.167C138.038 176.832 137.526 177.427 136.854 177.427H136.853Z" fill="#276633"/>
<path d="M118.446 141.823L118.453 141.323L118.815 141.329L118.923 141.673L129.21 174.413L129.211 174.417C129.666 175.909 131.044 176.928 132.603 176.928H136.772L136.774 176.928H136.855C137.22 176.928 137.5 176.605 137.447 176.241C137.447 176.241 137.447 176.24 137.447 176.24L137.14 174.18C136.404 173.914 135.653 173.493 135.039 172.944C134.428 172.399 133.926 171.702 133.74 170.882C133.491 170.643 133.272 170.304 133.074 169.935C132.827 169.473 132.581 168.898 132.339 168.256C131.854 166.973 131.368 165.374 130.907 163.772C130.696 163.04 130.492 162.312 130.295 161.61C130.057 160.761 129.829 159.951 129.614 159.216C129.418 158.549 129.236 157.959 129.07 157.478C128.901 156.989 128.759 156.644 128.647 156.449L128.647 156.448C128.474 156.146 128.25 155.869 127.994 155.566C127.963 155.529 127.931 155.491 127.898 155.453C127.675 155.191 127.43 154.903 127.219 154.59C127.219 154.59 127.219 154.59 127.219 154.59L127.634 154.311C126.86 153.162 126.639 151.771 126.417 150.379C126.201 149.019 125.985 147.658 125.252 146.523L118.446 141.823ZM118.446 141.823C118.453 141.323 118.453 141.323 118.453 141.323L118.453 141.323L118.451 141.323L118.444 141.323L118.418 141.323L118.312 141.321L117.899 141.315C117.538 141.31 117.01 141.303 116.338 141.293C114.996 141.275 113.083 141.249 110.802 141.22C106.241 141.162 100.207 141.091 94.3188 141.039C91.5989 141.013 89.8574 140.006 88.7341 138.536C87.5914 137.041 87.0488 135.013 86.8602 132.896C86.5745 129.689 87.1114 126.412 87.4384 124.816C87.5524 124.991 87.6515 125.175 87.734 125.369C87.9623 125.913 88.0753 126.505 88.1971 127.159C88.1992 127.17 88.2013 127.181 88.2034 127.193C88.3201 127.819 88.4477 128.505 88.7159 129.152L88.7158 129.152L88.717 129.155C89.4928 130.998 91.4085 132.298 93.4184 132.306C93.8234 132.309 94.235 132.268 94.6227 132.224C94.6926 132.216 94.7615 132.208 94.8295 132.2C95.1492 132.163 95.4507 132.128 95.7465 132.111C96.464 132.072 97.016 132.155 97.442 132.508C97.6041 132.645 97.7432 132.82 97.8936 133.038C97.9352 133.098 97.9802 133.166 98.0277 133.237C98.1371 133.401 98.2599 133.585 98.3854 133.747L98.3858 133.747C99.1806 134.766 100.319 135.3 101.52 135.524C102.717 135.748 104.006 135.669 105.163 135.439L105.163 135.439C105.308 135.411 105.45 135.381 105.59 135.352C106.085 135.249 106.556 135.151 107.025 135.111C107.615 135.062 108.135 135.113 108.591 135.346L108.594 135.347C108.774 135.437 108.945 135.556 109.138 135.701C109.177 135.73 109.218 135.762 109.26 135.794C109.414 135.911 109.586 136.041 109.763 136.156C111.053 137.002 112.595 137.072 113.99 137.122C114.031 137.123 114.072 137.125 114.112 137.126C115.514 137.175 116.772 137.22 117.837 137.791L117.837 137.791C118.904 138.363 119.602 139.356 120.268 140.548C120.422 140.823 120.575 141.111 120.732 141.405C121.231 142.346 121.764 143.35 122.459 144.184L122.459 144.185C122.785 144.575 123.151 144.936 123.496 145.276C123.579 145.357 123.66 145.437 123.739 145.516C124.16 145.936 124.538 146.339 124.832 146.793L118.446 141.823Z" fill="#19381F" stroke="#19381F"/>
<path d="M122.399 177.427H118.148C116.369 177.427 114.798 176.264 114.278 174.561L103.992 141.822C103.992 141.822 91.6349 141.642 79.8589 141.538C69.6896 141.441 71.7591 128.205 72.5141 124.592C72.6388 124.024 72.7219 123.691 72.7219 123.691L90.8872 125.29L108.838 126.806C112.175 127.09 114.882 129.631 115.38 132.94L123.341 175.253L123.479 176.167C123.583 176.832 123.064 177.427 122.399 177.427H122.399Z" fill="#276633"/>
<g filter="url(#filter0_d_941_725)">
<path d="M122.399 177.425H118.148C116.369 177.425 114.798 176.262 114.278 174.559L103.992 141.82C103.992 141.82 91.6349 141.64 79.8589 141.536C69.6896 141.439 71.7591 128.203 72.5141 124.59C72.5623 124.618 72.6111 124.652 72.6593 124.687C73.7118 125.483 74.5354 126.577 75.0059 127.802C75.7741 129.81 75.7674 132.371 77.5538 133.583C80.3023 135.445 84.3726 132.122 87.232 133.805C88.1737 134.358 88.7689 135.362 89.6341 136.02C91.0951 137.127 93.0887 137.121 94.9232 137.065C96.8409 137.01 98.7586 136.955 100.676 136.899C102.628 136.844 104.802 136.865 106.235 138.194C107.163 139.052 107.599 140.312 108.001 141.516C108.734 143.718 109.461 145.926 110.195 148.127C110.582 149.29 111.018 150.523 111.981 151.284C112.611 151.783 113.421 152.032 114.051 152.538C115.408 153.632 118.482 163.962 118.371 165.707C118.26 167.444 117.963 169.286 118.696 170.864C119.597 172.809 121.784 173.792 123.342 175.253L123.48 176.167C123.584 176.831 123.065 177.427 122.4 177.427L122.399 177.425Z" fill="#19381F"/>
<path d="M122.438 176.925C122.781 176.904 123.04 176.589 122.986 176.244L122.986 176.242L122.874 175.502C122.414 175.087 121.917 174.721 121.399 174.338C121.094 174.113 120.781 173.883 120.463 173.633C119.592 172.948 118.744 172.156 118.243 171.074C117.834 170.194 117.721 169.258 117.717 168.347C117.714 167.713 117.766 167.057 117.816 166.432C117.836 166.173 117.857 165.919 117.872 165.675C117.882 165.519 117.856 165.217 117.78 164.768C117.706 164.331 117.593 163.792 117.447 163.183C117.157 161.965 116.744 160.488 116.285 159.028C115.825 157.568 115.322 156.134 114.852 155.003C114.617 154.437 114.394 153.955 114.192 153.586C113.98 153.198 113.824 152.997 113.738 152.927C113.467 152.71 113.151 152.543 112.785 152.352L112.757 152.337C112.412 152.157 112.02 151.953 111.671 151.677L111.671 151.677C110.573 150.808 110.1 149.424 109.72 148.286M122.438 176.925L110.195 148.127M122.438 176.925H122.399H118.148C116.589 176.925 115.212 175.906 114.757 174.414L114.755 174.41L104.469 141.67L104.36 141.325L103.999 141.32L103.992 141.82M122.438 176.925L103.992 141.82M109.72 148.286L110.195 148.127M109.72 148.286C109.72 148.286 109.721 148.286 109.721 148.286L110.195 148.127M109.72 148.286C109.354 147.185 108.989 146.083 108.624 144.981L108.623 144.979L108.622 144.976C108.257 143.874 107.893 142.774 107.526 141.675L107.526 141.675C107.118 140.449 106.714 139.318 105.896 138.561L105.895 138.56C105.274 137.984 104.475 137.675 103.566 137.52C102.653 137.365 101.666 137.371 100.69 137.399M110.195 148.127C109.828 147.027 109.463 145.924 109.098 144.822C108.733 143.72 108.368 142.617 108.001 141.516C107.599 140.312 107.163 139.052 106.235 138.194C104.802 136.865 102.628 136.844 100.676 136.899M100.69 137.399L100.691 137.399L100.676 136.899M100.69 137.399L100.676 136.899M100.69 137.399L97.8142 137.482L94.9383 137.565L94.9233 137.066L94.9377 137.565L94.9382 137.565C93.1353 137.62 90.9557 137.649 89.3321 136.419L89.3314 136.418C88.9165 136.103 88.5582 135.715 88.2353 135.365C88.1881 135.314 88.1416 135.263 88.0958 135.214C87.7219 134.813 87.3806 134.472 86.9786 134.236L86.9784 134.236C86.3767 133.882 85.6946 133.779 84.9277 133.821C84.1701 133.863 83.3723 134.043 82.5252 134.235L82.4613 134.249C81.6101 134.441 80.7071 134.641 79.8378 134.666C78.9572 134.692 78.0736 134.539 77.2733 133.997L77.2731 133.997C76.2356 133.293 75.7474 132.213 75.4197 131.137C75.2884 130.706 75.1776 130.256 75.0705 129.821C75.0441 129.714 75.018 129.608 74.9918 129.503C74.857 128.964 74.7195 128.453 74.539 127.981M100.676 136.899L94.9232 137.065C93.0887 137.121 91.0951 137.127 89.6341 136.02C89.2568 135.733 88.9309 135.381 88.6051 135.028C88.1839 134.572 87.763 134.117 87.232 133.805C85.8253 132.977 84.1255 133.361 82.4341 133.743C80.6876 134.137 78.9501 134.529 77.5538 133.583L74.539 127.981M103.992 141.82C103.999 141.32 103.999 141.32 103.999 141.32L103.998 141.32L103.997 141.32L103.99 141.32L103.963 141.32L103.857 141.318L103.445 141.312C103.084 141.307 102.555 141.3 101.884 141.29C100.541 141.272 98.6285 141.246 96.3477 141.217C91.7861 141.159 85.7522 141.088 79.8633 141.036L79.8589 141.536L103.992 141.82ZM72.6593 124.687C72.7603 124.763 72.8592 124.843 72.9559 124.924C72.921 125.098 72.8843 125.289 72.8467 125.495C72.7058 125.365 72.5592 125.241 72.4074 125.124C72.4153 125.082 72.4231 125.042 72.4309 125.002L72.6593 124.687ZM72.6593 124.687C72.6111 124.652 72.5623 124.618 72.5141 124.59C72.4888 124.711 72.4621 124.842 72.4344 124.984L72.6593 124.687ZM74.539 127.981C74.5391 127.981 74.5391 127.981 74.5391 127.981L75.0058 127.802L74.5389 127.981C74.539 127.981 74.539 127.981 74.539 127.981Z" stroke="#19381F"/>
</g>
<path d="M71.8187 124.164C87.7807 130.009 87.3241 122.845 100.826 124.92C100.021 109.502 99.211 94.0638 98.0693 86.7979C97.8126 86.4665 97.2854 86.1695 96.7312 85.8315C94.5279 84.5139 92.0276 83.75 89.4665 83.5138L83.1748 82.9258C83.1748 82.9258 74.4244 84.2615 72.2609 86.622C67.5302 91.784 71.8181 124.164 71.8181 124.164H71.8187Z" fill="white"/>
<path d="M89.8352 73.625V83.5478L89.6081 99.7876L83.543 82.9303V73.625H89.8352Z" fill="white"/>
<path d="M70.8021 90.1484L67.956 105.67C67.6933 107.649 68.6253 109.594 70.3358 110.623C74.9827 113.419 84.3844 117.74 89.7458 120.701C89.1711 120.068 88.9421 118.877 89.6916 117.737C90.7863 116.071 92.5727 114.722 93.6842 114.722C93.7469 114.722 93.8089 114.727 93.8632 114.739L77.5306 105.409L79.9453 95.1544" fill="white"/>
<path d="M116.896 179.941C116.564 179.941 116.28 180.174 116.22 180.499C116.03 181.519 115.762 183.207 115.742 184.357C115.724 185.22 115.85 186.095 116.25 186.795H131.973C131.973 186.795 132.165 184.357 129.557 184.318C129.219 184.311 128.87 184.231 128.519 184.095C126.695 183.386 124.815 181.167 124.06 180.203C123.929 180.037 123.732 179.941 123.52 179.941H116.896Z" fill="white"/>
<path d="M115.742 184.358C115.724 185.221 115.85 186.096 116.25 186.796H118.925C118.89 185.403 117.747 184.285 116.348 184.285C116.139 184.285 115.937 184.31 115.742 184.358Z" fill="white"/>
<path d="M128.338 185.094C128.338 185.735 128.551 186.323 128.902 186.797H131.973C131.973 186.797 132.165 184.359 129.557 184.321C129.219 184.313 128.87 184.233 128.519 184.098C128.401 184.407 128.338 184.742 128.338 185.094V185.094Z" fill="white"/>
<path d="M123.181 179.937H117.199L116.779 177.184C117.206 177.344 117.674 177.428 118.149 177.428H122.397C122.502 177.428 122.6 177.414 122.691 177.386L123.18 179.937H123.181Z" fill="white"/>
<path d="M142.618 103.127L133.822 124.175H96.9697L105.953 102.335C106.453 101.137 107.631 100.362 108.93 100.375L141.001 100.671C142.259 100.684 143.103 101.966 142.618 103.127V103.127Z" fill="white"/>
<path d="M100.977 112.859C103.123 112.639 102.908 114.374 100.392 114.859C106.114 115.01 106.874 117.027 103.269 117.028C103.269 117.028 106.012 118.689 103.237 118.99C103.237 118.99 105.403 120.809 102.803 120.609C105.429 122.982 98.4374 123.134 94.2086 120.124L89.3496 118.728C89.9641 117.038 91.1884 115.676 93.1952 114.67L100.977 112.859Z" fill="white"/>
<path d="M95.5165 71.6823C95.5165 76.2954 92.771 80.0332 89.3839 80.0332C86.7487 80.0332 84.502 77.7697 83.6339 74.5934C83.4579 74.6248 83.2754 74.638 83.0862 74.638C81.6119 74.638 80.416 73.7042 80.416 72.5504C80.416 71.6925 81.0739 70.9551 82.018 70.6352C88.6706 70.0598 91.8089 67.1932 93.2145 65.1641C94.6164 66.6938 95.5159 69.047 95.5159 71.6823H95.5165Z" fill="white"/>
<path d="M92.5383 71.7617C92.6702 72.3214 92.828 72.8751 93.0112 73.4203C93.1082 73.7089 93.2004 74.0632 92.9955 74.2879C92.8431 74.4548 92.5883 74.4717 92.3635 74.4482C92.1388 74.4247 91.9069 74.3723 91.6924 74.4427" fill="white"/>
<path d="M89.9648 76.0977C90.4794 76.6459 91.2264 76.9682 91.9783 76.9652Z" fill="white"/>
<path d="M88.4824 69.9737C88.4824 69.9737 89.391 69.0483 90.3682 69.7737Z" fill="white"/>
<path d="M93.8828 69.6176C93.8828 69.6176 94.6486 68.8374 95.4722 69.4489Z" fill="white"/>
<path d="M96.5488 85.7254L104.608 89.6367L118.676 80.6797L122.574 85.1904C122.574 85.1904 111.85 97.2454 106.763 98.2317C105.373 98.501 98.0803 94.7186 98.0803 94.7186" fill="white"/>
<path d="M128.114 79.8546C127.817 80.1871 127.493 80.4932 127.138 80.7673C126.212 81.4728 124.185 82.97 123.115 83.3568C122.931 83.5321 122.755 83.7026 122.589 83.8737C122.513 83.9454 122.441 84.0219 122.369 84.0942C121.96 84.5075 121.587 84.9214 121.249 85.3347C121.231 85.3305 121.218 85.3257 121.204 85.3166C120.696 85.0558 120.355 84.6063 120.355 84.6063C119.541 83.7568 118.992 82.835 118.646 81.8506C118.646 81.8506 118.628 81.7921 118.606 81.7066C118.597 81.6662 118.583 81.621 118.574 81.5674C118.722 81.3475 118.898 81.0728 119.078 80.7764C119.127 80.6956 119.172 80.6143 119.217 80.5336C119.657 79.7829 120.071 78.9195 120.134 78.2857C120.273 76.8922 120.355 73.8123 121.258 74.0418C122.157 74.2756 122.89 76.1457 122.66 77.5212C122.66 77.5212 125.318 75.3799 125.79 73.4605C125.79 73.4605 126.062 72.2838 126.771 72.8791C126.988 73.061 126.774 75.1835 126.391 75.7457C126.621 75.4577 127.565 74.3069 127.735 73.9563C127.947 73.5472 128.806 73.6912 128.41 75.1432L128.414 75.139C128.477 75.1118 128.936 74.8781 129.192 75.139C129.506 75.4673 129.016 76.4518 128.971 76.5373C129.016 76.506 129.331 76.2584 129.691 76.6048C130.288 77.1934 128.899 78.9514 128.113 79.8552L128.114 79.8546Z" fill="white"/>
<path d="M122.659 77.5195C122.659 77.5195 122.469 78.9022 121.928 79.5577Z" fill="white"/>
<path d="M128.414 75.1406C128.414 75.1406 127.706 76.1558 126.858 76.8746Z" fill="white"/>
<path d="M128.969 76.543C128.969 76.543 128.013 77.6286 127.343 78.148Z" fill="white"/>
<path d="M100.211 126.061C100.211 127.105 99.3653 127.951 98.3218 127.951H81.7302C80.6867 127.951 79.8408 127.105 79.8408 126.061C79.8408 125.018 80.6867 124.172 81.7302 124.172H98.3218C99.3653 124.172 100.211 125.018 100.211 126.061Z" fill="white"/>
<path d="M86.1895 126.709V168.185C86.1895 169.136 85.4201 169.859 84.514 169.859H78.8995C77.994 169.859 77.224 169.136 77.224 168.185V135.765C72.3337 135.765 68.3037 131.781 68.3037 126.844C68.3037 121.908 72.3337 117.926 77.224 117.926C82.1143 117.926 86.0985 121.819 86.1889 126.709H86.1895Z" fill="white"/>
<path d="M78.8988 169.859H50.4184C49.5129 169.859 48.7429 169.136 48.7429 168.185V135.765C43.8532 135.765 39.8232 131.781 39.8232 126.844C39.8232 121.908 43.8532 117.926 48.7429 117.926H77.2233C72.333 117.926 68.303 121.91 68.303 126.844C68.303 131.779 72.333 135.765 77.2233 135.765V168.185C77.2233 169.136 77.9926 169.859 78.8988 169.859Z" fill="#F5F5F5"/>
<path d="M31.1563 19.3203H8.87305V49.2948H31.1563V19.3203Z" fill="white"/>
<path d="M27.6082 22.9492H12.4209V45.6681H27.6082V22.9492Z" fill="#19381F"/>
<path d="M61.2603 14.0586H31.1562V54.553H61.2603V14.0586Z" fill="white"/>
<path d="M56.4666 18.9609H35.9492V49.6542H56.4666V18.9609Z" fill="#19381F"/>
<path d="M83.543 19.3203H61.2598V49.2948H83.543V19.3203Z" fill="white"/>
<path d="M79.9939 22.9492H64.8066V45.6681H79.9939V22.9492Z" fill="#19381F"/>
<path d="M25.7007 22.9492H12.4209V42.9732H25.7007V22.9492Z" fill="#19381F"/>
<path d="M78.0865 22.9492H64.8066V42.9732H78.0865V22.9492Z" fill="#19381F"/>
<path d="M51.2014 26.543H41.2129V42.067H51.2014V26.543Z" fill="white"/>
<path d="M22.3439 29.6523H17.6855V38.9642H22.3439V29.6523Z" fill="white"/>
<path d="M74.7297 29.6523H70.0713V38.9642H74.7297V29.6523Z" fill="white"/>
<path d="M174.264 51.6358V72.4086C174.264 73.0532 173.742 73.5756 173.097 73.5756H149.321L141.838 79.6992C141.414 80.0468 140.776 79.7444 140.776 79.1961V73.5756H136.71C136.065 73.5756 135.543 73.0532 135.543 72.4086V51.6358C135.543 50.9911 136.065 50.4688 136.71 50.4688H173.097C173.742 50.4688 174.264 50.9911 174.264 51.6358Z" fill="white"/>
<path d="M171.625 54.1801V69.6487C171.625 70.1301 171.231 70.5151 170.75 70.5151H139.054C138.573 70.5151 138.179 70.1301 138.179 69.6487V54.1801C138.179 53.6987 138.573 53.3047 139.054 53.3047H170.75C171.231 53.3047 171.625 53.6987 171.625 54.1801Z" fill="#19381F"/>
<path d="M168.685 56.3999H157.16C157.062 56.3999 156.983 56.321 156.983 56.2234C156.983 56.1258 157.062 56.0469 157.16 56.0469H168.685C168.783 56.0469 168.862 56.1258 168.862 56.2234C168.862 56.321 168.783 56.3999 168.685 56.3999Z" fill="white"/>
<path d="M155.548 56.3999H146.761C146.664 56.3999 146.585 56.321 146.585 56.2234C146.585 56.1258 146.664 56.0469 146.761 56.0469H155.548C155.646 56.0469 155.725 56.1258 155.725 56.2234C155.725 56.321 155.646 56.3999 155.548 56.3999Z" fill="white"/>
<path d="M145.16 56.3999H140.222C140.125 56.3999 140.046 56.321 140.046 56.2234C140.046 56.1258 140.125 56.0469 140.222 56.0469H145.16C145.257 56.0469 145.336 56.1258 145.336 56.2234C145.336 56.321 145.257 56.3999 145.16 56.3999Z" fill="white"/>
<path d="M168.686 60.1929H163.393C163.296 60.1929 163.217 60.114 163.217 60.0164C163.217 59.9188 163.296 59.8398 163.393 59.8398H168.686C168.784 59.8398 168.863 59.9188 168.863 60.0164C168.863 60.114 168.784 60.1929 168.686 60.1929Z" fill="white"/>
<path d="M161.773 60.1929H152.211C152.113 60.1929 152.034 60.114 152.034 60.0164C152.034 59.9188 152.113 59.8398 152.211 59.8398H161.773C161.87 59.8398 161.949 59.9188 161.949 60.0164C161.949 60.114 161.87 60.1929 161.773 60.1929Z" fill="white"/>
<path d="M150.43 60.1929H140.222C140.125 60.1929 140.046 60.114 140.046 60.0164C140.046 59.9188 140.125 59.8398 140.222 59.8398H150.43C150.528 59.8398 150.607 59.9188 150.607 60.0164C150.607 60.114 150.528 60.1929 150.43 60.1929Z" fill="white"/>
<path d="M168.685 63.9859H157.356C157.259 63.9859 157.18 63.9069 157.18 63.8093C157.18 63.7117 157.259 63.6328 157.356 63.6328H168.685C168.783 63.6328 168.862 63.7117 168.862 63.8093C168.862 63.9069 168.783 63.9859 168.685 63.9859Z" fill="white"/>
<path d="M155.878 63.9859H145.008C144.91 63.9859 144.831 63.9069 144.831 63.8093C144.831 63.7117 144.91 63.6328 145.008 63.6328H155.878C155.976 63.6328 156.055 63.7117 156.055 63.8093C156.055 63.9069 155.976 63.9859 155.878 63.9859Z" fill="white"/>
<path d="M143.664 63.9859H140.222C140.125 63.9859 140.046 63.9069 140.046 63.8093C140.046 63.7117 140.125 63.6328 140.222 63.6328H143.664C143.761 63.6328 143.84 63.7117 143.84 63.8093C143.84 63.9069 143.761 63.9859 143.664 63.9859Z" fill="white"/>
<path d="M168.686 67.7788H162.752C162.654 67.7788 162.575 67.6999 162.575 67.6023C162.575 67.5047 162.654 67.4258 162.752 67.4258H168.686C168.783 67.4258 168.862 67.5047 168.862 67.6023C168.862 67.6999 168.783 67.7788 168.686 67.7788Z" fill="white"/>
<path d="M161.541 67.7788H151.748C151.65 67.7788 151.571 67.6999 151.571 67.6023C151.571 67.5047 151.65 67.4258 151.748 67.4258H161.541C161.639 67.4258 161.718 67.5047 161.718 67.6023C161.718 67.6999 161.639 67.7788 161.541 67.7788Z" fill="white"/>
<path d="M150.315 67.7788H140.222C140.125 67.7788 140.046 67.6999 140.046 67.6023C140.046 67.5047 140.125 67.4258 140.222 67.4258H150.315C150.412 67.4258 150.491 67.5047 150.491 67.6023C150.491 67.6999 150.412 67.7788 150.315 67.7788Z" fill="white"/>
<path d="M258.301 176.562C258.301 177.391 242.408 178.059 222.813 178.059C203.218 178.059 190.29 177.991 190.29 177.162C190.29 176.333 203.213 175.066 222.813 175.066C242.413 175.066 258.301 175.734 258.301 176.563V176.562Z" fill="#F5F5F5"/>
<path d="M257.484 52.1875H246.303V172.292H257.484V52.1875Z" fill="#E1E5E2"/>
<path d="M246.303 52.1875H193.044V172.292H246.303V52.1875Z" fill="white"/>
<path d="M242.849 113.398H196.499V137.74H242.849V113.398Z" fill="white"/>
<path d="M242.849 84.9648H196.499V109.306H242.849V84.9648Z" fill="white"/>
<path d="M242.849 56.5273H196.499V80.8687H242.849V56.5273Z" fill="white"/>
<path d="M246.303 47.9883H190.711V52.4304H246.303V47.9883Z" fill="#4A4748"/>
<path d="M246.303 49.8984H190.711V52.4288H246.303V49.8984Z" fill="#231F20"/>
<path d="M258.886 47.9883H246.304V52.4304H258.886V47.9883Z" fill="white"/>
<path d="M253.261 172.289H249.434V176.562H253.261V172.289Z" fill="white"/>
<path d="M255.624 172.289H253.261V176.562H255.624V172.289Z" fill="#E1E5E2"/>
<path d="M239.805 172.289H235.979V176.562H239.805V172.289Z" fill="white"/>
<path d="M242.17 172.289H239.807V176.562H242.17V172.289Z" fill="#E1E5E2"/>
<path d="M213.084 172.289H209.257V176.562H213.084V172.289Z" fill="white"/>
<path d="M215.448 172.289H213.085V176.562H215.448V172.289Z" fill="#E1E5E2"/>
<path d="M199.099 172.289H195.272V176.562H199.099V172.289Z" fill="white"/>
<path d="M201.463 172.289H199.1V176.562H201.463V172.289Z" fill="#E1E5E2"/>
<path d="M207.68 56.5273H196.499V80.8687H207.68V56.5273Z" fill="#E1E5E2"/>
<path d="M207.68 84.9609H196.499V109.302H207.68V84.9609Z" fill="#E1E5E2"/>
<path d="M207.68 113.398H196.499V137.74H207.68V113.398Z" fill="#E1E5E2"/>
<path d="M242.846 113.398H207.679V137.739H242.846V113.398Z" fill="#F5F5F5"/>
<path d="M207.68 141.836H196.499V166.177H207.68V141.836Z" fill="#E1E5E2"/>
<path d="M242.846 141.836H207.679V166.177H242.846V141.836Z" fill="#F5F5F5"/>
<path d="M242.846 56.5273H207.679V80.8681H242.846V56.5273Z" fill="#F5F5F5"/>
<path d="M242.846 84.9609H207.679V109.302H242.846V84.9609Z" fill="#F5F5F5"/>
<path d="M238.232 73.2617H230.875V80.8668H238.232V73.2617Z" fill="#E1E5E2"/>
<path d="M230.875 73.2617H212.293V80.8668H230.875V73.2617Z" fill="white"/>
<path d="M238.233 129.273H230.876V137.738H238.233V129.273Z" fill="#E1E5E2"/>
<path d="M230.876 129.273H212.294V137.738H230.876V129.273Z" fill="white"/>
<path d="M238.233 150.91H230.876V166.178H238.233V150.91Z" fill="#E1E5E2"/>
<path d="M230.876 150.91H212.294V166.178H230.876V150.91Z" fill="white"/>
<path d="M238.99 126.875H231.203V129.275H238.99V126.875Z" fill="#E1E5E2"/>
<path d="M231.204 126.875H211.536V129.275H231.204V126.875Z" fill="#231F20"/>
<path d="M228.885 65.6562H221.813V73.2613H228.885V65.6562Z" fill="#E1E5E2"/>
<path d="M221.813 65.6562H212.293V73.2613H221.813V65.6562Z" fill="white"/>
<path d="M230.875 150.906H212.293V166.174H230.875V150.906Z" fill="white"/>
<path d="M223.752 150.906H219.417V155.701H223.752V150.906Z" fill="#231F20"/>
<path d="M23.6337 90.9297H19.8037V168.432H23.6337V90.9297Z" fill="white"/>
<path d="M34.9315 110.205C35.4432 110.205 35.8581 109.608 35.8581 108.87C35.8581 108.133 35.4432 107.535 34.9315 107.535C34.4197 107.535 34.0049 108.133 34.0049 108.87C34.0049 109.608 34.4197 110.205 34.9315 110.205Z" fill="#46C671"/>
<path d="M39.8234 94.4957C39.8234 99.6499 6.81063 99.7969 4.89595 94.9428C4.83571 94.8012 4.80859 94.6482 4.80859 94.4957L10.3827 73.9922H34.2493L34.3258 74.2428L39.8234 94.4957Z" fill="white"/>
<path d="M39.823 94.4957C39.823 99.6499 6.81018 99.7969 4.89551 94.9427C6.65715 94.9427 8.47905 95.0301 10.1148 94.5336C10.6546 94.3644 11.1998 94.13 11.762 94.1625C12.3783 94.1896 12.9235 94.5228 13.4965 94.7463C14.7617 95.2428 16.2287 95.2102 17.4722 94.6481C18.2958 94.277 19.0212 93.6938 19.8828 93.4046C22.4023 92.5756 25.5442 94.468 27.6493 92.8594C29.8471 91.1905 28.8434 87.187 31.0527 85.5344C31.56 85.1579 32.1872 84.9561 32.6728 84.5524C33.7253 83.6854 33.8783 80.0507 33.7964 78.6873C33.7145 77.3239 33.4964 75.8785 34.0802 74.6404C34.1458 74.4988 34.2272 74.3675 34.3254 74.2422L39.823 94.4951" fill="#F5F5F5"/>
<path d="M22.3023 76.314C28.8869 76.314 34.2248 75.2731 34.2248 73.989C34.2248 72.705 28.8869 71.6641 22.3023 71.6641C15.7177 71.6641 10.3799 72.705 10.3799 73.989C10.3799 75.2731 15.7177 76.314 22.3023 76.314Z" fill="#231F20"/>
<path d="M43.2604 173.098H0.177734V176.039H43.2604V173.098Z" fill="white"/>
<path d="M4.8203 176.035H2.70801V179.284H4.8203V176.035Z" fill="#E1E5E2"/>
<path d="M6.94345 176.035H4.82031V179.284H6.94345V176.035Z" fill="white"/>
<path d="M15.0605 176.035H12.9482V179.284H15.0605V176.035Z" fill="#E1E5E2"/>
<path d="M17.1847 176.035H15.0615V179.284H17.1847V176.035Z" fill="white"/>
<path d="M29.0928 176.035H26.9805V179.284H29.0928V176.035Z" fill="#E1E5E2"/>
<path d="M31.2159 176.035H29.0928V179.284H31.2159V176.035Z" fill="white"/>
<path d="M39.332 176.035H37.2197V179.284H39.332V176.035Z" fill="#E1E5E2"/>
<path d="M41.4552 176.035H39.332V179.284H41.4552V176.035Z" fill="white"/>
<path d="M174.762 156.954C174.364 157.216 174.359 157.897 174.757 158.513C175 158.891 175.342 159.159 175.67 159.229C175.726 159.244 175.786 159.25 175.836 159.25C175.962 159.25 176.073 159.22 176.174 159.154C176.315 159.063 176.411 158.917 176.452 158.73C176.522 158.403 176.421 157.978 176.174 157.601C175.781 156.986 175.161 156.703 174.762 156.955V156.954ZM176.109 158.654C176.084 158.75 176.043 158.815 175.983 158.856C175.923 158.896 175.842 158.906 175.746 158.886C175.509 158.835 175.242 158.618 175.055 158.321C174.753 157.852 174.757 157.378 174.954 157.252C174.99 157.227 175.04 157.217 175.095 157.217C175.312 157.217 175.635 157.413 175.877 157.792C176.069 158.089 176.16 158.417 176.109 158.654H176.109Z" fill="#3C4150"/>
<path d="M178.867 155.268C178.974 155.268 179.084 155.258 179.201 155.238C179.836 155.117 180.275 154.698 180.2 154.28C180.119 153.862 179.554 153.63 178.919 153.751C178.329 153.862 177.91 154.23 177.91 154.613C177.91 154.648 177.915 154.679 177.92 154.709C177.986 155.052 178.379 155.268 178.869 155.268H178.867ZM178.984 154.098C179.453 154.013 179.816 154.159 179.856 154.341C179.886 154.532 179.599 154.805 179.135 154.891C178.666 154.982 178.303 154.83 178.267 154.644C178.232 154.457 178.535 154.185 178.984 154.099V154.098Z" fill="#3C4150"/>
<path d="M188.233 158.298C187.679 158.222 184.799 157.97 182.504 160.144C180.002 162.505 179.871 163.246 179.866 163.362C179.977 164.214 179.987 165.525 179.66 165.768C179.634 165.787 179.609 165.798 179.599 165.798C179.504 165.768 179.372 165.445 179.302 165.268C179.181 164.966 179.085 164.723 178.883 164.673C178.832 164.663 178.727 164.652 178.615 164.749C178.146 165.142 176.946 169.258 178.59 172.052C178.592 172.056 178.594 172.059 178.596 172.063C178.592 172.187 178.592 172.311 178.592 172.435H177.346L177.236 163.312C177.236 163.312 177.238 163.312 177.238 163.311C179.361 161.662 180.274 158.661 180.309 158.535C180.324 158.49 180.319 158.439 180.294 158.394C180.269 158.353 180.228 158.323 180.183 158.313C180.173 158.308 179.119 158.046 179.084 157.411C179.079 157.315 179.103 157.239 179.169 157.179C179.422 156.936 180.122 156.962 180.369 156.992C180.465 157.002 180.556 156.932 180.566 156.835C180.768 155.262 180.596 151.877 180.591 151.736C180.586 151.651 180.525 151.585 180.44 151.57C180.354 151.555 180.278 151.606 180.248 151.686C180.163 151.914 179.563 152.418 178.997 152.473C178.674 152.509 178.433 152.388 178.261 152.11C177.984 151.671 178.211 151.459 178.841 151.051C179.209 150.809 179.598 150.556 179.724 150.163C179.966 149.411 178.655 148.357 177.404 147.429C177.238 147.303 177.101 147.202 177.01 147.132C176.869 147.011 176.683 146.985 176.491 147.051C175.81 147.293 175.004 148.771 174.655 150.415C174.398 151.656 174.877 152.594 175.266 153.346C175.533 153.87 175.77 154.324 175.669 154.728C175.619 154.945 175.538 155.076 175.452 155.081C175.261 155.101 174.807 154.632 174.51 153.971C174.414 153.759 174.071 153.069 173.622 153.179C173.324 153.255 172.952 153.658 173.123 156.312C173.359 160.021 176.392 162.87 176.884 163.311L176.994 172.436H176.265C176.206 172.136 176.136 171.839 176.056 171.547C176.056 171.543 176.057 171.541 176.059 171.538C177.128 168.477 175.146 164.674 174.611 164.376C174.485 164.306 174.379 164.336 174.334 164.356C174.147 164.447 174.102 164.699 174.041 165.022C174.006 165.208 173.941 165.551 173.85 165.596C173.84 165.601 173.814 165.596 173.784 165.581C173.416 165.405 173.169 164.119 173.103 163.226C173.083 163.15 172.811 162.45 169.901 160.619C166.92 158.743 164.085 159.867 163.969 159.917C163.878 159.953 163.833 160.054 163.869 160.145L164.651 162.192C164.676 162.258 164.742 162.303 164.812 162.303C166.038 162.333 167.384 162.565 167.439 162.868C167.439 162.888 167.439 162.909 167.414 162.944C167.182 163.226 166.072 163.373 165.427 163.398C165.372 163.398 165.316 163.433 165.286 163.484C165.256 163.539 165.251 163.6 165.281 163.655C166.507 166.026 170.143 167.574 170.299 167.639C170.365 167.665 170.44 167.654 170.491 167.599C170.759 167.327 171.555 166.676 172.024 166.939C172.11 166.989 172.125 167.039 172.13 167.08C172.166 167.382 171.671 167.952 171.354 168.24C171.313 168.275 171.294 168.33 171.294 168.38C171.298 168.436 171.324 168.487 171.369 168.517L175.708 171.601C175.785 171.875 175.852 172.154 175.909 172.435H170.875C170.512 172.435 170.214 172.733 170.214 173.096V174.519C170.214 174.887 170.512 175.184 170.875 175.184H171.178L171.697 183.138V183.153L171.742 183.799C171.773 184.293 172.186 184.682 172.68 184.682H181.749C181.875 184.682 181.991 184.656 182.102 184.611C182.213 184.571 182.309 184.505 182.394 184.424C182.566 184.268 182.677 184.046 182.692 183.799L182.732 183.153V183.138L183.252 175.184H183.559C183.923 175.184 184.22 174.887 184.22 174.519V173.096C184.22 172.733 183.923 172.435 183.559 172.435H178.946C178.946 172.306 178.946 172.176 178.949 172.047L182.606 168.174C182.642 168.138 182.657 168.083 182.651 168.033C182.641 167.977 182.611 167.932 182.566 167.902C182.198 167.685 181.603 167.221 181.577 166.918C181.572 166.873 181.577 166.822 181.653 166.757C182.061 166.409 182.969 166.893 183.286 167.11C183.342 167.145 183.418 167.15 183.478 167.11C183.629 167.014 187.241 164.745 187.977 162.177C187.997 162.112 187.977 162.041 187.932 161.996C187.881 161.951 187.81 161.935 187.75 161.96C187.095 162.188 185.904 162.45 185.501 162.167C185.405 162.101 185.36 162.006 185.36 161.875C185.36 161.598 186.545 161.128 188.007 160.826C188.083 160.811 188.139 160.751 188.148 160.675L188.385 158.491C188.395 158.395 188.33 158.309 188.234 158.299L188.233 158.298ZM173.476 156.291C173.304 153.653 173.703 153.527 173.708 153.522H173.718C173.794 153.522 174.005 153.713 174.187 154.117C174.404 154.596 174.954 155.489 175.489 155.433C175.741 155.408 175.918 155.201 176.013 154.813C176.145 154.283 175.882 153.773 175.58 153.184C175.201 152.442 174.767 151.605 175.005 150.485C175.353 148.846 176.115 147.56 176.609 147.384C176.709 147.348 176.755 147.373 176.79 147.403C176.881 147.479 177.022 147.58 177.194 147.711C177.844 148.196 179.574 149.481 179.387 150.057C179.302 150.329 178.968 150.546 178.646 150.753C178.126 151.095 177.476 151.519 177.96 152.296C178.202 152.689 178.58 152.87 179.034 152.825C179.493 152.774 179.957 152.508 180.26 152.23C180.3 153.193 180.366 155.382 180.24 156.623C179.912 156.607 179.256 156.612 178.928 156.92C178.787 157.051 178.716 157.228 178.732 157.43C178.772 158.136 179.554 158.479 179.917 158.6C179.705 159.23 178.853 161.465 177.244 162.847C177.244 162.847 177.242 162.848 177.242 162.848C177.26 161.545 177.313 157.197 177.236 154.273C177.233 154.176 177.162 154.1 177.055 154.102C176.957 154.104 176.881 154.186 176.883 154.283C176.96 157.189 176.909 161.507 176.89 162.83C176.067 162.023 173.684 159.436 173.476 156.29L173.476 156.291ZM171.746 168.35C172.018 168.073 172.533 167.492 172.482 167.044C172.462 166.867 172.366 166.725 172.195 166.63C171.519 166.247 170.616 167.003 170.329 167.265C169.744 167.003 166.889 165.646 165.729 163.735C166.284 163.694 167.363 163.563 167.686 163.165C167.771 163.059 167.807 162.933 167.787 162.807C167.665 162.111 165.709 161.98 164.937 161.954L164.261 160.184C164.896 159.983 167.282 159.387 169.713 160.916C172.275 162.53 172.703 163.206 172.759 163.317C172.794 163.755 172.961 165.581 173.631 165.899C173.803 165.98 173.934 165.949 174.01 165.909C174.252 165.788 174.322 165.43 174.382 165.087C174.408 164.966 174.438 164.799 174.473 164.714C174.887 165.092 176.491 168.224 175.871 170.912V170.917C175.871 170.917 175.869 170.921 175.869 170.923C175.341 169.341 174.495 167.894 173.378 166.712C172.342 165.615 171.097 164.595 169.675 163.678C169.594 163.625 169.484 163.649 169.431 163.731C169.379 163.812 169.402 163.922 169.484 163.975C170.881 164.876 172.104 165.878 173.12 166.954C174.205 168.103 175.029 169.509 175.542 171.048L171.744 168.35H171.746ZM182.393 182.96H172.039L171.535 175.184H182.898L182.394 182.96H182.393ZM183.865 173.095V174.518C183.865 174.69 183.729 174.831 183.558 174.831H170.873C170.701 174.831 170.565 174.69 170.565 174.518V173.095C170.565 172.929 170.701 172.788 170.873 172.788H183.558C183.729 172.788 183.865 172.929 183.865 173.095ZM187.809 160.507C186.71 160.743 185.005 161.208 185.005 161.868V161.873C185.005 162.12 185.106 162.322 185.293 162.453C185.822 162.821 186.952 162.564 187.527 162.398C186.71 164.491 183.931 166.392 183.382 166.75C183.054 166.548 182.015 165.978 181.42 166.488C181.274 166.614 181.208 166.771 181.224 166.947C181.259 167.401 181.879 167.87 182.202 168.087L178.98 171.5C179.105 169.863 179.564 168.28 180.355 166.891C181.087 165.604 182.039 164.34 183.183 163.133C183.25 163.062 183.247 162.95 183.176 162.883C183.105 162.816 182.993 162.819 182.927 162.89C181.763 164.118 180.795 165.405 180.049 166.716C179.25 168.121 178.778 169.716 178.637 171.367C178.635 171.363 178.633 171.359 178.632 171.356C177.542 168.854 178.48 165.521 178.818 165.051C178.864 165.132 178.929 165.289 178.975 165.399C179.106 165.727 179.242 166.06 179.504 166.136C179.585 166.161 179.721 166.166 179.872 166.05C180.467 165.611 180.281 163.786 180.22 163.347C180.256 163.226 180.543 162.479 182.747 160.401C184.749 158.505 187.216 158.555 188.018 158.626L187.811 160.507L187.809 160.507Z" fill="#231F20"/>
<path d="M169.85 126.836C169.85 121.822 165.77 117.742 160.757 117.742H136.699L142.782 103.186C143.029 102.586 142.968 101.906 142.61 101.361C142.252 100.821 141.651 100.493 141.001 100.483L120.424 100.296C119.505 98.9396 117.882 98.163 116.202 98.3648H106.962C111.451 97.3207 119.713 88.6059 122.708 85.3019C122.708 85.2971 122.708 85.2917 122.713 85.2917C122.975 84.8982 122.92 84.3837 122.784 83.9198C122.92 83.7836 123.061 83.6427 123.212 83.5011C124.276 83.1029 126.193 81.7057 127.247 80.8984C127.6 80.6261 127.933 80.3134 128.246 79.9651V79.9603C129.814 78.1649 130.339 76.9895 129.814 76.4702C129.653 76.3135 129.476 76.2382 129.3 76.2382C129.446 75.855 129.592 75.2947 129.32 75.0074C129.199 74.8863 128.997 74.7802 128.654 74.8609C128.82 73.9175 128.397 73.6656 128.25 73.6102C127.998 73.509 127.706 73.6204 127.58 73.8723C127.489 74.0488 127.176 74.4675 126.869 74.8555C127.05 73.9982 127.111 72.9288 126.884 72.7372C126.601 72.495 126.369 72.5053 126.223 72.5559C125.794 72.6968 125.633 73.3379 125.618 73.4084C125.265 74.8507 123.59 76.4599 122.874 77.0949C122.914 75.7635 122.253 74.1091 121.3 73.862C121.144 73.8217 120.988 73.8518 120.856 73.9476C120.316 74.3362 120.155 75.8038 120.019 77.5384C119.948 78.4005 119.983 78.8445 119.111 80.3525C118.581 80.3881 119.706 79.8531 104.595 89.4259L96.6215 85.5573H96.6167C94.655 84.4223 92.3849 83.6812 90.0099 83.3938V80.1561C92.3096 79.8483 94.2514 77.8565 95.149 75.1128C95.4015 75.2188 95.6636 75.2791 95.9359 75.2791C97.4541 75.2791 98.6898 73.4885 98.6898 71.2846C98.6898 69.3278 97.7216 67.7035 96.4402 67.3559C96.8288 63.1295 94.0495 58.5603 85.3341 59.4526C76.2005 60.3906 78.1019 73.8163 79.0599 78.5475C79.2515 79.5055 80.0937 80.1869 81.0673 80.1869H83.367V82.7643L83.1453 82.7438C82.7874 82.7992 74.3093 84.1156 72.1302 86.496C71.2325 87.4744 70.6577 89.3909 70.3046 91.8575L69.1093 98.3636H54.004C51.5477 98.6612 49.7879 100.901 50.0849 103.362L51.8146 117.741H48.7432C43.7251 117.741 39.6445 121.821 39.6445 126.834C39.6445 131.848 43.6287 135.837 48.5666 135.933V168.176C48.5666 169.195 49.3938 170.027 50.4174 170.027H53.4991V174.249C53.4991 174.349 53.575 174.425 53.6756 174.425H59.5763C59.6769 174.425 59.7528 174.35 59.7528 174.249V170.027H70.5462V174.249C70.5462 174.349 70.627 174.425 70.7228 174.425H76.6289C76.7247 174.425 76.8054 174.35 76.8054 174.249V170.027H84.5117C85.5305 170.027 86.3625 169.195 86.3625 168.176V168.116C86.9174 169.245 88.0772 170.022 89.4189 170.022C93.232 170.022 103.006 170.022 112.67 170.027L114.107 174.601C114.496 175.877 115.439 176.845 116.619 177.3L116.992 179.751H116.896C116.477 179.751 116.12 180.049 116.044 180.452C115.938 181.027 115.585 183.009 115.565 184.341C115.544 185.274 115.701 186.056 116.009 186.686C115.747 186.812 115.56 187.08 115.56 187.392V188.139C115.56 188.346 115.732 188.512 115.938 188.512H118.854C118.904 188.512 118.96 188.507 119.01 188.491L120.725 187.962C120.77 187.947 120.81 187.952 120.851 187.967L122.242 188.597C122.313 188.627 122.389 188.642 122.464 188.642C132.501 188.587 132.138 188.758 132.359 188.511H133.308C133.358 188.511 133.414 188.506 133.464 188.49L135.184 187.961C135.224 187.946 135.269 187.95 135.31 187.965L136.701 188.596C136.772 188.626 136.842 188.641 136.918 188.641H146.536C146.743 188.641 146.915 188.47 146.915 188.262V187.183C146.915 186.962 146.789 186.78 146.607 186.679C146.622 185.262 145.739 184.152 144.014 184.127C143.712 184.122 143.384 184.052 143.036 183.915C142.143 183.567 141.225 182.841 140.443 182.084C139.661 181.327 139.016 180.541 138.653 180.082C138.486 179.87 138.239 179.749 137.972 179.749H137.78L137.347 177.485C137.911 177.248 138.194 176.678 138.113 176.128L137.856 174.423H140.811C140.911 174.423 140.987 174.348 140.987 174.246V170.025H151.78V174.246C151.78 174.347 151.856 174.423 151.957 174.423H157.857C157.958 174.423 158.034 174.348 158.034 174.246V170.025H159.078C160.097 170.025 160.929 169.193 160.929 168.174V135.931C165.861 135.835 169.845 131.79 169.845 126.832L169.85 126.836ZM158.194 118.095C158.149 118.11 158.098 118.121 158.053 118.141C154.503 119.119 151.693 122.539 151.613 126.699V141.972C151.325 141.608 150.876 141.376 150.377 141.376H131.615L130.007 132.903C129.719 130.941 128.68 129.257 127.197 128.122H133.386C134.526 128.122 135.454 127.194 135.454 126.054C135.454 125.146 134.858 124.38 134.037 124.108L136.548 118.095H158.195H158.194ZM151.613 142.97V149.486C151.613 150.172 151.058 150.727 150.377 150.727H133.391L131.681 141.729H150.377C151.058 141.729 151.613 142.284 151.613 142.971V142.97ZM141.001 100.837C141.54 100.847 142.019 101.109 142.317 101.558C142.61 102.007 142.665 102.551 142.453 103.051L133.703 123.992H97.233L98.0247 122.07C99.1748 122.388 100.299 122.549 101.222 122.549C102.281 122.549 103.083 122.347 103.396 121.964C103.587 121.727 103.689 121.339 103.234 120.789C103.784 120.779 104.112 120.643 104.223 120.376C104.389 119.962 103.951 119.427 103.628 119.105C104.238 118.988 104.571 118.777 104.642 118.454C104.742 117.995 104.228 117.495 103.814 117.178C104.959 117.103 105.63 116.789 105.635 116.3C105.645 115.523 103.961 114.913 101.429 114.726C102.286 114.358 102.679 113.818 102.614 113.37C102.573 113.092 102.346 112.83 101.867 112.714L106.114 102.395C106.583 101.265 107.673 100.544 108.893 100.544H108.929L141.001 100.837ZM100.385 115.024C103.855 115.12 105.283 115.892 105.283 116.295C105.283 116.507 104.738 116.84 103.286 116.84L100.865 116.29C100.769 116.264 100.678 116.325 100.653 116.421C100.633 116.517 100.693 116.608 100.789 116.633L103.199 117.183C103.704 117.496 104.369 118.061 104.294 118.379C104.224 118.717 103.26 118.792 103.21 118.808C103.149 118.773 103.341 118.833 100.723 118.227C100.623 118.207 100.532 118.268 100.511 118.363C100.486 118.459 100.547 118.55 100.642 118.576C102.044 118.888 103.043 119.141 103.139 119.13C103.507 119.443 103.992 120.003 103.896 120.24C103.871 120.3 103.719 120.493 102.826 120.427L100.431 119.852C100.335 119.832 100.244 119.888 100.219 119.984C100.198 120.079 100.254 120.175 100.35 120.196L102.716 120.761C103.033 121.058 103.351 121.457 103.119 121.744C102.398 122.642 97.5511 122.278 94.3134 119.974C94.273 119.949 94.6008 120.049 89.5828 118.607C90.2232 116.983 91.4336 115.742 93.2344 114.834L101.006 113.029C101.823 112.943 102.227 113.165 102.267 113.422C102.318 113.77 101.748 114.411 100.361 114.678C100.27 114.693 100.21 114.773 100.22 114.864C100.225 114.955 100.301 115.026 100.386 115.026L100.385 115.024ZM89.6376 120.834C89.9352 121.152 90.3136 121.339 90.6967 121.339C91.4227 121.339 92.0029 120.708 92.5933 119.835L94.1315 120.274C95.2105 121.04 96.4564 121.595 97.6819 121.974L96.8498 123.991H85.9155C84.69 120.254 81.2402 117.742 77.2253 117.742H71.274C71.0776 115.775 70.8704 113.48 70.689 111.03C75.3745 113.768 84.493 118 89.6376 120.834ZM116.222 98.7179C117.74 98.5311 119.132 99.1872 119.989 100.292L108.929 100.191H108.893C107.532 100.191 106.316 100.998 105.786 102.259L101.509 112.663C101.343 112.653 101.167 112.653 100.96 112.674C100.95 112.674 100.945 112.679 100.935 112.679L100.354 112.815C100.077 107.781 99.7797 102.97 99.4616 98.7179H116.221H116.222ZM99.4369 98.3654C99.361 97.3665 99.2857 96.4086 99.2049 95.4808C101.071 96.414 104.511 98.0527 106.15 98.3654H99.4369ZM120.373 77.5655C120.459 76.4406 120.61 74.5597 121.064 74.2368C121.109 74.2012 121.155 74.1916 121.215 74.2067C122.012 74.4133 122.698 76.1834 122.486 77.4799C122.486 77.4847 122.481 77.4847 122.481 77.4902C122.481 77.5052 122.294 78.8319 121.79 79.4422C121.73 79.5181 121.739 79.629 121.815 79.6892C121.891 79.7501 122.002 79.7398 122.062 79.6639C122.567 79.0584 122.773 77.9089 122.824 77.6113C123.202 77.2938 125.512 75.3267 125.961 73.4957C126.001 73.324 126.142 72.9559 126.334 72.8902C126.425 72.8601 126.53 72.9005 126.642 72.986C126.768 73.2234 126.601 75.1146 126.248 75.6394C126.193 75.7201 126.213 75.8261 126.289 75.8815C126.365 75.937 126.47 75.9219 126.531 75.8514L126.647 75.705C127.187 75.0345 127.757 74.3133 127.893 74.0307C128.034 73.7584 128.538 73.9651 128.246 75.0646C128.14 75.2158 127.495 76.0936 126.743 76.7341C126.673 76.7943 126.662 76.9058 126.723 76.9811C126.788 77.0564 126.899 77.0618 126.975 77.0016C127.752 76.3406 128.392 75.4634 128.528 75.2767C128.781 75.1658 128.972 75.1604 129.063 75.2562C129.224 75.4176 129.022 76.0533 128.82 76.4364C128.75 76.5172 127.857 77.5161 127.232 77.9999C127.156 78.0601 127.141 78.1716 127.201 78.2469C127.262 78.3276 127.373 78.3427 127.448 78.2818C128.109 77.7673 129.007 76.7588 129.088 76.663C129.254 76.5521 129.411 76.572 129.567 76.7238C129.91 77.0618 129.305 78.2119 127.983 79.7296C127.685 80.0627 127.362 80.3598 127.03 80.6224C125.981 81.4195 124.069 82.8167 123.055 83.1848C123.03 83.195 123.01 83.2053 122.995 83.2197C122.405 83.7794 121.719 84.4807 121.2 85.1061C120.513 84.7127 119.147 83.0685 118.764 81.5955C120.372 79.1795 120.307 78.383 120.372 77.5655H120.373ZM96.401 67.7107C97.5053 68.0385 98.338 69.5164 98.338 71.2864C98.338 73.2939 97.2637 74.9278 95.9371 74.9278C95.7003 74.9278 95.4732 74.8724 95.2563 74.7766C95.5334 73.8132 95.6949 72.7691 95.6949 71.675C95.6949 71.2262 95.6593 70.7876 95.6093 70.3586C96.0028 69.5417 96.2799 68.6386 96.401 67.7107ZM95.3418 71.675C95.3418 72.7041 95.1954 73.6873 94.9382 74.5953C94.111 74.0205 93.5362 72.7541 93.5362 71.2864C93.5362 70.7316 93.6218 70.2074 93.7682 69.7333C93.7983 69.7634 93.8387 69.7839 93.8844 69.7839C93.9302 69.7839 93.9754 69.7634 94.0104 69.7333C94.0302 69.708 94.5249 69.2236 95.1051 69.4356C95.2563 70.1568 95.3418 70.9033 95.3418 71.675ZM94.7466 68.124C94.8526 68.4265 94.9484 68.7343 95.0237 69.0518C94.5749 68.9663 94.1616 69.1579 93.9043 69.3543C94.1164 68.8446 94.4038 68.4211 94.7466 68.1234V68.124ZM93.2283 65.4412C93.8031 66.1069 94.2622 66.904 94.6104 67.7812C93.8893 68.356 93.3699 69.3898 93.2235 70.6105L91.4384 70.5448C91.4083 69.5411 91.1257 68.6331 90.6768 67.9523C91.8119 67.1402 92.6337 66.2576 93.2289 65.4406L93.2283 65.4412ZM86.3342 70.0152C87.9886 69.5212 89.3146 68.8651 90.3895 68.1439C90.8233 68.8048 91.0907 69.7128 91.0907 70.7159C91.0907 72.7234 90.0117 74.3573 88.6899 74.3573C87.368 74.3573 86.289 72.7234 86.289 70.7159C86.289 70.4737 86.3041 70.2417 86.3342 70.0146V70.0152ZM83.0862 74.4537C81.7096 74.4537 80.595 73.5963 80.595 72.542C80.595 71.7853 81.1752 71.0997 82.0325 70.8021C82.7085 70.7412 83.7321 70.6105 84.5948 70.4388C85.0485 70.3478 85.5178 70.2369 85.9715 70.1158C85.951 70.3074 85.9359 70.5093 85.9359 70.7159C85.9359 72.9149 87.1716 74.7103 88.6899 74.7103C90.2081 74.7103 91.3733 73.0156 91.4384 70.8972L93.1934 70.9629C93.1886 71.069 93.1832 71.175 93.1832 71.2858C93.1832 72.9198 93.864 74.3272 94.8376 74.9477C93.9146 77.8276 91.8216 79.8446 89.3857 79.8446C86.9499 79.8446 84.675 77.7113 83.8026 74.5386C83.7827 74.4579 83.7116 74.4073 83.6363 74.4073C83.6363 74.4073 83.3838 74.4525 83.0868 74.4525L83.0862 74.4537ZM89.6581 80.1832V83.5372L89.6074 87.2744H85.2955L83.7218 82.8914V75.4321C84.7708 78.3168 86.9698 80.2031 89.3857 80.2031C89.4767 80.2031 89.5671 80.1881 89.6581 80.1826V80.1832ZM70.9764 90.1747C70.9812 90.1494 70.9764 90.1296 70.9764 90.1043C71.3096 88.5914 71.7681 87.416 72.3934 86.7352C74.4865 84.4452 83.1157 83.1041 83.1561 83.0938L83.4236 83.1191L85.0124 87.5275C85.2088 88.0823 85.0075 87.5124 89.355 99.8385C89.3803 99.909 89.446 99.9548 89.5213 99.9548H89.5514C89.5562 99.9548 89.5617 99.9445 89.5665 99.9445C89.5815 99.9493 89.5918 99.9548 89.6068 99.9548H89.637C89.7225 99.9397 89.7834 99.8692 89.7834 99.7831C89.9448 88.0872 89.99 84.7633 90.0003 83.9668C90.0051 83.9264 90.0051 83.8608 90.0051 83.7499C92.3807 84.0475 94.6502 84.794 96.592 85.949H96.6173L104.531 89.7922C104.586 89.8175 104.652 89.8127 104.703 89.7819L118.345 81.0972C118.34 81.284 118.381 81.531 118.426 81.7027L118.436 81.7479C118.9 83.518 120.812 85.485 121.169 85.485C121.286 85.5254 121.533 85.6664 121.901 85.6664C119.667 88.0974 111.057 97.2159 106.73 98.0534C105.626 98.2654 100.173 95.6019 98.1608 94.5584C98.0753 94.5132 97.9692 94.5433 97.9241 94.6343C97.8789 94.7198 97.9138 94.8259 98 94.8711C98.1259 94.9367 98.4235 95.088 98.8374 95.2946C99.3067 101.019 99.6345 106.224 100.007 112.897L93.6175 114.39L77.7302 105.316C78.0634 103.899 79.7828 96.611 80.116 95.1886C80.1413 95.0928 80.0805 94.997 79.9847 94.9765C79.8889 94.9512 79.7931 95.012 79.7726 95.1078C79.3593 96.8526 77.826 103.374 77.4121 105.119L76.121 104.302C76.0402 104.252 75.9294 104.277 75.874 104.358C75.8234 104.438 75.8487 104.549 75.9294 104.6L77.4374 105.553H77.4422L93.1127 114.505C91.2263 115.454 88.7296 117.602 89.073 119.645V119.65C89.1237 119.927 89.214 120.159 89.2345 120.215C84.0954 117.426 74.7594 113.073 70.427 110.466C68.778 109.472 67.8749 107.596 68.1273 105.695L68.1321 105.654V105.649C68.1353 105.646 68.1369 105.642 68.1369 105.639V105.629C68.1418 105.619 68.1418 105.608 68.1472 105.589V105.573C68.152 105.558 68.1574 105.543 68.1574 105.523V105.513C68.1622 105.508 68.1622 105.502 68.1622 105.498V105.493C68.1671 105.488 68.1671 105.483 68.1671 105.483V105.472C68.3135 104.69 68.9033 101.457 70.9764 90.1753V90.1747ZM69.0497 98.7179L67.7785 105.638C67.5061 107.691 68.4743 109.703 70.245 110.767C70.2601 110.778 70.2806 110.788 70.3004 110.798C70.4872 113.335 70.6987 115.71 70.9059 117.742H60.8644L59.0082 102.294C58.8064 100.776 57.949 99.465 56.3651 98.7185H69.0497V98.7179ZM50.4343 103.323C50.162 101.054 51.7857 98.9908 54.0504 98.7185C56.2946 98.4462 58.378 100.035 58.6551 102.335L60.5059 117.742H52.1688L50.4337 103.323L50.4343 103.323ZM39.9994 126.836C39.9994 122.014 43.9233 118.095 48.745 118.095H74.7088C70.8758 119.2 68.1267 122.751 68.1267 126.836C68.1267 130.92 70.936 134.497 74.7491 135.581H48.745C43.9233 135.581 39.9994 131.657 39.9994 126.836ZM56.4464 174.073H53.854V170.028H56.4464V174.073ZM59.407 174.073H56.7995V170.028H59.407V174.073ZM73.4936 174.073H70.9011V170.028H73.4936V174.073ZM76.4541 174.073H73.8466V170.028H76.4541V174.073ZM50.4193 169.675C49.5921 169.675 48.9215 169.005 48.9215 168.178V135.934H77.0494V168.178C77.0494 168.778 77.382 169.363 77.8109 169.675H50.4193ZM86.0113 168.178C86.0113 169.005 85.3407 169.675 84.5135 169.675H78.9002C78.073 169.675 77.4024 169.005 77.4024 168.178V135.758C77.4024 135.662 77.3217 135.581 77.2259 135.581C72.4043 135.581 68.4803 131.657 68.4803 126.836C68.4803 122.014 72.4043 118.095 77.2259 118.095C82.0475 118.095 85.9209 121.878 86.0119 126.705V168.178H86.0113ZM86.2233 125.232C86.1679 124.929 86.1022 124.632 86.0215 124.344H98.3229C99.2658 124.344 100.033 125.111 100.033 126.054C100.033 126.998 99.2664 127.769 98.3229 127.769H86.3649V126.876H87.2831C87.7368 126.876 88.1055 126.508 88.1055 126.054C88.1055 125.6 87.7374 125.232 87.2831 125.232H86.2239H86.2233ZM86.3643 142.189V141.77C86.4806 141.77 86.5963 141.77 86.7071 141.775H86.7222C86.5812 141.896 86.4547 142.032 86.3643 142.189ZM87.4186 141.78C95.675 141.871 102.826 141.972 103.86 141.987L106.609 150.727H87.7512C87.0656 150.727 86.5107 150.173 86.5107 149.487V142.971C86.5107 142.401 86.8939 141.926 87.4186 141.78ZM89.4207 169.671C87.7362 169.671 86.3643 168.304 86.3643 166.619V150.268C86.6414 150.752 87.156 151.08 87.7512 151.08H106.72L112.56 169.671H89.4201H89.4207ZM114.446 174.497L104.158 141.76C104.137 141.689 104.072 141.638 103.992 141.638C103.891 141.634 95.6901 141.513 86.3643 141.417V128.122H112.132C113.751 129.196 114.901 130.921 115.203 132.964L123.167 175.269L123.303 176.187C123.388 176.742 122.955 177.236 122.405 177.241H118.149C116.515 177.241 114.966 176.197 114.446 174.498V174.497ZM120.403 151.08H121.175L127.015 169.671H122.441C120.781 160.799 119.646 154.721 118.87 150.581C118.94 150.506 119.011 150.424 119.067 150.339C119.344 150.783 119.839 151.08 120.403 151.08V151.08ZM119.253 149.93C119.293 149.789 119.314 149.638 119.314 149.486V145.164L121.064 150.727H120.403C119.878 150.727 119.43 150.395 119.253 149.93ZM122.894 177.488C123.454 177.252 123.737 176.682 123.651 176.132C123.247 173.963 122.864 171.935 122.506 170.029H127.126L128.564 174.604C128.952 175.88 129.895 176.848 131.08 177.302L131.453 179.754H131.353C130.934 179.754 130.581 180.051 130.505 180.455C130.399 181.01 130.077 182.85 130.027 184.172C129.875 184.152 129.724 184.132 129.563 184.132C129.26 184.127 128.927 184.057 128.584 183.92C127.691 183.572 126.774 182.846 125.992 182.089C125.21 181.332 124.564 180.546 124.201 180.087C124.035 179.875 123.788 179.754 123.52 179.754H123.329L122.895 177.49L122.894 177.488ZM122.965 179.752H117.352L116.999 177.432C117.332 177.528 117.776 177.594 118.149 177.594H122.401C122.452 177.594 122.502 177.594 122.552 177.584L122.966 179.752H122.965ZM118.961 149.486C118.961 149.723 118.895 149.935 118.784 150.117C117.856 145.169 117.473 143.121 117.332 142.364V142.344C117.327 142.334 117.327 142.329 117.327 142.319C117.322 142.314 117.322 142.304 117.322 142.293C117.317 142.283 117.317 142.273 117.312 142.263V142.243C117.307 142.223 117.307 142.202 117.302 142.187C117.297 142.177 117.297 142.172 117.297 142.162C117.287 142.122 117.282 142.076 117.267 142.016C117.267 142.005 117.267 142.001 117.262 141.995V141.97C117.772 141.98 118.14 141.985 118.316 141.985L118.961 144.038V149.485L118.961 149.486ZM116.353 186.607C116.03 185.986 115.919 185.184 115.924 184.488C116.06 184.463 116.201 184.448 116.348 184.448C117.579 184.448 118.613 185.401 118.738 186.607H116.353H116.353ZM119.082 186.607C118.956 185.21 117.77 184.095 116.348 184.095C116.207 184.095 116.066 184.11 115.925 184.131C115.98 182.84 116.293 181.059 116.394 180.519C116.439 180.283 116.651 180.106 116.899 180.106H123.52C123.677 180.106 123.823 180.177 123.924 180.303C124.05 180.465 124.211 180.666 124.403 180.888L123.782 181.609C123.717 181.685 123.727 181.796 123.803 181.862C123.873 181.923 123.984 181.917 124.05 181.841L124.635 181.16C124.786 181.337 124.952 181.518 125.129 181.71L124.499 182.446C124.433 182.517 124.443 182.627 124.519 182.693C124.59 182.754 124.701 182.749 124.766 182.673L125.372 181.967C125.533 182.129 125.7 182.295 125.871 182.456L125.246 183.188C125.185 183.258 125.195 183.369 125.266 183.435C125.342 183.495 125.452 183.49 125.518 183.414L126.133 182.698C126.3 182.844 126.466 182.99 126.638 183.132L126.032 183.838C125.972 183.914 125.977 184.025 126.052 184.085C126.122 184.151 126.239 184.14 126.299 184.07L126.92 183.349C127.368 183.691 127.838 183.984 128.306 184.186C128.215 184.473 128.16 184.771 128.16 185.079C128.16 185.624 128.311 186.143 128.584 186.607H119.082V186.607ZM128.992 186.607C128.679 186.153 128.513 185.628 128.513 185.078C128.513 184.816 128.553 184.559 128.629 184.312C128.897 184.403 129.265 184.478 129.552 184.484C131.02 184.504 131.762 185.361 131.797 186.607H128.993H128.992ZM143.084 184.312C143.352 184.403 143.72 184.478 144.012 184.484C145.475 184.504 146.216 185.361 146.256 186.607H143.447C143.134 186.158 142.973 185.628 142.973 185.078C142.973 184.816 143.008 184.554 143.083 184.312H143.084ZM137.975 180.105C138.136 180.105 138.283 180.176 138.379 180.302C138.505 180.464 138.666 180.666 138.858 180.887L138.237 181.609C138.176 181.684 138.182 181.795 138.257 181.861C138.333 181.922 138.444 181.917 138.504 181.841L139.089 181.16C139.24 181.336 139.406 181.518 139.583 181.709L138.953 182.445C138.893 182.516 138.897 182.627 138.973 182.693C139.044 182.753 139.16 182.748 139.22 182.673L139.831 181.967C139.987 182.128 140.154 182.294 140.33 182.456L139.705 183.187C139.639 183.258 139.649 183.368 139.725 183.434C139.796 183.494 139.907 183.49 139.972 183.414L140.587 182.697C140.754 182.844 140.925 182.99 141.097 183.131L140.492 183.837C140.426 183.913 140.436 184.024 140.507 184.084C140.582 184.15 140.693 184.14 140.759 184.069L141.374 183.348C141.828 183.691 142.297 183.984 142.766 184.185C142.675 184.473 142.62 184.77 142.62 185.078C142.62 185.623 142.766 186.142 143.038 186.607H132.154C132.129 185.492 131.565 184.554 130.379 184.246C130.415 182.945 130.747 181.074 130.848 180.519C130.893 180.283 131.105 180.106 131.352 180.106H137.974L137.975 180.105ZM137.425 179.752H131.806L131.453 177.432C131.786 177.528 132.22 177.594 132.598 177.594H136.854C136.91 177.594 136.96 177.594 137.01 177.584L137.424 179.752H137.425ZM136.87 177.241H132.603C130.944 177.241 129.411 176.171 128.902 174.497L118.613 141.76C118.593 141.689 118.522 141.638 118.446 141.638C118.426 141.634 117.972 141.628 117.191 141.618L115.551 132.902C115.259 130.941 114.215 129.256 112.732 128.121H126.591C128.21 129.195 129.355 130.92 129.658 132.963L137.415 173.816L137.763 176.182C137.848 176.747 137.415 177.23 136.87 177.241ZM137.052 170.028H137.682V173.357L137.052 170.028ZM140.638 174.073H138.03V170.028H140.638V174.073ZM136.981 169.671L133.455 151.08C137.465 151.08 132.209 151.08 150.376 151.08C150.876 151.08 151.325 150.848 151.612 150.485V166.619C151.612 168.304 150.24 169.671 148.556 169.671H136.981ZM150.049 169.675C150.729 169.348 151.28 168.798 151.612 168.122V168.178C151.612 168.576 151.753 168.954 151.93 169.211C151.93 169.211 151.93 169.216 151.934 169.216C152.071 169.403 152.192 169.534 152.378 169.675H150.048H150.049ZM154.729 174.073H152.137V170.028H154.729V174.073ZM157.69 174.073H155.082V170.028H157.69V174.073ZM160.757 135.581C160.656 135.581 160.58 135.662 160.58 135.758V168.178C160.58 169.005 159.909 169.675 159.082 169.675H153.464C152.641 169.675 151.966 169.005 151.966 168.178V126.705C152.051 121.888 155.92 118.095 160.757 118.095C165.593 118.095 169.502 122.015 169.502 126.836C169.502 131.657 165.578 135.581 160.757 135.581Z" fill="#231F20"/>
<path d="M160.751 121.953C158.099 121.953 155.935 124.117 155.935 126.77C155.935 129.423 158.098 131.592 160.751 131.592C163.405 131.592 165.573 129.428 165.573 126.77C165.573 124.112 163.41 121.953 160.751 121.953Z" fill="#231F20"/>
<path d="M91.7463 74.5985C91.8836 74.554 92.0445 74.5744 92.215 74.5961L92.3445 74.6118C92.4048 74.6178 92.462 74.6214 92.5156 74.6214C92.7837 74.6214 92.988 74.5461 93.1253 74.3955C93.4199 74.0714 93.2561 73.5858 93.1778 73.3526C92.997 72.817 92.8392 72.2639 92.7096 71.7103C92.6873 71.6157 92.5946 71.5566 92.4976 71.5789C92.4024 71.6012 92.3439 71.6964 92.3662 71.791C92.4994 72.3561 92.6596 72.9194 92.8434 73.4659C92.9307 73.7243 93.0012 74.0087 92.8645 74.1581C92.7584 74.2744 92.5433 74.2792 92.3819 74.2618L92.2596 74.2473C92.0674 74.2226 91.8487 74.1949 91.6366 74.2642C91.5438 74.2943 91.4932 74.3937 91.5233 74.4871C91.5541 74.5799 91.6541 74.6311 91.7463 74.5998V74.5985Z" fill="#3C4150"/>
<path d="M91.9674 77.1309C92.074 77.1321 92.1542 77.0544 92.1536 76.9538C92.1536 76.8568 92.074 76.7779 91.977 76.7779C91.2619 76.7767 90.5721 76.4773 90.0925 75.9664C90.0262 75.8947 89.9148 75.891 89.8431 75.9585C89.7714 76.0254 89.7684 76.1369 89.8352 76.2079C90.3775 76.7869 91.1739 77.1315 91.9674 77.1315V77.1309Z" fill="#3C4150"/>
<path d="M89.9432 71.25C89.7065 71.25 89.5137 71.5542 89.5137 71.926C89.5137 72.2977 89.7065 72.602 89.9432 72.602C90.18 72.602 90.368 72.2977 90.368 71.926C90.368 71.5542 90.1752 71.25 89.9432 71.25Z" fill="#3C4150"/>
<path d="M94.4218 71.4844C94.185 71.4844 93.9922 71.7886 93.9922 72.1604C93.9922 72.5321 94.1856 72.8363 94.4218 72.8363C94.6579 72.8363 94.8465 72.5321 94.8465 72.1604C94.8465 71.7886 94.6537 71.4844 94.4218 71.4844Z" fill="#3C4150"/>
<path d="M88.4825 70.1422C88.5283 70.1422 88.5741 70.1247 88.6084 70.0891C88.641 70.056 89.4187 69.2806 90.2622 69.9072C90.3405 69.965 90.4502 69.95 90.5092 69.871C90.5671 69.7927 90.5508 69.6825 90.4731 69.624C89.6013 68.9764 88.7078 69.4837 88.356 69.8415C88.2879 69.9108 88.2891 70.0229 88.3584 70.0909C88.3927 70.1247 88.4373 70.1416 88.4819 70.1416L88.4825 70.1422Z" fill="#3C4150"/>
<path d="M120.837 115.293C122.176 115.293 123.554 114.196 123.909 112.848C124.287 111.414 123.396 110.312 122.057 110.312C120.719 110.312 119.344 111.41 118.988 112.757C118.612 114.188 119.499 115.293 120.837 115.293V115.293Z" fill="#231F20"/>
<path d="M77.7143 121.953C75.0616 121.953 72.8975 124.117 72.8975 126.77C72.8975 129.423 75.061 131.592 77.7143 131.592C80.3676 131.592 82.5311 129.428 82.5311 126.77C82.5311 124.112 80.3724 121.953 77.7143 121.953Z" fill="#231F20"/>
<path d="M8.86989 49.4622H30.9808V54.5459C30.9808 54.6465 31.0567 54.7224 31.1574 54.7224H61.2572C61.3578 54.7224 61.4337 54.6471 61.4337 54.5459V49.4622H83.5446C83.6404 49.4622 83.7212 49.3869 83.7212 49.2857V19.3118C83.7212 19.216 83.6404 19.1352 83.5446 19.1352H61.4337V14.0515C61.4337 13.9557 61.3578 13.875 61.2572 13.875H31.1574C31.0567 13.875 30.9808 13.9557 30.9808 14.0515V19.1352H8.86989C8.77409 19.1352 8.69336 19.216 8.69336 19.3118V49.2857C8.69336 49.3863 8.77409 49.4622 8.86989 49.4622ZM83.3681 19.4889V49.1097H61.4337V19.4889H83.3681ZM31.3339 14.2281H61.0806V54.3694H31.3339V14.2281ZM9.04641 19.4889H30.9808V49.1097H9.04641V19.4889Z" fill="#231F20"/>
<path d="M41.2146 42.2404H51.2007C51.3013 42.2404 51.3772 42.1597 51.3772 42.0639V26.5398C51.3772 26.444 51.3013 26.3633 51.2007 26.3633H41.2146C41.114 26.3633 41.0381 26.444 41.0381 26.5398V42.0639C41.0381 42.1597 41.114 42.2404 41.2146 42.2404ZM41.3911 26.7163H51.0242V41.8873H41.3911V26.7163Z" fill="#3C4150"/>
<path d="M22.3416 29.4688H17.6863C17.5857 29.4688 17.5098 29.5495 17.5098 29.6453V38.956C17.5098 39.0566 17.5857 39.1325 17.6863 39.1325H22.3416C22.4423 39.1325 22.5182 39.0572 22.5182 38.956V29.6453C22.5182 29.5495 22.4423 29.4688 22.3416 29.4688ZM22.1699 38.7788H17.8628V29.8218H22.1699V38.7788Z" fill="#3C4150"/>
<path d="M70.074 39.1325H74.7293C74.8299 39.1325 74.9059 39.0572 74.9059 38.956V29.6453C74.9059 29.5495 74.8299 29.4688 74.7293 29.4688H70.074C69.9734 29.4688 69.8975 29.5495 69.8975 29.6453V38.956C69.8975 39.0566 69.9734 39.1325 70.074 39.1325ZM70.2505 29.8224H74.5528V38.7794H70.2505V29.8224Z" fill="#3C4150"/>
<path d="M136.709 73.7465H140.602V79.1936C140.602 79.5165 140.779 79.799 141.071 79.94C141.187 79.9955 141.308 80.0208 141.429 80.0208C141.616 80.0208 141.797 79.9551 141.948 79.834L149.382 73.7465H173.097C173.839 73.7465 174.439 73.1465 174.439 72.4048V51.6308C174.439 50.8891 173.839 50.2891 173.097 50.2891H136.708C135.966 50.2891 135.366 50.8891 135.366 51.6308V72.4048C135.366 73.1465 135.966 73.7465 136.708 73.7465H136.709ZM135.72 51.6308C135.72 51.0861 136.164 50.6421 136.709 50.6421H173.098C173.643 50.6421 174.087 51.0861 174.087 51.6308V72.4048C174.087 72.9495 173.643 73.3935 173.098 73.3935H149.323C149.283 73.3935 149.242 73.4086 149.212 73.4339L141.728 79.5568C141.581 79.6779 141.395 79.7033 141.224 79.6225C141.057 79.5418 140.951 79.3803 140.951 79.1936V73.57C140.951 73.4742 140.876 73.3935 140.775 73.3935H136.71C136.165 73.3935 135.721 72.9495 135.721 72.4048V51.6308H135.72Z" fill="#3C4150"/>
<path d="M258.888 47.8047H190.71C190.614 47.8047 190.533 47.8854 190.533 47.9812V52.4245C190.533 52.5203 190.614 52.601 190.71 52.601H192.868V172.284C192.868 172.38 192.949 172.46 193.045 172.46H195.098V176.555C195.098 176.651 195.173 176.732 195.274 176.732H201.463C201.559 176.732 201.639 176.651 201.639 176.555V172.46H209.084V176.555C209.084 176.651 209.159 176.732 209.26 176.732H215.449C215.544 176.732 215.625 176.651 215.625 176.555V172.46H235.805V176.555C235.805 176.651 235.88 176.732 235.981 176.732H242.169C242.265 176.732 242.346 176.651 242.346 176.555V172.46H249.256V176.555C249.256 176.651 249.336 176.732 249.432 176.732H255.626C255.721 176.732 255.802 176.651 255.802 176.555V172.46H257.487C257.582 172.46 257.663 172.38 257.663 172.284V52.601H258.889C258.984 52.601 259.065 52.5203 259.065 52.4245V47.9812C259.065 47.8806 258.984 47.8047 258.889 47.8047H258.888ZM190.886 52.248V48.1577H246.128V52.1775C246.053 52.1775 199.592 52.2371 190.886 52.248ZM193.221 52.601H246.128V172.107H193.221V52.601ZM195.451 172.46H198.926V176.379H195.451V172.46ZM201.286 176.38H199.273V172.461H201.286V176.38ZM209.431 172.46H212.906V176.379H209.431V172.46ZM215.272 176.38H213.259V172.461H215.272V176.38ZM236.157 172.46H239.632V176.379H236.157V172.46ZM241.992 176.38H239.985V172.461H241.992V176.38ZM249.608 172.46H253.083V176.379H249.608V172.46ZM255.448 176.38H253.436V172.461H255.448V176.38ZM257.309 172.107H246.481V52.601H257.309V172.107ZM258.711 52.248C241.951 52.151 247.731 52.1847 246.481 52.1775V48.1577H258.711V52.248Z" fill="#3C4150"/>
<path d="M196.5 81.033H242.845C242.895 81.033 242.941 81.0125 242.971 80.9824C243.006 80.9523 243.026 80.9071 243.026 80.8565V56.5164C243.026 56.4658 243.006 56.4206 242.971 56.3905C242.941 56.3603 242.895 56.3398 242.845 56.3398H196.5C196.404 56.3398 196.323 56.4206 196.323 56.5164V80.8565C196.323 80.9571 196.404 81.033 196.5 81.033ZM221.99 65.8216H228.708V73.0743H221.99V65.8216ZM221.637 73.0743H212.468V65.8216H221.637V73.0743ZM212.468 73.4273H230.7V80.68H212.468V73.4273ZM231.053 80.68V73.4273H238.059V80.68H231.053ZM242.673 80.68H238.411V73.2508C238.411 73.155 238.33 73.0743 238.235 73.0743H229.061V65.6451C229.061 65.5493 228.985 65.4686 228.884 65.4686H212.291C212.195 65.4686 212.12 65.5493 212.12 65.6451V80.68H207.858V56.6929H242.673V80.68ZM196.676 56.6929H207.505V80.68H196.676V56.6929Z" fill="#3C4150"/>
<path d="M196.5 109.471H242.845C242.895 109.471 242.941 109.45 242.971 109.42C243.006 109.39 243.026 109.344 243.026 109.294V84.9539C243.026 84.9286 243.021 84.9033 243.006 84.8834C243.001 84.8629 242.986 84.843 242.971 84.828C242.941 84.7978 242.895 84.7773 242.845 84.7773H196.5C196.404 84.7773 196.323 84.8581 196.323 84.9539V109.294C196.323 109.395 196.404 109.471 196.5 109.471ZM242.673 109.117H207.858V85.1304H242.673V109.117ZM196.676 85.1304H207.505V109.117H196.676V85.1304Z" fill="#3C4150"/>
<path d="M196.5 137.904H242.845C242.895 137.904 242.941 137.884 242.971 137.854C243.006 137.823 243.026 137.778 243.026 137.728V113.387C243.026 113.337 243.006 113.292 242.971 113.262C242.941 113.231 242.895 113.211 242.845 113.211H196.5C196.404 113.211 196.323 113.292 196.323 113.387V137.728C196.323 137.828 196.404 137.904 196.5 137.904ZM231.381 127.04H238.815V129.088H231.381V127.04ZM231.028 129.088H211.711V127.04H231.028V129.088ZM212.468 129.441H230.7V137.551H212.468V129.441ZM231.053 137.55V129.441H238.059V137.55H231.053ZM242.673 137.55H238.411V129.441H238.991C239.087 129.441 239.168 129.36 239.168 129.264V126.863C239.168 126.767 239.087 126.687 238.991 126.687H211.535C211.439 126.687 211.358 126.767 211.358 126.863V129.264C211.358 129.36 211.439 129.441 211.535 129.441H212.12V137.55H207.858V113.563H242.673V137.55ZM196.676 113.564H207.505V137.551H196.676V113.564Z" fill="#3C4150"/>
<path d="M196.5 166.346H242.845C242.945 166.346 243.021 166.266 243.021 166.17V141.83C243.021 141.729 242.945 141.653 242.845 141.653C237.718 141.653 207.579 141.65 196.5 141.648C196.404 141.648 196.323 141.729 196.323 141.825V166.17C196.323 166.266 196.404 166.346 196.5 166.346ZM219.594 151.08H223.573V155.518H219.594V151.08ZM219.417 155.871H223.75C223.85 155.871 223.926 155.796 223.926 155.695V151.08H230.7V165.993H212.468V151.08H219.242V155.695C219.242 155.795 219.322 155.871 219.418 155.871H219.417ZM231.053 165.993V151.08H238.059V165.993H231.053ZM242.673 165.993H238.411V150.903C238.411 150.802 238.33 150.727 238.235 150.727H212.291C212.195 150.727 212.12 150.802 212.12 150.903V165.993H207.858V142.006H242.673V165.993ZM196.676 142.001H207.505V165.993H196.676V142.001Z" fill="#3C4150"/>
<path d="M43.2622 172.916C43.2109 172.916 32.3645 172.916 32.3079 172.916V169.825C32.3079 168.957 31.6066 168.251 30.7396 168.251H23.8099V98.6354C27.8345 98.5697 31.7735 98.2317 34.7546 97.581V107.376C34.225 107.486 33.8316 108.097 33.8316 108.863C33.8316 109.716 34.316 110.376 34.9311 110.376C35.5462 110.376 36.0354 109.715 36.0354 108.863C36.0354 108.097 35.642 107.486 35.1076 107.376V97.5051C38.0682 96.8243 39.9997 95.8308 39.9997 94.4891C39.9997 94.474 39.9949 94.459 39.9949 94.4439L34.422 73.9368C34.4172 73.9115 34.4069 73.8916 34.3864 73.8759C34.1292 72.3173 28.0417 71.4805 22.3019 71.4805C16.5621 71.4805 10.2427 72.3529 10.2024 73.9669V73.982L4.63908 94.4433C4.63908 94.4584 4.63426 94.4734 4.63426 94.4885C4.63426 97.8401 16.2657 98.5046 19.6287 98.6089V168.25H12.699C11.8315 168.25 11.1308 168.956 11.1308 169.824V172.915C11.0742 172.915 0.227134 172.915 0.176526 172.915C0.0807321 172.915 0 172.996 0 173.091V176.032C0 176.127 0.0807321 176.208 0.176526 176.208H2.53161V179.279C2.53161 179.38 2.61235 179.456 2.70814 179.456H6.94477C7.04056 179.456 7.12129 179.381 7.12129 179.279V176.208H12.7749V179.279C12.7749 179.38 12.8509 179.456 12.9467 179.456H17.1833C17.2839 179.456 17.3598 179.381 17.3598 179.279V176.208H26.8061V179.279C26.8061 179.38 26.882 179.456 26.9826 179.456H31.2192C31.315 179.456 31.3957 179.381 31.3957 179.279V176.208H37.0446V179.279C37.0446 179.38 37.1253 179.456 37.2211 179.456H41.4577C41.5535 179.456 41.6343 179.381 41.6343 179.279V176.208H43.2634C43.3591 176.208 43.4399 176.127 43.4399 176.032V173.091C43.4399 172.996 43.3591 172.915 43.2634 172.915L43.2622 172.916ZM35.6818 108.864C35.6818 109.494 35.339 110.023 34.9305 110.023C34.522 110.023 34.1792 109.494 34.1792 108.864C34.1792 108.233 34.5274 107.709 34.9305 107.709C35.3335 107.709 35.6818 108.238 35.6818 108.864ZM22.3013 71.8341C28.8274 71.8341 33.4881 72.8427 33.9972 73.806C34.0647 73.9217 34.0647 74.0434 33.9972 74.1591C33.4881 75.1273 28.8274 76.131 22.3013 76.131C15.1349 76.131 9.97523 74.8851 10.6054 73.806C11.1199 72.8427 15.7801 71.8341 22.3013 71.8341ZM4.98671 94.5144L10.4235 74.4917C11.5682 75.7876 17.0809 76.484 22.3007 76.484C27.5206 76.484 33.1038 75.7779 34.2033 74.4663L39.6455 94.5144C39.6202 95.6338 37.8398 96.5116 35.1064 97.137C31.0957 98.01 26.4319 98.2968 22.3158 98.2968C21.5338 98.2968 20.7572 98.2865 19.9806 98.2612C16.9983 98.2612 5.05359 97.4792 4.98611 94.5138L4.98671 94.5144ZM19.9812 98.6197C20.7475 98.6402 21.5296 98.6498 22.3164 98.6498C22.6948 98.6498 23.0779 98.6498 23.4563 98.6396V168.251H19.9812V98.6197ZM2.88346 176.21H4.6439V179.105H2.88346V176.21ZM6.76704 179.105H4.99695V176.21H6.76704V179.105ZM13.122 176.21H14.8824V179.105H13.122V176.21ZM17.0056 179.105H15.2355V176.21H17.0056V179.105ZM27.1579 176.21H28.9184V179.105H27.1579V176.21ZM31.0415 179.105H29.2714V176.21H31.0415V179.105ZM37.3964 176.21H39.1569V179.105H37.3964V176.21ZM41.28 179.105H39.5099V176.21H41.28V179.105ZM43.0856 175.857H0.351847V173.269H43.0856V175.857Z" fill="#231F20"/>
<defs>
<filter id="filter0_d_941_725" x="67.8193" y="124.59" width="59.6738" height="60.8359" filterUnits="userSpaceOnUse" color-interpolation-filters="sRGB">
<feFlood flood-opacity="0" result="BackgroundImageFix"/>
<feColorMatrix in="SourceAlpha" type="matrix" values="0 0 0 0 0 0 0 0 0 0 0 0 0 0 0 0 0 0 127 0" result="hardAlpha"/>
<feOffset dy="4"/>
<feGaussianBlur stdDeviation="2"/>
<feComposite in2="hardAlpha" operator="out"/>
<feColorMatrix type="matrix" values="0 0 0 0 0 0 0 0 0 0 0 0 0 0 0 0 0 0 0.25 0"/>
<feBlend mode="normal" in2="BackgroundImageFix" result="effect1_dropShadow_941_725"/>
<feBlend mode="normal" in="SourceGraphic" in2="effect1_dropShadow_941_725" result="shape"/>
</filter>
</defs>
</svg>
