<svg width="63" height="63" viewBox="0 0 63 63" fill="none" xmlns="http://www.w3.org/2000/svg">
<path d="M39.5404 27.8943H33.0935L34.6255 19.2955C34.662 19.0844 34.6253 18.8672 34.5215 18.6799C34.4177 18.4925 34.253 18.3463 34.0547 18.2654C33.8564 18.1844 33.6364 18.1737 33.4311 18.235C33.2259 18.2962 33.0477 18.4258 32.9262 18.6022L22.6785 33.6484C22.5833 33.7895 22.5282 33.9537 22.519 34.1237C22.5099 34.2936 22.5472 34.4629 22.6268 34.6133C22.7065 34.7637 22.8255 34.8896 22.9712 34.9776C23.1169 35.0656 23.2837 35.1123 23.4539 35.1128H29.9008L28.3689 43.7116C28.3323 43.9227 28.369 44.1399 28.4728 44.3272C28.5766 44.5146 28.7413 44.6608 28.9396 44.7418C29.138 44.8227 29.358 44.8334 29.5632 44.7721C29.7685 44.7109 29.9466 44.5813 30.0681 44.4049L40.3158 29.3587C40.411 29.2176 40.4662 29.0534 40.4753 28.8834C40.4844 28.7135 40.4471 28.5442 40.3675 28.3938C40.2878 28.2434 40.1688 28.1175 40.0232 28.0295C39.8775 27.9415 39.7106 27.8948 39.5404 27.8943ZM30.9856 39.7243L31.9449 34.3391C31.969 34.204 31.9631 34.0653 31.9278 33.9328C31.8925 33.8002 31.8285 33.6771 31.7404 33.5719C31.6524 33.4667 31.5423 33.3822 31.418 33.3241C31.2937 33.2661 31.1582 33.2361 31.021 33.2361H25.2288L32.0087 23.2828L31.0494 28.668C31.0254 28.8031 31.0312 28.9418 31.0665 29.0743C31.1018 29.2069 31.1658 29.3301 31.2539 29.4352C31.342 29.5404 31.452 29.6249 31.5763 29.683C31.7006 29.741 31.8361 29.771 31.9733 29.771H37.7645L30.9856 39.7243Z" fill="#22AB00"/>
<path d="M31.4972 12.87C27.8118 12.87 24.2092 13.9628 21.145 16.0103C18.0807 18.0578 15.6924 20.968 14.2821 24.3728C12.8717 27.7776 12.5027 31.5242 13.2217 35.1388C13.9407 38.7533 15.7153 42.0735 18.3213 44.6795C20.9272 47.2854 24.2474 49.0601 27.862 49.7791C31.4765 50.498 35.2231 50.129 38.628 48.7187C42.0328 47.3084 44.943 44.9201 46.9904 41.8558C49.0379 38.7915 50.1308 35.1889 50.1308 31.5035C50.1251 26.5634 48.1601 21.8271 44.6669 18.3339C41.1736 14.8407 36.4374 12.8757 31.4972 12.87ZM31.4972 48.2603C28.183 48.2603 24.9433 47.2776 22.1876 45.4363C19.432 43.5951 17.2842 40.978 16.016 37.9161C14.7477 34.8542 14.4158 31.485 15.0624 28.2345C15.709 24.984 17.3049 21.9982 19.6484 19.6547C21.9918 17.3112 24.9776 15.7153 28.2281 15.0687C31.4786 14.4222 34.8479 14.754 37.9098 16.0223C40.9717 17.2906 43.5887 19.4383 45.43 22.194C47.2712 24.9496 48.254 28.1894 48.254 31.5035C48.2489 35.9462 46.4818 40.2053 43.3404 43.3467C40.199 46.4882 35.9398 48.2552 31.4972 48.2603Z" fill="#22AB00"/>
<path d="M54.4275 53.1061C59.6008 47.6158 62.6316 40.4509 62.9686 32.9147C63.3055 25.3785 60.9262 17.9717 56.2635 12.0415V7.67565C56.2632 7.49019 56.2081 7.30896 56.1049 7.15482C56.0018 7.00067 55.8554 6.88051 55.684 6.80951C55.5127 6.7385 55.3242 6.71982 55.1423 6.75582C54.9603 6.79183 54.7932 6.8809 54.6618 7.01182L53.0998 8.57382C47.6093 3.39978 40.4439 0.368514 32.9071 0.031467C25.3703 -0.30558 17.963 2.07398 12.0325 6.73727H7.66877C7.48336 6.73762 7.3022 6.79285 7.14813 6.89601C6.99407 6.99917 6.874 7.14564 6.80306 7.31694C6.73211 7.48825 6.71348 7.67672 6.7495 7.8586C6.78552 8.04048 6.87459 8.20762 7.00547 8.33895L8.56747 9.90095C3.39343 15.3915 0.362167 22.5569 0.0251193 30.0936C-0.311928 37.6304 2.06763 45.0378 6.73092 50.9682V55.3336C6.73127 55.519 6.78651 55.7002 6.88967 55.8542C6.99283 56.0083 7.13929 56.1284 7.31059 56.1993C7.4819 56.2702 7.67037 56.2889 7.85225 56.2528C8.03413 56.2168 8.20127 56.1278 8.3326 55.9969L9.89461 54.4349C15.385 59.6085 22.5501 62.6395 30.0865 62.9765C37.6229 63.3136 45.0299 60.9343 50.9603 56.2714H55.3251C55.5105 56.2712 55.6918 56.216 55.8459 56.1129C56.0001 56.0098 56.1202 55.8633 56.1912 55.692C56.2622 55.5207 56.2809 55.3322 56.2449 55.1502C56.2089 54.9683 56.1198 54.8011 55.9889 54.6697L54.4275 53.1061ZM31.4972 1.87753C35.3893 1.86683 39.2448 2.62822 42.8406 4.11765C46.4364 5.60707 49.7011 7.79494 52.4456 10.5546C52.5327 10.6418 52.6361 10.711 52.75 10.7582C52.8639 10.8054 52.9859 10.8297 53.1092 10.8297C53.2324 10.8297 53.3545 10.8054 53.4683 10.7582C53.5822 10.711 53.6856 10.6418 53.7727 10.5546L54.3867 9.94063V15.0787H49.2487L49.8626 14.4647C49.9499 14.3776 50.019 14.2742 50.0662 14.1603C50.1134 14.0464 50.1377 13.9244 50.1377 13.8011C50.1377 13.6779 50.1134 13.5558 50.0662 13.442C50.019 13.3281 49.9499 13.2247 49.8626 13.1376C45.5963 8.87141 39.9778 6.22364 33.9718 5.64888C27.9658 5.07413 21.9471 6.60824 16.9491 9.98782V7.67565C16.9489 7.42682 16.85 7.18822 16.6741 7.01227C16.4981 6.83632 16.2595 6.73741 16.0107 6.73727H15.2353C20.0569 3.54658 25.7155 1.85554 31.4972 1.87753ZM46.0453 46.99V50.7082C41.5357 54.1266 35.9665 55.8482 30.3145 55.5712C24.6624 55.2943 19.2883 53.0363 15.1345 49.1934L16.674 47.6533C16.8049 47.522 16.8939 47.3549 16.93 47.173C16.966 46.9911 16.9474 46.8026 16.8764 46.6313C16.8055 46.46 16.6854 46.3136 16.5313 46.2104C16.3773 46.1072 16.1961 46.052 16.0107 46.0517H12.2931C8.87444 41.5422 7.15256 35.973 7.42945 30.3209C7.70634 24.6688 9.96432 19.2946 13.8074 15.1409L15.3474 16.6803C15.4787 16.8112 15.6459 16.9003 15.8278 16.9363C16.0096 16.9723 16.1981 16.9537 16.3694 16.8828C16.5407 16.8118 16.6872 16.6917 16.7903 16.5377C16.8935 16.3836 16.9487 16.2025 16.9491 16.017V12.2995C21.4587 8.8812 27.0278 7.15957 32.6798 7.43645C38.3318 7.71334 43.7059 9.97105 47.8599 13.8137L46.3204 15.3537C46.1895 15.4851 46.1004 15.6522 46.0644 15.8341C46.0284 16.016 46.047 16.2045 46.118 16.3758C46.1889 16.5471 46.309 16.6935 46.4631 16.7967C46.6171 16.8998 46.7983 16.9551 46.9837 16.9554H50.7018C54.1199 21.4652 55.8414 27.0344 55.5643 32.6863C55.2872 38.3383 53.0293 43.7124 49.1865 47.8662L47.647 46.3267C47.5157 46.1959 47.3485 46.1068 47.1666 46.0708C46.9848 46.0347 46.7963 46.0534 46.625 46.1243C46.4537 46.1953 46.3072 46.3153 46.2041 46.4694C46.1009 46.6235 46.0457 46.8046 46.0453 46.99ZM1.87119 31.5035C1.86059 27.6114 2.62203 23.7558 4.11145 20.16C5.60086 16.5641 7.78867 13.2993 10.5483 10.5546C10.6354 10.4675 10.7045 10.3641 10.7517 10.2503C10.7988 10.1365 10.8231 10.0145 10.8231 9.8913C10.8231 9.76811 10.7988 9.64612 10.7517 9.53231C10.7045 9.4185 10.6354 9.31509 10.5483 9.228L9.93482 8.61403H15.0723V13.7515L14.4584 13.1376C14.2791 12.9679 14.0416 12.8733 13.7948 12.8733C13.5479 12.8733 13.3105 12.9679 13.1312 13.1376C8.86474 17.4039 6.21676 23.0225 5.642 29.0286C5.06724 35.0348 6.60155 41.0536 9.98147 46.0517H7.6693C7.42047 46.0518 7.18188 46.1507 7.00593 46.3267C6.82998 46.5026 6.73107 46.7412 6.73092 46.99V47.7654C3.54038 42.9438 1.84935 37.2852 1.87119 31.5035ZM31.4972 61.1296C27.6051 61.1402 23.7495 60.3787 20.1536 58.8893C16.5577 57.3999 13.293 55.2121 10.5483 52.4525C10.369 52.2828 10.1315 52.1882 9.88469 52.1882C9.63784 52.1882 9.40037 52.2828 9.22112 52.4525L8.60768 53.0659V47.9284H13.7452L13.1312 48.5424C12.9555 48.7185 12.8568 48.9572 12.8568 49.206C12.8568 49.4548 12.9555 49.6934 13.1312 49.8695C17.3975 54.136 23.0161 56.784 29.0223 57.3587C35.0284 57.9335 41.0473 56.3992 46.0453 53.0193V55.3314C46.0453 55.5803 46.1442 55.819 46.3202 55.995C46.4961 56.171 46.7348 56.2698 46.9837 56.2698H47.7591C42.9375 59.4604 37.2788 61.1515 31.4972 61.1296ZM47.9221 54.3931V49.2556L48.5355 49.8695C48.7116 50.0454 48.9502 50.1442 49.1991 50.1442C49.4479 50.1442 49.6866 50.0454 49.8626 49.8695C54.129 45.6032 56.777 39.9846 57.3518 33.9785C57.9267 27.9724 56.3926 21.9536 53.0129 16.9554H55.3251C55.574 16.9554 55.8126 16.8566 55.9886 16.6806C56.1646 16.5046 56.2635 16.2659 56.2635 16.017V15.2417C60.0029 20.9378 61.665 27.7486 60.9696 34.527C60.2743 41.3053 57.2641 47.6369 52.4461 52.4552C52.2703 52.6311 52.1715 52.8697 52.1715 53.1185C52.1715 53.3672 52.2703 53.6058 52.4461 53.7818L53.0601 54.3957L47.9221 54.3931Z" fill="#22AB00"/>
</svg>
