<svg width="265" height="166" viewBox="0 0 265 166" fill="none" xmlns="http://www.w3.org/2000/svg">
<path d="M252.575 165.236C254.759 161.306 257.664 154.888 258.512 146.583C259.82 133.796 256.046 118.613 247.21 110.407C234.437 98.546 219.12 108.717 195.208 105.883C150.189 100.553 148.825 57.938 99.8055 47.6888C92.7866 46.2186 59.7559 40.1822 32.7052 59.8182C30.0121 61.7691 17.0274 71.4882 8.96237 89.4914C-6.86379 124.812 10.6729 159.822 13.4862 165.222C93.1824 165.222 172.879 165.222 252.575 165.229V165.236Z" fill="#A5DA98"/>
<path d="M113.172 110.223H100.18C98.9718 110.223 97.9893 111.205 97.9893 112.414V125.413C97.9893 126.614 98.9718 127.597 100.18 127.597H113.172C114.381 127.597 115.363 126.614 115.363 125.413V112.414C115.363 111.205 114.381 110.223 113.172 110.223ZM114.628 125.413C114.628 126.211 113.978 126.869 113.165 126.869H100.173C99.3676 126.869 98.7102 126.218 98.7102 125.413V112.414C98.7102 111.608 99.3605 110.951 100.173 110.951H113.165C113.971 110.951 114.628 111.601 114.628 112.414V125.413Z" fill="#231F20"/>
<path d="M111.681 117.063L107.136 121.608L106.203 122.548C105.779 122.965 105.093 122.965 104.676 122.548L103.743 121.608L101.665 119.537C101.431 119.304 101.318 118.993 101.318 118.696C101.318 118.399 101.431 118.081 101.665 117.848C102.131 117.381 102.895 117.381 103.361 117.848L105.072 119.558C105.277 119.756 105.602 119.756 105.8 119.558L109.984 115.381C110.217 115.148 110.528 115.027 110.825 115.027C111.122 115.027 111.44 115.148 111.674 115.381C112.133 115.84 112.133 116.604 111.674 117.07L111.681 117.063Z" fill="white"/>
<path d="M111.681 117.063L107.136 121.608L106.203 122.548C105.779 122.965 105.093 122.965 104.676 122.548L103.743 121.608L101.665 119.537C101.431 119.304 101.318 118.993 101.318 118.696C101.318 118.399 101.431 118.081 101.665 117.848C102.131 117.381 102.895 117.381 103.361 117.848L105.072 119.558C105.277 119.756 105.602 119.756 105.8 119.558L109.984 115.381C110.217 115.148 110.528 115.027 110.825 115.027C111.122 115.027 111.44 115.148 111.674 115.381C112.133 115.84 112.133 116.604 111.674 117.07L111.681 117.063Z" fill="#19381F"/>
<path d="M162.955 124.825C162.955 125.454 162.7 126.026 162.276 126.436C161.866 126.853 161.293 127.115 160.664 127.115H127.818C126.552 127.115 125.527 126.09 125.527 124.825C125.527 124.195 125.782 123.616 126.192 123.206C126.609 122.789 127.181 122.527 127.81 122.527H160.657C161.923 122.527 162.947 123.552 162.947 124.825H162.955Z" fill="#231F20"/>
<path d="M189 113.006C189 113.556 188.749 114.056 188.33 114.42C187.912 114.784 187.361 115 186.74 115H128.26C127.012 115 126 114.111 126 113C126 112.451 126.251 111.951 126.656 111.593C127.06 111.235 127.632 111 128.253 111H186.733C187.982 111 188.993 111.895 188.993 113L189 113.006Z" fill="#19381F"/>
<path d="M113.172 80.8633H100.18C98.9718 80.8633 97.9893 81.8458 97.9893 83.0545V96.0533C97.9893 97.2549 98.9718 98.2374 100.18 98.2374H113.172C114.381 98.2374 115.363 97.2549 115.363 96.0533V83.0545C115.363 81.8458 114.381 80.8633 113.172 80.8633ZM114.628 96.0604C114.628 96.8591 113.978 97.5165 113.165 97.5165H100.173C99.3676 97.5165 98.7102 96.8661 98.7102 96.0604V83.0616C98.7102 82.2558 99.3605 81.5984 100.173 81.5984H113.165C113.971 81.5984 114.628 82.2487 114.628 83.0616V96.0604Z" fill="#231F20"/>
<path d="M111.681 87.7076L107.136 92.2526L106.203 93.1927C105.779 93.6097 105.093 93.6097 104.676 93.1927L103.743 92.2526L101.665 90.1815C101.431 89.9483 101.318 89.6373 101.318 89.3404C101.318 89.0435 101.431 88.7254 101.665 88.4922C102.131 88.0257 102.895 88.0257 103.361 88.4922L105.072 90.2027C105.277 90.4006 105.602 90.4006 105.8 90.2027L109.984 86.0253C110.217 85.792 110.528 85.6719 110.825 85.6719C111.122 85.6719 111.44 85.792 111.674 86.0253C112.133 86.4847 112.133 87.2481 111.674 87.7146L111.681 87.7076Z" fill="white"/>
<path d="M111.681 87.7076L107.136 92.2526L106.203 93.1927C105.779 93.6097 105.093 93.6097 104.676 93.1927L103.743 92.2526L101.665 90.1815C101.431 89.9483 101.318 89.6373 101.318 89.3404C101.318 89.0435 101.431 88.7254 101.665 88.4922C102.131 88.0257 102.895 88.0257 103.361 88.4922L105.072 90.2027C105.277 90.4006 105.602 90.4006 105.8 90.2027L109.984 86.0253C110.217 85.792 110.528 85.6719 110.825 85.6719C111.122 85.6719 111.44 85.792 111.674 86.0253C112.133 86.4847 112.133 87.2481 111.674 87.7146L111.681 87.7076Z" fill="#19381F"/>
<path d="M162.955 95.473C162.955 96.1021 162.7 96.6746 162.276 97.0846C161.866 97.5016 161.293 97.7632 160.664 97.7632H127.818C126.552 97.7632 125.527 96.7383 125.527 95.473C125.527 94.8439 125.782 94.2643 126.192 93.8543C126.609 93.4373 127.181 93.1758 127.81 93.1758H160.657C161.923 93.1758 162.947 94.2007 162.947 95.473H162.955Z" fill="#231F20"/>
<path d="M189 83.5077C189 84.1944 188.749 84.8194 188.33 85.2747C187.912 85.7299 187.361 86 186.74 86H128.26C127.012 86 126 84.8889 126 83.5C126 82.8133 126.251 82.1883 126.656 81.7407C127.06 81.2932 127.632 81 128.253 81H186.733C187.982 81 188.993 82.1188 188.993 83.5L189 83.5077Z" fill="#19381F"/>
<path d="M113.172 51.5078H100.18C98.9718 51.5078 97.9893 52.4903 97.9893 53.699V66.6978C97.9893 67.8994 98.9718 68.882 100.18 68.882H113.172C114.381 68.882 115.363 67.8994 115.363 66.6978V53.699C115.363 52.4903 114.381 51.5078 113.172 51.5078ZM114.628 66.6978C114.628 67.4965 113.978 68.1539 113.165 68.1539H100.173C99.3676 68.1539 98.7102 67.5036 98.7102 66.6978V53.699C98.7102 52.8932 99.3605 52.2359 100.173 52.2359H113.165C113.971 52.2359 114.628 52.8862 114.628 53.699V66.6978Z" fill="#231F20"/>
<path d="M111.681 58.3482L107.136 62.8932L106.203 63.8333C105.779 64.2503 105.093 64.2503 104.676 63.8333L103.743 62.8932L101.665 60.8221C101.431 60.5889 101.318 60.2779 101.318 59.981C101.318 59.6841 101.431 59.3661 101.665 59.1328C102.131 58.6663 102.895 58.6663 103.361 59.1328L105.072 60.8434C105.277 61.0413 105.602 61.0413 105.8 60.8434L109.984 56.6659C110.217 56.4327 110.528 56.3125 110.825 56.3125C111.122 56.3125 111.44 56.4327 111.674 56.6659C112.133 57.1254 112.133 57.8888 111.674 58.3553L111.681 58.3482Z" fill="white"/>
<path d="M111.681 58.3482L107.136 62.8932L106.203 63.8333C105.779 64.2503 105.093 64.2503 104.676 63.8333L103.743 62.8932L101.665 60.8221C101.431 60.5889 101.318 60.2779 101.318 59.981C101.318 59.6841 101.431 59.3661 101.665 59.1328C102.131 58.6663 102.895 58.6663 103.361 59.1328L105.072 60.8434C105.277 61.0413 105.602 61.0413 105.8 60.8434L109.984 56.6659C110.217 56.4327 110.528 56.3125 110.825 56.3125C111.122 56.3125 111.44 56.4327 111.674 56.6659C112.133 57.1254 112.133 57.8888 111.674 58.3553L111.681 58.3482Z" fill="#19381F"/>
<path d="M162.955 66.1097C162.955 66.7388 162.7 67.3114 162.276 67.7213C161.866 68.1384 161.293 68.3999 160.664 68.3999H127.818C126.552 68.3999 125.527 67.375 125.527 66.1097C125.527 65.4806 125.782 64.901 126.192 64.4911C126.609 64.074 127.181 63.8125 127.81 63.8125H160.657C161.923 63.8125 162.947 64.8374 162.947 66.1097H162.955Z" fill="#231F20"/>
<path d="M189 54.5077C189 55.1944 188.749 55.8194 188.33 56.2747C187.912 56.7299 187.361 57 186.74 57H128.26C127.012 57 126 55.8889 126 54.5C126 53.8133 126.251 53.1883 126.656 52.7407C127.06 52.2932 127.632 52 128.253 52H186.733C187.982 52 188.993 53.1188 188.993 54.5L189 54.5077Z" fill="#19381F"/>
<path d="M113.172 22.1523H100.18C98.9718 22.1523 97.9893 23.1349 97.9893 24.3435V37.3424C97.9893 38.544 98.9718 39.5265 100.18 39.5265H113.172C114.381 39.5265 115.363 38.544 115.363 37.3424V24.3435C115.363 23.1349 114.381 22.1523 113.172 22.1523ZM114.628 37.3424C114.628 38.1411 113.978 38.7984 113.165 38.7984H100.173C99.3676 38.7984 98.7102 38.1482 98.7102 37.3424V24.3435C98.7102 23.5378 99.3605 22.8804 100.173 22.8804H113.165C113.971 22.8804 114.628 23.5307 114.628 24.3435V37.3424Z" fill="#231F20"/>
<path d="M111.681 28.9888L107.136 33.5338L106.203 34.4739C105.779 34.8909 105.093 34.8909 104.676 34.4739L103.743 33.5338L101.665 31.4628C101.431 31.2295 101.318 30.9185 101.318 30.6216C101.318 30.3248 101.431 30.0067 101.665 29.7734C102.131 29.3069 102.895 29.3069 103.361 29.7734L105.072 31.484C105.277 31.6819 105.602 31.6819 105.8 31.484L109.984 27.3065C110.217 27.0733 110.528 26.9531 110.825 26.9531C111.122 26.9531 111.44 27.0733 111.674 27.3065C112.133 27.766 112.133 28.5294 111.674 28.9959L111.681 28.9888Z" fill="white"/>
<path d="M111.681 28.9888L107.136 33.5338L106.203 34.4739C105.779 34.8909 105.093 34.8909 104.676 34.4739L103.743 33.5338L101.665 31.4628C101.431 31.2295 101.318 30.9185 101.318 30.6216C101.318 30.3248 101.431 30.0067 101.665 29.7734C102.131 29.3069 102.895 29.3069 103.361 29.7734L105.072 31.484C105.277 31.6819 105.602 31.6819 105.8 31.484L109.984 27.3065C110.217 27.0733 110.528 26.9531 110.825 26.9531C111.122 26.9531 111.44 27.0733 111.674 27.3065C112.133 27.766 112.133 28.5294 111.674 28.9959L111.681 28.9888Z" fill="#19381F"/>
<path d="M162.955 36.7543C162.955 37.3834 162.7 37.9559 162.276 38.3659C161.866 38.7829 161.293 39.0444 160.664 39.0444H127.818C126.552 39.0444 125.527 38.0195 125.527 36.7543C125.527 36.1252 125.782 35.5456 126.192 35.1356C126.609 34.7186 127.181 34.457 127.81 34.457H160.657C161.923 34.457 162.947 35.482 162.947 36.7543H162.955Z" fill="#231F20"/>
<path d="M189.362 24.8089C189.362 25.438 189.108 26.0106 188.684 26.4276C188.259 26.8447 187.701 27.092 187.072 27.092H127.818C126.552 27.092 125.527 26.0742 125.527 24.8019C125.527 24.1728 125.782 23.6003 126.192 23.1903C126.602 22.7803 127.181 22.5117 127.81 22.5117H187.065C188.33 22.5117 189.355 23.5366 189.355 24.8019L189.362 24.8089Z" fill="#19381F"/>
<path d="M205.507 9.54235H200.467V4.50964C200.467 2.02156 198.446 0 195.965 0H90.5748C88.0938 0 86.0723 2.02156 86.0723 4.50964V136.328C86.0723 138.809 88.0938 140.831 90.5748 140.831H95.6146V145.871C95.6146 148.352 97.6362 150.373 100.117 150.373H205.507C207.988 150.373 210.01 148.352 210.01 145.871V14.0449C210.01 11.5568 207.988 9.53528 205.507 9.53528V9.54235ZM86.8145 4.50964C86.8145 2.43153 88.5038 0.735114 90.5819 0.735114H195.972C198.05 0.735114 199.739 2.43153 199.739 4.50964V9.54235L99.5517 9.58476H86.8286V4.50257L86.8145 4.50964ZM90.5819 140.089C88.5038 140.089 86.8145 138.399 86.8145 136.321V10.3199H99.5376L199.725 10.2775V19.4947V136.321C199.725 138.399 198.036 140.089 195.958 140.089H90.5678H90.5819ZM209.275 145.864C209.275 147.942 207.585 149.631 205.507 149.631H100.117C98.0391 149.631 96.3497 147.942 96.3497 145.864V140.824H195.958C198.439 140.824 200.46 138.802 200.46 136.321V19.8622H209.268V145.864H209.275ZM209.275 19.1271H200.467V10.2775H205.507C207.585 10.2775 209.275 11.9739 209.275 14.052V19.1342V19.1271Z" fill="#231F20"/>
<path d="M209.274 19.8633V145.865C209.274 147.943 207.585 149.632 205.507 149.632H100.117C98.039 149.632 96.3496 147.943 96.3496 145.865V140.825H195.958C198.439 140.825 200.46 138.803 200.46 136.322V19.8633H209.267H209.274Z" fill="white"/>
<path d="M99.5444 10.3198H86.8213V136.321C86.8213 138.399 88.5106 140.089 90.5888 140.089H195.979C198.057 140.089 199.746 138.399 199.746 136.321V19.5016V10.2773L99.5586 10.3198H99.5444ZM115.364 125.415C115.364 126.616 114.381 127.599 113.172 127.599H100.181C98.9719 127.599 97.9894 126.616 97.9894 125.415V112.416C97.9894 111.207 98.9719 110.225 100.181 110.225H113.172C114.381 110.225 115.364 111.207 115.364 112.416V125.415ZM115.364 96.0595C115.364 97.2612 114.381 98.2437 113.172 98.2437H100.181C98.9719 98.2437 97.9894 97.2612 97.9894 96.0595V83.0607C97.9894 81.852 98.9719 80.8695 100.181 80.8695H113.172C114.381 80.8695 115.364 81.852 115.364 83.0607V96.0595ZM115.364 66.6974C115.364 67.899 114.381 68.8815 113.172 68.8815H100.181C98.9719 68.8815 97.9894 67.899 97.9894 66.6974V53.6986C97.9894 52.4899 98.9719 51.5074 100.181 51.5074H113.172C114.381 51.5074 115.364 52.4899 115.364 53.6986V66.6974ZM115.364 37.3423C115.364 38.5439 114.381 39.5264 113.172 39.5264H100.181C98.9719 39.5264 97.9894 38.5439 97.9894 37.3423V24.3435C97.9894 23.1348 98.9719 22.1523 100.181 22.1523H113.172C114.381 22.1523 115.364 23.1348 115.364 24.3435V37.3423ZM162.277 126.447C161.867 126.864 161.294 127.125 160.665 127.125H127.818C126.553 127.125 125.528 126.1 125.528 124.835C125.528 124.206 125.782 123.626 126.192 123.216C126.609 122.799 127.182 122.538 127.811 122.538H160.658C161.923 122.538 162.948 123.563 162.948 124.835C162.948 125.464 162.694 126.037 162.269 126.447H162.277ZM188.684 114.501C188.274 114.911 187.702 115.165 187.073 115.165H157.445H127.818C126.553 115.165 125.528 114.148 125.528 112.875C125.528 112.246 125.782 111.674 126.192 111.264C126.602 110.854 127.182 110.585 127.811 110.585H187.065C188.331 110.585 189.356 111.61 189.356 112.875C189.356 113.504 189.101 114.077 188.677 114.494L188.684 114.501ZM125.528 95.4729C125.528 94.8438 125.782 94.2642 126.192 93.8542C126.609 93.4372 127.182 93.1756 127.811 93.1756H160.658C161.923 93.1756 162.948 94.2005 162.948 95.4729C162.948 96.1019 162.694 96.6745 162.269 97.0844C161.86 97.5015 161.287 97.763 160.658 97.763H127.811C126.546 97.763 125.521 96.7381 125.521 95.4729H125.528ZM188.684 85.1459C188.274 85.5559 187.702 85.8103 187.073 85.8103H127.818C126.553 85.8103 125.528 84.7925 125.528 83.5202C125.528 82.8911 125.782 82.3185 126.192 81.9086C126.602 81.4986 127.182 81.23 127.811 81.23H187.065C188.331 81.23 189.356 82.2549 189.356 83.5202C189.356 84.1493 189.101 84.7218 188.677 85.1388L188.684 85.1459ZM125.528 66.1107C125.528 65.4816 125.782 64.902 126.192 64.492C126.609 64.075 127.182 63.8135 127.811 63.8135H160.658C161.923 63.8135 162.948 64.8384 162.948 66.1107C162.948 66.7398 162.694 67.3123 162.269 67.7223C161.86 68.1393 161.287 68.4009 160.658 68.4009H127.811C126.546 68.4009 125.521 67.3759 125.521 66.1107H125.528ZM188.684 55.7837C188.274 56.1937 187.702 56.4482 187.073 56.4482H127.818C126.553 56.4482 125.528 55.4303 125.528 54.158C125.528 53.5289 125.782 52.9564 126.192 52.5464C126.602 52.1364 127.182 51.8678 127.811 51.8678H187.065C188.331 51.8678 189.356 52.8928 189.356 54.158C189.356 54.7871 189.101 55.3596 188.677 55.7767L188.684 55.7837ZM125.528 36.7556C125.528 36.1265 125.782 35.5469 126.192 35.1369C126.609 34.7199 127.182 34.4584 127.811 34.4584H160.658C161.923 34.4584 162.948 35.4833 162.948 36.7556C162.948 37.3847 162.694 37.9572 162.269 38.3672C161.86 38.7842 161.287 39.0458 160.658 39.0458H127.811C126.546 39.0458 125.521 38.0208 125.521 36.7556H125.528ZM188.684 26.4287C188.274 26.8386 187.702 27.0931 187.073 27.0931H157.445H127.818C126.553 27.0931 125.528 26.0752 125.528 24.8029C125.528 24.1738 125.782 23.6013 126.192 23.1913C126.602 22.7814 127.182 22.5128 127.811 22.5128C139.381 22.5128 145.868 22.5128 157.438 22.5128C169.008 22.5128 175.495 22.5128 187.065 22.5128C188.331 22.5128 189.356 23.5377 189.356 24.8029C189.356 25.432 189.101 26.0045 188.677 26.4216L188.684 26.4287Z" fill="white"/>
<path d="M113.529 111H100.471C99.6607 111 99 111.654 99 112.471V125.536C99 126.339 99.6536 127 100.471 127H113.529C114.339 127 115 126.346 115 125.536V112.471C115 111.661 114.346 111 113.529 111ZM112.03 117.139L107.462 121.707L106.524 122.652C106.098 123.071 105.409 123.071 104.989 122.652L104.052 121.707L101.963 119.625C101.728 119.391 101.615 119.078 101.615 118.78C101.615 118.481 101.728 118.162 101.963 117.927C102.432 117.458 103.199 117.458 103.668 117.927L105.387 119.647C105.593 119.845 105.92 119.845 106.119 119.647L110.325 115.448C110.56 115.213 110.872 115.092 111.171 115.092C111.469 115.092 111.789 115.213 112.023 115.448C112.485 115.909 112.485 116.677 112.023 117.146L112.03 117.139Z" fill="white"/>
<path d="M113.529 82H100.471C99.6607 82 99 82.6536 99 83.4707V96.5364C99 97.3392 99.6536 98 100.471 98H113.529C114.339 98 115 97.3464 115 96.5364V83.4707C115 82.6607 114.346 82 113.529 82ZM112.03 88.1385L107.462 92.7069L106.524 93.6519C106.098 94.071 105.409 94.071 104.989 93.6519L104.052 92.7069L101.963 90.6252C101.728 90.3908 101.615 90.0781 101.615 89.7797C101.615 89.4813 101.728 89.1616 101.963 88.9272C102.432 88.4583 103.199 88.4583 103.668 88.9272L105.387 90.6465C105.593 90.8455 105.92 90.8455 106.119 90.6465L110.325 86.4476C110.56 86.2131 110.872 86.0924 111.171 86.0924C111.469 86.0924 111.789 86.2131 112.023 86.4476C112.485 86.9094 112.485 87.6767 112.023 88.1456L112.03 88.1385Z" fill="white"/>
<path d="M113.529 52H100.471C99.6607 52 99 52.6536 99 53.4707V66.5364C99 67.3393 99.6536 68 100.471 68H113.529C114.339 68 115 67.3464 115 66.5364V53.4707C115 52.6607 114.346 52 113.529 52ZM112.03 58.1385L107.462 62.7069L106.524 63.6519C106.098 64.071 105.409 64.071 104.989 63.6519L104.052 62.7069L101.963 60.6252C101.728 60.3908 101.615 60.0782 101.615 59.7798C101.615 59.4813 101.728 59.1616 101.963 58.9272C102.432 58.4583 103.199 58.4583 103.668 58.9272L105.387 60.6465C105.593 60.8455 105.92 60.8455 106.119 60.6465L110.325 56.4476C110.56 56.2131 110.872 56.0924 111.171 56.0924C111.469 56.0924 111.789 56.2131 112.023 56.4476C112.485 56.9094 112.485 57.6767 112.023 58.1456L112.03 58.1385Z" fill="white"/>
<path d="M113.529 23H100.471C99.6607 23 99 23.6536 99 24.4707V37.5364C99 38.3393 99.6536 39 100.471 39H113.529C114.339 39 115 38.3464 115 37.5364V24.4707C115 23.6607 114.346 23 113.529 23ZM112.03 29.1314L107.462 33.6998L106.524 34.6448C106.098 35.0639 105.409 35.0639 104.989 34.6448L104.052 33.6998L101.963 31.6181C101.728 31.3837 101.615 31.071 101.615 30.7726C101.615 30.4742 101.728 30.1545 101.963 29.9201C102.432 29.4512 103.199 29.4512 103.668 29.9201L105.387 31.6394C105.593 31.8384 105.92 31.8384 106.119 31.6394L110.325 27.4405C110.56 27.206 110.872 27.0853 111.171 27.0853C111.469 27.0853 111.789 27.206 112.023 27.4405C112.485 27.9023 112.485 28.6696 112.023 29.1385L112.03 29.1314Z" fill="white"/>
<path d="M209.275 14.0448V19.127H200.468V10.2773H205.508C207.586 10.2773 209.275 11.9738 209.275 14.0519V14.0448Z" fill="#231F20"/>
<path d="M199.732 4.50816V9.54087L99.5444 9.58328H86.8213V4.50109C86.8213 2.42298 88.5106 0.726562 90.5888 0.726562H195.979C198.057 0.726562 199.746 2.42298 199.746 4.50109L199.732 4.50816Z" fill="#231F20"/>
<path d="M108.154 6.5742C108.974 6.5742 109.639 5.90963 109.639 5.08983C109.639 4.27004 108.974 3.60547 108.154 3.60547C107.334 3.60547 106.67 4.27004 106.67 5.08983C106.67 5.90963 107.334 6.5742 108.154 6.5742Z" fill="#19381F"/>
<path d="M100.811 6.5742C101.63 6.5742 102.295 5.90963 102.295 5.08983C102.295 4.27004 101.63 3.60547 100.811 3.60547C99.9907 3.60547 99.3262 4.27004 99.3262 5.08983C99.3262 5.90963 99.9907 6.5742 100.811 6.5742Z" fill="#19381F"/>
<path d="M93.4736 6.5742C94.2934 6.5742 94.958 5.90963 94.958 5.08983C94.958 4.27004 94.2934 3.60547 93.4736 3.60547C92.6538 3.60547 91.9893 4.27004 91.9893 5.08983C91.9893 5.90963 92.6538 6.5742 93.4736 6.5742Z" fill="#19381F"/>
<path d="M263.475 165.974H0.735114C0.332215 165.974 0 165.649 0 165.239C0 164.829 0.325147 164.504 0.735114 164.504H263.475C263.878 164.504 264.21 164.829 264.21 165.239C264.21 165.649 263.885 165.974 263.475 165.974Z" fill="#231F20"/>
<path d="M252.681 129.57C252.603 129.323 252.42 129.139 252.172 129.061C251.932 128.984 251.663 129.026 251.444 129.182C250.992 129.521 250.511 129.825 250.009 130.1C248.829 130.751 247.882 131.012 247.055 131.246C246.037 131.535 245.16 131.776 244.171 132.581C243.789 132.885 242.856 133.741 242.227 135.112C241.259 137.204 241.563 139.24 241.881 140.364C240.933 141.311 240.333 142.195 239.965 142.802C238.403 145.411 238.071 148.167 237.838 150.104C237.802 150.408 237.774 150.655 237.76 150.804H238.467C238.481 150.648 238.502 150.401 238.544 150.104C238.756 148.358 239.096 145.58 240.743 142.944C241.075 142.407 241.605 141.657 242.397 140.844C242.8 140.943 243.648 141.106 244.708 141.106C246.291 141.106 248.355 140.738 250.165 139.24C252.858 136.992 253.869 133.112 252.695 129.57H252.681ZM249.705 138.71C247.175 140.802 244.093 140.484 242.863 140.237C244.553 138.102 246.397 136.554 247.91 135.501C248.066 135.395 248.101 135.169 247.988 135.02C247.882 134.858 247.67 134.815 247.507 134.928C245.98 135.996 244.128 137.544 242.418 139.671C242.199 138.597 242.114 137.02 242.849 135.416C243.414 134.172 244.263 133.408 244.595 133.133C245.471 132.419 246.249 132.207 247.231 131.931C248.108 131.691 249.09 131.408 250.342 130.722C250.872 130.433 251.381 130.108 251.861 129.761C251.904 129.726 251.953 129.733 251.967 129.733C251.996 129.754 252.017 129.761 252.024 129.789C253.105 133.069 252.172 136.653 249.705 138.71Z" fill="#231F20"/>
<path d="M249.706 138.706C247.175 140.798 244.093 140.48 242.863 140.233C244.56 138.105 246.398 136.55 247.91 135.497C248.073 135.391 248.108 135.172 247.995 135.017C247.889 134.854 247.677 134.812 247.514 134.925C245.988 135.992 244.143 137.54 242.425 139.668C242.206 138.593 242.121 137.017 242.856 135.412C243.422 134.168 244.27 133.398 244.602 133.129C245.486 132.415 246.256 132.203 247.239 131.921C248.115 131.673 249.098 131.397 250.349 130.712C250.879 130.422 251.381 130.097 251.861 129.751C251.904 129.715 251.953 129.729 251.967 129.729C251.996 129.743 252.017 129.758 252.024 129.786C253.105 133.059 252.18 136.649 249.713 138.706H249.706Z" fill="#54A548"/>
<path d="M234.106 141.737C233.152 139.214 231.893 137.121 230.536 135.404C230.861 134.252 231.144 132.315 230.282 130.314C229.681 128.915 228.762 128.046 228.402 127.735C227.426 126.908 226.564 126.639 225.553 126.321C224.726 126.073 223.786 125.777 222.62 125.098C222.132 124.808 221.658 124.497 221.206 124.151C221.001 123.988 220.732 123.939 220.485 124.017C220.245 124.087 220.04 124.264 219.962 124.504C218.697 128.024 219.616 131.933 222.252 134.237C224.118 135.863 226.309 136.238 227.928 136.238C229.024 136.238 229.851 136.068 230.126 135.997C231.385 137.637 232.565 139.624 233.456 141.984C234.883 145.759 235.11 147.392 234.926 150.113C234.912 150.353 234.898 150.587 234.869 150.813H235.562C235.59 150.587 235.604 150.353 235.619 150.113C235.802 147.314 235.562 145.603 234.106 141.737ZM229.985 134.711C228.522 132.972 226.988 131.643 225.694 130.689C225.539 130.576 225.313 130.604 225.2 130.767C225.08 130.915 225.122 131.134 225.277 131.247C226.585 132.223 228.147 133.58 229.632 135.39C228.486 135.602 225.249 135.941 222.697 133.707C220.273 131.594 219.439 127.982 220.605 124.737C220.619 124.709 220.633 124.688 220.669 124.681H220.697C220.697 124.681 220.74 124.681 220.775 124.702C221.241 125.077 221.75 125.409 222.252 125.713C223.496 126.427 224.472 126.731 225.334 126.992C226.309 127.296 227.08 127.537 227.935 128.265C228.267 128.547 229.087 129.332 229.624 130.59C230.296 132.145 230.197 133.651 229.971 134.718L229.985 134.711Z" fill="#231F20"/>
<path d="M225.2 130.762C225.08 130.917 225.115 131.129 225.278 131.242C226.592 132.211 228.147 133.575 229.639 135.384C228.494 135.604 225.256 135.936 222.705 133.702C220.287 131.589 219.453 127.984 220.619 124.732C220.634 124.704 220.648 124.683 220.683 124.676H220.711C220.711 124.676 220.761 124.676 220.789 124.697C221.256 125.065 221.757 125.404 222.266 125.701C223.51 126.415 224.486 126.719 225.348 126.987C226.324 127.284 227.094 127.524 227.956 128.259C228.282 128.542 229.109 129.327 229.646 130.585C230.317 132.14 230.218 133.653 229.992 134.713C228.522 132.967 226.995 131.638 225.695 130.684C225.539 130.571 225.32 130.599 225.207 130.762H225.2Z" fill="#54A548"/>
<path d="M245.338 150.607C245.055 150.289 244.645 150.105 244.214 150.105H229.434C229.003 150.105 228.6 150.289 228.31 150.607C228.027 150.932 227.9 151.364 227.957 151.795L230.452 163.938C230.466 164.037 230.487 164.136 230.522 164.228C230.558 164.334 230.607 164.44 230.671 164.532C230.932 164.949 231.406 165.232 231.929 165.232H241.719C242.242 165.232 242.701 164.949 242.97 164.532C243.048 164.426 243.104 164.306 243.139 164.186C243.168 164.108 243.182 164.023 243.196 163.938L245.698 151.795C245.755 151.364 245.62 150.932 245.338 150.607ZM242.503 163.846C242.482 163.974 242.44 164.087 242.369 164.193C242.228 164.405 241.987 164.539 241.719 164.539H231.929C231.682 164.539 231.448 164.419 231.307 164.235C231.222 164.122 231.166 163.995 231.144 163.846L228.953 154.043H244.694L242.496 163.846H242.503ZM244.786 153.343H228.868L228.649 151.703C228.628 151.519 228.67 151.342 228.762 151.194C228.791 151.152 228.812 151.116 228.84 151.074C228.918 150.996 229.01 150.925 229.109 150.883C229.208 150.841 229.321 150.812 229.441 150.812H244.221C244.398 150.812 244.56 150.869 244.694 150.968C244.737 150.996 244.772 151.038 244.815 151.074C244.815 151.074 244.843 151.109 244.85 151.123C244.977 151.286 245.034 151.491 244.998 151.703L244.786 153.343Z" fill="#231F20"/>
<path d="M244.701 154.043L242.51 163.847C242.461 164.236 242.121 164.54 241.726 164.54H231.936C231.54 164.54 231.201 164.243 231.151 163.847L228.96 154.043H244.701Z" fill="white"/>
<path d="M245.005 151.702L244.793 153.342H228.868L228.649 151.702C228.62 151.469 228.691 151.25 228.847 151.073C228.995 150.904 229.207 150.805 229.44 150.805H244.22C244.454 150.805 244.666 150.904 244.814 151.073C244.97 151.25 245.04 151.469 245.005 151.702Z" fill="#231F20"/>
<path d="M20.9509 164.856C21.1629 165.104 21.4669 165.238 21.7708 165.238H37.8797C38.4664 165.238 38.9612 164.764 38.9612 164.164V163.704C38.9612 163.238 38.6573 162.828 38.219 162.686C36.4943 162.1 34.7838 161.386 33.1651 160.552C32.119 160.014 31.0799 159.414 30.0833 158.777C29.8571 158.636 29.6168 158.587 29.3764 158.615L29.8712 156.353H30.6629C31.2708 156.353 31.815 155.957 32.0059 155.378L43.5274 120.488L46.5173 110.253L47.005 118.473C47.0121 118.509 47.0121 118.558 47.005 118.608L42.3116 154.303C42.2551 154.706 42.3682 155.109 42.6438 155.42C42.9054 155.724 43.2941 155.908 43.7112 155.908H44.1706L43.8737 158.919C43.6334 158.926 43.4002 159.011 43.1952 159.173C42.9548 159.385 42.8135 159.696 42.8135 160.014V164.135C42.8135 164.75 43.3153 165.252 43.9303 165.252H59.9685C60.5834 165.252 61.0853 164.75 61.0853 164.135V163.563C61.0853 163.124 60.7814 162.743 60.3643 162.63C59.3253 162.375 58.2933 162.057 57.3037 161.683C55.3316 160.947 53.4232 159.993 51.6278 158.834C51.4511 158.721 51.239 158.664 51.034 158.664C50.9633 158.664 50.8856 158.671 50.8078 158.686C50.7301 158.7 50.6523 158.721 50.5746 158.721L50.8503 155.901H51.1118C51.7691 155.901 52.3346 155.455 52.4831 154.812L61.1843 118.389C61.2055 118.311 61.2125 118.205 61.2196 118.113C61.8063 95.8615 61.9618 90.2139 61.9335 88.7224C61.9971 88.7012 62.0749 88.6871 62.1385 88.673C62.7535 88.5316 63.1846 87.9803 63.1846 87.337V83.0395L66.9309 83.1455H66.9662C67.4115 83.1455 67.8215 82.9052 68.0406 82.5093L72.8613 73.3769L74.2891 70.6697L78.5725 62.5623L81.4352 60.569L82.8631 59.5794L87.8534 56.1017C88.3552 55.7554 88.4895 55.0768 88.1502 54.5608L88.0018 54.3417L91.0412 52.1576C91.3593 51.9314 91.7339 51.7971 92.1156 51.7688L94.2361 51.6274C94.632 51.6062 95.0278 51.4719 95.3671 51.274L99.3466 48.9132C99.7566 48.6941 99.9545 48.1781 99.7848 47.7257C99.7495 47.6126 99.6929 47.5136 99.6223 47.4429C99.9757 47.2026 100.181 46.7856 100.096 46.3756C100.061 46.1848 99.9474 46.0081 99.799 45.8596C99.9827 45.7395 100.138 45.5486 100.209 45.3295C100.301 45.0609 100.28 44.7711 100.159 44.552C100.025 44.3399 99.806 44.1773 99.5445 44.1279C99.3678 44.0855 99.184 44.0925 99.0144 44.142C99.0002 43.9229 98.9296 43.7179 98.7882 43.5483C98.4206 43.1171 97.8269 43.1948 97.7633 43.2019C97.735 43.209 97.6997 43.2231 97.6785 43.2302L93.2466 45.2942C92.8719 45.379 92.4832 45.4143 92.1015 45.3719C91.946 45.3648 91.7834 45.3507 91.6703 45.3295C91.7763 45.1386 92.1156 44.6509 93.3526 43.5836C93.3738 43.5765 93.3879 43.5553 93.4021 43.5341C93.6848 43.1383 93.7413 42.6364 93.5222 42.283C93.3809 42.0427 93.1264 41.8801 92.8154 41.8236C92.4549 41.7529 92.0732 41.8518 91.7763 42.0851C91.7481 42.1063 88.7581 45.0043 88.7086 45.0609C88.6521 45.1174 88.6309 45.1386 88.0513 46.3898C87.8604 46.7997 87.5636 47.1602 87.196 47.4147L84.6302 49.2101L84.5736 49.1252C84.2414 48.6163 83.584 48.4679 83.068 48.7647L82.8843 48.8708L81.4565 49.6978L74.3103 53.8399L72.8825 54.6598L69.3765 56.6955C69.1786 56.8157 68.9383 56.752 68.8181 56.5541C67.3196 53.9883 65.7222 51.4225 64.0611 48.9485C62.9796 47.3299 61.8487 45.7112 60.7036 44.142C60.5976 43.9936 60.4633 43.8805 60.3078 43.8027C58.5972 42.9121 56.8301 42.0851 55.0701 41.3358C53.7554 40.7704 52.3982 40.2402 51.0482 39.7525L50.7018 38.8336L50.5675 37.4129C53.2252 36.6 55.0489 31.7864 53.4232 25.4037C54.0734 25.1704 54.6531 24.8594 55.1196 24.4706C55.579 24.0748 55.8264 23.679 55.8547 23.2549C56.0102 21.3747 52.2427 19.4026 49.0195 19.028C46.376 18.7099 44.107 19.2329 42.2692 20.5618C41.1312 21.3888 40.1911 22.5127 39.5549 23.8274C38.9117 24.301 38.4664 24.8594 38.2473 25.4955C37.703 27.0223 38.5583 28.4148 39.5408 30.0264C40.4102 31.4471 41.3927 33.0658 41.732 35.1793C41.9229 36.395 41.8875 37.6603 41.6118 38.9255L41.2019 40.0706C37.9009 41.3924 35.2503 42.7566 33.5185 44.043C31.6949 45.3931 30.0479 46.9694 28.606 48.7435C28.2879 49.1323 28.0688 49.5564 27.9486 50.0229C27.1145 53.239 26.2946 56.5258 25.5312 59.7915C24.5346 64.0466 23.5803 68.3725 22.7039 72.656C22.3363 74.4443 22.9088 76.2679 24.2236 77.5332C25.2202 78.5086 26.542 79.0317 27.8991 79.0317C28.3162 79.0317 28.7261 78.9822 29.1502 78.8832L33.6245 77.8088C33.4549 80.0354 33.2782 82.2549 33.0873 84.4602C32.8894 86.7574 32.6632 89.1183 32.4229 91.4933L30.5144 115.618C30.5074 115.639 30.5074 115.681 30.4932 115.724L20.7954 154.635C20.6823 155.059 20.7813 155.505 21.0498 155.844C21.3114 156.19 21.7284 156.388 22.1596 156.388H22.7109L22.1667 158.841V158.855C22.0818 158.876 22.0041 158.912 21.9334 158.968C21.6719 159.124 21.4881 159.392 21.4386 159.703L20.7176 164.043C20.6611 164.347 20.753 164.665 20.9509 164.899V164.856ZM28.5989 158.799V158.841H28.5918C28.1465 158.975 27.68 159.074 27.2135 159.152C26.747 159.223 26.2663 159.258 25.7928 159.265C25.715 159.265 25.6231 159.265 25.5454 159.251C25.1283 159.237 24.7254 159.209 24.3225 159.145C24.1034 159.117 23.8843 159.081 23.6652 159.025C23.6298 159.018 23.5945 159.011 23.5521 158.997C23.3541 158.961 23.1633 158.912 22.9654 158.841C22.9442 158.841 22.93 158.834 22.9088 158.827H22.9018L23.446 156.346H29.1573L28.613 158.799H28.5989ZM44.8775 40.9188C44.2908 40.8481 43.7394 40.7209 43.2446 40.5725H43.2376C42.7357 40.4311 42.2975 40.2614 41.9229 40.113L42.1561 39.4627C42.8205 39.7242 43.5062 39.9222 44.206 40.0423C44.206 40.0423 44.213 40.0353 44.213 40.0423C44.6301 40.1201 45.0542 40.1696 45.4853 40.1908C46.3123 40.2332 47.0899 40.1696 47.7896 40.0494C47.9734 40.0141 48.1572 39.9858 48.3268 39.9363C48.5035 39.901 48.6732 39.8585 48.8358 39.8091C49.3305 39.6748 49.7617 39.5122 50.1363 39.3638L50.3201 39.8373C50.0162 40.0211 49.7193 40.1837 49.4012 40.3251C49.2457 40.3887 49.0832 40.4594 48.9347 40.5159C48.5742 40.6502 48.2137 40.7492 47.8532 40.8269C46.8142 41.039 45.7963 41.039 44.8775 40.9188ZM52.8577 24.8099C49.7264 25.7924 44.7078 25.3047 42.9902 25.0856C42.976 25.0856 42.9619 25.0785 42.9478 25.0785C42.8559 25.0785 42.7499 25.1209 42.6933 25.1987H42.6862C42.6862 25.1987 42.6368 25.2623 42.6226 25.3118C42.5944 25.3683 42.5944 25.4461 42.6085 25.5167L43.0326 27.5595C42.658 27.51 42.2763 27.5737 41.9723 27.7786C41.3998 28.1815 41.3432 28.9167 41.4139 29.4326C41.4281 29.5245 41.4493 29.6164 41.4705 29.6871C41.6967 30.5 42.4459 31.1291 43.4355 31.3411C43.3931 31.5461 43.3436 31.744 43.2729 31.949C43.2093 32.1469 43.1245 32.3448 43.0467 32.5357C42.8276 33.0375 42.5237 33.497 42.1702 33.9282C41.8734 32.8538 41.4422 31.9137 40.9828 31.0654C40.7919 30.7262 40.6011 30.4081 40.4173 30.09C40.3254 29.9345 40.2264 29.779 40.1345 29.6306C39.9508 29.3266 39.7741 29.0368 39.6115 28.7541C39.5408 28.6127 39.456 28.4784 39.3853 28.337C39.2369 28.0684 39.1167 27.8069 39.0177 27.5525C38.7703 26.9092 38.6926 26.3013 38.9046 25.6935C39.0177 25.3754 39.2086 25.0856 39.4701 24.8028C39.5196 24.7463 39.5761 24.6827 39.6398 24.6332C39.7529 24.5272 39.8801 24.4282 40.0215 24.3222C40.0427 24.3081 40.0709 24.2798 40.0851 24.2586C40.0992 24.2374 40.1133 24.2091 40.1275 24.1879C40.5021 23.4174 40.9828 22.7035 41.5553 22.0956C41.6755 21.9684 41.7886 21.8553 41.9087 21.7422C42.149 21.516 42.4035 21.304 42.6721 21.1131C43.2093 20.7244 43.7536 20.4275 44.2908 20.2084C44.5028 20.1236 44.7149 20.0458 44.9269 19.9822C45.033 19.9539 45.139 19.9186 45.245 19.8974C46.376 19.6005 47.4009 19.5864 48.1289 19.6358C48.4541 19.657 48.7156 19.6853 48.9064 19.7065C50.4827 19.8974 52.1367 20.484 53.3454 21.1909C53.4868 21.2757 53.614 21.3605 53.7483 21.4453C53.8826 21.5231 53.9957 21.615 54.1159 21.6998C54.7591 22.2017 55.1549 22.7106 55.1196 23.163C55.1125 23.2195 55.1054 23.3397 54.9782 23.5235C54.9358 23.5871 54.8651 23.6719 54.7803 23.7567C54.7379 23.8062 54.6884 23.8486 54.6248 23.9052C54.1653 24.301 53.5433 24.5979 52.8365 24.817L52.8577 24.8099ZM50.3555 36.6919C48.6378 37.222 46.5173 35.5044 45.6832 34.7481C45.5419 34.6209 45.3298 34.6279 45.1955 34.7552C45.1885 34.7552 45.1885 34.7622 45.1814 34.7693H45.1743C45.146 34.8046 45.1248 34.84 45.1107 34.8824C45.0966 34.9177 45.0824 34.9531 45.0895 34.9955C45.0824 35.052 45.0966 35.1156 45.1107 35.1651C45.1319 35.2075 45.1602 35.2499 45.1955 35.2853H45.2026C46.178 36.1759 47.9381 37.5189 49.6628 37.5189C49.7264 37.5189 49.7829 37.5118 49.8465 37.5048L49.9596 38.664C49.7264 38.77 49.4648 38.869 49.1821 38.9679C48.8994 39.074 48.5884 39.1588 48.2561 39.2365C48.2561 39.2365 48.2491 39.2295 48.2491 39.2365C47.4645 39.4274 46.5456 39.5405 45.5277 39.4839C44.7149 39.4415 43.9091 39.286 43.1245 39.0457C42.87 38.9679 42.6085 38.876 42.354 38.7771C42.5661 37.6532 42.6085 36.5364 42.4883 35.4549C42.4742 35.3136 42.453 35.1863 42.4318 35.045C42.4176 34.9601 42.3964 34.8753 42.3752 34.7905C42.7923 34.3593 43.1528 33.8857 43.4496 33.3697C43.5415 33.2001 43.6334 33.0234 43.7112 32.8396C43.9515 32.2954 44.1211 31.7157 44.2201 31.1149C44.2342 31.023 44.213 30.9241 44.1494 30.8463C44.1353 30.8251 44.1211 30.811 44.0999 30.7968C44.0504 30.7544 43.9798 30.7262 43.9091 30.7191C43.69 30.6979 43.485 30.6555 43.3012 30.5777C43.0185 30.4717 42.7569 30.3303 42.5731 30.1466C42.3752 29.9698 42.2339 29.7578 42.1702 29.5245C42.1702 29.5175 42.0642 29.1358 42.149 28.7965C42.1773 28.6693 42.2268 28.5491 42.3258 28.4572C42.354 28.436 42.3752 28.4148 42.4035 28.3936C42.453 28.3582 42.5237 28.33 42.5873 28.3088C42.6156 28.3017 42.6509 28.2946 42.6933 28.2876C42.8983 28.2664 43.1316 28.3088 43.3507 28.4219C43.3719 28.436 43.3931 28.436 43.4143 28.4431C43.4284 28.4501 43.4496 28.4572 43.4638 28.4572H43.591C43.591 28.4572 43.5981 28.4501 43.6051 28.4501C43.6263 28.4431 43.6475 28.436 43.6688 28.4219C43.69 28.4148 43.7112 28.4077 43.7324 28.3936C43.7394 28.3795 43.7465 28.3653 43.7606 28.3512H43.7677C43.7677 28.3512 43.8101 28.3088 43.8172 28.2876C43.8172 28.2876 43.8195 28.2829 43.8243 28.2734C43.8243 28.2734 43.8313 28.2452 43.8384 28.231C43.8455 28.2098 43.8525 28.1886 43.8596 28.1674V28.0967C43.8596 28.0967 43.8596 28.0614 43.8525 28.0472L43.4072 25.9055C45.6974 26.16 49.79 26.4427 52.7304 25.644C54.0593 30.8887 52.9496 35.1863 50.9775 36.4657C50.7796 36.5929 50.5746 36.6848 50.3625 36.7484L50.3555 36.6919ZM87.6342 53.7197L85.026 49.7755L87.606 47.9731C87.7332 47.8883 87.8392 47.7964 87.9453 47.6974C88.2633 47.4005 88.5178 47.0542 88.7016 46.6654C88.7935 46.4604 88.8783 46.2837 88.9419 46.1424C89.0055 46.001 89.0621 45.895 89.1045 45.8031C89.1257 45.7607 89.1469 45.7253 89.161 45.6829C89.2034 45.5769 89.2317 45.5274 89.2458 45.4991C89.4225 45.3295 90.2566 44.5237 90.9988 43.8027L91.1331 43.6684C91.1684 43.626 91.2109 43.5907 91.2603 43.5483C91.3027 43.5058 91.3381 43.4634 91.3876 43.421C91.4229 43.3857 91.4653 43.3433 91.5077 43.3079C91.5431 43.2655 91.5784 43.2302 91.6208 43.1948C91.6562 43.1524 91.6915 43.1242 91.7339 43.0817C92.0449 42.7778 92.257 42.5728 92.257 42.5728C92.3771 42.488 92.5539 42.4385 92.7094 42.4668C92.8012 42.488 92.9002 42.5375 92.9355 42.594C92.9567 42.6435 92.9638 42.7213 92.9497 42.799C92.9497 42.8343 92.9356 42.8768 92.9214 42.9192C92.9143 42.9545 92.8931 42.9899 92.8719 43.0323C92.5044 43.3574 92.1934 43.6331 91.946 43.8805C91.8824 43.9441 91.8187 44.0077 91.7622 44.0642C91.5926 44.2339 91.4582 44.3965 91.3452 44.5308C90.8928 45.1033 90.8716 45.4214 91.0129 45.6688C91.0341 45.7041 91.0554 45.7324 91.0836 45.7748C91.2391 45.9515 91.4936 45.9939 91.8612 46.0222C91.9248 46.0293 91.9955 46.0293 92.0591 46.0363C92.1934 46.0434 92.3206 46.0505 92.4549 46.0505C92.6245 46.0505 92.7942 46.0434 92.9567 46.0222C93.0769 46.0081 93.19 45.9939 93.3031 45.9727C93.3596 45.9657 93.4162 45.9586 93.4727 45.9444C93.4869 45.9444 93.4939 45.9374 93.5081 45.9303C93.5222 45.9232 93.5293 45.9162 93.5434 45.9162L97.9471 43.8593C98.0319 43.8593 98.1803 43.8663 98.258 43.9512C98.2793 43.9724 98.2934 44.0006 98.3075 44.0289C98.3429 44.1632 98.3075 44.347 98.1732 44.4884L93.9251 46.4675C93.7484 46.5453 93.6707 46.7644 93.7555 46.9411C93.7696 46.9694 93.7908 46.9976 93.812 47.0259C93.8544 47.0754 93.9181 47.1107 93.9746 47.1319C94.0311 47.1531 94.0948 47.1531 94.1513 47.139C94.1725 47.1319 94.2008 47.1319 94.222 47.1178L98.5196 45.1245C98.5196 45.1245 98.5408 45.1104 98.5479 45.1033C98.562 45.0962 98.5761 45.0892 98.5903 45.0821L99.0921 44.8418C99.1699 44.7923 99.2406 44.7711 99.29 44.764C99.3466 44.7499 99.3819 44.757 99.4173 44.764C99.4455 44.7711 99.4738 44.7852 99.495 44.7994C99.5233 44.8135 99.5374 44.8347 99.5516 44.8559C99.5798 44.8983 99.5798 44.969 99.5516 45.0326C99.5374 45.0821 99.488 45.1881 99.3607 45.2376L94.6037 47.4854C94.6037 47.4854 94.5471 47.5207 94.5259 47.5419C94.4765 47.5843 94.4411 47.6338 94.4199 47.7045C94.3846 47.7822 94.3916 47.8741 94.427 47.9589C94.4553 48.0155 94.5047 48.0791 94.5683 48.1074C94.6461 48.1569 94.7521 48.1781 94.8369 48.1498C94.8582 48.1498 94.8864 48.1356 94.9076 48.1286L96.2012 47.5207L98.9296 46.2272C99.0144 46.1989 99.1416 46.213 99.2547 46.2767C99.3325 46.312 99.389 46.3898 99.4031 46.4534C99.4173 46.5382 99.3749 46.6584 99.2688 46.7502C99.2406 46.7714 99.2052 46.7997 99.1628 46.8139C98.7952 46.9764 98.456 47.1319 98.145 47.2662C97.4664 47.5772 96.908 47.8317 96.4627 48.0367C96.286 48.1144 96.1305 48.1922 95.9962 48.2487L95.1904 48.6163C95.1904 48.6163 95.1338 48.6446 95.1126 48.6658C95.0843 48.6799 95.0631 48.7011 95.049 48.7294C95.0349 48.7577 95.0207 48.7789 95.0066 48.8142C94.9925 48.8425 94.9854 48.8708 94.9854 48.9061C94.9783 48.9697 94.9925 49.0404 95.0278 49.097C95.0561 49.1464 95.0914 49.1888 95.155 49.2313C95.1692 49.2383 95.1833 49.2525 95.1974 49.2595C95.2328 49.2737 95.2823 49.2737 95.3954 49.2454C95.4095 49.2383 95.4378 49.2313 95.466 49.2242L95.4802 49.2595H95.4872L97.3745 48.4043C97.7774 48.2134 98.2793 47.9943 98.873 47.7186C98.8942 47.7115 98.9296 47.7186 98.9578 47.7328C99.0002 47.7469 99.0497 47.7752 99.0851 47.8176C99.1063 47.8388 99.1204 47.8671 99.1275 47.8953C99.1487 47.9377 99.1487 47.9872 99.1345 48.0508C99.1204 48.0932 99.0992 48.1357 99.0639 48.1781C99.0497 48.1922 99.0285 48.2063 99.0073 48.2205L95.0137 50.5813C94.9571 50.6167 94.8864 50.6449 94.8228 50.6732C94.6885 50.7298 94.5613 50.7792 94.4199 50.8075C94.3492 50.8146 94.2715 50.8287 94.2079 50.8287L92.0873 50.9842C91.8611 50.9984 91.635 51.0408 91.4229 51.1185C91.3593 51.1256 91.2957 51.1539 91.2321 51.1821C91.0271 51.2599 90.8292 51.3659 90.6525 51.5002L87.6342 53.6702V53.7197ZM86.6659 56.0523L82.8843 50.1784L82.6439 49.8038L82.8843 49.6624L83.4285 49.3514C83.6123 49.2383 83.8526 49.2949 83.9799 49.4786L87.5777 54.9213C87.6979 55.1051 87.6484 55.3525 87.4575 55.4868L86.6659 56.0452V56.0523ZM78.3534 60.2156C78.2121 60.159 78.0565 60.1237 77.9081 60.1095L57.3956 59.4522H57.3885L55.6497 56.3774C55.6497 56.3774 55.6144 56.3209 55.5861 56.2997C55.473 56.1936 55.3104 56.1583 55.1691 56.2431C55.0842 56.2926 55.0206 56.3774 54.9994 56.4622C54.9711 56.5471 54.9782 56.646 55.0277 56.7308L56.6463 59.5865C56.5969 59.6218 56.5333 59.6501 56.4908 59.6925C56.4414 59.7208 56.399 59.7632 56.3495 59.8127C56.2647 59.8975 56.1869 60.0035 56.1304 60.1237L54.2996 63.7639V63.778L54.2926 63.7851C54.1371 63.7498 53.9816 63.7286 53.8261 63.7074C53.6705 63.6861 53.508 63.6791 53.3595 63.672C53.204 63.6791 53.0485 63.6861 52.9001 63.7074C52.7446 63.7286 52.5891 63.7639 52.4477 63.7992C52.3063 63.8275 52.172 63.8841 52.0448 63.9618C51.9176 64.0325 51.8045 64.1244 51.6914 64.2233C51.4723 64.4354 51.2673 64.6475 51.0623 64.8736C50.9139 65.0433 50.7654 65.2129 50.6382 65.3826C50.5817 65.4391 50.5251 65.5098 50.4756 65.5734C50.0515 66.1177 49.6628 66.7044 49.3235 67.3122C49.2952 67.3688 49.2599 67.4253 49.2104 67.4748C49.1609 67.5243 49.1256 67.5667 49.0761 67.6091C48.9842 67.6939 48.864 67.7646 48.7368 67.807L47.4857 68.2382L47.4503 68.0474C47.4362 67.9413 47.4009 67.8565 47.3443 67.7788C47.3161 67.7363 47.2948 67.701 47.2595 67.6586C47.2312 67.6233 47.203 67.5879 47.1535 67.5526C46.9838 67.4041 46.7576 67.3405 46.5244 67.3688L46.4184 67.3829L45.7257 67.4677C45.6833 67.4748 44.9764 67.5738 43.9303 67.701H43.8808C43.697 67.7293 43.5062 67.7505 43.3012 67.7788C39.9932 68.2029 34.4798 68.9238 34.3597 68.938C34.3526 68.938 34.2112 68.9521 34.0981 68.8814C34.0699 68.8673 34.0487 68.8461 34.0204 68.8249C33.9002 68.6694 33.9568 68.4856 33.9568 68.4785C34.2042 67.5667 37.0315 57.2751 37.2506 56.5046C37.3001 56.3209 37.1941 56.123 37.0103 56.0664C36.8195 56.0099 36.6145 56.123 36.5721 56.3067H36.565C36.4943 56.5683 36.1268 57.8901 35.6602 59.5794C35.2432 61.1062 34.7343 62.9228 34.3031 64.5131C34.2536 64.6969 34.1971 64.8807 34.1476 65.0574C33.9921 65.637 33.8437 66.1813 33.7164 66.6407C33.674 66.8245 33.6245 66.9942 33.5751 67.1567C33.4196 67.7293 33.3135 68.1392 33.2641 68.2877C33.2641 68.2948 33.257 68.3089 33.257 68.3301C33.2429 68.3937 33.2146 68.5492 33.2429 68.733C33.2499 68.7683 33.257 68.8037 33.2641 68.8532C33.2711 68.9026 33.2853 68.945 33.3135 69.0016C33.3347 69.0652 33.363 69.1359 33.4196 69.1924C33.4337 69.2207 33.4549 69.249 33.4761 69.2773C33.5468 69.3621 33.6316 69.4328 33.7094 69.4752H33.7164C33.7942 69.5317 33.879 69.56 33.9497 69.5953C33.9921 69.6095 34.0274 69.6165 34.0699 69.6236C34.2607 69.6731 34.4162 69.659 34.4516 69.659C34.494 69.6519 35.1937 69.5671 36.2187 69.4257C38.4876 69.1218 42.3682 68.627 44.4321 68.3513L45.549 74.1969L28.9735 78.1481C28.7898 78.1905 28.613 78.2188 28.4363 78.24C27.9203 78.2965 27.4185 78.2683 26.9237 78.1622C26.8106 78.141 26.7046 78.1198 26.5985 78.0845C26.1815 77.9573 25.7786 77.7735 25.4111 77.5402C25.1637 77.3777 24.9233 77.1868 24.7042 76.9818C23.5733 75.8792 23.0855 74.31 23.3966 72.7549C23.439 72.5358 23.4814 72.3167 23.5379 72.0976C23.9267 70.182 24.3296 68.2523 24.7537 66.3297C25.2202 64.188 25.7079 62.0463 26.2098 59.9258C26.5986 58.2859 26.9944 56.6531 27.3973 55.0203C27.8002 53.3875 28.2101 51.7688 28.6272 50.1643C28.6343 50.1431 28.6342 50.1289 28.6484 50.1077C28.6837 49.9452 28.7544 49.7897 28.8251 49.6483C28.9099 49.4786 29.0159 49.3161 29.1432 49.1606C29.6662 48.5244 30.2246 47.9024 30.8043 47.3086C30.9951 47.1107 31.193 46.9128 31.398 46.722C31.7938 46.3403 32.2038 45.9656 32.6279 45.6122C33.0449 45.2517 33.4761 44.9125 33.9285 44.5873C34.2466 44.3541 34.5929 44.1208 34.9675 43.8734C35.222 43.7108 35.4906 43.5553 35.7663 43.3998C36.9255 42.7213 38.3038 42.0427 39.873 41.3641C40.3819 41.145 40.905 40.9329 41.4563 40.7138C41.8522 40.8835 42.3399 41.0743 42.8842 41.2369C43.2517 41.35 43.6475 41.4489 44.0646 41.5338C44.6866 41.6539 45.3652 41.7317 46.072 41.7387C46.7789 41.7387 47.521 41.6681 48.2774 41.4772C48.5601 41.4065 48.857 41.3146 49.1538 41.2157C49.7193 41.0107 50.2706 40.7492 50.7866 40.424C51.4511 40.6643 52.1226 40.9188 52.787 41.1803C53.4514 41.4348 54.1088 41.7105 54.7591 41.9861C55.1973 42.1699 55.6356 42.3608 56.0738 42.5587C57.3815 43.1524 58.682 43.7744 59.9473 44.4247C60.0109 44.4601 60.0604 44.5025 60.1028 44.559C61.2337 46.1212 62.3576 47.7328 63.4391 49.3373C65.086 51.8112 66.6764 54.3488 68.1679 56.9075C68.1961 56.957 68.2244 56.9994 68.2527 57.0418C68.5213 57.4023 68.9949 57.5508 69.426 57.4306C69.5108 57.4094 69.6098 57.3741 69.6946 57.3175L74.275 54.6669L81.4211 50.5248L81.9937 50.1926L82.8489 51.5285L86.0439 56.4834L79.0461 61.3536H79.0391C79.0391 61.2617 79.032 61.1557 79.0108 61.0496C78.9825 60.9365 78.9401 60.8376 78.8765 60.7316C78.7987 60.5973 78.6998 60.4842 78.5725 60.3852C78.5019 60.3287 78.41 60.2721 78.3181 60.2297L78.3534 60.2156ZM55.9961 70.6909H56.0031L58.6679 70.2739C58.8022 70.2598 58.9224 70.3163 58.9648 70.387C58.9789 70.4153 58.9931 70.4718 58.9577 70.5566C58.9506 70.5849 58.9365 70.6061 58.9224 70.6344C58.9082 70.6556 58.887 70.6768 58.8658 70.698C58.8588 70.7121 58.8446 70.7192 58.8376 70.7192C58.8022 70.7546 58.7669 70.7828 58.7174 70.797L54.5753 71.5886L54.3138 71.6098L52.5537 71.5533C52.3558 71.5462 52.1579 71.5745 51.9741 71.624L51.0128 71.8926L50.0798 72.1541L48.3056 72.663L47.62 68.938L48.9701 68.4715C49.3871 68.316 49.7334 68.0332 49.9455 67.6515C50.0233 67.5102 50.1081 67.3688 50.1929 67.2274C50.3625 66.9447 50.5463 66.669 50.7372 66.4075C50.829 66.2661 50.9351 66.1389 51.0411 66.0046C51.0482 65.9975 51.0552 65.9834 51.0623 65.9763C51.1966 65.8067 51.3309 65.637 51.4864 65.4745C51.5571 65.3826 51.649 65.2907 51.7338 65.1988C51.8752 65.0433 52.0165 64.8878 52.172 64.7393C52.2781 64.6545 52.377 64.5768 52.4972 64.5273C52.5396 64.5061 52.5749 64.499 52.6244 64.4849C52.8647 64.4354 53.1192 64.4001 53.3666 64.393C53.5716 64.393 53.7695 64.4142 53.9674 64.4425C53.7059 64.9514 53.4444 65.4603 53.1899 65.9834C53.1616 66.0329 53.1546 66.0894 53.1546 66.146C53.1546 66.2025 53.1616 66.2308 53.1758 66.2803C53.1899 66.3156 53.2111 66.3439 53.2323 66.3721C53.2394 66.3863 53.2464 66.4004 53.2606 66.4075H53.2677C53.6705 66.775 53.9745 67.0295 54.0593 67.1002C54.1371 67.1567 54.2077 67.1709 54.2431 67.1779C54.2714 67.185 54.2996 67.185 54.3279 67.1779L58.9789 66.5206C59.0708 66.5064 59.1556 66.5135 59.2122 66.5418C59.2263 66.5559 59.2475 66.563 59.2617 66.5771C59.2758 66.5842 59.2829 66.5983 59.2899 66.6054C59.3041 66.6478 59.3041 66.7185 59.2899 66.7821C59.2687 66.8316 59.2475 66.874 59.2122 66.9164C59.191 66.9376 59.1627 66.9659 59.1344 66.973C59.1203 66.9942 59.0991 67.0083 59.0849 67.0154L54.9075 67.8565C54.8227 67.8777 54.7449 67.9201 54.6955 67.9837C54.6319 68.0615 54.6036 68.1746 54.6248 68.2877C54.6319 68.323 54.646 68.3584 54.6743 68.4008C54.6955 68.4361 54.7237 68.4644 54.752 68.4856C54.8227 68.5492 54.9358 68.5916 55.0489 68.5634L60.1311 67.5314C60.2795 67.489 60.3997 67.5384 60.4704 67.6374C60.4845 67.6586 60.4916 67.6869 60.4986 67.7081C60.5128 67.7434 60.5128 67.7929 60.4986 67.8424C60.4845 67.8706 60.4774 67.8919 60.4633 67.9131C60.4562 67.9201 60.4492 67.9343 60.435 67.9484C60.4279 67.9625 60.4138 67.9696 60.3997 67.9837C60.3926 67.9908 60.3785 68.0049 60.3643 68.0049C60.3361 68.0191 60.3078 68.0332 60.2724 68.0403L55.1903 69.0087C55.056 69.0299 54.957 69.1218 54.9217 69.2348C54.9004 69.2914 54.8934 69.3621 54.9004 69.4257C54.9146 69.5105 54.9641 69.5883 55.0348 69.6307C55.1125 69.6872 55.2185 69.7226 55.3175 69.7014H55.3246L59.2758 68.9592C59.3323 68.9662 59.3818 68.9945 59.4101 69.0299C59.4454 69.0652 59.4666 69.1076 59.4666 69.1712C59.4737 69.2348 59.4525 69.2985 59.4172 69.3409C59.3889 69.3762 59.3465 69.4116 59.2899 69.4257L55.8971 69.9841C55.7062 70.0124 55.572 70.1961 55.6002 70.3941C55.6073 70.4365 55.6214 70.4789 55.6426 70.5213C55.6638 70.5566 55.6921 70.5849 55.7204 70.6061C55.7981 70.6697 55.8971 70.698 55.9961 70.6839V70.6909ZM47.6483 73.7021L46.2487 74.0343H46.2417L45.146 68.2735H45.1531C45.1955 68.2665 45.2379 68.2594 45.2803 68.2523C45.2874 68.2523 45.3016 68.2453 45.3157 68.2523C45.45 68.2382 45.5489 68.2241 45.6338 68.2099C45.7539 68.1958 45.8246 68.1887 45.8317 68.1887L46.6163 68.0756C46.6799 68.0686 46.7435 68.111 46.7576 68.1817L47.7402 73.5607C47.7472 73.6243 47.7189 73.6879 47.6553 73.7091L47.6483 73.7021ZM62.8383 82.3043L46.793 81.852C46.6658 81.8449 46.5527 81.7954 46.4608 81.7035C46.4325 81.6752 46.4113 81.6399 46.3901 81.5975C46.3689 81.5622 46.3477 81.5197 46.3335 81.4703C46.3123 81.3925 46.3123 81.3077 46.3335 81.2299C46.3406 81.1946 46.3477 81.1663 46.3689 81.1239L50.5746 72.7549L52.165 72.3096C52.2851 72.2813 52.4124 72.2601 52.5255 72.2672L54.2926 72.3237C54.4339 72.3308 54.5753 72.3167 54.7096 72.2884L58.9012 71.4826C58.9931 71.4473 59.0779 71.4048 59.1556 71.3554C59.2263 71.3059 59.3041 71.2493 59.3606 71.1928C59.4808 71.0797 59.5656 70.9525 59.6151 70.804C59.6363 70.7475 59.6504 70.6839 59.6646 70.6203C59.6787 70.5637 59.6787 70.5001 59.6787 70.4436C59.6787 70.3022 59.6504 70.1749 59.5939 70.0548H59.6009C59.8554 69.9276 60.0462 69.7155 60.124 69.461C60.1593 69.3479 60.1735 69.2278 60.1593 69.1076C60.1452 68.9875 60.124 68.8885 60.0816 68.7895L60.3855 68.733C60.5976 68.6976 60.7955 68.5987 60.9369 68.4503C60.9863 68.4008 61.0288 68.3372 61.0712 68.2806C61.1207 68.2029 61.156 68.111 61.1913 68.0261C61.2337 67.8494 61.2408 67.6727 61.1984 67.5031C61.156 67.3405 61.0712 67.1991 60.9581 67.0931C60.7319 66.8528 60.3785 66.7326 60.025 66.8175C60.0462 66.6478 60.0321 66.4852 59.9756 66.3439C59.9614 66.3156 59.9473 66.2803 59.9261 66.252C59.8907 66.1813 59.8413 66.1106 59.7777 66.0611C59.6858 65.9692 59.5797 65.8986 59.4596 65.8632C59.2899 65.7996 59.0849 65.7784 58.88 65.8137L54.3986 66.4428C54.2643 66.2944 54.1229 66.1601 53.9816 66.0117L56.7877 60.4417C56.7877 60.4417 56.8018 60.4135 56.816 60.3993C56.8301 60.3711 56.8443 60.3499 56.8655 60.3357C56.922 60.265 56.9998 60.2156 57.0917 60.1944C57.1341 60.1873 57.1835 60.1802 57.2401 60.1802L72.8825 60.6821L77.894 60.8446C77.9717 60.8517 78.0636 60.8729 78.1272 60.9153C78.1979 60.9577 78.2615 61.0284 78.3039 61.0991C78.3251 61.1345 78.3393 61.1698 78.3534 61.2193C78.3817 61.3394 78.3676 61.4596 78.3181 61.5727L78.0353 62.124C78.0353 62.124 78.0283 62.1311 78.0283 62.1382H78.0212C78.0212 62.1382 78.0141 62.1523 78.0141 62.1594L67.4398 82.17C67.3691 82.3043 67.249 82.3892 67.1147 82.4174C67.0722 82.4386 67.0228 82.4386 66.9733 82.4386L62.8524 82.3185H62.8453L62.8383 82.3043ZM56.2647 89.2314C53.0697 89.8746 49.8607 90.4259 46.6516 90.8924C45.5348 91.055 44.4039 91.2035 43.28 91.3378C42.2763 91.465 41.2514 91.5781 40.2406 91.6912C38.0988 91.9103 35.9571 92.1011 33.8154 92.2496C33.7094 92.2566 33.6104 92.2425 33.5115 92.2001C33.4408 92.1718 33.363 92.1223 33.3065 92.0517C33.2782 92.0234 33.2499 91.9881 33.2287 91.9598C33.1863 91.8962 33.158 91.8113 33.1439 91.7336C33.1368 91.6912 33.1298 91.6488 33.1298 91.5993C33.1298 91.5781 33.1368 91.5569 33.1368 91.5357C33.3135 89.7544 33.4832 87.9732 33.6458 86.2273C33.6952 85.6477 33.7518 85.061 33.8013 84.4885C33.9992 82.2124 34.19 79.9011 34.3526 77.6109H34.3597L46.0367 74.8189L46.376 74.7411L47.825 74.4019C47.9169 74.3806 48.0088 74.3382 48.0865 74.2817C48.1218 74.2534 48.1572 74.2322 48.1925 74.1969C48.3975 74.0131 48.5035 73.7233 48.447 73.4335V73.384L49.6416 73.0377L45.7469 80.8129C45.7257 80.8553 45.7045 80.8977 45.6903 80.9472C45.662 81.032 45.6408 81.1239 45.6267 81.2158C45.6126 81.3077 45.6126 81.4137 45.6267 81.5197C45.6408 81.6258 45.6691 81.7247 45.7115 81.8307C45.7327 81.8802 45.7539 81.9226 45.7822 81.9792C46.0013 82.3397 46.3689 82.5588 46.7859 82.5729L62.4849 83.0182V87.3441C62.4849 87.5774 62.3718 87.7823 62.188 87.9025C62.1314 87.9379 62.0537 87.9732 61.983 87.9873C60.0887 88.4326 58.1802 88.8568 56.2647 89.2455V89.2314ZM44.001 159.604C45.1036 159.767 46.2275 159.831 47.3302 159.809C47.6412 159.802 47.9381 159.788 48.242 159.76C49.1609 159.696 50.0727 159.562 50.9633 159.371C51.0552 159.35 51.1542 159.364 51.2461 159.421C51.6985 159.718 52.172 160 52.6386 160.269C53.1051 160.53 53.5857 160.792 54.0664 161.039C55.0347 161.527 56.0314 161.958 57.0563 162.333C58.0671 162.715 59.1203 163.047 60.1805 163.308C60.2371 163.322 60.2866 163.358 60.3149 163.393C60.3502 163.428 60.3643 163.478 60.3643 163.542V164.114C60.3643 164.227 60.3219 164.326 60.2442 164.39C60.2159 164.425 60.1735 164.453 60.1169 164.475C60.0675 164.496 60.0109 164.51 59.9544 164.51H43.9161C43.697 164.51 43.5132 164.326 43.5132 164.107V159.986C43.5132 159.93 43.5274 159.866 43.5486 159.824C43.5698 159.774 43.6051 159.718 43.6546 159.682C43.7465 159.604 43.8596 159.562 43.9868 159.59L44.001 159.604ZM44.5876 158.968L44.8916 155.894H50.1293L49.8536 158.848C49.0195 158.989 48.1643 159.067 47.3231 159.088C46.7788 159.103 46.2417 159.088 45.7186 159.06C45.344 159.046 44.9623 159.011 44.5947 158.968H44.5876ZM47.7048 118.685C47.7048 118.685 47.7119 118.622 47.7119 118.579C47.719 118.558 47.719 118.53 47.719 118.502C47.7119 118.473 47.7119 118.445 47.7119 118.424L47.1181 108.21L52.2357 90.7157C54.5117 90.3128 56.7806 89.8746 59.0213 89.3798C59.7706 89.2172 60.5128 89.0547 61.262 88.878C61.2549 89.2102 61.2479 89.7262 61.2337 90.3977C61.2337 90.5956 61.2267 90.8006 61.2196 91.0197C61.2055 91.5569 61.1913 92.1506 61.1772 92.808V92.8504C61.1701 93.1049 61.1631 93.3735 61.156 93.6421V93.6845C61.1489 93.9601 61.1419 94.2429 61.1348 94.5327V94.5539C61.1277 94.8578 61.1206 95.1547 61.1136 95.4657C61.1136 95.6353 61.1065 95.805 61.0994 95.9746C61.0853 96.4482 61.0712 96.943 61.0641 97.4519C61.0641 97.6357 61.057 97.8195 61.05 98.0033C60.9369 102.357 60.8026 107.489 60.6895 111.815C60.6753 112.352 60.6612 112.875 60.6471 113.37C60.64 113.695 60.6329 114.006 60.6259 114.317C60.5905 115.738 60.5552 117.017 60.5198 118.078C60.5198 118.099 60.5198 118.127 60.5128 118.148C60.5128 118.169 60.5057 118.198 60.4986 118.219L51.8116 154.635C51.7338 154.953 51.4581 155.173 51.1259 155.173H43.7112C43.6051 155.173 43.5132 155.151 43.4284 155.116C43.3436 155.081 43.2588 155.024 43.1952 154.939H43.1881C43.1386 154.883 43.0962 154.805 43.0609 154.727C43.0255 154.621 43.0114 154.508 43.0255 154.388L47.719 118.678L47.7048 118.685ZM22.1596 155.639C22.1101 155.639 22.0536 155.632 22.0041 155.618C21.8981 155.597 21.8062 155.554 21.7284 155.476C21.686 155.441 21.6507 155.406 21.6083 155.356C21.481 155.187 21.4315 154.975 21.481 154.77L28.7685 125.549L31.1859 115.844C31.1859 115.844 31.193 115.83 31.193 115.823C31.2072 115.759 31.2142 115.695 31.2142 115.625L32.9036 94.4196L33.0379 92.7373C33.151 92.808 33.2641 92.8645 33.3913 92.8999C33.3913 92.8999 33.3913 92.8928 33.3984 92.8999C33.5256 92.9352 33.6458 92.9564 33.7801 92.9564C33.8154 92.9564 33.8437 92.9564 33.8719 92.9494C34.4091 92.914 34.9463 92.8787 35.4765 92.8292C36.5579 92.7444 37.6253 92.6525 38.7067 92.5535C40.3183 92.398 41.937 92.2213 43.5415 92.0163C44.6159 91.882 45.6832 91.7477 46.7506 91.5922C48.3127 91.366 49.8748 91.1186 51.4511 90.8359L46.4254 108.026L42.8488 120.255L31.3273 155.144C31.3202 155.18 31.3061 155.215 31.2849 155.25C31.2496 155.314 31.2142 155.378 31.1577 155.427C31.087 155.498 30.9951 155.561 30.8961 155.59C30.8255 155.618 30.7477 155.632 30.67 155.632H22.1667L22.1596 155.639ZM21.4245 164.107L22.1384 159.774C22.1455 159.725 22.1667 159.682 22.1949 159.633C22.2232 159.583 22.2585 159.562 22.3151 159.527C22.3363 159.513 22.3646 159.498 22.3928 159.484C22.4565 159.463 22.5271 159.47 22.5908 159.491C22.8452 159.569 23.1138 159.64 23.3824 159.696C24.1741 159.873 24.987 159.951 25.7998 159.965C26.2593 159.965 26.7258 159.93 27.1711 159.873C27.4821 159.831 27.779 159.781 28.0758 159.71C28.5212 159.604 28.9665 159.484 29.3976 159.329C29.433 159.315 29.4683 159.308 29.5178 159.308C29.5814 159.308 29.645 159.322 29.7016 159.364C30.7124 160.014 31.7797 160.629 32.84 161.174C33.667 161.598 34.5222 161.994 35.3775 162.354C36.2328 162.722 37.1163 163.047 37.9999 163.344C38.0352 163.358 38.0706 163.372 38.1059 163.393C38.1342 163.414 38.1625 163.443 38.1837 163.471C38.2119 163.499 38.2261 163.527 38.2331 163.563C38.2402 163.598 38.2473 163.633 38.2473 163.683V164.142C38.2473 164.185 38.2402 164.227 38.2261 164.277C38.2049 164.319 38.1837 164.361 38.1483 164.397C38.1342 164.411 38.1201 164.425 38.0988 164.439C38.0918 164.439 38.0918 164.446 38.0918 164.446C38.0423 164.482 37.9645 164.503 37.8939 164.503H21.785C21.7143 164.503 21.6295 164.482 21.5729 164.432C21.5517 164.418 21.5376 164.404 21.5234 164.383H21.5164C21.4527 164.298 21.4245 164.199 21.4386 164.086L21.4245 164.107Z" fill="#231F20"/>
<path d="M82.6436 49.809L82.8839 50.1836L86.6655 56.0575L87.4571 55.4991C87.648 55.3648 87.6904 55.1174 87.5773 54.9336L83.9795 49.4909C83.8523 49.3071 83.6119 49.2577 83.4281 49.3637L82.8839 49.6747L82.6436 49.8161V49.809Z" fill="white"/>
<path d="M22.8945 158.829C23.8346 159.111 24.7818 159.246 25.7926 159.26C26.7539 159.253 27.6869 159.118 28.5987 158.843H28.6058V158.8L29.1501 156.348H23.4459L22.9016 158.829H22.8945Z" fill="white"/>
<path d="M44.595 158.961C45.4856 159.068 46.4045 159.11 47.3163 159.089C48.1574 159.068 49.0127 158.99 49.8468 158.848L50.1295 155.887H44.8848L44.5879 158.961H44.595Z" fill="white"/>
<path d="M21.6082 155.356C21.7425 155.526 21.9475 155.625 22.1595 155.625H30.6699C30.9668 155.625 31.2354 155.434 31.3273 155.144L42.8488 120.255L46.4254 108.026L51.451 90.8359C49.8818 91.1045 48.3197 91.359 46.7505 91.5852C42.4883 92.1931 38.1553 92.6596 33.8719 92.9423C33.8436 92.9494 33.8153 92.9494 33.78 92.9494C33.5185 92.9494 33.2569 92.8716 33.0378 92.7303L31.2212 115.618C31.2212 115.696 31.2071 115.766 31.1859 115.837L21.488 154.748C21.4315 154.953 21.481 155.18 21.6082 155.342V155.356Z" fill="white"/>
<path d="M43.0188 154.387C42.9905 154.585 43.0541 154.79 43.1814 154.939C43.3157 155.087 43.5065 155.172 43.7044 155.172H51.1192C51.4514 155.172 51.72 154.953 51.7977 154.635L60.4919 118.218C60.506 118.176 60.5131 118.126 60.5131 118.077C60.711 110.584 61.2058 91.9098 61.2623 88.8633C58.2795 89.556 55.2613 90.1639 52.2289 90.7011L47.1185 108.195L47.7122 118.416C47.7193 118.508 47.7193 118.593 47.7051 118.678L43.0117 154.38L43.0188 154.387Z" fill="white"/>
<path d="M45.1455 68.2612L46.2411 74.0219L47.6407 73.6897C47.7043 73.6685 47.7396 73.612 47.7325 73.5484L46.743 68.1622C46.7288 68.0986 46.6723 68.0562 46.6087 68.0633L45.8241 68.1693C45.8241 68.1693 45.5555 68.2046 45.1455 68.2541V68.2612Z" fill="white"/>
<path d="M47.6196 68.9442L48.3052 72.6692L50.0794 72.1603L51.0195 71.8988L51.9808 71.6302C52.1646 71.5807 52.3625 71.5524 52.5604 71.5595L54.3275 71.616C54.4123 71.609 54.4972 71.6019 54.582 71.5948L58.7241 70.8032C58.8372 70.7607 58.9291 70.6689 58.9644 70.5628C58.9997 70.4851 58.9856 70.4215 58.9715 70.3932C58.9361 70.3296 58.8089 70.273 58.6817 70.2872L56.0169 70.7042C55.826 70.7325 55.6352 70.6052 55.6069 70.4144C55.5786 70.2235 55.7059 70.0327 55.8967 70.0044L59.2895 69.439C59.4026 69.4107 59.4733 69.3047 59.4663 69.1916C59.4592 69.0855 59.3814 69.0007 59.2754 68.9795L55.3312 69.7217H55.3242C55.1404 69.757 54.9425 69.6298 54.9071 69.439C54.8718 69.2481 54.992 69.0573 55.1899 69.0219L60.2721 68.0535C60.3851 68.0323 60.4417 67.9617 60.47 67.9192C60.5124 67.8556 60.5265 67.7779 60.5053 67.7143C60.477 67.5941 60.3286 67.4881 60.1307 67.5446L55.0556 68.5766C54.8718 68.619 54.6739 68.4918 54.6315 68.3009C54.5961 68.1101 54.7163 67.9192 54.9071 67.8768L59.0846 67.0357C59.1906 66.9862 59.2613 66.9014 59.2966 66.8024C59.3178 66.7388 59.3178 66.6681 59.2966 66.6328C59.2613 66.5692 59.1411 66.5126 58.9785 66.5409L54.3275 67.1983C54.3275 67.1983 54.2639 67.2053 54.2356 67.1983C54.2003 67.1912 54.1296 67.1771 54.0519 67.1205C53.967 67.0569 53.6631 66.7954 53.2602 66.4349C53.14 66.3289 53.1118 66.1521 53.1824 66.0037C53.4369 65.4877 53.6984 64.9717 53.96 64.4628C53.7691 64.4275 53.5641 64.4062 53.3592 64.4062C53.1118 64.4133 52.8573 64.4487 52.617 64.5052C52.4544 64.5476 52.2989 64.6395 52.1717 64.7597C51.7617 65.1626 51.38 65.5867 51.0266 66.032C50.6166 66.555 50.2561 67.1064 49.931 67.686C49.726 68.0677 49.3726 68.3504 48.9555 68.4989L47.6055 68.9724L47.6196 68.9442Z" fill="white"/>
<path d="M41.9297 40.1125C43.4565 40.7558 46.1707 41.5191 48.9274 40.5225C49.4081 40.3458 49.8746 40.1125 50.3128 39.851L50.1361 39.3633C49.0334 39.8298 47.4148 40.2892 45.4851 40.1832C44.34 40.1267 43.2232 39.8863 42.1629 39.4622L41.9297 40.1125Z" fill="white"/>
<path d="M44.142 30.819C44.2056 30.8967 44.2268 30.9957 44.2127 31.0876C44.1208 31.6884 43.9511 32.268 43.7037 32.8123C43.3786 33.5332 42.9333 34.1906 42.3749 34.7631C42.3961 34.848 42.4173 34.9328 42.4314 35.0176C42.6223 36.2334 42.594 37.4916 42.3607 38.7497C43.3786 39.1597 44.4388 39.4071 45.5274 39.4636C47.4005 39.5555 48.9414 39.089 49.9593 38.6437L49.8532 37.4845C49.7896 37.4916 49.7331 37.4986 49.6695 37.4986C47.9377 37.4986 46.1777 36.1556 45.2022 35.265C45.0538 35.1307 45.0467 34.9045 45.181 34.7561C45.3083 34.6147 45.5415 34.6006 45.6829 34.7349C46.517 35.4912 48.6445 37.2088 50.3622 36.6787C52.7089 35.9648 54.1932 31.342 52.7372 25.5742C49.7967 26.3729 45.7041 26.0973 43.4139 25.8357L43.8663 27.9775C43.8663 27.9775 43.8663 28.0058 43.8734 28.027V28.0976C43.8734 28.0976 43.8592 28.1471 43.8522 28.1683C43.8451 28.1825 43.8451 28.1966 43.838 28.2107L43.8239 28.2249C43.8239 28.2249 43.7956 28.2673 43.7744 28.2885C43.7603 28.3026 43.7532 28.3168 43.7391 28.3309C43.7179 28.345 43.6967 28.3521 43.6755 28.3592C43.6543 28.3733 43.633 28.3804 43.6118 28.3874C43.6048 28.3874 43.6048 28.3945 43.5977 28.3945H43.5482C43.5482 28.3945 43.4987 28.4016 43.4705 28.3945C43.4563 28.3945 43.4351 28.3874 43.421 28.3804C43.3998 28.3733 43.3786 28.3733 43.3574 28.3592C43.011 28.1825 42.6435 28.1754 42.4031 28.338C41.9578 28.649 42.177 29.4618 42.177 29.4689C42.3537 30.0909 43.0464 30.5787 43.9158 30.6635C44.0147 30.6705 44.0996 30.72 44.1561 30.7978L44.142 30.819Z" fill="white"/>
<path d="M85.0256 49.7752L87.6268 53.7123L90.645 51.5353C91.0691 51.2384 91.5709 51.0546 92.0799 51.0193L94.2004 50.8708C94.476 50.8567 94.7658 50.7648 95.0062 50.6234L98.9928 48.2555C99.1058 48.1919 99.1624 48.0505 99.12 47.9304C99.0776 47.8102 98.9433 47.7395 98.8585 47.7537C98.2647 48.0223 97.7699 48.2485 97.367 48.4322L95.4798 49.2875L95.4656 49.2522C95.2394 49.3229 95.2041 49.3016 95.1405 49.2592C95.0274 49.1886 94.9708 49.0684 94.9779 48.9341C94.985 48.7998 95.0627 48.6867 95.1829 48.6372L95.9887 48.2697C96.639 47.9728 97.6992 47.4921 99.1624 46.8277C99.332 46.75 99.4169 46.5874 99.3956 46.4672C99.3815 46.4036 99.325 46.3329 99.2472 46.2905C99.1412 46.2269 99.014 46.2128 98.9221 46.241L94.8931 48.1424C94.7164 48.2273 94.4972 48.1495 94.4124 47.9728C94.3347 47.7961 94.4054 47.577 94.5821 47.4992L99.3391 45.2514C99.4663 45.202 99.5158 45.103 99.5299 45.0465C99.5582 44.9829 99.5582 44.9122 99.5299 44.8698C99.5087 44.8273 99.4522 44.792 99.3886 44.7779C99.332 44.7637 99.226 44.7567 99.0634 44.8627L98.5616 45.0959C98.5616 45.0959 98.5121 45.1313 98.4909 45.1384L94.1933 47.1316C94.0166 47.2165 93.7975 47.1387 93.7197 46.962C93.6349 46.7853 93.7127 46.5662 93.8894 46.4814L98.1375 44.5022C98.3071 44.3255 98.3213 44.0781 98.2223 43.9579C98.1516 43.8731 97.9961 43.866 97.9042 43.866L93.5006 45.9159C93.5006 45.9159 93.4511 45.9371 93.4299 45.9442C92.9634 46.0502 92.4898 46.0785 92.0233 46.0431C91.472 46.0007 91.1468 45.9724 90.9701 45.6756C90.7298 45.2515 90.956 44.6577 92.8291 43.032C92.9351 42.8694 92.9422 42.6856 92.8927 42.6008C92.8574 42.5443 92.7655 42.4948 92.6665 42.4736C92.511 42.4453 92.3272 42.4877 92.2142 42.5725C92.2142 42.5725 89.5494 45.1666 89.2171 45.4847C89.1818 45.5625 89.0546 45.8169 88.6658 46.6439C88.4255 47.167 88.0509 47.6264 87.5702 47.9516L84.9902 49.7611L85.0256 49.7752Z" fill="white"/>
<path d="M46.3964 81.5986C46.4812 81.7471 46.6297 81.8319 46.8064 81.839L62.8446 82.2984H62.8517L66.9725 82.4115C67.1634 82.4186 67.3401 82.3196 67.432 82.15L78.0063 62.1393C78.0063 62.1393 78.0063 62.1322 78.0134 62.1252H78.0205C78.0205 62.1252 78.0205 62.104 78.0275 62.104L78.3103 61.5526C78.388 61.4042 78.388 61.2204 78.3032 61.072C78.2113 60.9235 78.0629 60.8317 77.8862 60.8246L57.2323 60.1602C57.0202 60.1602 56.8577 60.2591 56.7728 60.4288L53.9667 65.9987C54.108 66.14 54.2494 66.2814 54.3908 66.4298L58.8722 65.7937C59.3175 65.723 59.7274 65.8997 59.9183 66.239C60.0172 66.4086 60.0455 66.6136 60.0172 66.8115C60.5332 66.6984 61.0563 67.0024 61.1906 67.5042C61.2613 67.7587 61.2118 68.0485 61.0634 68.2818C60.9149 68.5221 60.6605 68.6917 60.3848 68.7341L60.0879 68.7907C60.1303 68.8896 60.1586 68.9886 60.1727 69.1088C60.2081 69.5117 59.9819 69.8863 59.6073 70.063C59.7133 70.2821 59.7204 70.5578 59.6285 70.8052C59.5224 71.102 59.2751 71.3424 58.9075 71.4837L54.7159 72.2895C54.5816 72.3178 54.4403 72.332 54.2918 72.3249L52.5247 72.2683C52.4116 72.2613 52.2844 72.2825 52.1572 72.3108L50.5668 72.7631L46.3611 81.1321C46.2833 81.2806 46.2904 81.4573 46.3823 81.6057L46.3964 81.5986Z" fill="white"/>
<path d="M43.5342 160.002V164.123C43.5342 164.342 43.7109 164.526 43.9371 164.526H59.9753C60.1944 164.526 60.3782 164.349 60.3782 164.123V163.55C60.3782 163.437 60.3075 163.345 60.1944 163.317C59.1342 163.055 58.088 162.723 57.0702 162.341C55.0415 161.592 53.0907 160.61 51.2599 159.422C51.1681 159.366 51.0762 159.351 50.9772 159.373C49.7827 159.627 48.5669 159.776 47.3441 159.811C46.2343 159.839 45.1104 159.768 44.0148 159.613C43.8947 159.592 43.7816 159.627 43.6826 159.705C43.5978 159.783 43.5483 159.889 43.5483 160.002H43.5342Z" fill="#231F20"/>
<path d="M21.4244 164.107C21.4103 164.213 21.4386 164.312 21.5093 164.397C21.5729 164.475 21.6718 164.517 21.7779 164.517H37.8797C38.0776 164.517 38.2472 164.362 38.2472 164.157V163.69C38.2472 163.535 38.1483 163.4 37.9998 163.344C36.2327 162.75 34.4939 162.022 32.8399 161.167C31.7726 160.616 30.7194 160.008 29.7015 159.357C29.6379 159.315 29.5814 159.301 29.5178 159.301C29.4753 159.301 29.44 159.308 29.4047 159.322C28.2454 159.739 27.0367 159.951 25.8068 159.958C24.7254 159.944 23.6368 159.803 22.6049 159.477C22.5059 159.442 22.4069 159.456 22.3221 159.513C22.2302 159.569 22.1737 159.654 22.1525 159.76L21.4386 164.086L21.4244 164.107Z" fill="#231F20"/>
<path d="M33.1291 91.5914C33.1291 91.761 33.1928 91.9236 33.3129 92.0438C33.4472 92.1851 33.6381 92.2558 33.8218 92.2417C38.0912 91.9519 42.4029 91.4924 46.651 90.8846C51.7756 90.1494 56.9355 89.1669 61.9824 87.9653C62.2793 87.8946 62.4842 87.626 62.4842 87.3221V82.9962L46.7782 82.5509C46.3612 82.5368 45.9936 82.3176 45.7745 81.9572C45.5625 81.5967 45.5483 81.1726 45.7321 80.7979L49.6339 73.0156L48.4252 73.369V73.4185C48.51 73.8568 48.2414 74.2738 47.8102 74.3869L46.0219 74.811L34.3449 77.603C34.1823 79.8932 33.9915 82.1975 33.7936 84.4806C33.5957 86.7849 33.3624 89.1528 33.1291 91.5207C33.1291 91.5419 33.1221 91.5702 33.1221 91.5914H33.1291Z" fill="#231F20"/>
<path d="M24.7112 76.983C25.8492 78.0786 27.4396 78.5098 28.9734 78.1493L45.5489 74.2051L44.4321 68.3596C41.428 68.7554 34.5858 69.639 34.4515 69.6602C34.3878 69.6602 33.8506 69.7167 33.476 69.2785C33.1085 68.8473 33.2498 68.3384 33.264 68.2889C33.5043 67.3841 36.3387 57.0784 36.5578 56.3079C36.6073 56.1242 36.8052 56.0111 37.0032 56.0676C37.1869 56.1242 37.293 56.3221 37.2435 56.5129C37.0244 57.2763 34.197 67.5679 33.9496 68.4727C33.9496 68.4797 33.9001 68.6635 34.0203 68.819C34.1475 68.9604 34.3525 68.9392 34.3596 68.9392C34.5292 68.918 45.563 67.4902 45.7397 67.4619L46.5243 67.3629C46.9625 67.3064 47.3725 67.6032 47.4573 68.0415L47.4927 68.2253L48.7367 67.7941C48.9841 67.7022 49.1962 67.5326 49.3234 67.2993C49.6627 66.6914 50.0444 66.1047 50.4755 65.5605C50.8502 65.0869 51.2531 64.6274 51.6913 64.2104C51.9034 64.0054 52.1649 63.8499 52.4476 63.7792C52.7374 63.7015 53.0555 63.6591 53.3594 63.652C53.6775 63.6591 53.9885 63.7015 54.2995 63.7651V63.751L56.1373 60.1037C56.2575 59.8775 56.4271 59.6937 56.6533 59.5806L55.0276 56.7179C54.9286 56.5483 54.9923 56.3291 55.1619 56.2302C55.3315 56.1312 55.5507 56.1948 55.6496 56.3645L57.3955 59.4392L77.908 60.0966C78.3321 60.1107 78.7068 60.3369 78.9188 60.7045C79.0319 60.8883 79.0885 61.1074 79.0814 61.3194L86.0791 56.4422L82.0218 50.1513L69.7228 57.2763C69.1856 57.5873 68.5 57.4035 68.1819 56.8663C66.6975 54.3146 65.1001 51.77 63.4531 49.3031C62.3717 47.6915 61.2478 46.087 60.1169 44.5178C60.0744 44.4684 60.032 44.4259 59.9684 44.3906C58.272 43.5212 56.5261 42.6942 54.7802 41.952C53.4796 41.3936 52.1437 40.8705 50.8078 40.3828C50.2918 40.708 49.7404 40.9695 49.175 41.1745C46.079 42.2984 43.0749 41.3724 41.4704 40.6797C38.226 41.9732 35.6178 43.3091 33.9355 44.5532C32.1613 45.8679 30.5497 47.4159 29.1502 49.1264C28.9098 49.4374 28.7261 49.7697 28.6342 50.1372C27.8001 53.3463 26.9872 56.626 26.2168 59.8916C25.2131 64.1397 24.273 68.4585 23.3965 72.7349C23.0784 74.29 23.5732 75.8591 24.7041 76.9618L24.7112 76.983Z" fill="#231F20"/>
<path d="M33.1291 91.5914C33.1291 91.761 33.1928 91.9236 33.3129 92.0438C33.4472 92.1851 33.6381 92.2558 33.8218 92.2417C38.0912 91.9519 42.4029 91.4924 46.651 90.8846C51.7756 90.1494 56.9355 89.1669 61.9824 87.9653C62.2793 87.8946 62.4842 87.626 62.4842 87.3221V82.9962L46.7782 82.5509C46.3612 82.5368 45.9936 82.3176 45.7745 81.9572C45.5625 81.5967 45.5483 81.1726 45.7321 80.7979L49.6339 73.0156L48.4252 73.369V73.4185C48.51 73.8568 48.2414 74.2738 47.8102 74.3869L46.0219 74.811L34.3449 77.603C34.1823 79.8932 33.9915 82.1975 33.7936 84.4806C33.5957 86.7849 33.3624 89.1528 33.1291 91.5207C33.1291 91.5419 33.1221 91.5702 33.1221 91.5914H33.1291Z" fill="black"/>
<path d="M24.7112 76.983C25.8492 78.0786 27.4396 78.5098 28.9734 78.1493L45.5489 74.2051L44.4321 68.3596C41.428 68.7554 34.5858 69.639 34.4515 69.6602C34.3878 69.6602 33.8506 69.7167 33.476 69.2785C33.1085 68.8473 33.2498 68.3384 33.264 68.2889C33.5043 67.3841 36.3387 57.0784 36.5578 56.3079C36.6073 56.1242 36.8052 56.0111 37.0032 56.0676C37.1869 56.1242 37.293 56.3221 37.2435 56.5129C37.0244 57.2763 34.197 67.5679 33.9496 68.4727C33.9496 68.4797 33.9001 68.6635 34.0203 68.819C34.1475 68.9604 34.3525 68.9392 34.3596 68.9392C34.5292 68.918 45.563 67.4902 45.7397 67.4619L46.5243 67.3629C46.9625 67.3064 47.3725 67.6032 47.4573 68.0415L47.4927 68.2253L48.7367 67.7941C48.9841 67.7022 49.1962 67.5326 49.3234 67.2993C49.6627 66.6914 50.0444 66.1047 50.4755 65.5605C50.8502 65.0869 51.2531 64.6274 51.6913 64.2104C51.9034 64.0054 52.1649 63.8499 52.4476 63.7792C52.7374 63.7015 53.0555 63.6591 53.3594 63.652C53.6775 63.6591 53.9885 63.7015 54.2995 63.7651V63.751L56.1373 60.1037C56.2575 59.8775 56.4271 59.6937 56.6533 59.5806L55.0276 56.7179C54.9286 56.5483 54.9923 56.3291 55.1619 56.2302C55.3315 56.1312 55.5507 56.1948 55.6496 56.3645L57.3955 59.4392L77.908 60.0966C78.3321 60.1107 78.7068 60.3369 78.9188 60.7045C79.0319 60.8883 79.0885 61.1074 79.0814 61.3194L86.0791 56.4422L82.0218 50.1513L69.7228 57.2763C69.1856 57.5873 68.5 57.4035 68.1819 56.8663C66.6975 54.3146 65.1001 51.77 63.4531 49.3031C62.3717 47.6915 61.2478 46.087 60.1169 44.5178C60.0744 44.4684 60.032 44.4259 59.9684 44.3906C58.272 43.5212 56.5261 42.6942 54.7802 41.952C53.4796 41.3936 52.1437 40.8705 50.8078 40.3828C50.2918 40.708 49.7404 40.9695 49.175 41.1745C46.079 42.2984 43.0749 41.3724 41.4704 40.6797C38.226 41.9732 35.6178 43.3091 33.9355 44.5532C32.1613 45.8679 30.5497 47.4159 29.1502 49.1264C28.9098 49.4374 28.7261 49.7697 28.6342 50.1372C27.8001 53.3463 26.9872 56.626 26.2168 59.8916C25.2131 64.1397 24.273 68.4585 23.3965 72.7349C23.0784 74.29 23.5732 75.8591 24.7041 76.9618L24.7112 76.983Z" fill="black"/>
<path d="M40.1411 29.6228C40.8833 30.8456 41.7103 32.2098 42.1768 33.9275C42.5302 33.4963 42.8271 33.0368 43.0462 32.535C43.2159 32.1462 43.3431 31.7504 43.435 31.3404C42.4454 31.1284 41.6962 30.5064 41.47 29.6864C41.3357 29.1987 41.2933 28.2586 41.9718 27.778C42.2687 27.573 42.6504 27.5094 43.0321 27.5588L42.6009 25.5231C42.5726 25.41 42.608 25.2899 42.6857 25.2051C42.7564 25.1202 42.8766 25.0708 42.9967 25.092C45.0961 25.3464 52.1574 26.0391 54.6455 23.9045C55.112 23.5016 55.1332 23.2542 55.1403 23.1694C55.2392 21.9041 51.9383 20.0663 48.9271 19.7058C48.0153 19.5998 45.2304 19.2676 42.6857 21.1124C41.6184 21.8829 40.7419 22.9502 40.1482 24.1872C40.127 24.2367 40.0846 24.2862 40.0351 24.3215C39.4767 24.7244 39.095 25.1838 38.9183 25.6928C38.4871 26.9015 39.2151 28.1031 40.1482 29.6157L40.1411 29.6228Z" fill="#231F20"/>
<path d="M64.075 72.8598C65.2837 72.16 65.7503 70.6827 65.107 69.573C64.789 69.0217 64.2659 68.647 63.6227 68.5057C62.9936 68.3714 62.3291 68.4774 61.7425 68.8167C61.1629 69.156 60.7317 69.672 60.5408 70.2869C60.3429 70.916 60.4065 71.5592 60.7176 72.1035C61.0356 72.6548 61.5587 73.0294 62.2019 73.1708C62.3716 73.2062 62.5624 73.2274 62.7391 73.2274C63.1986 73.2274 63.6651 73.1072 64.075 72.8598ZM63.7216 72.2378C63.2905 72.4852 62.8169 72.57 62.3574 72.464C61.9121 72.3721 61.5516 72.1105 61.3325 71.743C61.2053 71.5239 61.1417 71.2623 61.1417 71.0008C61.1417 70.8382 61.1699 70.6686 61.2194 70.499C61.3608 70.0536 61.6789 69.679 62.0959 69.4316C62.414 69.2549 62.7462 69.163 63.0855 69.163C63.2127 69.163 63.3399 69.1772 63.4742 69.2054C63.9195 69.2973 64.273 69.5589 64.4921 69.9264C64.9445 70.6969 64.5981 71.7359 63.7287 72.2378H63.7216Z" fill="#231F20"/>
<path d="M50.4402 34.3173C50.1858 34.4163 49.6627 34.5718 49.0619 34.4304C48.8781 34.3951 48.7155 34.3244 48.553 34.2467C48.3975 34.1689 48.2561 34.077 48.1289 33.9639C48.0158 33.872 47.9946 33.6883 48.0935 33.5752C48.1925 33.4621 48.3763 33.4409 48.4964 33.5398C48.6943 33.7095 48.9347 33.8296 49.1891 33.8932C49.6486 33.9922 50.0373 33.8791 50.2282 33.8013C50.3696 33.7377 50.5321 33.8155 50.5957 33.9639C50.6594 34.1053 50.5816 34.2679 50.4402 34.3315V34.3173Z" fill="#231F20"/>
<path d="M49.4153 31.9759C49.2527 32.1031 49.0477 32.1738 48.8074 32.1809H48.7791C48.6377 32.1738 48.5246 32.0537 48.5176 31.9052C48.5176 31.7568 48.6377 31.6225 48.7862 31.6225C48.9063 31.6225 49.0053 31.5942 49.0618 31.5377C49.3092 31.3398 49.3375 30.6965 48.9558 29.9473C48.8851 29.8059 48.9417 29.6363 49.0831 29.5656C49.2174 29.4949 49.3941 29.5514 49.4577 29.6928C49.9383 30.64 49.9171 31.5872 49.4153 31.983V31.9759Z" fill="#231F20"/>
<path d="M51.5428 27.7566C51.5216 28.1524 51.1753 28.4635 50.7794 28.4423C50.3836 28.414 50.0726 28.0747 50.0938 27.6647C50.115 27.2689 50.4614 26.9579 50.8713 26.9862C51.2672 27.0074 51.5711 27.3537 51.5499 27.7495L51.5428 27.7566Z" fill="#231F20"/>
<path d="M47.3368 27.948C47.3156 28.3509 46.9692 28.6549 46.5734 28.6337C46.1775 28.6125 45.8665 28.2661 45.8877 27.8703C45.9089 27.4674 46.2553 27.1634 46.6653 27.1846C47.0611 27.2058 47.365 27.5522 47.3438 27.948H47.3368Z" fill="#231F20"/>
</svg>
