<svg width="47" height="34" viewBox="0 0 47 34" fill="none" xmlns="http://www.w3.org/2000/svg">
<path d="M21.5042 25.8086C21.1269 25.8086 20.8208 26.1143 20.8208 26.492V27.8738C20.8208 28.2514 21.1269 28.5572 21.5042 28.5572C21.8815 28.5572 22.1876 28.2514 22.1876 27.8738V26.492C22.1876 26.1143 21.8815 25.8086 21.5042 25.8086Z" fill="#54A548"/>
<path d="M11.5808 15.6328H8.92123C8.29335 15.6328 7.78223 16.1436 7.78223 16.7718V23.6322C7.78223 24.2604 8.29335 24.7712 8.92123 24.7712H11.5808C12.2087 24.7712 12.7198 24.2604 12.7198 23.6322V16.7718C12.7198 16.1436 12.2087 15.6328 11.5808 15.6328ZM11.353 23.4044H9.14903V16.9996H11.353V23.4044Z" fill="#54A548"/>
<path d="M37.7322 15.6328H35.0726C34.4447 15.6328 33.9336 16.1436 33.9336 16.7718V23.6322C33.9336 24.2604 34.4447 24.7712 35.0726 24.7712H37.7322C38.3601 24.7712 38.8712 24.2604 38.8712 23.6322V16.7718C38.8712 16.1436 38.3601 15.6328 37.7322 15.6328ZM37.5044 23.4044H35.3004V16.9996H37.5044V23.4044Z" fill="#54A548"/>
<path d="M23.6248 10.1328H23.0289C21.5504 10.1328 20.3477 11.3359 20.3477 12.8145V15.4121C20.3477 15.9542 20.7887 16.3952 21.3308 16.3952H25.323C25.8651 16.3952 26.3061 15.9542 26.3061 15.4121V12.8145C26.3061 11.3359 25.1034 10.1328 23.6248 10.1328ZM21.7141 15.0284V12.8145C21.7141 12.0894 22.3039 11.4996 23.0289 11.4996H23.6248C24.3495 11.4996 24.9393 12.0894 24.9393 12.8145V15.0284H21.7141Z" fill="#54A548"/>
<path d="M45.9702 32.6332H42.7579V12.4621H45.5146C45.8852 12.4621 46.2023 12.2877 46.3635 11.9955C46.5244 11.7033 46.5024 11.3416 46.3045 11.0284L40.7141 2.18404C40.4567 1.77649 39.9196 1.48071 39.4377 1.48071H25.0464L24.1437 0.391889C23.9372 0.142731 23.6393 0 23.3268 0C23.0139 0 22.7164 0.142731 22.5099 0.391889L21.6073 1.48071H7.21595C6.73365 1.48071 6.1969 1.77649 5.9392 2.18404L0.349176 11.0284C0.151274 11.342 0.129206 11.7033 0.29009 11.9955C0.451331 12.2877 0.768472 12.4621 1.139 12.4621H3.89575V27.0407C3.20843 27.6981 2.77917 28.6225 2.77917 29.6465C2.77917 29.8341 2.79448 30.0181 2.82224 30.1982H2.53215C1.90427 30.1982 1.39314 30.7093 1.39314 31.3372V32.6332H0.683403C0.306107 32.6332 0 32.9393 0 33.3166C0 33.6942 0.306107 34 0.683403 34H45.9702C46.3475 34 46.6536 33.6942 46.6536 33.3166C46.6536 32.9393 46.3475 32.6332 45.9702 32.6332ZM43.1651 8.61977H30.9649L30.0587 7.52633H42.4738L43.1651 8.61977ZM40.9187 5.06608L41.61 6.15952H28.9254L28.0188 5.06608H40.9187ZM39.4306 2.84751C39.4679 2.85392 39.5373 2.89236 39.5626 2.92048L40.0549 3.69927H26.8855L26.1797 2.84751H39.4306ZM5.73489 5.06608H10.2966C10.6739 5.06608 10.98 4.75997 10.98 4.38268C10.98 4.00503 10.6739 3.69927 10.2966 3.69927H6.5984L7.09102 2.92012C7.11629 2.89236 7.1857 2.85392 7.22271 2.84751H20.474L19.7678 3.69927H13.4858C13.1085 3.69927 12.8024 4.00503 12.8024 4.38268C12.8024 4.75997 13.1085 5.06608 13.4858 5.06608H18.6348L17.7283 6.15952H5.04365L5.73489 5.06608ZM4.17979 7.52633H16.5949L15.6884 8.61977H3.48856L4.17979 7.52633ZM1.92385 11.0953L2.62469 9.98658H14.5554L13.636 11.0953H1.92385ZM15.1053 26.0028C14.5878 25.7077 13.993 25.5393 13.3662 25.5393C12.135 25.5393 10.9935 26.195 10.3564 27.2215C10.1855 27.188 10.0108 27.1713 9.83317 27.1713C9.57796 27.1713 9.33094 27.2073 9.09638 27.2735C8.42187 26.5078 7.43663 26.0391 6.38626 26.0391C5.99401 26.0391 5.61636 26.1031 5.26256 26.2195V12.4621H12.5027C12.2546 12.7618 12.1938 13.1256 12.3393 13.4356C12.4853 13.746 12.8049 13.9315 13.1943 13.9315H15.1053V26.0028ZM7.1291 30.1982H4.2161C4.17125 30.0217 4.14598 29.8369 4.14598 29.6465C4.14598 28.411 5.15115 27.4059 6.38626 27.4059C6.95042 27.4059 7.48433 27.6241 7.88974 27.9903C7.40851 28.4819 7.1113 29.1539 7.1113 29.8942C7.1113 29.9971 7.11771 30.0986 7.1291 30.1982ZM15.1053 32.6332H2.75995V31.565H15.1053V32.6332ZM15.1057 30.1982H8.5137C8.49092 30.1007 8.47811 29.9989 8.47811 29.8942C8.47811 29.1464 9.08605 28.5381 9.83317 28.5381C10.0353 28.5381 10.23 28.5819 10.4119 28.6677C10.5838 28.7492 10.7814 28.7549 10.9579 28.6848C11.1345 28.6143 11.2733 28.4733 11.342 28.2961C11.6627 27.4646 12.4767 26.9061 13.3666 26.9061C14.0688 26.9061 14.706 27.2507 15.1057 27.7853V30.1982ZM14.1934 12.5646L23.3268 1.54798L32.4602 12.5646H31.255L23.8529 3.63663C23.723 3.48037 23.5301 3.38961 23.3268 3.38961C23.1232 3.38961 22.9303 3.48037 22.8007 3.63698L15.3986 12.5646H14.1934ZM26.2206 32.6332H20.433V22.0266H26.2206V32.6332ZM41.3911 32.6332H31.5483V24.3807C31.5483 24.0035 31.2422 23.6973 30.8649 23.6973C30.4876 23.6973 30.1815 24.0035 30.1815 24.3807V32.6332H27.5874V21.7988C27.5874 21.1709 27.0766 20.6598 26.4484 20.6598H20.2052C19.577 20.6598 19.0662 21.1709 19.0662 21.7988V32.6332H16.4721V13.4114L23.3268 5.14367L30.1815 13.4114V21.146C30.1815 21.5236 30.4876 21.8294 30.8649 21.8294C31.2422 21.8294 31.5483 21.5236 31.5483 21.146V13.9315H33.459C33.8484 13.9315 34.168 13.746 34.3139 13.4356C34.4599 13.1256 34.3987 12.7618 34.1509 12.4621H36.8126C37.1899 12.4621 37.496 12.1564 37.496 11.7787C37.496 11.4014 37.1899 11.0953 36.8126 11.0953H33.0176L32.0982 9.98658H44.0289L44.7298 11.0953H40.093C39.7157 11.0953 39.4096 11.4014 39.4096 11.7787C39.4096 12.1564 39.7157 12.4621 40.093 12.4621H41.3911V32.6332Z" fill="#54A548"/>
</svg>
