<svg width="34" height="34" viewBox="0 0 34 34" fill="none" xmlns="http://www.w3.org/2000/svg">
<path d="M23.9236 33.3004H10.0763C9.86303 33.3004 9.68994 33.1274 9.68994 32.9141V2.98011C9.68994 2.76684 9.86303 2.59375 10.0763 2.59375C10.2896 2.59375 10.4627 2.76684 10.4627 2.98011V32.5269H23.5372V2.98011C23.5372 2.76684 23.7103 2.59375 23.9236 2.59375C24.1369 2.59375 24.31 2.76684 24.31 2.98011V32.9133C24.31 33.1274 24.1369 33.3004 23.9236 33.3004Z" fill="#22AB00"/>
<path d="M16.0182 10.0237H12.7789C12.5657 10.0237 12.3926 9.85064 12.3926 9.63736V6.39808C12.3926 6.18481 12.5657 6.01172 12.7789 6.01172H16.0182C16.2315 6.01172 16.4046 6.18481 16.4046 6.39808V9.63736C16.4046 9.85064 16.2315 10.0237 16.0182 10.0237ZM13.1661 9.251H15.6326V6.78445H13.1661V9.251Z" fill="#22AB00"/>
<path d="M21.2209 10.0237H17.9816C17.7683 10.0237 17.5952 9.85064 17.5952 9.63736V6.39808C17.5952 6.18481 17.7683 6.01172 17.9816 6.01172H21.2209C21.4341 6.01172 21.6072 6.18481 21.6072 6.39808V9.63736C21.6072 9.85064 21.4341 10.0237 21.2209 10.0237ZM18.3679 9.251H20.8345V6.78445H18.3679V9.251Z" fill="#22AB00"/>
<path d="M16.0182 16.6409H12.7789C12.5657 16.6409 12.3926 16.4678 12.3926 16.2545V13.0153C12.3926 12.802 12.5657 12.6289 12.7789 12.6289H16.0182C16.2315 12.6289 16.4046 12.802 16.4046 13.0153V16.2545C16.4046 16.4678 16.2315 16.6409 16.0182 16.6409ZM13.1661 15.8682H15.6326V13.4016H13.1661V15.8682Z" fill="#22AB00"/>
<path d="M21.2209 16.6409H17.9816C17.7683 16.6409 17.5952 16.4678 17.5952 16.2545V13.0153C17.5952 12.802 17.7683 12.6289 17.9816 12.6289H21.2209C21.4341 12.6289 21.6072 12.802 21.6072 13.0153V16.2545C21.6072 16.4678 21.4341 16.6409 21.2209 16.6409ZM18.3679 15.8682H20.8345V13.4016H18.3679V15.8682Z" fill="#22AB00"/>
<path d="M16.0182 23.2554H12.7789C12.5657 23.2554 12.3926 23.0823 12.3926 22.869V19.6305C12.3926 19.4172 12.5657 19.2441 12.7789 19.2441H16.0182C16.2315 19.2441 16.4046 19.4172 16.4046 19.6305V22.8698C16.4046 23.0823 16.2315 23.2554 16.0182 23.2554ZM13.1661 22.4826H15.6326V20.0169H13.1661V22.4826Z" fill="#22AB00"/>
<path d="M21.2209 23.2554H17.9816C17.7683 23.2554 17.5952 23.0823 17.5952 22.869V19.6305C17.5952 19.4172 17.7683 19.2441 17.9816 19.2441H21.2209C21.4341 19.2441 21.6072 19.4172 21.6072 19.6305V22.8698C21.6072 23.0823 21.4341 23.2554 21.2209 23.2554ZM18.3679 22.4826H20.8345V20.0169H18.3679V22.4826Z" fill="#22AB00"/>
<path d="M19.811 33.302C19.5977 33.302 19.4246 33.1289 19.4246 32.9157V26.7493H14.575V32.9157C14.575 33.1289 14.4019 33.302 14.1886 33.302C13.9753 33.302 13.8022 33.1289 13.8022 32.9157V26.3629C13.8022 26.1497 13.9753 25.9766 14.1886 25.9766H19.811C20.0243 25.9766 20.1973 26.1497 20.1973 26.3629V32.9157C20.1973 33.1289 20.0243 33.302 19.811 33.302Z" fill="#22AB00"/>
<path d="M16.9996 33.302C16.7864 33.302 16.6133 33.1289 16.6133 32.9157V26.3629C16.6133 26.1497 16.7864 25.9766 16.9996 25.9766C17.2129 25.9766 17.386 26.1497 17.386 26.3629V32.9157C17.386 33.1289 17.2129 33.302 16.9996 33.302Z" fill="#22AB00"/>
<path d="M24.4829 3.3678H9.51592C8.75401 3.3678 8.13428 2.74807 8.13428 1.98616V1.79375C8.13428 1.03184 8.75401 0.412109 9.51592 0.412109H24.4829C25.2448 0.412109 25.8645 1.03184 25.8645 1.79375V1.98616C25.8653 2.74807 25.2448 3.3678 24.4829 3.3678ZM9.51592 1.18407C9.17978 1.18407 8.90701 1.45761 8.90701 1.79298V1.98539C8.90701 2.32152 9.18055 2.5943 9.51592 2.5943H24.4829C24.819 2.5943 25.0918 2.32075 25.0918 1.98539V1.79298C25.0918 1.45684 24.8183 1.18407 24.4829 1.18407H9.51592Z" fill="#22AB00"/>
<path d="M2.30891 10.0627H1.47823C1.08337 10.0627 0.711683 9.90893 0.432728 9.62997C0.153773 9.35102 0 8.98011 0 8.58447C0 7.76924 0.663001 7.10547 1.47823 7.10547H10.0764C10.2897 7.10547 10.4627 7.27856 10.4627 7.49183C10.4627 7.70511 10.2897 7.8782 10.0764 7.8782H1.47823C1.08955 7.8782 0.772729 8.19502 0.772729 8.58447C0.772729 8.77302 0.846138 8.94997 0.979047 9.08365C1.11196 9.21656 1.28891 9.28997 1.47823 9.28997H2.30891C2.52219 9.28997 2.69528 9.46306 2.69528 9.67634C2.69528 9.88961 2.52219 10.0627 2.30891 10.0627Z" fill="#22AB00"/>
<path d="M32.5216 10.0627H31.6909C31.4777 10.0627 31.3046 9.88961 31.3046 9.67634C31.3046 9.46306 31.4777 9.28997 31.6909 9.28997H32.5216C32.7102 9.28997 32.8871 9.21656 33.0208 9.08365C33.1537 8.95074 33.2271 8.77379 33.2271 8.58447C33.2271 8.19502 32.9103 7.8782 32.5216 7.8782H23.9235C23.7102 7.8782 23.5371 7.70511 23.5371 7.49183C23.5371 7.27856 23.7102 7.10547 23.9235 7.10547H32.5216C33.3369 7.10547 33.9999 7.76924 33.9999 8.58447C33.9999 8.97934 33.8461 9.35102 33.5671 9.62997C33.2882 9.90893 32.9165 10.0627 32.5216 10.0627Z" fill="#22AB00"/>
<path d="M10.0767 33.3016H2.30922C2.09594 33.3016 1.92285 33.1285 1.92285 32.9152V9.67543C1.92285 9.46215 2.09594 9.28906 2.30922 9.28906C2.52249 9.28906 2.69558 9.46215 2.69558 9.67543V32.5289H10.0767C10.29 32.5289 10.463 32.702 10.463 32.9152C10.463 33.1285 10.29 33.3016 10.0767 33.3016Z" fill="#22AB00"/>
<path d="M7.81139 16.678H4.57289C4.35961 16.678 4.18652 16.5049 4.18652 16.2917V13.0524C4.18652 12.8391 4.35961 12.666 4.57289 12.666H7.81217C8.02544 12.666 8.19853 12.8391 8.19853 13.0524V16.2917C8.19776 16.5049 8.02467 16.678 7.81139 16.678ZM4.95925 15.9053H7.4258V13.4387H4.95925V15.9053Z" fill="#22AB00"/>
<path d="M7.81139 23.2944H4.57289C4.35961 23.2944 4.18652 23.1213 4.18652 22.9081V19.6696C4.18652 19.4563 4.35961 19.2832 4.57289 19.2832H7.81217C8.02544 19.2832 8.19853 19.4563 8.19853 19.6696V22.9088C8.19776 23.1221 8.02467 23.2944 7.81139 23.2944ZM4.95925 22.5217H7.4258V20.0559H4.95925V22.5217Z" fill="#22AB00"/>
<path d="M7.81139 29.9104H4.57289C4.35961 29.9104 4.18652 29.7374 4.18652 29.5241V26.2848C4.18652 26.0715 4.35961 25.8984 4.57289 25.8984H7.81217C8.02544 25.8984 8.19853 26.0715 8.19853 26.2848V29.5241C8.19776 29.7381 8.02467 29.9104 7.81139 29.9104ZM4.95925 29.1377H7.4258V26.6712H4.95925V29.1377Z" fill="#22AB00"/>
<path d="M10.0767 10.0618H2.30922C2.09594 10.0618 1.92285 9.8887 1.92285 9.67543C1.92285 9.46215 2.09594 9.28906 2.30922 9.28906H10.0767C10.29 9.28906 10.463 9.46215 10.463 9.67543C10.463 9.8887 10.29 10.0618 10.0767 10.0618Z" fill="#22AB00"/>
<path d="M31.6914 33.3016H23.924C23.7107 33.3016 23.5376 33.1285 23.5376 32.9152C23.5376 32.702 23.7107 32.5289 23.924 32.5289H31.3051V9.67543C31.3051 9.46215 31.4782 9.28906 31.6914 9.28906C31.9047 9.28906 32.0778 9.46215 32.0778 9.67543V32.9152C32.0778 33.1285 31.9055 33.3016 31.6914 33.3016Z" fill="#22AB00"/>
<path d="M29.4274 16.678H26.1881C25.9748 16.678 25.8018 16.5049 25.8018 16.2917V13.0524C25.8018 12.8391 25.9748 12.666 26.1881 12.666H29.4274C29.6407 12.666 29.8138 12.8391 29.8138 13.0524V16.2917C29.8138 16.5049 29.6407 16.678 29.4274 16.678ZM26.5745 15.9053H29.041V13.4387H26.5745V15.9053Z" fill="#22AB00"/>
<path d="M29.4279 23.2944H26.1886C25.9753 23.2944 25.8022 23.1213 25.8022 22.9081V19.6696C25.8022 19.4563 25.9753 19.2832 26.1886 19.2832H29.4279C29.6412 19.2832 29.8143 19.4563 29.8143 19.6696V22.9088C29.8143 23.1221 29.6412 23.2944 29.4279 23.2944ZM26.575 22.5217H29.0415V20.0559H26.575V22.5217Z" fill="#22AB00"/>
<path d="M29.4279 29.9104H26.1886C25.9753 29.9104 25.8022 29.7374 25.8022 29.5241V26.2848C25.8022 26.0715 25.9753 25.8984 26.1886 25.8984H29.4279C29.6412 25.8984 29.8143 26.0715 29.8143 26.2848V29.5241C29.8143 29.7381 29.6412 29.9104 29.4279 29.9104ZM26.575 29.1377H29.0415V26.6712H26.575V29.1377Z" fill="#22AB00"/>
<path d="M31.6914 10.0618H23.924C23.7107 10.0618 23.5376 9.8887 23.5376 9.67543C23.5376 9.46215 23.7107 9.28906 23.924 9.28906H31.6914C31.9047 9.28906 32.0778 9.46215 32.0778 9.67543C32.0778 9.8887 31.9055 10.0618 31.6914 10.0618Z" fill="#22AB00"/>
</svg>
