<svg width="63" height="64" viewBox="0 0 63 64" fill="none" xmlns="http://www.w3.org/2000/svg">
<path d="M42.6681 44.0159C46.5411 44.0159 49.6931 40.8639 49.6931 36.9889C49.6931 33.1139 46.5411 29.9619 42.6681 29.9619C38.7931 29.9619 35.6411 33.1139 35.6411 36.9889C35.6411 40.8639 38.7931 44.0159 42.6681 44.0159ZM42.6681 31.8999C45.4731 31.8999 47.7541 34.1809 47.7541 36.9879C47.7541 39.7929 45.4731 42.0759 42.6681 42.0759C39.8611 42.0759 37.5781 39.7929 37.5781 36.9879C37.5781 34.1819 39.8621 31.8999 42.6681 31.8999Z" fill="#22AB00"/>
<path d="M40.7831 39.5099C40.8181 39.5449 40.8711 39.5799 40.9391 39.6169C41.0071 39.6539 41.0871 39.6889 41.1811 39.7239C41.2771 39.7589 41.3801 39.7899 41.4971 39.8199C41.6121 39.8489 41.7351 39.8729 41.8661 39.8899L41.7701 40.8159C41.7641 40.8489 41.7661 40.8799 41.7761 40.9079C41.7881 40.9349 41.8091 40.9569 41.8421 40.9729C41.8751 40.9889 41.9221 41.0029 41.9811 41.0119C42.0421 41.0209 42.1201 41.0259 42.2171 41.0259C42.2911 41.0259 42.3561 41.0219 42.4051 41.0139C42.4561 41.0069 42.4951 40.9969 42.5241 40.9849C42.5531 40.9729 42.5731 40.9579 42.5851 40.9389C42.5951 40.9209 42.6011 40.8999 42.6051 40.8759L42.7011 39.8999C42.9921 39.8749 43.2601 39.8179 43.5001 39.7259C43.7401 39.6339 43.9451 39.5129 44.1151 39.3609C44.2851 39.2099 44.4161 39.0289 44.5101 38.8179C44.6021 38.6089 44.6491 38.3729 44.6491 38.1119C44.6491 37.8649 44.6121 37.6549 44.5361 37.4799C44.4601 37.3049 44.3581 37.1559 44.2351 37.0329C44.1101 36.9099 43.9671 36.8059 43.8071 36.7229C43.6491 36.6399 43.4851 36.5659 43.3191 36.5009C43.1551 36.4379 42.9911 36.3759 42.8331 36.3189C42.6731 36.2599 42.5301 36.1969 42.4031 36.1279C42.2781 36.0579 42.1761 35.9739 42.1001 35.8759C42.0241 35.7789 41.9851 35.6589 41.9851 35.5169C41.9851 35.4249 42.0031 35.3409 42.0361 35.2659C42.0691 35.1899 42.1221 35.1239 42.1921 35.0699C42.2601 35.0149 42.3521 34.9719 42.4651 34.9419C42.5761 34.9119 42.7111 34.8959 42.8691 34.8959C43.0431 34.8959 43.2031 34.9159 43.3461 34.9559C43.4911 34.9959 43.6191 35.0379 43.7311 35.0839C43.8401 35.1289 43.9341 35.1719 44.0101 35.2119C44.0861 35.2509 44.1451 35.2719 44.1841 35.2719C44.2051 35.2719 44.2231 35.2659 44.2391 35.2549C44.2551 35.2439 44.2681 35.2229 44.2801 35.1919C44.2921 35.1599 44.3001 35.1139 44.3051 35.0529C44.3091 34.9909 44.3111 34.9139 44.3111 34.8199C44.3111 34.7509 44.3111 34.6879 44.3071 34.6349C44.3031 34.5819 44.2991 34.5359 44.2911 34.4979C44.2831 34.4599 44.2711 34.4279 44.2581 34.4019C44.2451 34.3759 44.2251 34.3499 44.1991 34.3239C44.1741 34.2989 44.1271 34.2689 44.0601 34.2379C43.9941 34.2059 43.9191 34.1749 43.8351 34.1459C43.7531 34.1169 43.6651 34.0919 43.5711 34.0709C43.4771 34.0499 43.3871 34.0329 43.3011 34.0209L43.3931 33.1589C43.3931 33.1259 43.3891 33.0959 43.3791 33.0679C43.3691 33.0399 43.3481 33.0189 43.3151 33.0019C43.2821 32.9849 43.2351 32.9729 43.1721 32.9629C43.1091 32.9539 43.0311 32.9489 42.9361 32.9489C42.8581 32.9489 42.7931 32.9529 42.7451 32.9589C42.6971 32.9649 42.6591 32.9749 42.6301 32.9879C42.6011 33.0009 42.5811 33.0169 42.5691 33.0339C42.5591 33.0509 42.5531 33.0709 42.5491 33.0959L42.4571 34.0119C42.1931 34.0429 41.9571 34.1019 41.7481 34.1879C41.5391 34.2749 41.3651 34.3879 41.2231 34.5279C41.0781 34.6689 40.9691 34.8319 40.8931 35.0179C40.8171 35.2059 40.7801 35.4129 40.7801 35.6409C40.7801 35.8929 40.8171 36.1079 40.8911 36.2859C40.9651 36.4639 41.0651 36.6159 41.1901 36.7399C41.3151 36.8649 41.4561 36.9689 41.6121 37.0549C41.7681 37.1389 41.9281 37.2139 42.0941 37.2779C42.2581 37.3419 42.4181 37.4019 42.5741 37.4579C42.7301 37.5149 42.8711 37.5789 42.9961 37.6499C43.1211 37.7209 43.2211 37.8039 43.2951 37.8989C43.3691 37.9929 43.4061 38.1129 43.4061 38.2579C43.4061 38.4769 43.3201 38.6529 43.1461 38.7849C42.9721 38.9169 42.7081 38.9819 42.3531 38.9819C42.1241 38.9819 41.9251 38.9609 41.7571 38.9139C41.5871 38.8689 41.4441 38.8179 41.3251 38.7639C41.2081 38.7089 41.1101 38.6599 41.0341 38.6139C40.9581 38.5689 40.8991 38.5459 40.8601 38.5459C40.8291 38.5459 40.8031 38.5539 40.7801 38.5669C40.7571 38.5799 40.7391 38.6049 40.7231 38.6409C40.7071 38.6779 40.6981 38.7299 40.6921 38.7969C40.6861 38.8629 40.6821 38.9479 40.6821 39.0519C40.6821 39.1859 40.6901 39.2869 40.7051 39.3559C40.7231 39.4239 40.7481 39.4749 40.7831 39.5099Z" fill="#22AB00"/>
<path d="M42.6681 59.6129C46.5411 59.6129 49.6931 56.4609 49.6931 52.5859C49.6931 48.7109 46.5411 45.5589 42.6681 45.5589C38.7931 45.5589 35.6411 48.7109 35.6411 52.5859C35.6411 56.4609 38.7931 59.6129 42.6681 59.6129ZM42.6681 47.4979C45.4731 47.4979 47.7541 49.7809 47.7541 52.5859C47.7541 55.3919 45.4731 57.6739 42.6681 57.6739C39.8611 57.6739 37.5781 55.3919 37.5781 52.5859C37.5781 49.7809 39.8621 47.4979 42.6681 47.4979Z" fill="#22AB00"/>
<path d="M40.7831 55.1079C40.8181 55.1419 40.8711 55.1779 40.9391 55.2139C41.0071 55.2509 41.0871 55.2859 41.1811 55.3209C41.2771 55.3559 41.3801 55.3869 41.4971 55.4169C41.6121 55.4459 41.7351 55.4699 41.8661 55.4869L41.7701 56.4129C41.7641 56.4469 41.7661 56.4769 41.7761 56.5049C41.7881 56.5319 41.8091 56.5539 41.8421 56.5709C41.8751 56.5879 41.9221 56.5999 41.9811 56.6099C42.0421 56.6189 42.1201 56.6239 42.2171 56.6239C42.2911 56.6239 42.3561 56.6199 42.4051 56.6119C42.4561 56.6039 42.4951 56.5939 42.5241 56.5829C42.5531 56.5699 42.5731 56.5559 42.5851 56.5359C42.5951 56.5179 42.6011 56.4969 42.6051 56.4729L42.7011 55.4959C42.9921 55.4719 43.2601 55.4139 43.5001 55.3219C43.7401 55.2309 43.9451 55.1089 44.1151 54.9579C44.2851 54.8069 44.4161 54.6249 44.5101 54.4149C44.6021 54.2049 44.6491 53.9699 44.6491 53.7089C44.6491 53.4619 44.6121 53.2519 44.5361 53.0759C44.4601 52.9019 44.3581 52.7529 44.2351 52.6299C44.1101 52.5069 43.9671 52.4029 43.8071 52.3199C43.6491 52.2359 43.4851 52.1619 43.3191 52.0979C43.1551 52.0349 42.9911 51.9729 42.8331 51.9149C42.6731 51.8569 42.5301 51.7939 42.4031 51.7239C42.2781 51.6539 42.1761 51.5709 42.1001 51.4729C42.0241 51.3759 41.9851 51.2549 41.9851 51.1129C41.9851 51.0219 42.0031 50.9379 42.0361 50.8629C42.0691 50.7869 42.1221 50.7199 42.1921 50.6659C42.2601 50.6109 42.3521 50.5689 42.4651 50.5389C42.5761 50.5079 42.7111 50.4929 42.8691 50.4929C43.0431 50.4929 43.2031 50.5139 43.3461 50.5529C43.4911 50.5919 43.6191 50.6349 43.7311 50.6799C43.8401 50.7269 43.9341 50.7689 44.0101 50.8089C44.0861 50.8479 44.1451 50.8679 44.1841 50.8679C44.2051 50.8679 44.2231 50.8619 44.2391 50.8519C44.2551 50.8399 44.2681 50.8199 44.2801 50.7879C44.2921 50.7569 44.3001 50.7099 44.3051 50.6489C44.3091 50.5879 44.3111 50.5099 44.3111 50.4169C44.3111 50.3469 44.3111 50.2849 44.3071 50.2309C44.3031 50.1779 44.2991 50.1329 44.2911 50.0939C44.2831 50.0569 44.2711 50.0249 44.2581 49.9979C44.2441 49.9729 44.2251 49.9469 44.1991 49.9209C44.1731 49.8949 44.1271 49.8659 44.0601 49.8339C43.9941 49.8029 43.9191 49.7709 43.8351 49.7429C43.7531 49.7149 43.6651 49.6889 43.5711 49.6679C43.4771 49.6469 43.3871 49.6299 43.3011 49.6169L43.3931 48.7559C43.3931 48.7229 43.3891 48.6919 43.3791 48.6639C43.3691 48.6359 43.3481 48.6149 43.3151 48.5979C43.2821 48.5819 43.2351 48.5689 43.1721 48.5599C43.1091 48.5509 43.0311 48.5459 42.9361 48.5459C42.8581 48.5459 42.7931 48.5489 42.7451 48.5549C42.6971 48.5609 42.6591 48.5719 42.6301 48.5839C42.6011 48.5979 42.5811 48.6129 42.5691 48.6309C42.5591 48.6469 42.5531 48.6679 42.5491 48.6919L42.4571 49.6089C42.1931 49.6389 41.9571 49.6979 41.7481 49.7849C41.5391 49.8719 41.3651 49.9849 41.2231 50.1249C41.0781 50.2649 40.9691 50.4289 40.8931 50.6149C40.8171 50.8009 40.7801 51.0099 40.7801 51.2369C40.7801 51.4889 40.8171 51.7049 40.8911 51.8829C40.9651 52.0609 41.0651 52.2119 41.1901 52.3369C41.3151 52.4619 41.4561 52.5659 41.6121 52.6509C41.7681 52.7359 41.9281 52.8109 42.0941 52.8739C42.2581 52.9379 42.4181 52.9989 42.5741 53.0549C42.7301 53.1119 42.8711 53.1749 42.9961 53.2469C43.1211 53.3169 43.2211 53.4009 43.2951 53.4949C43.3691 53.5889 43.4061 53.7099 43.4061 53.8549C43.4061 54.0739 43.3201 54.2489 43.1461 54.3809C42.9721 54.5129 42.7081 54.5799 42.3531 54.5799C42.1241 54.5799 41.9251 54.5569 41.7571 54.5109C41.5871 54.4649 41.4441 54.4149 41.3251 54.3609C41.2081 54.3059 41.1101 54.2569 41.0341 54.2109C40.9581 54.1649 40.8991 54.1429 40.8601 54.1429C40.8291 54.1429 40.8031 54.1499 40.7801 54.1639C40.7571 54.1779 40.7391 54.2029 40.7231 54.2389C40.7071 54.2749 40.6981 54.3279 40.6921 54.3939C40.6861 54.4599 40.6821 54.5459 40.6821 54.6499C40.6821 54.7829 40.6901 54.8839 40.7051 54.9529C40.7231 55.0209 40.7481 55.0729 40.7831 55.1079Z" fill="#22AB00"/>
<path d="M62.5001 25.2579L54.1411 18.2909V6.01489C54.1411 5.47989 53.7071 5.04489 53.1721 5.04489H45.5201C44.9831 5.04489 44.5491 5.47989 44.5491 6.01489V10.2969L32.4651 0.224894C32.1101 -0.0721057 31.5941 -0.0751057 31.2351 0.216894L0.358143 25.2479C0.040143 25.5079 -0.080857 25.9389 0.055143 26.3259C0.191143 26.7129 0.559143 26.9719 0.969143 26.9719H5.21514V63.0299C5.21514 63.5659 5.65014 63.9999 6.18514 63.9999H56.6621C57.1991 63.9999 57.6331 63.5659 57.6331 63.0299V26.9719H61.8791C62.2871 26.9719 62.6521 26.7159 62.7911 26.3319C62.9301 25.9489 62.8151 25.5189 62.5001 25.2579ZM46.4881 6.98389H52.2011V16.6739L46.4881 11.9119V6.98389ZM26.9641 62.0609H16.4521V42.8279H26.9641V62.0609ZM55.6941 62.0609H28.9031V41.8569C28.9031 41.3219 28.4691 40.8879 27.9331 40.8879H15.4821C14.9461 40.8879 14.5121 41.3219 14.5121 41.8569V62.0599H7.15514V26.9719H55.6941V62.0609ZM3.70514 25.0319L31.8371 2.22489L59.2021 25.0319H3.70514Z" fill="#22AB00"/>
<path d="M21.0752 16.8709V21.8339C21.0752 22.3699 21.5092 22.8039 22.0442 22.8039H40.8052C41.3402 22.8039 41.7742 22.3699 41.7742 21.8339V16.8709C41.7742 16.3349 41.3402 15.9009 40.8052 15.9009H22.0442C21.5082 15.9009 21.0752 16.3349 21.0752 16.8709ZM23.0142 17.8409H39.8342V20.8649H23.0142V17.8409Z" fill="#22AB00"/>
<path d="M12.6221 38.8729H30.7941C31.3291 38.8729 31.7641 38.4389 31.7641 37.9039C31.7641 37.3679 31.3291 36.9329 30.7941 36.9329H12.6221C12.0871 36.9329 11.6521 37.3679 11.6521 37.9039C11.6521 38.4389 12.0871 38.8729 12.6221 38.8729Z" fill="#22AB00"/>
</svg>
