<svg width="23" height="33" viewBox="0 0 23 33" fill="none" xmlns="http://www.w3.org/2000/svg">
<path d="M20.2619 0H2.7381C2.01217 0.000869541 1.31623 0.289626 0.80293 0.80293C0.289626 1.31623 0.000869541 2.01217 0 2.73809V24.0952C0.000796525 24.7262 0.219097 25.3376 0.618108 25.8264C1.01712 26.3152 1.57244 26.6515 2.19048 26.7786V27.9286C2.19188 28.2671 2.29786 28.597 2.49391 28.873C2.68995 29.1491 2.9665 29.3578 3.28571 29.4707V31.7619C3.28571 32.0524 3.40111 32.331 3.6065 32.5364C3.8119 32.7417 4.09048 32.8571 4.38095 32.8571H5.47619C5.76667 32.8571 6.04524 32.7417 6.25064 32.5364C6.45604 32.331 6.57143 32.0524 6.57143 31.7619V29.4707C6.89064 29.3578 7.16719 29.1491 7.36324 28.873C7.55929 28.597 7.66526 28.2671 7.66667 27.9286V26.8333H8.7619V27.9286C8.76331 28.2671 8.86928 28.597 9.06533 28.873C9.26138 29.1491 9.53793 29.3578 9.85714 29.4707V31.7619C9.85714 32.0524 9.97253 32.331 10.1779 32.5364C10.3833 32.7417 10.6619 32.8571 10.9524 32.8571H12.0476C12.3381 32.8571 12.6167 32.7417 12.8221 32.5364C13.0275 32.331 13.1429 32.0524 13.1429 31.7619V29.4707C13.4621 29.3578 13.7386 29.1491 13.9347 28.873C14.1307 28.597 14.2367 28.2671 14.2381 27.9286V26.8333H15.3333V27.9286C15.3347 28.2671 15.4407 28.597 15.6368 28.873C15.8328 29.1491 16.1094 29.3578 16.4286 29.4707V31.7619C16.4286 32.0524 16.544 32.331 16.7494 32.5364C16.9548 32.7417 17.2333 32.8571 17.5238 32.8571H18.619C18.9095 32.8571 19.1881 32.7417 19.3935 32.5364C19.5989 32.331 19.7143 32.0524 19.7143 31.7619V29.4707C20.0335 29.3578 20.31 29.1491 20.5061 28.873C20.7021 28.597 20.8081 28.2671 20.8095 27.9286V26.7786C21.4276 26.6515 21.9829 26.3152 22.3819 25.8264C22.7809 25.3376 22.9992 24.7262 23 24.0952V2.73809C22.9991 2.01217 22.7104 1.31623 22.1971 0.80293C21.6838 0.289626 20.9878 0.000869541 20.2619 0ZM2.7381 1.09524H20.2619C20.6976 1.09524 21.1155 1.26832 21.4236 1.57642C21.7317 1.88452 21.9048 2.30238 21.9048 2.73809V6.02381H1.09524V2.73809C1.09524 2.30238 1.26832 1.88452 1.57642 1.57642C1.88452 1.26832 2.30238 1.09524 2.7381 1.09524ZM4.38095 31.7619V29.5714H5.47619V31.7619H4.38095ZM6.57143 27.9286C6.57143 28.0738 6.51373 28.2131 6.41104 28.3158C6.30834 28.4185 6.16905 28.4762 6.02381 28.4762H3.83333C3.6881 28.4762 3.54881 28.4185 3.44611 28.3158C3.34341 28.2131 3.28571 28.0738 3.28571 27.9286V26.8333H6.57143V27.9286ZM10.9524 31.7619V29.5714H12.0476V31.7619H10.9524ZM13.1429 27.9286C13.1429 28.0738 13.0852 28.2131 12.9825 28.3158C12.8798 28.4185 12.7405 28.4762 12.5952 28.4762H10.4048C10.2595 28.4762 10.1202 28.4185 10.0175 28.3158C9.91484 28.2131 9.85714 28.0738 9.85714 27.9286V26.8333H13.1429V27.9286ZM17.5238 31.7619V29.5714H18.619V31.7619H17.5238ZM19.1667 28.4762H16.9762C16.831 28.4762 16.6917 28.4185 16.589 28.3158C16.4863 28.2131 16.4286 28.0738 16.4286 27.9286V26.8333H19.7143V27.9286C19.7143 28.0738 19.6566 28.2131 19.5539 28.3158C19.4512 28.4185 19.3119 28.4762 19.1667 28.4762ZM20.2619 25.7381H2.7381C2.30238 25.7381 1.88452 25.565 1.57642 25.2569C1.26832 24.9488 1.09524 24.5309 1.09524 24.0952V7.11905H21.9048V24.0952C21.9048 24.5309 21.7317 24.9488 21.4236 25.2569C21.1155 25.565 20.6976 25.7381 20.2619 25.7381Z" fill="#54A548"/>
<path d="M14.6656 13.2135C14.516 13.226 14.3723 13.2772 14.2486 13.3621C14.1248 13.447 14.0253 13.5626 13.9597 13.6976C13.8976 13.8296 13.7952 13.9384 13.6672 14.0085C13.5393 14.0786 13.3924 14.1062 13.2478 14.0875C13.0711 14.0397 12.9165 13.9319 12.8105 13.7826C12.7045 13.6334 12.6537 13.4519 12.6667 13.2693C12.6635 12.3567 12.8676 11.4553 13.2637 10.6331C13.3483 10.4647 13.3787 10.2743 13.3507 10.088C13.3226 9.90162 13.2375 9.72856 13.107 9.59261C12.9819 9.45872 12.8182 9.36709 12.6386 9.33039C12.4591 9.29369 12.2725 9.31376 12.1049 9.3878C10.4155 10.1282 6.44415 12.3608 6.04823 17.0808C5.9769 17.9062 6.06956 18.7376 6.32087 19.527C6.57219 20.3165 6.97719 21.0485 7.51256 21.6808C7.96139 22.2175 8.51325 22.6588 9.13555 22.9786C9.75784 23.2984 10.4379 23.4902 11.1356 23.5427C11.2594 23.5503 11.382 23.5547 11.5047 23.5547C12.8696 23.5545 14.1826 23.0315 15.1737 22.0931C15.7488 21.5493 16.2064 20.8935 16.5184 20.1662C16.8304 19.4388 16.9902 18.6553 16.988 17.8638C16.9366 16.3142 16.4068 14.8184 15.4711 13.582C15.3799 13.4564 15.2579 13.3565 15.1167 13.292C14.9756 13.2274 14.8202 13.2004 14.6656 13.2135ZM14.423 21.2865C13.997 21.6925 13.491 22.0051 12.9373 22.2042C12.3835 22.4034 11.7943 22.4847 11.2073 22.443C10.655 22.4006 10.1168 22.248 9.6245 21.994C9.1322 21.74 8.6958 21.39 8.34111 20.9645C7.90035 20.4431 7.567 19.8398 7.36024 19.1892C7.15348 18.5385 7.07739 17.8534 7.13634 17.1733C7.44465 13.5043 10.1789 11.5383 12.0737 10.6084C11.7434 11.4532 11.5722 12.3519 11.5688 13.2589C11.5514 13.7042 11.6932 14.1411 11.9688 14.4914C12.2444 14.8416 12.6357 15.0822 13.0725 15.1701C13.3906 15.2211 13.7166 15.1834 14.0146 15.0612C14.3126 14.939 14.5712 14.737 14.7619 14.4774C15.4584 15.4713 15.8504 16.6465 15.89 17.8595C15.8922 18.5005 15.7631 19.1353 15.5108 19.7246C15.2585 20.314 14.8883 20.8455 14.423 21.2865Z" fill="#54A548"/>
<path d="M12.5955 18.0696H11.291L11.9931 16.6715C12.058 16.5416 12.0686 16.3911 12.0226 16.2533C11.9766 16.1155 11.8778 16.0016 11.7478 15.9366C11.6178 15.8717 11.4673 15.8611 11.3295 15.9071C11.1917 15.9531 11.0778 16.052 11.0129 16.182L9.91762 18.3724C9.87599 18.4557 9.8563 18.5483 9.86039 18.6413C9.86449 18.7344 9.89224 18.8248 9.94103 18.9041C9.98982 18.9835 10.058 19.049 10.1392 19.0946C10.2204 19.1403 10.3119 19.1644 10.405 19.1648H11.7094L11.0101 20.5629C10.9452 20.6929 10.9346 20.8434 10.9806 20.9812C11.0266 21.119 11.1255 21.2329 11.2555 21.2978C11.3854 21.3627 11.5359 21.3734 11.6737 21.3274C11.8115 21.2814 11.9254 21.1825 11.9904 21.0525L13.0856 18.862C13.1273 18.7785 13.147 18.6857 13.1428 18.5925C13.1386 18.4992 13.1106 18.4086 13.0615 18.3292C13.0124 18.2498 12.9438 18.1842 12.8622 18.1388C12.7807 18.0934 12.6888 18.0696 12.5955 18.0696Z" fill="#54A548"/>
</svg>
