<svg width="46" height="34" viewBox="0 0 46 34" fill="none" xmlns="http://www.w3.org/2000/svg">
<path d="M18.0122 3.14844V5.44114" stroke="#54A548" stroke-miterlimit="10" stroke-linecap="round" stroke-linejoin="round"/>
<path d="M42.4505 18.5591V14.7474H24.962L24.1226 14.043V33.1085H29.5694" stroke="#54A548" stroke-miterlimit="10" stroke-linecap="round" stroke-linejoin="round"/>
<path d="M32.6895 33.1097H42.0049C42.251 33.1097 42.4506 32.9101 42.4506 32.664V26.4531" stroke="#54A548" stroke-miterlimit="10" stroke-linecap="round" stroke-linejoin="round"/>
<path d="M1.71777 25.7167V32.6626C1.71777 32.9087 1.91736 33.1083 2.16348 33.1083H24.2119V14.234L12.9648 4.79688L1.71777 14.234V22.5968" stroke="#54A548" stroke-miterlimit="10" stroke-linecap="round" stroke-linejoin="round"/>
<path d="M8.65918 33.1093H17.2709V19.537C17.2709 19.3892 17.1512 19.2695 17.0035 19.2695H8.9266C8.7789 19.2695 8.65918 19.3892 8.65918 19.537V33.1093Z" stroke="#54A548" stroke-miterlimit="10" stroke-linecap="round" stroke-linejoin="round"/>
<path d="M20.0361 4.79688H12.9648L24.9298 14.8363H44.3326L39.207 10.5356" stroke="#54A548" stroke-miterlimit="10" stroke-linecap="round" stroke-linejoin="round"/>
<path d="M29.0498 10.5352V12.2332" stroke="#54A548" stroke-miterlimit="10" stroke-linecap="round" stroke-linejoin="round"/>
<path d="M39.6021 10.5352V12.2332" stroke="#54A548" stroke-miterlimit="10" stroke-linecap="round" stroke-linejoin="round"/>
<path d="M20.2987 1H15.5117L26.8752 10.5348H45.3026L33.9392 1H23.4186" stroke="#54A548" stroke-miterlimit="10" stroke-linecap="round" stroke-linejoin="round"/>
<path d="M12.9649 4.79688L1 14.8363" stroke="#54A548" stroke-miterlimit="10" stroke-linecap="round" stroke-linejoin="round"/>
<path d="M11.0986 25.0898V26.5453" stroke="#54A548" stroke-miterlimit="10" stroke-linecap="round" stroke-linejoin="round"/>
<path d="M28.1485 19.0406C27.218 21.2039 27.6344 23.8078 29.4011 25.5745C31.1677 27.3412 33.7717 27.7576 35.935 26.8271C36.8655 24.6639 36.4491 22.0599 34.6824 20.2932C32.9158 18.5265 30.3117 18.11 28.1485 19.0406Z" stroke="#54A548" stroke-miterlimit="10" stroke-linecap="round" stroke-linejoin="round"/>
<path d="M30.6514 21.543L36.4843 27.3759" stroke="#54A548" stroke-miterlimit="10" stroke-linecap="round" stroke-linejoin="round"/>
<path d="M44.8212 19.0406C45.7518 21.2039 45.3353 23.8078 43.5686 25.5745C41.8019 27.3412 39.198 27.7576 37.0347 26.8271C36.1042 24.6639 36.5206 22.0599 38.2873 20.2932C40.054 18.5265 42.658 18.11 44.8212 19.0406Z" stroke="#54A548" stroke-miterlimit="10" stroke-linecap="round" stroke-linejoin="round"/>
<path d="M42.3177 21.543L36.4849 27.3759" stroke="#54A548" stroke-miterlimit="10" stroke-linecap="round" stroke-linejoin="round"/>
<path d="M36.4849 27.375V33.1067" stroke="#54A548" stroke-miterlimit="10" stroke-linecap="round" stroke-linejoin="round"/>
<path d="M36.9646 10.5348L25.6011 1" stroke="#54A548" stroke-miterlimit="10" stroke-linecap="round" stroke-linejoin="round"/>
<path d="M39.7923 5.91016H21.3647" stroke="#54A548" stroke-miterlimit="10" stroke-linecap="round" stroke-linejoin="round"/>
</svg>
