<svg width="78" height="79" viewBox="0 0 78 79" fill="none" xmlns="http://www.w3.org/2000/svg">
<path d="M22.626 1.54468H4.08943C2.38314 1.54468 1 2.92782 1 4.63411V68.2764C1 69.9827 2.38314 71.3658 4.08943 71.3658H53.429" stroke="white" stroke-width="2" stroke-miterlimit="10" stroke-linecap="round" stroke-linejoin="round"/>
<path d="M58.1546 13.1126V4.63411C58.1546 2.92782 56.7714 1.54468 55.0652 1.54468H36.5286" stroke="white" stroke-width="2" stroke-miterlimit="10" stroke-linecap="round" stroke-linejoin="round"/>
<path d="M61.2537 57.2719V51.3882" stroke="white" stroke-width="2" stroke-miterlimit="10" stroke-linecap="round" stroke-linejoin="round"/>
<path d="M54.7659 57.2719V51.3882" stroke="white" stroke-width="2" stroke-miterlimit="10" stroke-linecap="round" stroke-linejoin="round"/>
<path d="M58.01 77.5447C55.6213 77.5447 53.6848 75.6082 53.6848 73.2195V58.9526C53.6848 58.1497 54.3358 57.4989 55.1385 57.4989H60.8815C61.6844 57.4989 62.3352 58.1498 62.3352 58.9526V73.2195C62.3352 75.6082 60.3988 77.5447 58.01 77.5447Z" stroke="white" stroke-width="2" stroke-miterlimit="10" stroke-linecap="round" stroke-linejoin="round"/>
<path d="M58.0098 51.3883C68.4978 51.3883 77.0001 42.886 77.0001 32.398C77.0001 21.9099 68.4978 13.4077 58.0098 13.4077C47.5218 13.4077 39.0195 21.9099 39.0195 32.398C39.0195 42.886 47.5218 51.3883 58.0098 51.3883Z" stroke="white" stroke-width="2" stroke-miterlimit="10" stroke-linecap="round" stroke-linejoin="round"/>
<path d="M49.5173 41.9903C50.533 38.2525 53.9504 35.5037 58.0099 35.5037C62.0694 35.5037 65.4868 38.2525 66.5024 41.9904" stroke="white" stroke-width="2" stroke-miterlimit="10" stroke-linecap="round" stroke-linejoin="round"/>
<path d="M62.0276 30.4815V31.486C62.0276 33.705 60.2288 35.504 58.0097 35.504C55.7907 35.504 53.9917 33.7051 53.9917 31.486V30.4815C53.9917 28.2625 55.7905 26.4635 58.0097 26.4635C60.2288 26.4635 62.0276 28.2625 62.0276 30.4815Z" stroke="white" stroke-width="2" stroke-miterlimit="10" stroke-linecap="round" stroke-linejoin="round"/>
<path d="M58.0099 45.2092C65.0854 45.2092 70.8213 39.4734 70.8213 32.3978C70.8213 25.3223 65.0854 19.5864 58.0099 19.5864C50.9343 19.5864 45.1985 25.3223 45.1985 32.3978C45.1985 39.4734 50.9343 45.2092 58.0099 45.2092Z" stroke="white" stroke-width="2" stroke-miterlimit="10" stroke-linecap="round" stroke-linejoin="round"/>
<path d="M13.7131 22.2439C12.9235 22.2439 12.1338 21.9427 11.5314 21.3401L7.59713 17.406C7.05494 16.8638 7.05478 15.9845 7.59713 15.4423L9.99716 13.0423C10.5394 12.5001 11.4186 12.5001 11.9608 13.0423L13.7131 14.7946L18.2149 10.2929C18.7571 9.75068 19.6363 9.75068 20.1785 10.2929L22.5786 12.6929C23.1208 13.2351 23.1208 14.1143 22.5786 14.6565L15.895 21.3402C15.2924 21.9427 14.5028 22.2439 13.7131 22.2439Z" stroke="white" stroke-width="2" stroke-miterlimit="10" stroke-linecap="round" stroke-linejoin="round"/>
<path d="M29.2429 12.6666H41.8208" stroke="white" stroke-width="2" stroke-miterlimit="10" stroke-linecap="round" stroke-linejoin="round"/>
<path d="M29.2429 19.4634H34.894" stroke="white" stroke-width="2" stroke-miterlimit="10" stroke-linecap="round" stroke-linejoin="round"/>
<path d="M13.7131 42.6343C12.9235 42.6343 12.1338 42.333 11.5314 41.7304L7.59713 37.7964C7.05494 37.2542 7.05478 36.3749 7.59713 35.8327L9.99716 33.4327C10.5394 32.8905 11.4186 32.8905 11.9608 33.4327L13.7131 35.185L18.2149 30.6833C18.7571 30.1411 19.6363 30.1411 20.1785 30.6833L22.5786 33.0833C23.1208 33.6255 23.1208 34.5047 22.5786 35.0469L15.895 41.7306C15.2924 42.333 14.5028 42.6343 13.7131 42.6343Z" stroke="white" stroke-width="2" stroke-miterlimit="10" stroke-linecap="round" stroke-linejoin="round"/>
<path d="M29.2429 33.0569H38.7587" stroke="white" stroke-width="2" stroke-miterlimit="10" stroke-linecap="round" stroke-linejoin="round"/>
<path d="M29.2429 39.8536H33.1076" stroke="white" stroke-width="2" stroke-miterlimit="10" stroke-linecap="round" stroke-linejoin="round"/>
<path d="M13.7131 63.0243C12.9235 63.0243 12.1338 62.7231 11.5314 62.1205L7.59713 58.1864C7.05494 57.6442 7.05478 56.765 7.59713 56.2228L9.99716 53.8228C10.5394 53.2806 11.4186 53.2806 11.9608 53.8228L13.7131 55.5751L18.2149 51.0733C18.7571 50.5311 19.6363 50.5311 20.1785 51.0733L22.5786 53.4734C23.1208 54.0156 23.1208 54.8948 22.5786 55.437L15.895 62.1207C15.2924 62.7231 14.5028 63.0243 13.7131 63.0243Z" stroke="white" stroke-width="2" stroke-miterlimit="10" stroke-linecap="round" stroke-linejoin="round"/>
<path d="M29.2429 53.4473H41.8208" stroke="white" stroke-width="2" stroke-miterlimit="10" stroke-linecap="round" stroke-linejoin="round"/>
<path d="M29.2429 60.2441H34.894" stroke="white" stroke-width="2" stroke-miterlimit="10" stroke-linecap="round" stroke-linejoin="round"/>
<circle cx="29.5772" cy="1.54472" r="1.54472" fill="white"/>
</svg>
