<svg width="96" height="79" viewBox="0 0 96 79" fill="none" xmlns="http://www.w3.org/2000/svg">
<path d="M57.0236 22.8809H69.0701C69.3624 22.8809 69.6436 22.7698 69.857 22.5699L74.003 18.7003C74.4679 18.2662 74.4927 17.5373 74.0587 17.0726C74.0409 17.0535 74.0222 17.035 74.003 17.017L69.857 13.1455C69.6434 12.9464 69.362 12.8359 69.0701 12.8364H57.0236C56.3875 12.8364 55.8719 13.352 55.8719 13.9881V21.7292C55.8719 22.3651 56.3875 22.8809 57.0236 22.8809ZM58.1753 15.1398H68.6171L71.5289 17.8577L68.6171 20.5776H58.1753V15.1398Z" fill="white"/>
<path d="M57.0236 33.9098H73.218C73.5096 33.9092 73.7902 33.7981 74.003 33.5989L78.151 29.7293C78.6164 29.2957 78.6422 28.567 78.2086 28.1016C78.1901 28.0816 78.1707 28.0624 78.151 28.044L74.005 24.1744C73.7917 23.9757 73.5113 23.8654 73.2199 23.8654H57.0236C56.3875 23.8654 55.8719 24.3809 55.8719 25.017V32.7582C55.8719 33.3941 56.3875 33.9098 57.0236 33.9098ZM58.1753 26.1687H72.7631L75.6768 28.8866L72.7631 31.6065H58.1753V26.1687Z" fill="white"/>
<path d="M57.0236 44.937H77.3697C77.662 44.937 77.9432 44.8259 78.1567 44.6261L82.2931 40.7565C82.7586 40.3152 82.7779 39.5802 82.3367 39.1148C82.3225 39.0998 82.3081 39.0854 82.2931 39.0712L78.1471 35.2016C77.9336 35.0018 77.6524 34.8906 77.3601 34.8906H57.014C56.3779 34.8906 55.8623 35.4062 55.8623 36.0423V43.7853C55.8623 44.4215 56.3779 44.937 57.014 44.937H57.0236ZM58.1752 37.194H76.9186L79.8304 39.9138L76.9186 42.6337H58.1752V37.194Z" fill="white"/>
<path d="M57.0236 55.9624H81.5119C81.8033 55.9624 82.0837 55.852 82.297 55.6533L86.443 51.7818C86.9079 51.3476 86.9326 50.6188 86.4986 50.1541C86.4808 50.1349 86.4622 50.1165 86.443 50.0985L82.2931 46.2289C82.0803 46.0296 81.7996 45.9185 81.5081 45.9179H57.0236C56.3875 45.9179 55.8719 46.4335 55.8719 47.0696V54.8107C55.8719 55.4466 56.3875 55.9624 57.0236 55.9624ZM58.1753 48.2212H81.057L83.9707 50.9411L81.057 53.659H58.1753V48.2212Z" fill="white"/>
<path d="M57.0236 66.9896H85.6579C85.9493 66.9896 86.2297 66.8792 86.443 66.6806L90.5909 62.8052C91.0558 62.371 91.0806 61.6422 90.6466 61.1775C90.6287 61.1583 90.6101 61.1399 90.5909 61.1218L86.443 57.2522C86.2301 57.053 85.9495 56.9419 85.6579 56.9413H57.0236C56.3875 56.9413 55.8719 57.4568 55.8719 58.093V65.8379C55.8719 66.4738 56.3875 66.9896 57.0236 66.9896ZM58.1753 59.2485H85.2049L88.1167 61.9683L85.2049 64.6863H58.1753V59.2485Z" fill="white"/>
<path d="M90.5909 68.2814C90.3773 68.0823 90.0959 67.9718 89.8039 67.9724H57.0236C56.3875 67.9724 55.8719 68.4879 55.8719 69.124V76.8652C55.8719 77.5013 56.3875 78.0168 57.0236 78.0168H89.8039C90.0959 78.0174 90.3773 77.9068 90.5909 77.7078L94.7369 73.8363C95.2018 73.4021 95.2266 72.6733 94.7926 72.2086C94.7747 72.1894 94.7561 72.171 94.7369 72.1529L90.5909 68.2814ZM89.3509 75.7135H58.1753V70.2757H89.3509L92.2743 72.9955L89.3509 75.7135Z" fill="white"/>
<path d="M4.01232 55.5112C4.31674 55.5111 4.60869 55.3901 4.82424 55.1753L8.24854 51.7606V76.5944C8.24854 77.2306 8.7641 77.7461 9.40021 77.7461H52.2442C53.7567 77.6981 53.7797 75.4984 52.2442 75.4428H49.4226V54.4268C49.4193 52.342 47.7296 50.6533 45.6451 50.6512H34.7676C32.6829 50.6533 30.9934 52.3422 30.9901 54.4268V75.4428H10.5519V49.4554L34.2801 25.7848L51.4303 42.8928C51.8808 43.3423 52.6104 43.3414 53.0599 42.8909C53.5095 42.4404 53.5085 41.7108 53.058 41.2613L35.0939 23.3432C34.6446 22.8954 33.9175 22.8954 33.4682 23.3432L3.5958 53.1503C2.35583 52.8797 1.8683 51.1714 2.82802 50.2884L34.3069 18.4371L51.4515 35.7889C52.5455 36.835 54.1387 35.2937 53.0907 34.1708L35.0997 15.9898C34.6523 15.5378 33.9231 15.5338 33.471 15.9812C33.4682 15.9841 33.4653 15.9869 33.4624 15.9898L17.3198 32.3262L17.0742 27.6965C17.0415 27.0846 16.5354 26.6053 15.9225 26.6063H9.73803C9.11306 26.6061 8.60191 27.1044 8.58636 27.7292L8.24278 40.8371C8.2374 41.0269 8.27963 41.215 8.36562 41.3841L1.17729 48.6646C-1.35254 51.1387 0.472857 55.5458 4.01232 55.5112ZM33.2935 54.4344C33.2956 53.6215 33.9547 52.9632 34.7676 52.9622H45.6451C46.458 52.9632 47.1171 53.6215 47.1193 54.4344V75.4428H33.2992L33.2935 54.4344ZM10.8647 28.9096H14.8322L15.1125 34.2553C15.1182 34.3422 15.133 34.4284 15.1566 34.5125L10.5979 39.1307L10.8647 28.9096Z" fill="white"/>
<path d="M16.2642 47.8625C15.6281 47.8625 15.1125 48.3781 15.1125 49.0142V63.2833C15.1125 63.9194 15.6281 64.435 16.2642 64.435H26.6945C27.3306 64.435 27.8462 63.9194 27.8462 63.2833V49.0142C27.8462 48.3781 27.3306 47.8625 26.6945 47.8625H16.2642ZM25.5428 62.1317H17.4159V50.1658H25.5428V62.1317Z" fill="white"/>
<path d="M36.5412 63.2812C35.7608 63.2812 35.1277 63.9135 35.1266 64.694C35.1918 66.5654 37.8887 66.5654 37.9539 64.694C37.9528 63.9141 37.3209 63.2822 36.5412 63.2812Z" fill="white"/>
<path d="M11.2256 17.4122C11.6953 16.9842 11.7296 16.2567 11.3023 15.7865C9.9856 14.3392 9.06235 11.6961 12.1431 7.31403C14.5904 3.83215 18.625 2.72655 21.6213 2.406C19.9379 3.94156 18.3889 6.41381 19.1855 10.0838C20.1702 14.3507 17.9475 16.3796 14.3869 16.823C14.9744 14.2231 15.9079 11.7138 17.1624 9.36208C17.8419 8.00503 15.8975 6.94934 15.1336 8.27184C12.6939 12.8056 11.3618 18.0514 11.2735 23.4566C11.263 24.0927 11.7699 24.6169 12.406 24.6274C13.0421 24.638 13.5663 24.1311 13.5769 23.495C13.6016 22.0489 13.723 20.6062 13.9397 19.1762C15.4292 19.0918 18.1855 18.6522 20.0243 16.6675C21.6079 14.9573 22.0839 12.581 21.4389 9.60585C20.9994 7.577 21.2739 4.75157 25.0859 2.80525C26.4295 2.12001 25.9746 0.0566015 24.4582 0.0105347C21.5215 -0.0815987 14.2583 0.313807 10.2543 5.99729C6.09104 11.9149 8.05656 15.6425 9.59979 17.3374C10.0282 17.8065 10.7557 17.8399 11.2256 17.4122Z" fill="white"/>
</svg>
