<svg width="34" height="34" viewBox="0 0 34 34" fill="none" xmlns="http://www.w3.org/2000/svg">
<path fill-rule="evenodd" clip-rule="evenodd" d="M4.85644 14.7713L0.329547 12.9296C0.130451 12.8486 0 12.6537 0 12.4371C0 12.2204 0.130451 12.0254 0.329547 11.9444L8.39605 8.66276V4.4631L5.1296 6.20605C4.87276 6.34308 4.55404 6.24391 4.41833 5.98479C4.28254 5.7256 4.38081 5.40396 4.63757 5.26701L8.67635 3.11198C8.75154 3.07176 8.83567 3.05037 8.92237 3.05037C9.00906 3.05037 9.09319 3.07176 9.16838 3.11198L13.2072 5.26701C13.464 5.40396 13.5623 5.7256 13.4265 5.98479C13.2907 6.24391 12.972 6.34308 12.7152 6.20605L9.44868 4.4631V8.23452L16.4737 5.37665V1.41281L13.2072 3.15568C12.9504 3.29271 12.6317 3.19362 12.4959 2.93443C12.3602 2.67531 12.4584 2.35367 12.7152 2.21664L16.754 0.0616112C16.8292 0.0213969 16.9133 0 17 0C17.0867 0 17.1708 0.0213969 17.246 0.0616112L21.2848 2.21664C21.5416 2.35367 21.6398 2.67531 21.5041 2.93443C21.3683 3.19362 21.0496 3.29271 20.7928 3.15568L17.5263 1.41281V5.37665L24.5513 8.23452V4.4631L21.2848 6.20605C21.028 6.34308 20.7093 6.24391 20.5735 5.98479C20.4377 5.7256 20.536 5.40396 20.7928 5.26701L24.8316 3.11198C24.9068 3.07176 24.9909 3.05037 25.0776 3.05037C25.1643 3.05037 25.2485 3.07176 25.3236 3.11198L29.3624 5.26701C29.6192 5.40396 29.7175 5.7256 29.5817 5.98479C29.446 6.24391 29.1272 6.34308 28.8704 6.20605L25.6039 4.4631V8.66276L33.6704 11.9444C33.8695 12.0254 34 12.2204 34 12.4371C34 12.6537 33.8695 12.8486 33.6704 12.9296L29.1436 14.7713L33.6704 16.6129C33.7048 16.6269 33.7375 16.6445 33.7681 16.6653C33.9121 16.7634 34 16.9279 34 17.1056V21.5768C34 21.7935 33.8695 21.9884 33.6704 22.0694L28.5024 24.1719L33.6704 26.2744C33.8695 26.3554 34 26.5504 34 26.767C34 26.9837 33.8695 27.1786 33.6704 27.2597L17.1968 33.9615C17.0705 34.0128 16.9295 34.0128 16.8032 33.9615L0.329547 27.2597C0.130451 27.1786 0 26.9837 0 26.767C0 26.5504 0.130451 26.3554 0.329547 26.2744L5.49764 24.1719L0.329547 22.0694C0.130451 21.9884 0 21.7935 0 21.5768V17.1056C0 16.9279 0.0878943 16.7634 0.231879 16.6653C0.26248 16.6445 0.295187 16.6269 0.329547 16.6129L4.85644 14.7713ZM8.39605 9.80811L1.93398 12.4371L17 18.5662L32.066 12.4371L25.6039 9.80811V10.6022C25.6039 10.8954 25.3681 11.1334 25.0776 11.1334C24.7871 11.1334 24.5513 10.8954 24.5513 10.6022V9.37986L18.5466 6.93704L17.5263 6.52199V10.9392C17.5263 11.2324 17.2904 11.4703 17 11.4703C16.7095 11.4703 16.4737 11.2324 16.4737 10.9392V6.52199L15.4534 6.93704L9.44868 9.37986V10.6022C9.44868 10.8954 9.21289 11.1334 8.92237 11.1334C8.63192 11.1334 8.39605 10.8954 8.39605 10.6022V9.80811ZM27.7359 15.3439L17.1968 19.6315C17.0705 19.6828 16.9295 19.6828 16.8032 19.6315L6.26411 15.3439L1.93398 17.1056L17 23.2347L32.066 17.1056L27.7359 15.3439ZM32.9474 17.8923L31.6235 18.4309L31.596 21.768C32.4362 21.4262 32.9474 21.2183 32.9474 21.2183V17.8923ZM30.5673 18.8606L28.8036 19.578L28.7762 22.9151C29.4145 22.6555 30.0099 22.4132 30.5398 22.1977L30.5673 18.8606ZM27.7475 20.0077L25.984 20.7251L25.9566 24.0622C26.557 23.818 27.1494 23.577 27.72 23.3448L27.7475 20.0077ZM24.9278 21.1548L23.1637 21.8725L23.1362 25.2096C23.716 24.9738 24.3082 24.7328 24.9003 24.4919L24.9278 21.1548ZM22.1075 22.3022L20.343 23.02L20.3155 26.3572C20.8672 26.1327 21.4611 25.8911 22.0801 25.6393L22.1075 22.3022ZM19.2868 23.4497L17.5263 24.1659V27.4918C17.9529 27.3183 18.5486 27.076 19.2593 26.7869L19.2868 23.4497ZM27.0947 24.7446L17.1968 28.7713C17.0719 28.8221 16.9308 28.8232 16.8032 28.7713L6.90531 24.7446L1.93398 26.767L17 32.8962L32.066 26.767L27.0947 24.7446ZM1.05263 17.8923V21.2183L2.66871 21.8757L2.696 18.5609L1.05263 17.8923ZM3.7178 22.3025L5.49185 23.0243L5.51915 19.7094L3.7451 18.9877L3.7178 22.3025ZM16.4737 24.1659L15.0255 23.5768L14.9982 26.8917L16.4737 27.4918V24.1659ZM13.9763 23.15L12.207 22.4301L12.1797 25.7449L13.9491 26.4648L13.9763 23.15ZM11.1578 22.0033L9.38793 21.2833L9.36063 24.5982L11.1306 25.3181L11.1578 22.0033ZM8.33876 20.8565L6.56832 20.1362L6.54102 23.4511L8.31147 24.1713L8.33876 20.8565Z" fill="#54A548"/>
</svg>
